G04 Layer_Color=65535*
%FSAX44Y44*%
%MOMM*%
G71*
G01*
G75*
%ADD26C,0.6000*%
%ADD27C,0.2500*%
%ADD28C,0.2000*%
%ADD29C,0.5000*%
D26*
X00221000Y00076840D02*
G03*
X00221000Y00076840I-00003000J00000000D01*
G01*
X00382000Y00151500D02*
G03*
X00382000Y00151500I-00003000J00000000D01*
G01*
D27*
X00240250Y00062340D02*
G03*
X00240250Y00062340I-00001250J00000000D01*
G01*
X00396000Y00172500D02*
G03*
X00396000Y00172500I-00001250J00000000D01*
G01*
D28*
X00019608Y00016354D02*
G03*
X00021000Y00158340I00001392J00070986D01*
G01*
X00194000Y00117840D02*
X00228000D01*
X00194000Y00066840D02*
X00228000D01*
X00194000D02*
Y00117840D01*
X00228000Y00066840D02*
Y00117840D01*
X00328000Y00100500D02*
Y00161500D01*
X00389000Y00100500D02*
Y00161500D01*
X00328000Y00100500D02*
X00389000D01*
X00328000Y00161500D02*
X00389000D01*
X00168260Y00126630D02*
Y00174630D01*
Y00126630D02*
X00239380D01*
Y00174630D01*
X00209500D02*
X00239380D01*
X00168260D02*
X00210170D01*
X00112500Y00126340D02*
X00119500D01*
X00281500Y00117500D02*
X00285500D01*
X00281500Y00124500D02*
X00285500D01*
X00140000Y00071340D02*
X00147000D01*
X00140000Y00126340D02*
X00147000D01*
X00333317Y00010800D02*
X00382000D01*
X00305800D02*
X00382000D01*
X00305800Y00061600D02*
X00382000D01*
X00305800Y00010800D02*
Y00061600D01*
X00382000Y00010800D02*
Y00061600D01*
X00281500Y00065840D02*
X00285500D01*
X00281500Y00058840D02*
X00285500D01*
X00281500Y00079500D02*
X00285500D01*
X00281500Y00072500D02*
X00285500D01*
X00281500Y00099500D02*
X00285500D01*
X00281500Y00092500D02*
X00285500D01*
X00282230Y00139690D02*
X00284770D01*
X00282230Y00147310D02*
X00284770D01*
X00230400Y00010800D02*
X00281200D01*
Y00036200D01*
X00230400D02*
X00281200D01*
X00230400Y00010800D02*
Y00036200D01*
X00314000Y00187500D02*
X00318000D01*
X00314000Y00194500D02*
X00318000D01*
X00247900Y00158300D02*
X00298700D01*
Y00183700D01*
X00247900D02*
X00298700D01*
X00247900Y00158300D02*
Y00183700D01*
X00197500Y00153832D02*
X00202832Y00148500D01*
X00200166Y00151166D01*
X00202832Y00153832D01*
X00197500Y00148500D01*
X00205497D02*
X00208163D01*
X00206830D01*
Y00156497D01*
X00205497Y00155164D01*
X00213832Y00047664D02*
X00212499Y00048997D01*
X00209833D01*
X00208500Y00047664D01*
Y00042333D01*
X00209833Y00041000D01*
X00212499D01*
X00213832Y00042333D01*
X00216497Y00041000D02*
X00219163D01*
X00217830D01*
Y00048997D01*
X00216497Y00047664D01*
X00258832Y00195165D02*
X00257499Y00196497D01*
X00254833D01*
X00253500Y00195165D01*
Y00189833D01*
X00254833Y00188500D01*
X00257499D01*
X00258832Y00189833D01*
X00266829Y00188500D02*
X00261497D01*
X00266829Y00193832D01*
Y00195165D01*
X00265496Y00196497D01*
X00262830D01*
X00261497Y00195165D01*
X00181332Y00020164D02*
X00179999Y00021497D01*
X00177333D01*
X00176000Y00020164D01*
Y00014833D01*
X00177333Y00013500D01*
X00179999D01*
X00181332Y00014833D01*
X00183997Y00020164D02*
X00185330Y00021497D01*
X00187996D01*
X00189329Y00020164D01*
Y00018832D01*
X00187996Y00017499D01*
X00186663D01*
X00187996D01*
X00189329Y00016166D01*
Y00014833D01*
X00187996Y00013500D01*
X00185330D01*
X00183997Y00014833D01*
X00161332Y00020164D02*
X00159999Y00021497D01*
X00157333D01*
X00156000Y00020164D01*
Y00014833D01*
X00157333Y00013500D01*
X00159999D01*
X00161332Y00014833D01*
X00167996Y00013500D02*
Y00021497D01*
X00163997Y00017499D01*
X00169329D01*
X00383832Y00072664D02*
X00382499Y00073997D01*
X00379833D01*
X00378500Y00072664D01*
Y00067333D01*
X00379833Y00066000D01*
X00382499D01*
X00383832Y00067333D01*
X00391829Y00073997D02*
X00386497D01*
Y00069999D01*
X00389163Y00071332D01*
X00390496D01*
X00391829Y00069999D01*
Y00067333D01*
X00390496Y00066000D01*
X00387830D01*
X00386497Y00067333D01*
X00128332Y00076665D02*
X00126999Y00077997D01*
X00124333D01*
X00123000Y00076665D01*
Y00071333D01*
X00124333Y00070000D01*
X00126999D01*
X00128332Y00071333D01*
X00136329Y00077997D02*
X00133663Y00076665D01*
X00130997Y00073999D01*
Y00071333D01*
X00132330Y00070000D01*
X00134996D01*
X00136329Y00071333D01*
Y00072666D01*
X00134996Y00073999D01*
X00130997D01*
X00110703Y00076372D02*
X00109370Y00077705D01*
X00106705D01*
X00105372Y00076372D01*
Y00071040D01*
X00106705Y00069707D01*
X00109370D01*
X00110703Y00071040D01*
X00113369Y00077705D02*
X00118701D01*
Y00076372D01*
X00113369Y00071040D01*
Y00069707D01*
X00145709Y00159468D02*
X00144377Y00160801D01*
X00141711D01*
X00140378Y00159468D01*
Y00154137D01*
X00141711Y00152804D01*
X00144377D01*
X00145709Y00154137D01*
X00148375Y00159468D02*
X00149708Y00160801D01*
X00152374D01*
X00153707Y00159468D01*
Y00158136D01*
X00152374Y00156803D01*
X00153707Y00155470D01*
Y00154137D01*
X00152374Y00152804D01*
X00149708D01*
X00148375Y00154137D01*
Y00155470D01*
X00149708Y00156803D01*
X00148375Y00158136D01*
Y00159468D01*
X00149708Y00156803D02*
X00152374D01*
X00201332Y00020164D02*
X00199999Y00021497D01*
X00197333D01*
X00196000Y00020164D01*
Y00014833D01*
X00197333Y00013500D01*
X00199999D01*
X00201332Y00014833D01*
X00203997D02*
X00205330Y00013500D01*
X00207996D01*
X00209329Y00014833D01*
Y00020164D01*
X00207996Y00021497D01*
X00205330D01*
X00203997Y00020164D01*
Y00018832D01*
X00205330Y00017499D01*
X00209329D01*
X00246000Y00148997D02*
Y00141000D01*
X00249999D01*
X00251332Y00142333D01*
Y00147664D01*
X00249999Y00148997D01*
X00246000D01*
X00253997Y00141000D02*
X00256663D01*
X00255330D01*
Y00148997D01*
X00253997Y00147664D01*
X00018832Y00127837D02*
X00013500D01*
Y00119840D01*
X00018832D01*
X00013500Y00123839D02*
X00016166D01*
X00021497Y00119840D02*
X00024163D01*
X00022830D01*
Y00127837D01*
X00021497Y00126504D01*
X00122000Y00060997D02*
Y00053000D01*
X00127332D01*
X00129997D02*
X00132663D01*
X00131330D01*
Y00060997D01*
X00129997Y00059665D01*
X00153000Y00116997D02*
Y00109000D01*
X00158332D01*
X00166329D02*
X00160997D01*
X00166329Y00114332D01*
Y00115665D01*
X00164996Y00116997D01*
X00162330D01*
X00160997Y00115665D01*
X00110000Y00139997D02*
Y00132000D01*
X00115332D01*
X00117997Y00138665D02*
X00119330Y00139997D01*
X00121996D01*
X00123329Y00138665D01*
Y00137332D01*
X00121996Y00135999D01*
X00120663D01*
X00121996D01*
X00123329Y00134666D01*
Y00133333D01*
X00121996Y00132000D01*
X00119330D01*
X00117997Y00133333D01*
X00214000Y00021000D02*
Y00028997D01*
X00217999D01*
X00219332Y00027664D01*
Y00024999D01*
X00217999Y00023666D01*
X00214000D01*
X00221997Y00021000D02*
X00224663D01*
X00223330D01*
Y00028997D01*
X00221997Y00027664D01*
X00387500Y00032889D02*
Y00040887D01*
X00391499D01*
X00392832Y00039554D01*
Y00036888D01*
X00391499Y00035555D01*
X00387500D01*
X00400829Y00032889D02*
X00395497D01*
X00400829Y00038221D01*
Y00039554D01*
X00399496Y00040887D01*
X00396830D01*
X00395497Y00039554D01*
X00323500Y00168500D02*
X00315502D01*
Y00172499D01*
X00316835Y00173832D01*
X00319501D01*
X00320834Y00172499D01*
Y00168500D01*
Y00171166D02*
X00323500Y00173832D01*
Y00176497D02*
Y00179163D01*
Y00177830D01*
X00315502D01*
X00316835Y00176497D01*
X00300000Y00078500D02*
Y00086497D01*
X00303999D01*
X00305332Y00085164D01*
Y00082499D01*
X00303999Y00081166D01*
X00300000D01*
X00302666D02*
X00305332Y00078500D01*
X00313329D02*
X00307997D01*
X00313329Y00083832D01*
Y00085164D01*
X00311996Y00086497D01*
X00309330D01*
X00307997Y00085164D01*
X00255000Y00093000D02*
Y00100997D01*
X00258999D01*
X00260332Y00099664D01*
Y00096999D01*
X00258999Y00095666D01*
X00255000D01*
X00257666D02*
X00260332Y00093000D01*
X00262997Y00099664D02*
X00264330Y00100997D01*
X00266996D01*
X00268329Y00099664D01*
Y00098332D01*
X00266996Y00096999D01*
X00265663D01*
X00266996D01*
X00268329Y00095666D01*
Y00094333D01*
X00266996Y00093000D01*
X00264330D01*
X00262997Y00094333D01*
X00253500Y00058500D02*
Y00066497D01*
X00257499D01*
X00258832Y00065164D01*
Y00062499D01*
X00257499Y00061166D01*
X00253500D01*
X00256166D02*
X00258832Y00058500D01*
X00265496D02*
Y00066497D01*
X00261497Y00062499D01*
X00266829D01*
X00252750Y00116000D02*
Y00123997D01*
X00256749D01*
X00258082Y00122664D01*
Y00119999D01*
X00256749Y00118666D01*
X00252750D01*
X00255416D02*
X00258082Y00116000D01*
X00266079Y00123997D02*
X00260747D01*
Y00119999D01*
X00263413Y00121332D01*
X00264746D01*
X00266079Y00119999D01*
Y00117333D01*
X00264746Y00116000D01*
X00262080D01*
X00260747Y00117333D01*
X00343500Y00123997D02*
Y00117333D01*
X00344833Y00116000D01*
X00347499D01*
X00348832Y00117333D01*
Y00123997D01*
X00351497Y00116000D02*
X00354163D01*
X00352830D01*
Y00123997D01*
X00351497Y00122664D01*
X00205000Y00062997D02*
Y00056333D01*
X00206333Y00055000D01*
X00208999D01*
X00210332Y00056333D01*
Y00062997D01*
X00218329Y00055000D02*
X00212997D01*
X00218329Y00060332D01*
Y00061665D01*
X00216996Y00062997D01*
X00214330D01*
X00212997Y00061665D01*
X00228500Y00183500D02*
Y00191497D01*
X00232499D01*
X00233832Y00190165D01*
Y00187499D01*
X00232499Y00186166D01*
X00228500D01*
X00236497Y00190165D02*
X00237830Y00191497D01*
X00240496D01*
X00241829Y00190165D01*
Y00188832D01*
X00240496Y00187499D01*
X00239163D01*
X00240496D01*
X00241829Y00186166D01*
Y00184833D01*
X00240496Y00183500D01*
X00237830D01*
X00236497Y00184833D01*
X00298180Y00018420D02*
X00300846D01*
X00299513D01*
Y00026417D01*
X00298180Y00025085D01*
X00298432Y00043820D02*
X00293100D01*
X00298432Y00049152D01*
Y00050484D01*
X00297099Y00051817D01*
X00294433D01*
X00293100Y00050484D01*
X00392832Y00023997D02*
X00387500D01*
Y00019999D01*
X00390166Y00021332D01*
X00391499D01*
X00392832Y00019999D01*
Y00017333D01*
X00391499Y00016000D01*
X00388833D01*
X00387500Y00017333D01*
X00401332Y00061497D02*
X00398666Y00060164D01*
X00396000Y00057499D01*
Y00054833D01*
X00397333Y00053500D01*
X00399999D01*
X00401332Y00054833D01*
Y00056166D01*
X00399999Y00057499D01*
X00396000D01*
D29*
X00017000Y00169000D02*
Y00188994D01*
X00030329Y00169000D01*
Y00188994D01*
X00036994D02*
X00043658D01*
X00040326D01*
Y00169000D01*
X00036994D01*
X00043658D01*
X00053655D02*
Y00188994D01*
X00063652D01*
X00066984Y00185661D01*
Y00178997D01*
X00063652Y00175665D01*
X00053655D01*
X00060319D02*
X00066984Y00169000D01*
M02*
