G04 Layer_Color=32896*
%FSAX44Y44*%
%MOMM*%
G71*
G01*
G75*
%ADD42C,0.2032*%
D42*
X00238000Y00151000D02*
Y00158617D01*
X00234191D01*
X00232922Y00157348D01*
Y00154809D01*
X00234191Y00153539D01*
X00238000D01*
X00235461D02*
X00232922Y00151000D01*
X00225304Y00158617D02*
X00230382D01*
Y00154809D01*
X00227843D01*
X00230382D01*
Y00151000D01*
X00215147D02*
Y00158617D01*
X00210069Y00151000D01*
Y00158617D01*
X00206260Y00151000D02*
X00203721D01*
X00202451Y00152270D01*
Y00154809D01*
X00203721Y00156078D01*
X00206260D01*
X00207530Y00154809D01*
Y00152270D01*
X00206260Y00151000D01*
X00194834Y00158617D02*
Y00151000D01*
X00198643D01*
X00199912Y00152270D01*
Y00154809D01*
X00198643Y00156078D01*
X00194834D01*
X00188486Y00151000D02*
X00191025D01*
X00192295Y00152270D01*
Y00154809D01*
X00191025Y00156078D01*
X00188486D01*
X00187216Y00154809D01*
Y00153539D01*
X00192295D01*
X00177060Y00154809D02*
X00171981D01*
X00161825Y00151000D02*
Y00158617D01*
X00158016D01*
X00156746Y00157348D01*
Y00154809D01*
X00158016Y00153539D01*
X00161825D01*
X00159285D02*
X00156746Y00151000D01*
X00149129Y00157348D02*
X00150398Y00158617D01*
X00152937D01*
X00154207Y00157348D01*
Y00156078D01*
X00152937Y00154809D01*
X00150398D01*
X00149129Y00153539D01*
Y00152270D01*
X00150398Y00151000D01*
X00152937D01*
X00154207Y00152270D01*
X00138972Y00154809D02*
X00133894D01*
X00123737Y00156078D02*
X00121198Y00151000D01*
X00118659Y00156078D01*
X00116119Y00151000D02*
X00113580D01*
X00114850D01*
Y00158617D01*
X00116119Y00157348D01*
M02*
