G04 Layer_Color=8388736*
%FSAX44Y44*%
%MOMM*%
G71*
G01*
G75*
%ADD30O,1.6032X0.5532*%
%ADD31O,1.5532X0.7532*%
%ADD32O,0.7532X1.5532*%
%ADD33R,2.0032X1.4032*%
%ADD34R,1.1032X1.0032*%
%ADD35R,1.0032X1.1032*%
%ADD36R,0.9032X1.1032*%
%ADD37R,1.0032X1.0032*%
%ADD38C,1.7032*%
%ADD39R,1.7032X1.7032*%
%ADD40C,3.2032*%
%ADD41C,2.7032*%
D30*
X00183000Y00115090D02*
D03*
Y00108590D02*
D03*
Y00102090D02*
D03*
Y00095590D02*
D03*
Y00089090D02*
D03*
Y00082590D02*
D03*
Y00076090D02*
D03*
Y00069590D02*
D03*
X00239000Y00115090D02*
D03*
Y00108590D02*
D03*
Y00102090D02*
D03*
Y00095590D02*
D03*
Y00089090D02*
D03*
Y00082590D02*
D03*
Y00076090D02*
D03*
Y00069590D02*
D03*
D31*
X00400000Y00159000D02*
D03*
Y00151000D02*
D03*
Y00143000D02*
D03*
Y00135000D02*
D03*
Y00127000D02*
D03*
Y00119000D02*
D03*
Y00111000D02*
D03*
Y00103000D02*
D03*
X00317000D02*
D03*
Y00111000D02*
D03*
Y00119000D02*
D03*
Y00127000D02*
D03*
Y00135000D02*
D03*
Y00143000D02*
D03*
Y00151000D02*
D03*
Y00159000D02*
D03*
D32*
X00386500Y00089500D02*
D03*
X00378500D02*
D03*
X00370500D02*
D03*
X00362500D02*
D03*
X00354500D02*
D03*
X00346500D02*
D03*
X00338500D02*
D03*
X00330500D02*
D03*
Y00172500D02*
D03*
X00338500D02*
D03*
X00346500D02*
D03*
X00354500D02*
D03*
X00362500D02*
D03*
X00370500D02*
D03*
X00378500D02*
D03*
X00386500D02*
D03*
D33*
X00223500Y00138630D02*
D03*
Y00162630D02*
D03*
X00183500Y00138630D02*
D03*
Y00162630D02*
D03*
D34*
X00116000Y00119340D02*
D03*
Y00105340D02*
D03*
X00201000Y00031000D02*
D03*
Y00045000D02*
D03*
X00143500Y00064340D02*
D03*
Y00050340D02*
D03*
Y00119340D02*
D03*
Y00105340D02*
D03*
X00181000Y00045000D02*
D03*
Y00031000D02*
D03*
X00163500Y00045000D02*
D03*
Y00031000D02*
D03*
D35*
X00290500Y00193500D02*
D03*
X00276500D02*
D03*
X00158000Y00139840D02*
D03*
X00144000D02*
D03*
X00115500Y00087340D02*
D03*
X00101500D02*
D03*
X00143000D02*
D03*
X00129000D02*
D03*
X00354000Y00071000D02*
D03*
X00368000D02*
D03*
X00245500Y00046000D02*
D03*
X00231500D02*
D03*
D36*
X00291000Y00121000D02*
D03*
X00276000D02*
D03*
X00276000Y00062340D02*
D03*
X00291000D02*
D03*
X00276000Y00076000D02*
D03*
X00291000D02*
D03*
X00276000Y00096000D02*
D03*
X00291000D02*
D03*
X00323500Y00191000D02*
D03*
X00308500D02*
D03*
D37*
X00291000Y00143500D02*
D03*
X00276000D02*
D03*
D38*
X00369300Y00048900D02*
D03*
Y00023500D02*
D03*
X00343900Y00048900D02*
D03*
Y00023500D02*
D03*
X00318500Y00048900D02*
D03*
X00243100Y00023500D02*
D03*
X00260600Y00171000D02*
D03*
D39*
X00318500Y00023500D02*
D03*
X00268500D02*
D03*
X00286000Y00171000D02*
D03*
D40*
X00426000Y00023000D02*
D03*
Y00189000D02*
D03*
X00096000Y00179840D02*
D03*
Y00024840D02*
D03*
D41*
X00021000Y00087340D02*
D03*
M02*
