G04 Layer_Physical_Order=2*
G04 Layer_Color=16711680*
%FSAX44Y44*%
%MOMM*%
G71*
G01*
G75*
%ADD18C,0.2540*%
%ADD19C,0.4000*%
%ADD21C,1.5000*%
%ADD22R,1.5000X1.5000*%
%ADD23C,3.0000*%
%ADD24C,2.5000*%
%ADD25C,0.7366*%
G36*
X00446115Y00003884D02*
X00430298D01*
X00430001Y00005885D01*
X00432745Y00006717D01*
X00435792Y00008346D01*
X00438463Y00010537D01*
X00440654Y00013208D01*
X00442283Y00016255D01*
X00443286Y00019562D01*
X00443500Y00021730D01*
X00408500D01*
X00408714Y00019562D01*
X00409717Y00016255D01*
X00411345Y00013208D01*
X00413537Y00010537D01*
X00416208Y00008346D01*
X00419255Y00006717D01*
X00421999Y00005885D01*
X00421702Y00003884D01*
X00003884D01*
Y00206115D01*
X00416570D01*
X00417071Y00204116D01*
X00416208Y00203654D01*
X00413537Y00201463D01*
X00411345Y00198792D01*
X00409717Y00195745D01*
X00408714Y00192439D01*
X00408500Y00190270D01*
X00443500D01*
X00443286Y00192439D01*
X00442283Y00195745D01*
X00440654Y00198792D01*
X00438463Y00201463D01*
X00435792Y00203654D01*
X00434930Y00204116D01*
X00435430Y00206115D01*
X00446115D01*
Y00003884D01*
D02*
G37*
%LPC*%
G36*
X00371770Y00194092D02*
Y00189270D01*
X00376592D01*
X00376362Y00190428D01*
X00374986Y00192487D01*
X00372928Y00193862D01*
X00371770Y00194092D01*
D02*
G37*
G36*
X00369230D02*
X00368072Y00193862D01*
X00366013Y00192487D01*
X00364638Y00190428D01*
X00364408Y00189270D01*
X00369230D01*
Y00194092D01*
D02*
G37*
G36*
X00355770Y00193592D02*
Y00188770D01*
X00360592D01*
X00360362Y00189928D01*
X00358987Y00191987D01*
X00356928Y00193362D01*
X00355770Y00193592D01*
D02*
G37*
G36*
X00353230D02*
X00352072Y00193362D01*
X00350013Y00191987D01*
X00348638Y00189928D01*
X00348408Y00188770D01*
X00353230D01*
Y00193592D01*
D02*
G37*
G36*
X00206270Y00189592D02*
Y00184770D01*
X00211092D01*
X00210862Y00185928D01*
X00209487Y00187987D01*
X00207428Y00189362D01*
X00206270Y00189592D01*
D02*
G37*
G36*
X00203730D02*
X00202572Y00189362D01*
X00200513Y00187987D01*
X00199138Y00185928D01*
X00198908Y00184770D01*
X00203730D01*
Y00189592D01*
D02*
G37*
G36*
X00191270D02*
Y00184770D01*
X00196092D01*
X00195862Y00185928D01*
X00194487Y00187987D01*
X00192428Y00189362D01*
X00191270Y00189592D01*
D02*
G37*
G36*
X00188730D02*
X00187572Y00189362D01*
X00185513Y00187987D01*
X00184138Y00185928D01*
X00183908Y00184770D01*
X00188730D01*
Y00189592D01*
D02*
G37*
G36*
X00176270D02*
Y00184770D01*
X00181092D01*
X00180862Y00185928D01*
X00179487Y00187987D01*
X00177428Y00189362D01*
X00176270Y00189592D01*
D02*
G37*
G36*
X00173730D02*
X00172572Y00189362D01*
X00170513Y00187987D01*
X00169138Y00185928D01*
X00168908Y00184770D01*
X00173730D01*
Y00189592D01*
D02*
G37*
G36*
X00376592Y00186730D02*
X00371770D01*
Y00181908D01*
X00372928Y00182138D01*
X00374986Y00183514D01*
X00376362Y00185572D01*
X00376592Y00186730D01*
D02*
G37*
G36*
X00369230D02*
X00364408D01*
X00364638Y00185572D01*
X00366013Y00183514D01*
X00368072Y00182138D01*
X00369230Y00181908D01*
Y00186730D01*
D02*
G37*
G36*
X00360592Y00186230D02*
X00355770D01*
Y00181408D01*
X00356928Y00181638D01*
X00358987Y00183013D01*
X00360362Y00185072D01*
X00360592Y00186230D01*
D02*
G37*
G36*
X00353230D02*
X00348408D01*
X00348638Y00185072D01*
X00350013Y00183013D01*
X00352072Y00181638D01*
X00353230Y00181408D01*
Y00186230D01*
D02*
G37*
G36*
X00097270Y00197340D02*
Y00181110D01*
X00113500D01*
X00113286Y00183278D01*
X00112283Y00186585D01*
X00110654Y00189632D01*
X00108463Y00192303D01*
X00105792Y00194494D01*
X00102745Y00196123D01*
X00099438Y00197126D01*
X00097270Y00197340D01*
D02*
G37*
G36*
X00094730D02*
X00092562Y00197126D01*
X00089255Y00196123D01*
X00086208Y00194494D01*
X00083537Y00192303D01*
X00081345Y00189632D01*
X00079717Y00186585D01*
X00078714Y00183278D01*
X00078500Y00181110D01*
X00094730D01*
Y00197340D01*
D02*
G37*
G36*
X00211092Y00182230D02*
X00206270D01*
Y00177408D01*
X00207428Y00177638D01*
X00209487Y00179014D01*
X00210862Y00181072D01*
X00211092Y00182230D01*
D02*
G37*
G36*
X00203730D02*
X00198908D01*
X00199138Y00181072D01*
X00200513Y00179014D01*
X00202572Y00177638D01*
X00203730Y00177408D01*
Y00182230D01*
D02*
G37*
G36*
X00196092D02*
X00191270D01*
Y00177408D01*
X00192428Y00177638D01*
X00194487Y00179014D01*
X00195862Y00181072D01*
X00196092Y00182230D01*
D02*
G37*
G36*
X00188730D02*
X00183908D01*
X00184138Y00181072D01*
X00185513Y00179014D01*
X00187572Y00177638D01*
X00188730Y00177408D01*
Y00182230D01*
D02*
G37*
G36*
X00181092D02*
X00176270D01*
Y00177408D01*
X00177428Y00177638D01*
X00179487Y00179014D01*
X00180862Y00181072D01*
X00181092Y00182230D01*
D02*
G37*
G36*
X00173730D02*
X00168908D01*
X00169138Y00181072D01*
X00170513Y00179014D01*
X00172572Y00177638D01*
X00173730Y00177408D01*
Y00182230D01*
D02*
G37*
G36*
X00261870Y00180959D02*
Y00172270D01*
X00270559D01*
X00270382Y00173621D01*
X00269370Y00176063D01*
X00267761Y00178161D01*
X00265663Y00179770D01*
X00263221Y00180782D01*
X00261870Y00180959D01*
D02*
G37*
G36*
X00259330D02*
X00257979Y00180782D01*
X00255537Y00179770D01*
X00253439Y00178161D01*
X00251830Y00176063D01*
X00250818Y00173621D01*
X00250641Y00172270D01*
X00259330D01*
Y00180959D01*
D02*
G37*
G36*
X00443500Y00187730D02*
X00427270D01*
Y00171500D01*
X00429439Y00171714D01*
X00432745Y00172717D01*
X00435792Y00174345D01*
X00438463Y00176537D01*
X00440654Y00179208D01*
X00442283Y00182255D01*
X00443286Y00185562D01*
X00443500Y00187730D01*
D02*
G37*
G36*
X00424730D02*
X00408500D01*
X00408714Y00185562D01*
X00409717Y00182255D01*
X00411345Y00179208D01*
X00413537Y00176537D01*
X00416208Y00174345D01*
X00419255Y00172717D01*
X00422562Y00171714D01*
X00424730Y00171500D01*
Y00187730D01*
D02*
G37*
G36*
X00113500Y00178570D02*
X00097270D01*
Y00162340D01*
X00099438Y00162554D01*
X00102745Y00163557D01*
X00105792Y00165185D01*
X00108463Y00167377D01*
X00110654Y00170048D01*
X00112283Y00173095D01*
X00113286Y00176402D01*
X00113500Y00178570D01*
D02*
G37*
G36*
X00094730D02*
X00078500D01*
X00078714Y00176402D01*
X00079717Y00173095D01*
X00081345Y00170048D01*
X00083537Y00167377D01*
X00086208Y00165185D01*
X00089255Y00163557D01*
X00092562Y00162554D01*
X00094730Y00162340D01*
Y00178570D01*
D02*
G37*
G36*
X00270559Y00169730D02*
X00261870D01*
Y00161041D01*
X00263221Y00161218D01*
X00265663Y00162230D01*
X00267761Y00163839D01*
X00269370Y00165937D01*
X00270382Y00168379D01*
X00270559Y00169730D01*
D02*
G37*
G36*
X00259330D02*
X00250641D01*
X00250818Y00168379D01*
X00251830Y00165937D01*
X00253439Y00163839D01*
X00255537Y00162230D01*
X00257979Y00161218D01*
X00259330Y00161041D01*
Y00169730D01*
D02*
G37*
G36*
X00100270Y00159092D02*
Y00154270D01*
X00105092D01*
X00104862Y00155428D01*
X00103486Y00157486D01*
X00101428Y00158862D01*
X00100270Y00159092D01*
D02*
G37*
G36*
X00097730D02*
X00096572Y00158862D01*
X00094514Y00157486D01*
X00093138Y00155428D01*
X00092908Y00154270D01*
X00097730D01*
Y00159092D01*
D02*
G37*
G36*
X00295024Y00180024D02*
X00276976D01*
Y00161976D01*
X00295024D01*
Y00168151D01*
X00394820D01*
X00410554Y00152417D01*
X00410168Y00150478D01*
X00410573Y00148446D01*
X00411723Y00146723D01*
X00413446Y00145573D01*
X00415477Y00145169D01*
X00417509Y00145573D01*
X00419231Y00146723D01*
X00420382Y00148446D01*
X00420787Y00150478D01*
X00420382Y00152509D01*
X00419231Y00154232D01*
X00417509Y00155382D01*
X00415477Y00155787D01*
X00415281Y00155747D01*
X00398014Y00173014D01*
X00397090Y00173632D01*
X00396000Y00173849D01*
X00396000Y00173849D01*
X00295024D01*
Y00180024D01*
D02*
G37*
G36*
X00267269Y00149592D02*
Y00144770D01*
X00272092D01*
X00271861Y00145928D01*
X00270486Y00147986D01*
X00268428Y00149362D01*
X00267269Y00149592D01*
D02*
G37*
G36*
X00264729D02*
X00263571Y00149362D01*
X00261513Y00147986D01*
X00260138Y00145928D01*
X00259907Y00144770D01*
X00264729D01*
Y00149592D01*
D02*
G37*
G36*
X00353500Y00143809D02*
X00351468Y00143405D01*
X00349746Y00142254D01*
X00349141Y00141349D01*
X00273956D01*
X00272905Y00142230D01*
X00259907D01*
X00260138Y00141072D01*
X00261513Y00139013D01*
X00263403Y00137750D01*
X00263526Y00137350D01*
X00263558Y00137057D01*
X00263524Y00135608D01*
X00262245Y00134754D01*
X00261094Y00133031D01*
X00260690Y00131000D01*
X00261094Y00128968D01*
X00262245Y00127246D01*
X00263968Y00126095D01*
X00265999Y00125691D01*
X00268031Y00126095D01*
X00269753Y00127246D01*
X00270904Y00128968D01*
X00271308Y00131000D01*
X00271096Y00132068D01*
X00274680Y00135651D01*
X00349141D01*
X00349746Y00134746D01*
X00351468Y00133595D01*
X00353500Y00133191D01*
X00355532Y00133595D01*
X00357254Y00134746D01*
X00358405Y00136468D01*
X00358809Y00138500D01*
X00358405Y00140532D01*
X00357254Y00142254D01*
X00355532Y00143405D01*
X00353500Y00143809D01*
D02*
G37*
G36*
X00105092Y00151730D02*
X00092908D01*
X00093138Y00150572D01*
X00094514Y00148513D01*
X00096572Y00147138D01*
X00097168Y00147020D01*
Y00144980D01*
X00096572Y00144862D01*
X00094514Y00143486D01*
X00093138Y00141428D01*
X00092908Y00140270D01*
X00105092D01*
X00104862Y00141428D01*
X00103486Y00143486D01*
X00101428Y00144862D01*
X00100833Y00144980D01*
Y00147020D01*
X00101428Y00147138D01*
X00103486Y00148513D01*
X00104862Y00150572D01*
X00105092Y00151730D01*
D02*
G37*
G36*
X00366000Y00138809D02*
X00363968Y00138405D01*
X00362246Y00137254D01*
X00361095Y00135532D01*
X00360691Y00133500D01*
X00360903Y00132432D01*
X00357320Y00128849D01*
X00287455D01*
X00287455Y00128849D01*
X00286364Y00128632D01*
X00285440Y00128014D01*
X00260431Y00103005D01*
X00259813Y00102080D01*
X00259596Y00100990D01*
X00259596Y00100990D01*
Y00088259D01*
X00258691Y00087654D01*
X00257540Y00085932D01*
X00257136Y00083900D01*
X00257540Y00081868D01*
X00258691Y00080146D01*
X00260413Y00078995D01*
X00262445Y00078591D01*
X00264477Y00078995D01*
X00266199Y00080146D01*
X00267350Y00081868D01*
X00267754Y00083900D01*
X00267350Y00085932D01*
X00266199Y00087654D01*
X00265294Y00088259D01*
Y00099810D01*
X00273762Y00108279D01*
X00275876Y00107565D01*
X00276094Y00106468D01*
X00277245Y00104746D01*
X00278968Y00103595D01*
X00280999Y00103191D01*
X00283031Y00103595D01*
X00284753Y00104746D01*
X00285904Y00106468D01*
X00286308Y00108500D01*
X00286096Y00109568D01*
X00288990Y00112462D01*
X00289883Y00112318D01*
X00290640Y00111203D01*
X00291011Y00110111D01*
X00290691Y00108500D01*
X00291095Y00106468D01*
X00292246Y00104746D01*
X00293151Y00104141D01*
Y00078500D01*
X00293151Y00078500D01*
X00293368Y00077410D01*
X00293986Y00076486D01*
X00298403Y00072068D01*
X00298191Y00071000D01*
X00298595Y00068968D01*
X00299746Y00067246D01*
X00301468Y00066095D01*
X00303500Y00065691D01*
X00305532Y00066095D01*
X00307254Y00067246D01*
X00307859Y00068151D01*
X00320620D01*
X00335813Y00052958D01*
X00335108Y00051256D01*
X00334798Y00048900D01*
X00335108Y00046544D01*
X00336017Y00044349D01*
X00337464Y00042464D01*
X00337497Y00042439D01*
X00336818Y00040439D01*
X00332590D01*
X00331500Y00040222D01*
X00330576Y00039604D01*
X00330575Y00039604D01*
X00323495Y00032524D01*
X00311386D01*
X00310034Y00032524D01*
X00309014Y00034333D01*
X00315186Y00040505D01*
X00316144Y00040108D01*
X00318500Y00039798D01*
X00320856Y00040108D01*
X00323051Y00041018D01*
X00324936Y00042464D01*
X00326382Y00044349D01*
X00327292Y00046544D01*
X00327602Y00048900D01*
X00327292Y00051256D01*
X00326382Y00053451D01*
X00324936Y00055336D01*
X00323051Y00056782D01*
X00320856Y00057692D01*
X00318500Y00058002D01*
X00316144Y00057692D01*
X00313949Y00056782D01*
X00312064Y00055336D01*
X00310618Y00053451D01*
X00309708Y00051256D01*
X00309398Y00048900D01*
X00309708Y00046544D01*
X00310105Y00045586D01*
X00302362Y00037843D01*
X00279250D01*
X00277875Y00037569D01*
X00276709Y00036791D01*
X00272443Y00032524D01*
X00259476D01*
Y00014476D01*
X00277524D01*
Y00027443D01*
X00280738Y00030657D01*
X00303850D01*
X00305225Y00030931D01*
X00306391Y00031709D01*
X00307667Y00032986D01*
X00309476Y00031966D01*
X00309476Y00030755D01*
Y00015849D01*
X00309476Y00014476D01*
X00307736Y00013849D01*
X00297492D01*
X00295983Y00015610D01*
X00295999Y00015690D01*
X00295595Y00017722D01*
X00294444Y00019444D01*
X00292722Y00020595D01*
X00290690Y00020999D01*
X00288658Y00020595D01*
X00286936Y00019444D01*
X00285785Y00017722D01*
X00285381Y00015690D01*
X00285785Y00013658D01*
X00286936Y00011936D01*
X00288658Y00010785D01*
X00290690Y00010381D01*
X00291758Y00010593D01*
X00293365Y00008986D01*
X00293366Y00008986D01*
X00294290Y00008368D01*
X00295380Y00008151D01*
X00295380Y00008151D01*
X00372795D01*
X00372795Y00008151D01*
X00373885Y00008368D01*
X00374809Y00008986D01*
X00393014Y00027191D01*
X00393014Y00027191D01*
X00393632Y00028115D01*
X00393849Y00029205D01*
X00393849Y00029205D01*
Y00046641D01*
X00394754Y00047246D01*
X00395905Y00048968D01*
X00396309Y00051000D01*
X00395905Y00053032D01*
X00394754Y00054754D01*
X00393032Y00055905D01*
X00391000Y00056309D01*
X00388968Y00055905D01*
X00387246Y00054754D01*
X00386095Y00053032D01*
X00385691Y00051000D01*
X00386095Y00048968D01*
X00387246Y00047246D01*
X00388151Y00046641D01*
Y00030385D01*
X00380291Y00022525D01*
X00378396Y00023459D01*
X00378402Y00023500D01*
X00378092Y00025856D01*
X00377182Y00028051D01*
X00375736Y00029936D01*
X00373851Y00031382D01*
X00371656Y00032292D01*
X00369300Y00032602D01*
X00366944Y00032292D01*
X00364749Y00031382D01*
X00362864Y00029936D01*
X00361418Y00028051D01*
X00360508Y00025856D01*
X00360198Y00023500D01*
X00360508Y00021144D01*
X00361418Y00018949D01*
X00362864Y00017064D01*
X00364448Y00015849D01*
X00364312Y00014702D01*
X00363905Y00013849D01*
X00349295D01*
X00348888Y00014702D01*
X00348752Y00015849D01*
X00350336Y00017064D01*
X00351782Y00018949D01*
X00352692Y00021144D01*
X00353002Y00023500D01*
X00352692Y00025856D01*
X00351782Y00028051D01*
X00350336Y00029936D01*
X00348451Y00031382D01*
X00346256Y00032292D01*
X00343900Y00032602D01*
X00341544Y00032292D01*
X00339349Y00031382D01*
X00337464Y00029936D01*
X00336017Y00028051D01*
X00335108Y00025856D01*
X00334798Y00023500D01*
X00335108Y00021144D01*
X00336017Y00018949D01*
X00337464Y00017064D01*
X00339048Y00015849D01*
X00338912Y00014702D01*
X00338505Y00013849D01*
X00329264D01*
X00327524Y00014476D01*
X00327524Y00015849D01*
Y00028495D01*
X00333770Y00034741D01*
X00348585D01*
X00348585Y00034741D01*
X00349675Y00034958D01*
X00350599Y00035576D01*
X00357224Y00042201D01*
X00357224Y00042201D01*
X00357842Y00043125D01*
X00358059Y00044215D01*
Y00044577D01*
X00360059Y00044975D01*
X00360530Y00043837D01*
X00362139Y00041739D01*
X00364237Y00040130D01*
X00366679Y00039118D01*
X00368030Y00038941D01*
Y00048900D01*
Y00058859D01*
X00366679Y00058682D01*
X00364237Y00057670D01*
X00362139Y00056061D01*
X00360530Y00053963D01*
X00360059Y00052825D01*
X00358059Y00053223D01*
Y00055790D01*
X00357842Y00056880D01*
X00357224Y00057804D01*
X00357224Y00057804D01*
X00332014Y00083014D01*
X00331090Y00083632D01*
X00330000Y00083849D01*
X00330000Y00083849D01*
X00311180D01*
X00307849Y00087180D01*
Y00091641D01*
X00308754Y00092246D01*
X00309905Y00093968D01*
X00310309Y00096000D01*
X00309905Y00098032D01*
X00308754Y00099754D01*
X00307032Y00100905D01*
X00305000Y00101309D01*
X00302968Y00100905D01*
X00301246Y00099754D01*
X00300849Y00099159D01*
X00298849Y00099766D01*
Y00104141D01*
X00299754Y00104746D01*
X00300905Y00106468D01*
X00301309Y00108500D01*
X00300905Y00110532D01*
X00300284Y00111461D01*
X00301273Y00113461D01*
X00363810D01*
X00363810Y00113461D01*
X00364900Y00113678D01*
X00365824Y00114296D01*
X00374932Y00123403D01*
X00376000Y00123191D01*
X00378032Y00123595D01*
X00379754Y00124746D01*
X00380905Y00126468D01*
X00381309Y00128500D01*
X00380905Y00130532D01*
X00379754Y00132254D01*
X00378032Y00133405D01*
X00376000Y00133809D01*
X00373968Y00133405D01*
X00373231Y00132913D01*
X00372533Y00133126D01*
X00371215Y00133971D01*
X00370905Y00135532D01*
X00369754Y00137254D01*
X00368032Y00138405D01*
X00366000Y00138809D01*
D02*
G37*
G36*
X00105092Y00137730D02*
X00092908D01*
X00093138Y00136572D01*
X00094514Y00134514D01*
X00096572Y00133138D01*
X00097168Y00133020D01*
Y00130980D01*
X00096572Y00130862D01*
X00094514Y00129487D01*
X00093138Y00127428D01*
X00092908Y00126270D01*
X00105092D01*
X00104862Y00127428D01*
X00103486Y00129487D01*
X00101428Y00130862D01*
X00100833Y00130980D01*
Y00133020D01*
X00101428Y00133138D01*
X00103486Y00134514D01*
X00104862Y00136572D01*
X00105092Y00137730D01*
D02*
G37*
G36*
Y00123730D02*
X00100270D01*
Y00118908D01*
X00101428Y00119138D01*
X00103486Y00120513D01*
X00104862Y00122572D01*
X00105092Y00123730D01*
D02*
G37*
G36*
X00097730D02*
X00092908D01*
X00093138Y00122572D01*
X00094514Y00120513D01*
X00096572Y00119138D01*
X00097730Y00118908D01*
Y00123730D01*
D02*
G37*
G36*
X00100270Y00115092D02*
Y00110270D01*
X00105092D01*
X00104862Y00111428D01*
X00103486Y00113486D01*
X00101428Y00114862D01*
X00100270Y00115092D01*
D02*
G37*
G36*
X00097730D02*
X00096572Y00114862D01*
X00094514Y00113486D01*
X00093138Y00111428D01*
X00092908Y00110270D01*
X00097730D01*
Y00115092D01*
D02*
G37*
G36*
X00219770Y00114592D02*
Y00109770D01*
X00224592D01*
X00224362Y00110928D01*
X00222987Y00112986D01*
X00220928Y00114362D01*
X00219770Y00114592D01*
D02*
G37*
G36*
X00217230D02*
X00216072Y00114362D01*
X00214013Y00112986D01*
X00212638Y00110928D01*
X00212408Y00109770D01*
X00217230D01*
Y00114592D01*
D02*
G37*
G36*
X00204770D02*
Y00109770D01*
X00209592D01*
X00209362Y00110928D01*
X00207987Y00112986D01*
X00205928Y00114362D01*
X00204770Y00114592D01*
D02*
G37*
G36*
X00202230D02*
X00201072Y00114362D01*
X00199013Y00112986D01*
X00197638Y00110928D01*
X00197408Y00109770D01*
X00202230D01*
Y00114592D01*
D02*
G37*
G36*
X00105092Y00107730D02*
X00100270D01*
Y00102908D01*
X00101428Y00103138D01*
X00103486Y00104514D01*
X00104862Y00106572D01*
X00105092Y00107730D01*
D02*
G37*
G36*
X00097730D02*
X00092908D01*
X00093138Y00106572D01*
X00094514Y00104514D01*
X00096572Y00103138D01*
X00097730Y00102908D01*
Y00107730D01*
D02*
G37*
G36*
X00224592Y00107230D02*
X00219770D01*
Y00102408D01*
X00220928Y00102638D01*
X00222987Y00104014D01*
X00224362Y00106072D01*
X00224592Y00107230D01*
D02*
G37*
G36*
X00217230D02*
X00212408D01*
X00212638Y00106072D01*
X00214013Y00104014D01*
X00216072Y00102638D01*
X00217230Y00102408D01*
Y00107230D01*
D02*
G37*
G36*
X00209592D02*
X00204770D01*
Y00102408D01*
X00205928Y00102638D01*
X00207987Y00104014D01*
X00209362Y00106072D01*
X00209592Y00107230D01*
D02*
G37*
G36*
X00202230D02*
X00197408D01*
X00197638Y00106072D01*
X00199013Y00104014D01*
X00201072Y00102638D01*
X00202230Y00102408D01*
Y00107230D01*
D02*
G37*
G36*
X00219770Y00099592D02*
Y00094770D01*
X00224592D01*
X00224362Y00095928D01*
X00222987Y00097986D01*
X00220928Y00099362D01*
X00219770Y00099592D01*
D02*
G37*
G36*
X00217230D02*
X00216072Y00099362D01*
X00214013Y00097986D01*
X00212638Y00095928D01*
X00212408Y00094770D01*
X00217230D01*
Y00099592D01*
D02*
G37*
G36*
X00204770D02*
Y00094770D01*
X00209592D01*
X00209362Y00095928D01*
X00207987Y00097986D01*
X00205928Y00099362D01*
X00204770Y00099592D01*
D02*
G37*
G36*
X00202230D02*
X00201072Y00099362D01*
X00199013Y00097986D01*
X00197638Y00095928D01*
X00197408Y00094770D01*
X00202230D01*
Y00099592D01*
D02*
G37*
G36*
X00224592Y00092230D02*
X00219770D01*
Y00087408D01*
X00220928Y00087638D01*
X00222987Y00089014D01*
X00224362Y00091072D01*
X00224592Y00092230D01*
D02*
G37*
G36*
X00217230D02*
X00212408D01*
X00212638Y00091072D01*
X00214013Y00089014D01*
X00216072Y00087638D01*
X00217230Y00087408D01*
Y00092230D01*
D02*
G37*
G36*
X00209592D02*
X00204770D01*
Y00087408D01*
X00205928Y00087638D01*
X00207987Y00089014D01*
X00209362Y00091072D01*
X00209592Y00092230D01*
D02*
G37*
G36*
X00202230D02*
X00197408D01*
X00197638Y00091072D01*
X00199013Y00089014D01*
X00201072Y00087638D01*
X00202230Y00087408D01*
Y00092230D01*
D02*
G37*
G36*
X00219770Y00082092D02*
Y00077270D01*
X00224592D01*
X00224362Y00078428D01*
X00222987Y00080486D01*
X00220928Y00081862D01*
X00219770Y00082092D01*
D02*
G37*
G36*
X00217230D02*
X00216072Y00081862D01*
X00214013Y00080486D01*
X00212638Y00078428D01*
X00212408Y00077270D01*
X00217230D01*
Y00082092D01*
D02*
G37*
G36*
X00204770D02*
Y00077270D01*
X00209592D01*
X00209362Y00078428D01*
X00207987Y00080486D01*
X00205928Y00081862D01*
X00204770Y00082092D01*
D02*
G37*
G36*
X00202230D02*
X00201072Y00081862D01*
X00199013Y00080486D01*
X00197638Y00078428D01*
X00197408Y00077270D01*
X00202230D01*
Y00082092D01*
D02*
G37*
G36*
X00021000Y00101485D02*
X00017339Y00101003D01*
X00013927Y00099590D01*
X00010998Y00097342D01*
X00008750Y00094412D01*
X00007337Y00091001D01*
X00006855Y00087340D01*
X00007337Y00083679D01*
X00008750Y00080267D01*
X00010998Y00077338D01*
X00013927Y00075090D01*
X00017339Y00073677D01*
X00021000Y00073195D01*
X00024661Y00073677D01*
X00028072Y00075090D01*
X00031002Y00077338D01*
X00033250Y00080267D01*
X00034663Y00083679D01*
X00035145Y00087340D01*
X00034663Y00091001D01*
X00033250Y00094412D01*
X00031002Y00097342D01*
X00028072Y00099590D01*
X00024661Y00101003D01*
X00021000Y00101485D01*
D02*
G37*
G36*
X00224592Y00074730D02*
X00219770D01*
Y00069908D01*
X00220928Y00070138D01*
X00222987Y00071514D01*
X00224362Y00073572D01*
X00224592Y00074730D01*
D02*
G37*
G36*
X00217230D02*
X00212408D01*
X00212638Y00073572D01*
X00214013Y00071514D01*
X00216072Y00070138D01*
X00217230Y00069908D01*
Y00074730D01*
D02*
G37*
G36*
X00209592D02*
X00204770D01*
Y00069908D01*
X00205928Y00070138D01*
X00207987Y00071514D01*
X00209362Y00073572D01*
X00209592Y00074730D01*
D02*
G37*
G36*
X00202230D02*
X00197408D01*
X00197638Y00073572D01*
X00199013Y00071514D01*
X00201072Y00070138D01*
X00202230Y00069908D01*
Y00074730D01*
D02*
G37*
G36*
X00100270Y00074092D02*
Y00069270D01*
X00105092D01*
X00104862Y00070428D01*
X00103486Y00072487D01*
X00101428Y00073862D01*
X00100270Y00074092D01*
D02*
G37*
G36*
X00097730D02*
X00096572Y00073862D01*
X00094514Y00072487D01*
X00093138Y00070428D01*
X00092908Y00069270D01*
X00097730D01*
Y00074092D01*
D02*
G37*
G36*
X00105092Y00066730D02*
X00100270D01*
Y00061908D01*
X00101428Y00062138D01*
X00103486Y00063513D01*
X00104862Y00065572D01*
X00105092Y00066730D01*
D02*
G37*
G36*
X00097730D02*
X00092908D01*
X00093138Y00065572D01*
X00094514Y00063513D01*
X00096572Y00062138D01*
X00097730Y00061908D01*
Y00066730D01*
D02*
G37*
G36*
X00100270Y00058092D02*
Y00053270D01*
X00105092D01*
X00104862Y00054428D01*
X00103486Y00056487D01*
X00101428Y00057862D01*
X00100270Y00058092D01*
D02*
G37*
G36*
X00097730D02*
X00096572Y00057862D01*
X00094514Y00056487D01*
X00093138Y00054428D01*
X00092908Y00053270D01*
X00097730D01*
Y00058092D01*
D02*
G37*
G36*
X00370570Y00058859D02*
Y00050170D01*
X00379259D01*
X00379081Y00051521D01*
X00378070Y00053963D01*
X00376461Y00056061D01*
X00374363Y00057670D01*
X00371921Y00058682D01*
X00370570Y00058859D01*
D02*
G37*
G36*
X00105092Y00050730D02*
X00100270D01*
Y00045908D01*
X00101428Y00046138D01*
X00103486Y00047513D01*
X00104862Y00049572D01*
X00105092Y00050730D01*
D02*
G37*
G36*
X00097730D02*
X00092908D01*
X00093138Y00049572D01*
X00094514Y00047513D01*
X00096572Y00046138D01*
X00097730Y00045908D01*
Y00050730D01*
D02*
G37*
G36*
X00379259Y00047630D02*
X00370570D01*
Y00038941D01*
X00371921Y00039118D01*
X00374363Y00040130D01*
X00376461Y00041739D01*
X00378070Y00043837D01*
X00379081Y00046279D01*
X00379259Y00047630D01*
D02*
G37*
G36*
X00097270Y00042340D02*
Y00026110D01*
X00113500D01*
X00113286Y00028278D01*
X00112283Y00031585D01*
X00110654Y00034632D01*
X00108463Y00037303D01*
X00105792Y00039495D01*
X00102745Y00041123D01*
X00099438Y00042126D01*
X00097270Y00042340D01*
D02*
G37*
G36*
X00094730D02*
X00092562Y00042126D01*
X00089255Y00041123D01*
X00086208Y00039495D01*
X00083537Y00037303D01*
X00081345Y00034632D01*
X00079717Y00031585D01*
X00078714Y00028278D01*
X00078500Y00026110D01*
X00094730D01*
Y00042340D01*
D02*
G37*
G36*
X00244370Y00033459D02*
Y00024770D01*
X00253059D01*
X00252882Y00026121D01*
X00251870Y00028563D01*
X00250261Y00030661D01*
X00248163Y00032270D01*
X00245721Y00033282D01*
X00244370Y00033459D01*
D02*
G37*
G36*
X00241830D02*
X00240479Y00033282D01*
X00238037Y00032270D01*
X00235939Y00030661D01*
X00234330Y00028563D01*
X00233318Y00026121D01*
X00233141Y00024770D01*
X00241830D01*
Y00033459D01*
D02*
G37*
G36*
X00427270Y00040500D02*
Y00024270D01*
X00443500D01*
X00443286Y00026439D01*
X00442283Y00029745D01*
X00440654Y00032792D01*
X00438463Y00035463D01*
X00435792Y00037655D01*
X00432745Y00039283D01*
X00429439Y00040286D01*
X00427270Y00040500D01*
D02*
G37*
G36*
X00424730D02*
X00422562Y00040286D01*
X00419255Y00039283D01*
X00416208Y00037655D01*
X00413537Y00035463D01*
X00411345Y00032792D01*
X00409717Y00029745D01*
X00408714Y00026439D01*
X00408500Y00024270D01*
X00424730D01*
Y00040500D01*
D02*
G37*
G36*
X00253059Y00022230D02*
X00244370D01*
Y00013541D01*
X00245721Y00013718D01*
X00248163Y00014730D01*
X00250261Y00016339D01*
X00251870Y00018437D01*
X00252882Y00020879D01*
X00253059Y00022230D01*
D02*
G37*
G36*
X00241830D02*
X00233141D01*
X00233318Y00020879D01*
X00234330Y00018437D01*
X00235939Y00016339D01*
X00238037Y00014730D01*
X00240479Y00013718D01*
X00241830Y00013541D01*
Y00022230D01*
D02*
G37*
G36*
X00113500Y00023570D02*
X00097270D01*
Y00007340D01*
X00099438Y00007554D01*
X00102745Y00008557D01*
X00105792Y00010186D01*
X00108463Y00012377D01*
X00110654Y00015048D01*
X00112283Y00018095D01*
X00113286Y00021402D01*
X00113500Y00023570D01*
D02*
G37*
G36*
X00094730D02*
X00078500D01*
X00078714Y00021402D01*
X00079717Y00018095D01*
X00081345Y00015048D01*
X00083537Y00012377D01*
X00086208Y00010186D01*
X00089255Y00008557D01*
X00092562Y00007554D01*
X00094730Y00007340D01*
Y00023570D01*
D02*
G37*
%LPD*%
G36*
X00369158Y00127710D02*
X00369686Y00127295D01*
X00369800Y00126329D01*
X00362630Y00119159D01*
X00288810D01*
X00288810Y00119159D01*
X00287719Y00118942D01*
X00286795Y00118324D01*
X00286795Y00118324D01*
X00283552Y00115082D01*
X00283424Y00115112D01*
X00282796Y00117313D01*
X00288635Y00123151D01*
X00358500D01*
X00358500Y00123151D01*
X00359590Y00123368D01*
X00360514Y00123986D01*
X00364932Y00128403D01*
X00366000Y00128191D01*
X00367530Y00128495D01*
X00369158Y00127710D01*
D02*
G37*
G36*
X00301227Y00092274D02*
X00301246Y00092246D01*
X00301333Y00092188D01*
X00302151Y00091519D01*
Y00086000D01*
X00302151Y00086000D01*
X00302368Y00084910D01*
X00302986Y00083986D01*
X00307986Y00078986D01*
X00307986Y00078986D01*
X00308910Y00078368D01*
X00310000Y00078151D01*
X00328820D01*
X00347722Y00059249D01*
X00346589Y00057554D01*
X00346256Y00057692D01*
X00343900Y00058002D01*
X00341544Y00057692D01*
X00339842Y00056987D01*
X00323814Y00073014D01*
X00322890Y00073632D01*
X00321800Y00073849D01*
X00321800Y00073849D01*
X00307859D01*
X00307254Y00074754D01*
X00305532Y00075905D01*
X00303500Y00076309D01*
X00302432Y00076097D01*
X00298849Y00079680D01*
Y00092162D01*
X00300630Y00092762D01*
X00301227Y00092274D01*
D02*
G37*
D18*
X00372795Y00011000D02*
X00391000Y00029205D01*
X00295380Y00011000D02*
X00372795D01*
X00290690Y00015690D02*
X00295380Y00011000D01*
X00305000Y00086000D02*
Y00096000D01*
Y00086000D02*
X00310000Y00081000D01*
X00330000D01*
X00355210Y00055790D01*
Y00044215D02*
Y00055790D01*
X00348585Y00037590D02*
X00355210Y00044215D01*
X00332590Y00037590D02*
X00348585D01*
X00318500Y00023500D02*
X00332590Y00037590D01*
X00391000Y00029205D02*
Y00051000D01*
X00358500Y00126000D02*
X00366000Y00133500D01*
X00287455Y00126000D02*
X00358500D01*
X00262445Y00100990D02*
X00287455Y00126000D01*
X00262445Y00083900D02*
Y00100990D01*
X00396000Y00171000D02*
X00416000Y00151000D01*
X00286000Y00171000D02*
X00396000D01*
X00415477Y00150478D02*
X00416000Y00151000D01*
X00273500Y00138500D02*
X00353500D01*
X00265999Y00131000D02*
X00273500Y00138500D01*
X00363810Y00116310D02*
X00376000Y00128500D01*
X00288810Y00116310D02*
X00363810D01*
X00280999Y00108500D02*
X00288810Y00116310D01*
X00303500Y00071000D02*
X00321800D01*
X00343900Y00048900D01*
X00296000Y00078500D02*
Y00108500D01*
Y00078500D02*
X00303500Y00071000D01*
X00263100Y00083900D02*
X00263500Y00083500D01*
X00262445Y00083900D02*
X00263100D01*
D19*
X00303850Y00034250D02*
X00318500Y00048900D01*
X00279250Y00034250D02*
X00303850D01*
X00268500Y00023500D02*
X00279250Y00034250D01*
D21*
X00369300Y00048900D02*
D03*
Y00023500D02*
D03*
X00343900Y00048900D02*
D03*
Y00023500D02*
D03*
X00318500Y00048900D02*
D03*
X00243100Y00023500D02*
D03*
X00260600Y00171000D02*
D03*
D22*
X00318500Y00023500D02*
D03*
X00268500D02*
D03*
X00286000Y00171000D02*
D03*
D23*
X00426000Y00023000D02*
D03*
Y00189000D02*
D03*
X00096000Y00179840D02*
D03*
Y00024840D02*
D03*
D24*
X00021000Y00087340D02*
D03*
D25*
X00099000Y00052000D02*
D03*
Y00068000D02*
D03*
Y00109000D02*
D03*
Y00125000D02*
D03*
Y00139000D02*
D03*
Y00153000D02*
D03*
X00205000Y00183500D02*
D03*
X00190000D02*
D03*
X00175000D02*
D03*
X00305000Y00096000D02*
D03*
X00391000Y00051000D02*
D03*
X00290690Y00015690D02*
D03*
X00366000Y00133500D02*
D03*
X00415477Y00150478D02*
D03*
X00353500Y00138500D02*
D03*
X00265999Y00131000D02*
D03*
X00376000Y00128500D02*
D03*
X00280999Y00108500D02*
D03*
X00370500Y00188000D02*
D03*
X00354500Y00187500D02*
D03*
X00265999Y00143500D02*
D03*
X00296000Y00108500D02*
D03*
X00303500Y00071000D02*
D03*
X00262445Y00083900D02*
D03*
X00218500Y00076000D02*
D03*
X00203500D02*
D03*
Y00093500D02*
D03*
X00218500D02*
D03*
Y00108500D02*
D03*
X00203500D02*
D03*
M02*
