M48
;Layer_Color=9474304
;FILE_FORMAT=4:4
METRIC
;TYPE=PLATED
T1F00S00C0.3810
T2F00S00C0.9000
T3F00S00C1.0000
T4F00S00C2.0000
%
T01
X00099000Y00052000
Y00068000
Y00109000
Y00125000
Y00139000
X00203500Y00108500
Y00093500
X00218500
Y00108500
Y00076000
X00203500
X00262445Y00083900
X00280999Y00108500
X00296000Y00108500
X00305000Y00096000
X00303500Y00071000
X00290690Y00015690
X00391000Y00051000
X00376000Y00128500
X00366000Y00133500
X00353500Y00138500
X00265999Y00143500
Y00131000
X00205000Y00183500
X00190000
X00175000
X00354500Y00187500
X00370500Y00188000
X00415477Y00150478
X00099000Y00153000
T02
X00243100Y00023500
X00268500
X00318500
X00343900
X00369300
Y00048900
X00343900
X00318500
X00286000Y00171000
X00260600
T03
X00021000Y00087340
T04
X00096000Y00024840
X00426000Y00023000
Y00189000
X00096000Y00179840
M30
