G04 Layer_Physical_Order=1*
G04 Layer_Color=255*
%FSAX44Y44*%
%MOMM*%
G71*
G01*
G75*
%ADD10O,1.4000X0.3500*%
%ADD11O,1.3500X0.5500*%
%ADD12O,0.5500X1.3500*%
%ADD13R,1.8000X1.2000*%
%ADD14R,0.9000X0.8000*%
%ADD15R,0.8000X0.9000*%
%ADD16R,0.7000X0.9000*%
%ADD17R,0.8000X0.8000*%
%ADD18C,0.2540*%
%ADD19C,0.4000*%
%ADD20R,3.0000X4.7500*%
%ADD21C,1.5000*%
%ADD22R,1.5000X1.5000*%
%ADD23C,3.0000*%
%ADD24C,2.5000*%
%ADD25C,0.7366*%
G36*
X00295277Y00202306D02*
X00292495Y00199524D01*
X00285834D01*
X00284976Y00199524D01*
X00282024D01*
X00281166Y00199524D01*
X00270976D01*
Y00187476D01*
X00273651D01*
Y00180500D01*
X00273651Y00180500D01*
X00273868Y00179410D01*
X00274486Y00178486D01*
X00276976Y00175995D01*
Y00161976D01*
X00295024D01*
Y00168151D01*
X00301000D01*
X00301000Y00168151D01*
X00302090Y00168368D01*
X00303014Y00168986D01*
X00310514Y00176486D01*
X00310514Y00176486D01*
X00311132Y00177410D01*
X00311349Y00178500D01*
X00311349Y00178500D01*
Y00184976D01*
X00313524D01*
Y00191728D01*
X00317334Y00193755D01*
X00318476Y00192986D01*
Y00184976D01*
X00328524D01*
Y00191193D01*
X00332988Y00195657D01*
X00343651D01*
Y00182781D01*
X00340873Y00180763D01*
X00340382Y00180644D01*
X00340136Y00180607D01*
X00339848Y00180590D01*
X00338500Y00180858D01*
X00336832Y00180526D01*
X00335419Y00179581D01*
X00333581D01*
X00332168Y00180526D01*
X00330500Y00180858D01*
X00328832Y00180526D01*
X00327419Y00179581D01*
X00326474Y00178168D01*
X00326142Y00176500D01*
Y00168500D01*
X00326474Y00166832D01*
X00327419Y00165419D01*
X00328832Y00164474D01*
X00330500Y00164142D01*
X00332168Y00164474D01*
X00334500Y00165152D01*
X00336832Y00164474D01*
X00338500Y00164142D01*
X00340168Y00164474D01*
X00342500Y00165152D01*
X00344832Y00164474D01*
X00346500Y00164142D01*
X00348168Y00164474D01*
X00349581Y00165419D01*
X00352436Y00163517D01*
X00353230Y00163359D01*
Y00172500D01*
X00355770D01*
Y00163359D01*
X00356564Y00163517D01*
X00359419Y00165419D01*
X00360832Y00164474D01*
X00362500Y00164142D01*
X00364168Y00164474D01*
X00365581Y00165419D01*
X00368436Y00163517D01*
X00368990Y00163407D01*
X00370486Y00159515D01*
X00354568Y00143597D01*
X00353500Y00143809D01*
X00351468Y00143405D01*
X00349746Y00142254D01*
X00348595Y00140532D01*
X00348191Y00138500D01*
X00348595Y00136468D01*
X00349746Y00134746D01*
X00351468Y00133595D01*
X00353500Y00133191D01*
X00355532Y00133595D01*
X00357024Y00134592D01*
X00359148Y00134006D01*
X00360763Y00133139D01*
X00361095Y00131468D01*
X00362246Y00129746D01*
X00363968Y00128595D01*
X00366000Y00128191D01*
X00367119Y00128414D01*
X00368254Y00128441D01*
X00371095Y00126468D01*
X00372246Y00124746D01*
X00373968Y00123595D01*
X00376000Y00123191D01*
X00378032Y00123595D01*
X00379754Y00124746D01*
X00380905Y00126468D01*
X00381309Y00128500D01*
X00381096Y00129568D01*
X00388063Y00136534D01*
X00390762Y00135377D01*
X00391688Y00134771D01*
X00391974Y00133332D01*
X00392652Y00131000D01*
X00391974Y00128668D01*
X00391642Y00127000D01*
X00391974Y00125332D01*
X00392919Y00123919D01*
Y00122081D01*
X00391974Y00120668D01*
X00391642Y00119000D01*
X00391974Y00117332D01*
X00392652Y00115000D01*
X00391974Y00112668D01*
X00391642Y00111000D01*
X00391974Y00109332D01*
X00392919Y00107919D01*
Y00106081D01*
X00391974Y00104668D01*
X00391642Y00103000D01*
X00391974Y00101332D01*
X00392919Y00099919D01*
X00394332Y00098974D01*
X00396000Y00098642D01*
X00404000D01*
X00405668Y00098974D01*
X00407081Y00099919D01*
X00408026Y00101332D01*
X00408358Y00103000D01*
X00408026Y00104668D01*
X00407081Y00106081D01*
Y00107919D01*
X00408026Y00109332D01*
X00408358Y00111000D01*
X00408026Y00112668D01*
X00407348Y00115000D01*
X00408026Y00117332D01*
X00408358Y00119000D01*
X00408026Y00120668D01*
X00407081Y00122081D01*
Y00123919D01*
X00408026Y00125332D01*
X00408358Y00127000D01*
X00408091Y00128343D01*
X00410219Y00131498D01*
X00413788Y00131683D01*
X00418071Y00127400D01*
Y00067489D01*
X00399849Y00049267D01*
X00396725Y00050796D01*
X00396290Y00051096D01*
X00395905Y00053032D01*
X00394754Y00054754D01*
X00393849Y00055359D01*
Y00084500D01*
X00393849Y00084500D01*
X00393632Y00085590D01*
X00393014Y00086514D01*
X00393014Y00086514D01*
X00390858Y00088671D01*
Y00093500D01*
X00390526Y00095168D01*
X00389581Y00096581D01*
X00388168Y00097526D01*
X00386500Y00097858D01*
X00384832Y00097526D01*
X00383419Y00096581D01*
X00381581D01*
X00380168Y00097526D01*
X00378500Y00097858D01*
X00376832Y00097526D01*
X00375419Y00096581D01*
X00373581D01*
X00372168Y00097526D01*
X00370500Y00097858D01*
X00368832Y00097526D01*
X00367419Y00096581D01*
X00364564Y00098483D01*
X00363770Y00098641D01*
Y00089500D01*
X00361230D01*
Y00098641D01*
X00360436Y00098483D01*
X00357581Y00096581D01*
X00356168Y00097526D01*
X00354500Y00097858D01*
X00352832Y00097526D01*
X00351419Y00096581D01*
X00349581D01*
X00348168Y00097526D01*
X00346500Y00097858D01*
X00344832Y00097526D01*
X00342500Y00096848D01*
X00340168Y00097526D01*
X00338500Y00097858D01*
X00336832Y00097526D01*
X00334500Y00096848D01*
X00332168Y00097526D01*
X00330500Y00097858D01*
X00328832Y00097526D01*
X00327419Y00096581D01*
X00326474Y00095168D01*
X00326142Y00093500D01*
Y00091349D01*
X00314266D01*
X00312687Y00095159D01*
X00316171Y00098642D01*
X00321000D01*
X00322668Y00098974D01*
X00324081Y00099919D01*
X00325026Y00101332D01*
X00325358Y00103000D01*
X00325026Y00104668D01*
X00324081Y00106081D01*
Y00107919D01*
X00325026Y00109332D01*
X00325358Y00111000D01*
X00325026Y00112668D01*
X00324348Y00115000D01*
X00325026Y00117332D01*
X00325358Y00119000D01*
X00325026Y00120668D01*
X00324081Y00122081D01*
Y00123919D01*
X00325026Y00125332D01*
X00325358Y00127000D01*
X00325026Y00128668D01*
X00324348Y00131000D01*
X00325026Y00133332D01*
X00325358Y00135000D01*
X00325026Y00136668D01*
X00324348Y00139000D01*
X00325026Y00141332D01*
X00325358Y00143000D01*
X00325026Y00144668D01*
X00324081Y00146081D01*
Y00147919D01*
X00325026Y00149332D01*
X00325358Y00151000D01*
X00325026Y00152668D01*
X00324348Y00155000D01*
X00325026Y00157332D01*
X00325358Y00159000D01*
X00325026Y00160668D01*
X00324081Y00162081D01*
X00322668Y00163026D01*
X00321000Y00163358D01*
X00313000D01*
X00311332Y00163026D01*
X00309919Y00162081D01*
X00309763Y00161849D01*
X00302750D01*
X00302750Y00161849D01*
X00301660Y00161632D01*
X00300736Y00161014D01*
X00300735Y00161014D01*
X00296070Y00156349D01*
X00261000D01*
X00261000Y00156349D01*
X00259910Y00156132D01*
X00258986Y00155514D01*
X00253986Y00150514D01*
X00253368Y00149590D01*
X00253151Y00148500D01*
X00253151Y00148500D01*
Y00117470D01*
X00249485Y00114332D01*
X00247815Y00114626D01*
X00247605Y00114946D01*
X00247588Y00115090D01*
X00247334Y00116367D01*
X00246610Y00117450D01*
X00245527Y00118174D01*
X00244250Y00118428D01*
X00233750D01*
X00232472Y00118174D01*
X00231390Y00117450D01*
X00231169Y00117121D01*
X00227727Y00117062D01*
X00227010Y00117231D01*
X00226000Y00117650D01*
X00196000D01*
X00194990Y00117231D01*
X00194273Y00117062D01*
X00190830Y00117121D01*
X00190610Y00117450D01*
X00189527Y00118174D01*
X00188250Y00118428D01*
X00184593D01*
Y00131106D01*
X00194024D01*
Y00146154D01*
X00172976D01*
Y00131106D01*
X00177407D01*
Y00118360D01*
X00176472Y00118174D01*
X00175389Y00117450D01*
X00174666Y00116367D01*
X00174412Y00115090D01*
X00174666Y00113813D01*
X00175389Y00112730D01*
Y00110950D01*
X00174722Y00109951D01*
X00174666Y00109867D01*
X00174666Y00109867D01*
X00174412Y00108590D01*
X00171640Y00105802D01*
X00171401Y00105683D01*
X00165238D01*
X00164673Y00106248D01*
Y00119760D01*
X00164400Y00121135D01*
X00163621Y00122301D01*
X00161593Y00124328D01*
Y00131202D01*
X00161649Y00131328D01*
X00161667Y00132038D01*
X00161717Y00132605D01*
X00161749Y00132800D01*
X00164540D01*
Y00138570D01*
X00158000D01*
Y00139840D01*
X00156730D01*
Y00146880D01*
X00151460D01*
Y00146880D01*
X00149524Y00145864D01*
X00138476D01*
Y00133816D01*
X00140651D01*
Y00124864D01*
X00137476D01*
Y00122189D01*
X00122024D01*
Y00124864D01*
X00109976D01*
Y00114674D01*
X00109976Y00113816D01*
Y00110864D01*
X00109976Y00110006D01*
Y00099816D01*
X00112571D01*
X00112618Y00096006D01*
X00109976Y00093364D01*
X00107024D01*
X00106166Y00093364D01*
X00095976D01*
X00094000Y00096355D01*
Y00100274D01*
X00094673Y00101024D01*
X00097730Y00102844D01*
Y00109000D01*
X00099000D01*
Y00110270D01*
X00105092D01*
X00104862Y00111428D01*
X00103486Y00113486D01*
X00101428Y00114862D01*
X00100444Y00115058D01*
Y00118942D01*
X00101428Y00119138D01*
X00103486Y00120513D01*
X00104862Y00122572D01*
X00105092Y00123730D01*
X00099000D01*
Y00126270D01*
X00105092D01*
X00104862Y00127428D01*
X00103486Y00129487D01*
X00102942Y00129850D01*
Y00134150D01*
X00103486Y00134514D01*
X00104862Y00136572D01*
X00105092Y00137730D01*
X00099000D01*
Y00140270D01*
X00105092D01*
X00104862Y00141428D01*
X00103486Y00143486D01*
X00102942Y00143850D01*
Y00148150D01*
X00103486Y00148513D01*
X00104862Y00150572D01*
X00105092Y00151730D01*
X00099000D01*
Y00154270D01*
X00105092D01*
X00104862Y00155428D01*
X00103486Y00157486D01*
X00101428Y00158862D01*
X00100803Y00158986D01*
X00100610Y00162909D01*
X00102745Y00163557D01*
X00105792Y00165185D01*
X00108463Y00167377D01*
X00110654Y00170048D01*
X00112283Y00173095D01*
X00113286Y00176402D01*
X00113500Y00178570D01*
X00096000D01*
Y00179840D01*
X00094730D01*
Y00198616D01*
D01*
X00094000Y00199277D01*
Y00206115D01*
X00293699D01*
X00295277Y00202306D01*
D02*
G37*
G36*
X00363887Y00197769D02*
X00363863Y00197625D01*
X00363841Y00197404D01*
X00363793Y00196280D01*
X00363770Y00193705D01*
X00361230D01*
X00361085Y00197837D01*
X00363915D01*
X00363887Y00197769D01*
D02*
G37*
G36*
X00372830Y00185109D02*
X00372607Y00184838D01*
X00372411Y00184558D01*
X00372241Y00184268D01*
X00372097Y00183970D01*
X00371979Y00183661D01*
X00371888Y00183343D01*
X00371822Y00183016D01*
X00371783Y00182679D01*
X00371770Y00182333D01*
X00369230D01*
X00369217Y00182679D01*
X00369178Y00183016D01*
X00369112Y00183343D01*
X00369021Y00183661D01*
X00368903Y00183970D01*
X00368759Y00184268D01*
X00368589Y00184558D01*
X00368393Y00184838D01*
X00368170Y00185109D01*
X00367922Y00185370D01*
X00373078D01*
X00372830Y00185109D01*
D02*
G37*
G36*
X00356829Y00184609D02*
X00356607Y00184338D01*
X00356411Y00184058D01*
X00356241Y00183769D01*
X00356097Y00183470D01*
X00355979Y00183161D01*
X00355888Y00182843D01*
X00355822Y00182516D01*
X00355783Y00182179D01*
X00355770Y00181833D01*
X00353230D01*
X00353217Y00182179D01*
X00353178Y00182516D01*
X00353112Y00182843D01*
X00353021Y00183161D01*
X00352903Y00183470D01*
X00352759Y00183769D01*
X00352589Y00184058D01*
X00352393Y00184338D01*
X00352170Y00184609D01*
X00351922Y00184870D01*
X00357078D01*
X00356829Y00184609D01*
D02*
G37*
G36*
X00371781Y00181035D02*
X00371814Y00180628D01*
X00371870Y00180234D01*
X00371947Y00179854D01*
X00372046Y00179488D01*
X00372168Y00179137D01*
X00372312Y00178799D01*
X00372477Y00178476D01*
X00372665Y00178167D01*
X00372876Y00177871D01*
X00368125D01*
X00368335Y00178167D01*
X00368522Y00178476D01*
X00368688Y00178799D01*
X00368832Y00179137D01*
X00368954Y00179488D01*
X00369053Y00179854D01*
X00369131Y00180234D01*
X00369186Y00180628D01*
X00369219Y00181035D01*
X00369230Y00181458D01*
X00371770D01*
X00371781Y00181035D01*
D02*
G37*
G36*
X00363781D02*
X00363814Y00180628D01*
X00363870Y00180234D01*
X00363947Y00179854D01*
X00364046Y00179488D01*
X00364168Y00179137D01*
X00364312Y00178799D01*
X00364478Y00178476D01*
X00364665Y00178167D01*
X00364875Y00177871D01*
X00360125D01*
X00360335Y00178167D01*
X00360522Y00178476D01*
X00360688Y00178799D01*
X00360832Y00179137D01*
X00360954Y00179488D01*
X00361053Y00179854D01*
X00361130Y00180234D01*
X00361186Y00180628D01*
X00361219Y00181035D01*
X00361230Y00181458D01*
X00363770D01*
X00363781Y00181035D01*
D02*
G37*
G36*
X00355781D02*
X00355814Y00180628D01*
X00355869Y00180234D01*
X00355947Y00179854D01*
X00356046Y00179488D01*
X00356168Y00179137D01*
X00356312Y00178799D01*
X00356478Y00178476D01*
X00356665Y00178167D01*
X00356875Y00177871D01*
X00352124D01*
X00352335Y00178167D01*
X00352522Y00178476D01*
X00352688Y00178799D01*
X00352832Y00179137D01*
X00352954Y00179488D01*
X00353053Y00179854D01*
X00353130Y00180234D01*
X00353186Y00180628D01*
X00353219Y00181035D01*
X00353230Y00181458D01*
X00355770D01*
X00355781Y00181035D01*
D02*
G37*
G36*
X00347781D02*
X00347814Y00180628D01*
X00347869Y00180234D01*
X00347947Y00179854D01*
X00348046Y00179488D01*
X00348168Y00179137D01*
X00348312Y00178799D01*
X00348478Y00178476D01*
X00348665Y00178167D01*
X00348876Y00177871D01*
X00344124D01*
X00344334Y00178167D01*
X00344523Y00178476D01*
X00344688Y00178799D01*
X00344832Y00179137D01*
X00344954Y00179488D01*
X00345053Y00179854D01*
X00345131Y00180234D01*
X00345186Y00180628D01*
X00345219Y00181035D01*
X00345230Y00181458D01*
X00347770D01*
X00347781Y00181035D01*
D02*
G37*
G36*
X00414564Y00202306D02*
X00413537Y00201463D01*
X00411345Y00198792D01*
X00409717Y00195745D01*
X00408714Y00192439D01*
X00408500Y00190270D01*
X00426000D01*
Y00189000D01*
X00427270D01*
Y00171500D01*
X00429439Y00171714D01*
X00432745Y00172717D01*
X00435792Y00174345D01*
X00438463Y00176537D01*
X00440654Y00179208D01*
X00442283Y00182255D01*
X00442305Y00182328D01*
X00446115Y00181763D01*
Y00030237D01*
X00442305Y00029672D01*
X00442283Y00029745D01*
X00440654Y00032792D01*
X00438463Y00035463D01*
X00435792Y00037655D01*
X00432745Y00039283D01*
X00429439Y00040286D01*
X00427270Y00040500D01*
Y00023000D01*
X00426000D01*
Y00021730D01*
X00408500D01*
X00408714Y00019562D01*
X00409717Y00016255D01*
X00411345Y00013208D01*
X00413537Y00010537D01*
X00416208Y00008346D01*
X00417426Y00007695D01*
X00416472Y00003884D01*
X00383955D01*
X00382497Y00007405D01*
X00406326Y00031234D01*
X00407686Y00030637D01*
X00409495Y00029014D01*
X00408714Y00026439D01*
X00408500Y00024270D01*
X00424730D01*
Y00040500D01*
X00422562Y00040286D01*
X00419986Y00039505D01*
X00418363Y00041314D01*
X00417766Y00042674D01*
X00434351Y00059258D01*
X00435130Y00060424D01*
X00435403Y00061799D01*
Y00153407D01*
X00435130Y00154782D01*
X00434351Y00155947D01*
X00422396Y00167902D01*
X00424126Y00171560D01*
X00424730Y00171500D01*
Y00187730D01*
X00408500D01*
X00408560Y00187126D01*
X00404902Y00185396D01*
X00388507Y00201791D01*
X00389909Y00205436D01*
X00390427Y00206115D01*
X00413201D01*
X00414564Y00202306D01*
D02*
G37*
G36*
X00380550Y00166958D02*
X00380386Y00166855D01*
X00380242Y00166682D01*
X00380117Y00166441D01*
X00380011Y00166130D01*
X00379924Y00165751D01*
X00379857Y00165302D01*
X00379809Y00164785D01*
X00379770Y00163542D01*
X00377230D01*
X00377220Y00164198D01*
X00377143Y00165302D01*
X00377076Y00165751D01*
X00376989Y00166130D01*
X00376883Y00166441D01*
X00376758Y00166682D01*
X00376614Y00166855D01*
X00376450Y00166958D01*
X00376267Y00166993D01*
X00380733D01*
X00380550Y00166958D01*
D02*
G37*
G36*
X00414477Y00165659D02*
X00412898Y00161849D01*
X00407237D01*
X00407081Y00162081D01*
X00405668Y00163026D01*
X00404000Y00163358D01*
X00396000D01*
X00394332Y00163026D01*
X00390956Y00165280D01*
X00390526Y00166832D01*
X00390858Y00168500D01*
Y00176500D01*
X00390526Y00178168D01*
X00389581Y00179581D01*
X00388168Y00180526D01*
X00386500Y00180858D01*
X00384832Y00180526D01*
X00382500Y00179848D01*
X00380168Y00180526D01*
X00378500Y00180858D01*
X00377284Y00180616D01*
X00375884Y00182382D01*
X00375167Y00183784D01*
X00376362Y00185572D01*
X00376592Y00186730D01*
X00370500D01*
Y00189270D01*
X00376592D01*
X00376362Y00190428D01*
X00375414Y00191847D01*
X00376136Y00194211D01*
X00377099Y00195657D01*
X00384478D01*
X00414477Y00165659D01*
D02*
G37*
G36*
X00405667Y00153165D02*
X00405976Y00152978D01*
X00406299Y00152812D01*
X00406637Y00152668D01*
X00406988Y00152546D01*
X00407354Y00152447D01*
X00407734Y00152369D01*
X00408128Y00152314D01*
X00408535Y00152281D01*
X00408957Y00152270D01*
Y00149730D01*
X00408535Y00149719D01*
X00408128Y00149686D01*
X00407734Y00149630D01*
X00407354Y00149553D01*
X00406988Y00149454D01*
X00406637Y00149332D01*
X00406299Y00149188D01*
X00405976Y00149023D01*
X00405667Y00148834D01*
X00405372Y00148624D01*
Y00153376D01*
X00405667Y00153165D01*
D02*
G37*
G36*
X00412508Y00148299D02*
X00412291Y00148571D01*
X00412058Y00148814D01*
X00411811Y00149029D01*
X00411549Y00149215D01*
X00411271Y00149372D01*
X00410979Y00149501D01*
X00410672Y00149601D01*
X00410350Y00149673D01*
X00410013Y00149716D01*
X00409661Y00149730D01*
X00410050Y00152270D01*
X00410390Y00152281D01*
X00410725Y00152315D01*
X00411055Y00152372D01*
X00411381Y00152451D01*
X00411702Y00152553D01*
X00412019Y00152678D01*
X00412331Y00152825D01*
X00412638Y00152995D01*
X00412941Y00153188D01*
X00413240Y00153403D01*
X00412508Y00148299D01*
D02*
G37*
G36*
X00268891Y00145829D02*
X00269161Y00145607D01*
X00269441Y00145411D01*
X00269731Y00145241D01*
X00270030Y00145097D01*
X00270338Y00144979D01*
X00270656Y00144888D01*
X00270731Y00144873D01*
X00270801Y00144884D01*
X00271136Y00144973D01*
X00271418Y00145087D01*
X00271650Y00145227D01*
X00271830Y00145392D01*
X00271958Y00145583D01*
X00272035Y00145799D01*
X00272061Y00146040D01*
Y00140960D01*
X00272035Y00141201D01*
X00271958Y00141417D01*
X00271830Y00141608D01*
X00271650Y00141773D01*
X00271418Y00141912D01*
X00271136Y00142027D01*
X00270801Y00142116D01*
X00270731Y00142127D01*
X00270656Y00142112D01*
X00270338Y00142021D01*
X00270030Y00141903D01*
X00269731Y00141759D01*
X00269442Y00141589D01*
X00269161Y00141393D01*
X00268891Y00141170D01*
X00268630Y00140922D01*
X00268629Y00146078D01*
X00268891Y00145829D01*
D02*
G37*
G36*
X00394628Y00140625D02*
X00394333Y00140835D01*
X00394024Y00141023D01*
X00393701Y00141188D01*
X00393363Y00141332D01*
X00393012Y00141454D01*
X00392646Y00141553D01*
X00392266Y00141630D01*
X00391872Y00141686D01*
X00391464Y00141719D01*
X00391042Y00141730D01*
Y00144270D01*
X00391464Y00144281D01*
X00391872Y00144314D01*
X00392266Y00144369D01*
X00392646Y00144447D01*
X00393012Y00144546D01*
X00393363Y00144668D01*
X00393701Y00144812D01*
X00394024Y00144978D01*
X00394333Y00145165D01*
X00394628Y00145375D01*
Y00140625D01*
D02*
G37*
G36*
X00405667Y00137165D02*
X00405976Y00136978D01*
X00406299Y00136812D01*
X00406637Y00136668D01*
X00406988Y00136546D01*
X00407354Y00136447D01*
X00407734Y00136369D01*
X00408128Y00136314D01*
X00408535Y00136281D01*
X00408957Y00136270D01*
Y00133730D01*
X00408535Y00133719D01*
X00408128Y00133686D01*
X00407734Y00133631D01*
X00407354Y00133553D01*
X00406988Y00133454D01*
X00406637Y00133332D01*
X00406299Y00133188D01*
X00405976Y00133022D01*
X00405667Y00132835D01*
X00405372Y00132625D01*
Y00137375D01*
X00405667Y00137165D01*
D02*
G37*
G36*
X00311628Y00132625D02*
X00311333Y00132835D01*
X00311024Y00133022D01*
X00310701Y00133188D01*
X00310363Y00133332D01*
X00310012Y00133454D01*
X00309646Y00133553D01*
X00309266Y00133631D01*
X00308872Y00133686D01*
X00308464Y00133719D01*
X00308042Y00133730D01*
Y00136270D01*
X00308464Y00136281D01*
X00308872Y00136314D01*
X00309266Y00136369D01*
X00309646Y00136447D01*
X00310012Y00136546D01*
X00310363Y00136668D01*
X00310701Y00136812D01*
X00311024Y00136978D01*
X00311333Y00137165D01*
X00311628Y00137375D01*
Y00132625D01*
D02*
G37*
G36*
X00161595Y00135330D02*
X00161260Y00135211D01*
X00160965Y00135010D01*
X00160709Y00134731D01*
X00160492Y00134370D01*
X00160315Y00133931D01*
X00160177Y00133411D01*
X00160079Y00132810D01*
X00160020Y00132130D01*
X00160000Y00131370D01*
X00156000D01*
X00155980Y00132130D01*
X00155921Y00132810D01*
X00155823Y00133411D01*
X00155685Y00133931D01*
X00155508Y00134370D01*
X00155291Y00134731D01*
X00155035Y00135010D01*
X00154739Y00135211D01*
X00154405Y00135330D01*
X00154030Y00135371D01*
X00161969D01*
X00161595Y00135330D01*
D02*
G37*
G36*
X00277283Y00127521D02*
X00277321Y00127084D01*
X00277384Y00126699D01*
X00277473Y00126364D01*
X00277588Y00126082D01*
X00277727Y00125850D01*
X00277892Y00125670D01*
X00278083Y00125542D01*
X00278299Y00125465D01*
X00278540Y00125439D01*
X00273460D01*
X00273701Y00125465D01*
X00273917Y00125542D01*
X00274108Y00125670D01*
X00274273Y00125850D01*
X00274412Y00126082D01*
X00274527Y00126364D01*
X00274616Y00126699D01*
X00274679Y00127084D01*
X00274717Y00127521D01*
X00274730Y00128010D01*
X00277270D01*
X00277283Y00127521D01*
D02*
G37*
G36*
X00268329Y00128108D02*
X00268107Y00127838D01*
X00267910Y00127558D01*
X00267740Y00127268D01*
X00267596Y00126969D01*
X00267479Y00126661D01*
X00267387Y00126343D01*
X00267322Y00126016D01*
X00267283Y00125679D01*
X00267269Y00125333D01*
X00264729D01*
X00264716Y00125679D01*
X00264677Y00126016D01*
X00264612Y00126343D01*
X00264520Y00126661D01*
X00264402Y00126969D01*
X00264258Y00127268D01*
X00264088Y00127558D01*
X00263892Y00127838D01*
X00263670Y00128108D01*
X00263421Y00128370D01*
X00268577D01*
X00268329Y00128108D01*
D02*
G37*
G36*
X00147965Y00121639D02*
X00148042Y00121423D01*
X00148170Y00121232D01*
X00148350Y00121067D01*
X00148582Y00120927D01*
X00148864Y00120813D01*
X00149199Y00120724D01*
X00149584Y00120661D01*
X00150021Y00120623D01*
X00150510Y00120610D01*
Y00118070D01*
X00150021Y00118057D01*
X00149584Y00118019D01*
X00149199Y00117956D01*
X00148864Y00117867D01*
X00148582Y00117753D01*
X00148350Y00117613D01*
X00148170Y00117448D01*
X00148042Y00117257D01*
X00147965Y00117041D01*
X00147939Y00116800D01*
Y00121880D01*
X00147965Y00121639D01*
D02*
G37*
G36*
X00183004Y00116644D02*
X00183019Y00116574D01*
X00183041Y00116503D01*
X00183071Y00116432D01*
X00183107Y00116360D01*
X00183151Y00116287D01*
X00183202Y00116213D01*
X00183260Y00116139D01*
X00183325Y00116064D01*
X00183398Y00115988D01*
X00181602Y00114192D01*
X00181526Y00114264D01*
X00181377Y00114388D01*
X00181303Y00114439D01*
X00181230Y00114483D01*
X00181158Y00114519D01*
X00181087Y00114549D01*
X00181016Y00114571D01*
X00180946Y00114586D01*
X00180877Y00114594D01*
X00182996Y00116713D01*
X00183004Y00116644D01*
D02*
G37*
G36*
X00311628Y00108624D02*
X00311333Y00108834D01*
X00311024Y00109023D01*
X00310701Y00109188D01*
X00310363Y00109332D01*
X00310012Y00109454D01*
X00309646Y00109553D01*
X00309266Y00109630D01*
X00308872Y00109686D01*
X00308464Y00109719D01*
X00308042Y00109730D01*
Y00112270D01*
X00308464Y00112281D01*
X00308872Y00112314D01*
X00309266Y00112369D01*
X00309646Y00112447D01*
X00310012Y00112546D01*
X00310363Y00112668D01*
X00310701Y00112812D01*
X00311024Y00112978D01*
X00311333Y00113165D01*
X00311628Y00113376D01*
Y00108624D01*
D02*
G37*
G36*
X00301681Y00109730D02*
X00301308Y00109717D01*
X00300974Y00109677D01*
X00300678Y00109610D01*
X00300420Y00109516D01*
X00300201Y00109396D01*
X00300020Y00109248D01*
X00299878Y00109074D01*
X00299774Y00108874D01*
X00299708Y00108646D01*
X00299681Y00108392D01*
X00296649Y00112125D01*
X00300914Y00112270D01*
X00301681Y00109730D01*
D02*
G37*
G36*
X00245046Y00110143D02*
X00245211Y00110084D01*
X00245416Y00110031D01*
X00245662Y00109986D01*
X00246275Y00109916D01*
X00247049Y00109874D01*
X00247984Y00109860D01*
Y00107320D01*
X00247496Y00107317D01*
X00245662Y00107194D01*
X00245416Y00107149D01*
X00245211Y00107096D01*
X00245046Y00107037D01*
X00244921Y00106970D01*
Y00110210D01*
X00245046Y00110143D01*
D02*
G37*
G36*
X00278369Y00105922D02*
X00278108Y00106170D01*
X00277837Y00106393D01*
X00277557Y00106589D01*
X00277268Y00106759D01*
X00276969Y00106903D01*
X00276660Y00107021D01*
X00276343Y00107112D01*
X00276015Y00107177D01*
X00275679Y00107217D01*
X00275332Y00107230D01*
Y00109770D01*
X00275679Y00109783D01*
X00276015Y00109822D01*
X00276343Y00109888D01*
X00276660Y00109979D01*
X00276969Y00110097D01*
X00277268Y00110241D01*
X00277557Y00110411D01*
X00277837Y00110607D01*
X00278108Y00110829D01*
X00278369Y00111078D01*
Y00105922D01*
D02*
G37*
G36*
X00245046Y00103643D02*
X00245211Y00103584D01*
X00245416Y00103531D01*
X00245662Y00103486D01*
X00246275Y00103416D01*
X00247049Y00103374D01*
X00247984Y00103360D01*
Y00100820D01*
X00247496Y00100816D01*
X00245662Y00100694D01*
X00245416Y00100649D01*
X00245211Y00100596D01*
X00245046Y00100537D01*
X00244921Y00100470D01*
Y00103710D01*
X00245046Y00103643D01*
D02*
G37*
G36*
Y00097143D02*
X00245211Y00097084D01*
X00245416Y00097031D01*
X00245662Y00096986D01*
X00246275Y00096916D01*
X00247049Y00096874D01*
X00247984Y00096860D01*
Y00094320D01*
X00247496Y00094317D01*
X00245662Y00094194D01*
X00245416Y00094149D01*
X00245211Y00094096D01*
X00245046Y00094037D01*
X00244921Y00093970D01*
Y00097210D01*
X00245046Y00097143D01*
D02*
G37*
G36*
X00177079Y00093970D02*
X00176954Y00094037D01*
X00176789Y00094096D01*
X00176583Y00094149D01*
X00176338Y00094194D01*
X00175725Y00094264D01*
X00174951Y00094306D01*
X00174016Y00094320D01*
Y00096860D01*
X00174503Y00096863D01*
X00176338Y00096986D01*
X00176583Y00097031D01*
X00176789Y00097084D01*
X00176954Y00097143D01*
X00177079Y00097210D01*
Y00093970D01*
D02*
G37*
G36*
X00302370Y00093422D02*
X00302109Y00093670D01*
X00301838Y00093893D01*
X00301558Y00094089D01*
X00301269Y00094259D01*
X00300970Y00094403D01*
X00300661Y00094521D01*
X00300343Y00094612D01*
X00300016Y00094678D01*
X00299679Y00094717D01*
X00299333Y00094730D01*
X00299333Y00097270D01*
X00299679Y00097283D01*
X00300016Y00097322D01*
X00300343Y00097388D01*
X00300661Y00097479D01*
X00300970Y00097597D01*
X00301269Y00097741D01*
X00301558Y00097911D01*
X00301838Y00098107D01*
X00302109Y00098329D01*
X00302370Y00098578D01*
X00302370Y00093422D01*
D02*
G37*
G36*
X00116915Y00088753D02*
X00114085D01*
X00114112Y00088821D01*
X00114137Y00088965D01*
X00114159Y00089186D01*
X00114207Y00090310D01*
X00114230Y00092885D01*
X00116770D01*
X00116915Y00088753D01*
D02*
G37*
G36*
X00245046Y00090643D02*
X00245211Y00090584D01*
X00245416Y00090531D01*
X00245662Y00090486D01*
X00246275Y00090416D01*
X00247049Y00090374D01*
X00247984Y00090360D01*
Y00087820D01*
X00247496Y00087816D01*
X00245662Y00087694D01*
X00245416Y00087649D01*
X00245211Y00087596D01*
X00245046Y00087537D01*
X00244921Y00087470D01*
Y00090710D01*
X00245046Y00090643D01*
D02*
G37*
G36*
X00147009Y00091673D02*
X00147129Y00091551D01*
X00147329Y00091443D01*
X00147610Y00091349D01*
X00147970Y00091270D01*
X00148410Y00091205D01*
X00149529Y00091119D01*
X00150969Y00091090D01*
Y00087090D01*
X00150210Y00087070D01*
X00149529Y00087010D01*
X00148929Y00086910D01*
X00148410Y00086770D01*
X00147970Y00086590D01*
X00147610Y00086370D01*
X00147329Y00086110D01*
X00147129Y00085810D01*
X00147009Y00085470D01*
X00146969Y00085090D01*
Y00091810D01*
X00147009Y00091673D01*
D02*
G37*
G36*
X00097561Y00083340D02*
X00097521Y00083720D01*
X00097400Y00084060D01*
X00097198Y00084360D01*
X00096916Y00084620D01*
X00096553Y00084840D01*
X00096110Y00085020D01*
X00095586Y00085160D01*
X00094981Y00085260D01*
X00094296Y00085320D01*
X00093530Y00085340D01*
Y00089340D01*
X00094296Y00089360D01*
X00094981Y00089420D01*
X00095586Y00089520D01*
X00096110Y00089660D01*
X00096553Y00089840D01*
X00096916Y00090060D01*
X00097198Y00090320D01*
X00097400Y00090620D01*
X00097521Y00090960D01*
X00097561Y00091340D01*
Y00083340D01*
D02*
G37*
G36*
X00121024Y00081316D02*
X00123476D01*
Y00081316D01*
X00133666D01*
X00134524Y00081316D01*
X00137476D01*
X00140651Y00078466D01*
Y00069864D01*
X00137476D01*
Y00058816D01*
X00137476Y00058816D01*
Y00055864D01*
X00137476D01*
X00137476Y00055006D01*
Y00044816D01*
X00139907D01*
Y00029000D01*
X00140180Y00027625D01*
X00140959Y00026459D01*
X00159724Y00007695D01*
X00158331Y00003884D01*
X00100041D01*
X00099438Y00007554D01*
X00102745Y00008557D01*
X00105792Y00010186D01*
X00108463Y00012377D01*
X00110654Y00015048D01*
X00112283Y00018095D01*
X00113286Y00021402D01*
X00113500Y00023570D01*
X00096000D01*
Y00026110D01*
X00113500D01*
X00113286Y00028278D01*
X00112283Y00031585D01*
X00110654Y00034632D01*
X00108463Y00037303D01*
X00105792Y00039495D01*
X00102745Y00041123D01*
X00099438Y00042126D01*
X00099950Y00045844D01*
X00101428Y00046138D01*
X00103486Y00047513D01*
X00104862Y00049572D01*
X00105092Y00050730D01*
X00099000D01*
Y00053270D01*
X00105092D01*
X00104862Y00054428D01*
X00103486Y00056487D01*
X00101428Y00057862D01*
X00100444Y00058058D01*
Y00061942D01*
X00101428Y00062138D01*
X00103486Y00063513D01*
X00104862Y00065572D01*
X00105092Y00066730D01*
X00099000D01*
Y00068000D01*
X00097730D01*
Y00074156D01*
X00095810Y00075299D01*
X00095197Y00077829D01*
X00097832Y00081316D01*
X00106166D01*
X00107024Y00081316D01*
X00109976D01*
X00110834Y00081316D01*
X00121024D01*
Y00081316D01*
D02*
G37*
G36*
X00384832Y00081474D02*
X00386500Y00081142D01*
X00388151Y00079787D01*
Y00055359D01*
X00387246Y00054754D01*
X00386095Y00053032D01*
X00385691Y00051000D01*
X00386095Y00048968D01*
X00387246Y00047246D01*
X00388968Y00046095D01*
X00390904Y00045710D01*
X00391203Y00045275D01*
X00392733Y00042151D01*
X00380363Y00029781D01*
X00375736Y00029936D01*
X00373851Y00031382D01*
X00371656Y00032292D01*
X00369300Y00032602D01*
X00366944Y00032292D01*
X00364749Y00031382D01*
X00362864Y00029936D01*
X00361418Y00028051D01*
X00360508Y00025856D01*
X00360198Y00023500D01*
X00360508Y00021144D01*
X00361418Y00018949D01*
X00361494Y00018849D01*
X00359616Y00015039D01*
X00353584D01*
X00351705Y00018849D01*
X00351782Y00018949D01*
X00352692Y00021144D01*
X00353002Y00023500D01*
X00352692Y00025856D01*
X00351782Y00028051D01*
X00350336Y00029936D01*
X00348451Y00031382D01*
X00346256Y00032292D01*
X00343900Y00032602D01*
X00341544Y00032292D01*
X00339842Y00031587D01*
X00333414Y00038014D01*
X00332490Y00038632D01*
X00331400Y00038849D01*
X00331400Y00038849D01*
X00326483D01*
X00325231Y00041774D01*
X00325085Y00042659D01*
X00326382Y00044349D01*
X00327292Y00046544D01*
X00327602Y00048900D01*
X00327472Y00049890D01*
X00332864Y00055283D01*
X00336017Y00053451D01*
X00335108Y00051256D01*
X00334798Y00048900D01*
X00335108Y00046544D01*
X00336017Y00044349D01*
X00337464Y00042464D01*
X00339349Y00041018D01*
X00341544Y00040108D01*
X00343900Y00039798D01*
X00346256Y00040108D01*
X00348451Y00041018D01*
X00350336Y00042464D01*
X00351782Y00044349D01*
X00352692Y00046544D01*
X00353002Y00048900D01*
X00352692Y00051256D01*
X00351782Y00053451D01*
X00350336Y00055336D01*
X00348451Y00056782D01*
X00346256Y00057692D01*
X00343900Y00058002D01*
X00341544Y00057692D01*
X00339349Y00056782D01*
X00337517Y00059936D01*
X00341041Y00063459D01*
X00341819Y00064625D01*
X00342093Y00066000D01*
Y00078722D01*
X00343642Y00080278D01*
X00343975Y00080538D01*
X00344704Y00080900D01*
X00345351Y00080705D01*
X00347666Y00079220D01*
X00348480Y00077878D01*
X00348476Y00077024D01*
X00348476D01*
Y00064976D01*
X00358071D01*
X00361460Y00063960D01*
D01*
X00362804Y00063607D01*
X00364994Y00059519D01*
X00364360Y00057721D01*
X00364237Y00057670D01*
X00362139Y00056061D01*
X00360530Y00053963D01*
X00359518Y00051521D01*
X00359341Y00050170D01*
X00379259D01*
X00379081Y00051521D01*
X00378070Y00053963D01*
X00376461Y00056061D01*
X00374363Y00057670D01*
X00374240Y00057721D01*
X00373241Y00060553D01*
X00374540Y00063960D01*
X00374540D01*
Y00069730D01*
X00368000D01*
Y00072270D01*
X00374540D01*
Y00078040D01*
X00374540Y00078040D01*
X00375637Y00080844D01*
X00376832Y00081474D01*
X00378500Y00081142D01*
X00380168Y00081474D01*
X00381581Y00082419D01*
X00383419D01*
X00384832Y00081474D01*
D02*
G37*
G36*
X00245046Y00084143D02*
X00245211Y00084084D01*
X00245416Y00084031D01*
X00245662Y00083986D01*
X00246275Y00083916D01*
X00247049Y00083874D01*
X00247984Y00083860D01*
Y00081320D01*
X00247496Y00081316D01*
X00245662Y00081194D01*
X00245416Y00081149D01*
X00245211Y00081096D01*
X00245046Y00081037D01*
X00244921Y00080970D01*
Y00084210D01*
X00245046Y00084143D01*
D02*
G37*
G36*
X00260904Y00080555D02*
X00260572Y00080700D01*
X00259910Y00080945D01*
X00259579Y00081045D01*
X00258920Y00081198D01*
X00258591Y00081251D01*
X00257934Y00081312D01*
X00257607Y00081320D01*
X00256552Y00083860D01*
X00256912Y00083875D01*
X00257247Y00083920D01*
X00257558Y00083996D01*
X00257846Y00084102D01*
X00258110Y00084239D01*
X00258350Y00084405D01*
X00258566Y00084602D01*
X00258757Y00084829D01*
X00258925Y00085086D01*
X00259070Y00085374D01*
X00260904Y00080555D01*
D02*
G37*
G36*
X00364665Y00083833D02*
X00364478Y00083524D01*
X00364312Y00083201D01*
X00364168Y00082863D01*
X00364046Y00082512D01*
X00363947Y00082146D01*
X00363870Y00081766D01*
X00363814Y00081372D01*
X00363781Y00080964D01*
X00363770Y00080542D01*
X00361230D01*
X00361219Y00080964D01*
X00361186Y00081372D01*
X00361130Y00081766D01*
X00361053Y00082146D01*
X00360954Y00082512D01*
X00360832Y00082863D01*
X00360688Y00083201D01*
X00360522Y00083524D01*
X00360335Y00083833D01*
X00360125Y00084129D01*
X00364875D01*
X00364665Y00083833D01*
D02*
G37*
G36*
X00356516Y00083710D02*
X00356279Y00083697D01*
X00356067Y00083613D01*
X00355880Y00083456D01*
X00355718Y00083227D01*
X00355581Y00082926D01*
X00355469Y00082552D01*
X00355382Y00082106D01*
X00355320Y00081588D01*
X00355282Y00080998D01*
X00355270Y00080335D01*
X00352730Y00080890D01*
X00352724Y00081363D01*
X00352633Y00082584D01*
X00352579Y00082924D01*
X00352512Y00083232D01*
X00352433Y00083506D01*
X00352342Y00083746D01*
X00352239Y00083954D01*
X00352124Y00084129D01*
X00356516Y00083710D01*
D02*
G37*
G36*
X00340804Y00083996D02*
X00340740Y00083792D01*
X00340684Y00083519D01*
X00340635Y00083175D01*
X00340560Y00082277D01*
X00340504Y00080404D01*
X00340500Y00079639D01*
X00336500D01*
X00336496Y00080404D01*
X00336316Y00083519D01*
X00336260Y00083792D01*
X00336196Y00083996D01*
X00336124Y00084129D01*
X00340875D01*
X00340804Y00083996D01*
D02*
G37*
G36*
X00031227Y00094808D02*
X00033688Y00092647D01*
X00034848Y00091770D01*
X00035963Y00091027D01*
X00037031Y00090420D01*
X00038053Y00089948D01*
X00039028Y00089610D01*
X00039957Y00089408D01*
X00040839Y00089340D01*
Y00085340D01*
X00039957Y00085273D01*
X00039028Y00085070D01*
X00038053Y00084733D01*
X00037031Y00084260D01*
X00035963Y00083652D01*
X00034848Y00082910D01*
X00033688Y00082032D01*
X00031227Y00079872D01*
X00029927Y00078590D01*
Y00096090D01*
X00031227Y00094808D01*
D02*
G37*
G36*
X00245046Y00077643D02*
X00245211Y00077584D01*
X00245416Y00077531D01*
X00245662Y00077486D01*
X00246275Y00077416D01*
X00247049Y00077374D01*
X00247984Y00077360D01*
Y00074820D01*
X00247496Y00074816D01*
X00245662Y00074694D01*
X00245416Y00074649D01*
X00245211Y00074596D01*
X00245046Y00074537D01*
X00244921Y00074470D01*
Y00077710D01*
X00245046Y00077643D01*
D02*
G37*
G36*
X00177079Y00074470D02*
X00176954Y00074537D01*
X00176789Y00074596D01*
X00176583Y00074649D01*
X00176338Y00074694D01*
X00175725Y00074764D01*
X00174951Y00074806D01*
X00174016Y00074820D01*
Y00077360D01*
X00174503Y00077364D01*
X00176338Y00077486D01*
X00176583Y00077531D01*
X00176789Y00077584D01*
X00176954Y00077643D01*
X00177079Y00077710D01*
Y00074470D01*
D02*
G37*
G36*
X00364017Y00076792D02*
X00365235Y00075763D01*
X00365561Y00075551D01*
X00365848Y00075404D01*
X00366094Y00075322D01*
X00366300Y00075306D01*
X00366465Y00075355D01*
X00366591Y00075469D01*
X00364030Y00071909D01*
X00364108Y00072072D01*
X00364128Y00072267D01*
X00364091Y00072493D01*
X00363997Y00072751D01*
X00363846Y00073042D01*
X00363638Y00073364D01*
X00363373Y00073717D01*
X00363050Y00074103D01*
X00362234Y00074970D01*
X00363530Y00077266D01*
X00364017Y00076792D01*
D02*
G37*
G36*
X00184799Y00067842D02*
X00184583Y00067765D01*
X00184392Y00067636D01*
X00184227Y00067456D01*
X00184087Y00067225D01*
X00183973Y00066942D01*
X00183884Y00066608D01*
X00183821Y00066222D01*
X00183783Y00065785D01*
X00183770Y00065297D01*
X00181230D01*
X00181217Y00065785D01*
X00181179Y00066222D01*
X00181116Y00066608D01*
X00181027Y00066942D01*
X00180912Y00067225D01*
X00180773Y00067456D01*
X00180608Y00067636D01*
X00180417Y00067765D01*
X00180201Y00067842D01*
X00179960Y00067867D01*
X00185040D01*
X00184799Y00067842D01*
D02*
G37*
G36*
X00371599Y00066535D02*
X00371383Y00066458D01*
X00371192Y00066330D01*
X00371027Y00066150D01*
X00370887Y00065918D01*
X00370773Y00065636D01*
X00370684Y00065301D01*
X00370621Y00064916D01*
X00370583Y00064479D01*
X00370570Y00063991D01*
X00368030D01*
X00368017Y00064479D01*
X00367979Y00064916D01*
X00367916Y00065301D01*
X00367827Y00065636D01*
X00367712Y00065918D01*
X00367573Y00066150D01*
X00367408Y00066330D01*
X00367217Y00066458D01*
X00367001Y00066535D01*
X00366760Y00066561D01*
X00371840D01*
X00371599Y00066535D01*
D02*
G37*
G36*
X00294465Y00064639D02*
X00294542Y00064423D01*
X00294670Y00064232D01*
X00294850Y00064067D01*
X00295082Y00063927D01*
X00295364Y00063813D01*
X00295699Y00063724D01*
X00296084Y00063661D01*
X00296521Y00063623D01*
X00297009Y00063610D01*
Y00061070D01*
X00296521Y00061057D01*
X00296084Y00061019D01*
X00295699Y00060956D01*
X00295364Y00060867D01*
X00295082Y00060753D01*
X00294850Y00060613D01*
X00294670Y00060448D01*
X00294542Y00060257D01*
X00294465Y00060041D01*
X00294439Y00059800D01*
Y00064880D01*
X00294465Y00064639D01*
D02*
G37*
G36*
X00370610Y00060252D02*
X00370729Y00059687D01*
X00370928Y00059097D01*
X00371207Y00058481D01*
X00371565Y00057841D01*
X00372003Y00057174D01*
X00372520Y00056483D01*
X00373794Y00055024D01*
X00374550Y00054256D01*
X00364050D01*
X00364806Y00055024D01*
X00366080Y00056483D01*
X00366597Y00057174D01*
X00367035Y00057841D01*
X00367393Y00058481D01*
X00367672Y00059097D01*
X00367871Y00059687D01*
X00367990Y00060252D01*
X00368030Y00060792D01*
X00370570D01*
X00370610Y00060252D01*
D02*
G37*
G36*
X00150798Y00053889D02*
X00150022Y00053085D01*
X00148796Y00051635D01*
X00148347Y00050990D01*
X00148006Y00050398D01*
X00147775Y00049859D01*
X00147653Y00049373D01*
X00147639Y00048939D01*
X00147735Y00048559D01*
X00147939Y00048232D01*
X00142733Y00054279D01*
X00143023Y00054037D01*
X00143374Y00053912D01*
X00143786Y00053905D01*
X00144260Y00054015D01*
X00144795Y00054242D01*
X00145391Y00054587D01*
X00146049Y00055048D01*
X00146768Y00055628D01*
X00148390Y00057138D01*
X00150798Y00053889D01*
D02*
G37*
G36*
X00320188Y00047309D02*
X00320095Y00047370D01*
X00319986Y00047424D01*
X00319859Y00047473D01*
X00319716Y00047514D01*
X00319555Y00047550D01*
X00319378Y00047579D01*
X00318973Y00047617D01*
X00318745Y00047627D01*
X00318500Y00047630D01*
Y00050170D01*
X00318745Y00050173D01*
X00319378Y00050221D01*
X00319555Y00050250D01*
X00319716Y00050286D01*
X00319859Y00050327D01*
X00319986Y00050376D01*
X00320095Y00050430D01*
X00320188Y00050491D01*
Y00047309D01*
D02*
G37*
G36*
X00197293Y00050271D02*
X00198216Y00049489D01*
X00198626Y00049202D01*
X00199002Y00048985D01*
X00199344Y00048837D01*
X00199653Y00048759D01*
X00199927Y00048749D01*
X00200167Y00048809D01*
X00200373Y00048939D01*
X00196561Y00045627D01*
X00196713Y00045811D01*
X00196790Y00046034D01*
X00196793Y00046295D01*
X00196722Y00046596D01*
X00196577Y00046936D01*
X00196357Y00047315D01*
X00196063Y00047732D01*
X00195694Y00048189D01*
X00194734Y00049219D01*
X00196780Y00050766D01*
X00197293Y00050271D01*
D02*
G37*
G36*
X00233799Y00041535D02*
X00233583Y00041458D01*
X00233392Y00041330D01*
X00233227Y00041150D01*
X00233087Y00040918D01*
X00232973Y00040636D01*
X00232884Y00040301D01*
X00232821Y00039916D01*
X00232783Y00039479D01*
X00232770Y00038990D01*
X00230230D01*
X00230217Y00039479D01*
X00230179Y00039916D01*
X00230116Y00040301D01*
X00230027Y00040636D01*
X00229912Y00040918D01*
X00229773Y00041150D01*
X00229608Y00041330D01*
X00229417Y00041458D01*
X00229201Y00041535D01*
X00228960Y00041561D01*
X00234040D01*
X00233799Y00041535D01*
D02*
G37*
G36*
X00196561Y00028460D02*
X00196535Y00028701D01*
X00196458Y00028917D01*
X00196330Y00029108D01*
X00196150Y00029273D01*
X00195918Y00029413D01*
X00195636Y00029527D01*
X00195301Y00029616D01*
X00194916Y00029679D01*
X00194479Y00029717D01*
X00193990Y00029730D01*
Y00032270D01*
X00194479Y00032283D01*
X00194916Y00032321D01*
X00195301Y00032384D01*
X00195636Y00032473D01*
X00195918Y00032587D01*
X00196150Y00032727D01*
X00196330Y00032892D01*
X00196458Y00033083D01*
X00196535Y00033299D01*
X00196561Y00033540D01*
Y00028460D01*
D02*
G37*
G36*
X00185465Y00033299D02*
X00185542Y00033083D01*
X00185670Y00032892D01*
X00185850Y00032727D01*
X00186082Y00032587D01*
X00186364Y00032473D01*
X00186698Y00032384D01*
X00187084Y00032321D01*
X00187521Y00032283D01*
X00188009Y00032270D01*
Y00029730D01*
X00187521Y00029717D01*
X00187084Y00029679D01*
X00186698Y00029616D01*
X00186364Y00029527D01*
X00186082Y00029413D01*
X00185850Y00029273D01*
X00185670Y00029108D01*
X00185542Y00028917D01*
X00185465Y00028701D01*
X00185439Y00028460D01*
Y00033540D01*
X00185465Y00033299D01*
D02*
G37*
G36*
X00176561Y00028460D02*
X00176535Y00028701D01*
X00176458Y00028917D01*
X00176330Y00029108D01*
X00176150Y00029273D01*
X00175918Y00029413D01*
X00175636Y00029527D01*
X00175301Y00029616D01*
X00174916Y00029679D01*
X00174479Y00029717D01*
X00173990Y00029730D01*
Y00032270D01*
X00174479Y00032283D01*
X00174916Y00032321D01*
X00175301Y00032384D01*
X00175636Y00032473D01*
X00175918Y00032587D01*
X00176150Y00032727D01*
X00176330Y00032892D01*
X00176458Y00033083D01*
X00176535Y00033299D01*
X00176561Y00033540D01*
Y00028460D01*
D02*
G37*
G36*
X00167965Y00033299D02*
X00168042Y00033083D01*
X00168170Y00032892D01*
X00168350Y00032727D01*
X00168582Y00032587D01*
X00168864Y00032473D01*
X00169198Y00032384D01*
X00169584Y00032321D01*
X00170021Y00032283D01*
X00170509Y00032270D01*
Y00029730D01*
X00170021Y00029717D01*
X00169584Y00029679D01*
X00169198Y00029616D01*
X00168864Y00029527D01*
X00168582Y00029413D01*
X00168350Y00029273D01*
X00168170Y00029108D01*
X00168042Y00028917D01*
X00167965Y00028701D01*
X00167939Y00028460D01*
Y00033540D01*
X00167965Y00033299D01*
D02*
G37*
G36*
X00224960Y00050665D02*
X00224960Y00049341D01*
Y00047270D01*
X00231500D01*
Y00044730D01*
X00224960D01*
Y00038960D01*
X00228581D01*
X00228581Y00038948D01*
X00228651Y00038790D01*
Y00034600D01*
X00228651Y00034600D01*
X00228868Y00033510D01*
X00229486Y00032586D01*
X00231328Y00030744D01*
X00231128Y00027942D01*
X00229561Y00026099D01*
X00211013D01*
X00208040Y00029126D01*
Y00029730D01*
X00205214D01*
X00205201Y00029475D01*
X00205266Y00029177D01*
X00205407Y00028838D01*
X00205625Y00028458D01*
X00205920Y00028038D01*
X00206292Y00027576D01*
X00207266Y00026530D01*
X00204970Y00025234D01*
X00204471Y00025715D01*
X00203567Y00026475D01*
X00203162Y00026755D01*
X00202787Y00026968D01*
X00202443Y00027114D01*
X00202270Y00027158D01*
Y00024460D01*
X00203396D01*
X00203825Y00024047D01*
X00203989Y00023982D01*
X00206736Y00021236D01*
X00207660Y00020618D01*
X00208750Y00020401D01*
X00208750Y00020401D01*
X00231002D01*
X00231134Y00020335D01*
X00231555Y00020304D01*
X00231917Y00020228D01*
X00232344Y00020087D01*
X00232833Y00019872D01*
X00233377Y00019578D01*
X00233972Y00019203D01*
X00234030Y00019162D01*
X00234330Y00018437D01*
X00235699Y00016653D01*
X00235436Y00015304D01*
X00234237Y00012843D01*
X00164738D01*
X00156931Y00020650D01*
X00158510Y00024460D01*
X00162230D01*
Y00031000D01*
X00164770D01*
Y00024460D01*
X00170540D01*
Y00024460D01*
X00173960D01*
Y00024460D01*
X00179730D01*
Y00031000D01*
X00182270D01*
Y00024460D01*
X00188040D01*
Y00028081D01*
X00188052Y00028081D01*
X00188210Y00028151D01*
X00193790D01*
X00193948Y00028081D01*
X00193960Y00028081D01*
Y00024460D01*
X00199730D01*
Y00031000D01*
X00201000D01*
Y00032270D01*
X00208040D01*
Y00036087D01*
X00208040Y00037540D01*
X00207383Y00039732D01*
X00210120Y00042175D01*
X00211090Y00042368D01*
X00212014Y00042986D01*
X00221150Y00052121D01*
X00224960Y00050665D01*
D02*
G37*
G36*
X00376667Y00024980D02*
X00376718Y00024936D01*
X00376797Y00024897D01*
X00376903Y00024863D01*
X00377036Y00024835D01*
X00377197Y00024811D01*
X00377599Y00024780D01*
X00378111Y00024770D01*
Y00022230D01*
X00377841Y00022227D01*
X00377036Y00022165D01*
X00376903Y00022137D01*
X00376797Y00022103D01*
X00376718Y00022064D01*
X00376667Y00022020D01*
X00376642Y00021971D01*
Y00025029D01*
X00376667Y00024980D01*
D02*
G37*
G36*
X00235721Y00032232D02*
X00236211Y00031916D01*
X00236771Y00031644D01*
X00237402Y00031416D01*
X00238104Y00031233D01*
X00238876Y00031095D01*
X00239719Y00031001D01*
X00240632Y00030952D01*
X00242672Y00030988D01*
X00237674Y00025496D01*
X00237922Y00018074D01*
X00237119Y00018816D01*
X00235603Y00020066D01*
X00234891Y00020574D01*
X00234209Y00021004D01*
X00233558Y00021355D01*
X00232937Y00021628D01*
X00232346Y00021824D01*
X00231786Y00021941D01*
X00231256Y00021980D01*
X00231170Y00024520D01*
X00231718Y00024560D01*
X00232287Y00024682D01*
X00232876Y00024884D01*
X00233485Y00025168D01*
X00234115Y00025532D01*
X00234766Y00025977D01*
X00235313Y00026407D01*
X00235182Y00027150D01*
X00234996Y00027938D01*
X00234779Y00028649D01*
X00234530Y00029281D01*
X00234249Y00029836D01*
X00233937Y00030312D01*
X00233592Y00030712D01*
X00235302Y00032594D01*
X00235721Y00032232D01*
D02*
G37*
%LPC*%
G36*
X00203730Y00189592D02*
X00202572Y00189362D01*
X00200513Y00187987D01*
X00199607Y00186630D01*
X00197787Y00186289D01*
X00197213D01*
X00195393Y00186630D01*
X00194487Y00187987D01*
X00192428Y00189362D01*
X00191270Y00189592D01*
Y00183500D01*
Y00177408D01*
X00192428Y00177638D01*
X00194487Y00179014D01*
X00195393Y00180370D01*
X00197213Y00180711D01*
X00197787D01*
X00199607Y00180370D01*
X00200513Y00179014D01*
X00202572Y00177638D01*
X00203730Y00177408D01*
Y00183500D01*
Y00189592D01*
D02*
G37*
G36*
X00188730D02*
X00187572Y00189362D01*
X00185513Y00187987D01*
X00184607Y00186630D01*
X00182787Y00186289D01*
X00182213D01*
X00180393Y00186630D01*
X00179487Y00187987D01*
X00177428Y00189362D01*
X00176270Y00189592D01*
Y00183500D01*
Y00177408D01*
X00177428Y00177638D01*
X00179487Y00179014D01*
X00180393Y00180370D01*
X00182213Y00180711D01*
X00182787D01*
X00184607Y00180370D01*
X00185513Y00179014D01*
X00187572Y00177638D01*
X00188730Y00177408D01*
Y00183500D01*
Y00189592D01*
D02*
G37*
G36*
X00206270D02*
Y00184770D01*
X00211092D01*
X00210862Y00185928D01*
X00209487Y00187987D01*
X00207428Y00189362D01*
X00206270Y00189592D01*
D02*
G37*
G36*
X00173730D02*
X00172572Y00189362D01*
X00170513Y00187987D01*
X00169138Y00185928D01*
X00168908Y00184770D01*
X00173730D01*
Y00189592D01*
D02*
G37*
G36*
X00097270Y00197340D02*
Y00181110D01*
X00113500D01*
X00113286Y00183278D01*
X00112283Y00186585D01*
X00110654Y00189632D01*
X00108463Y00192303D01*
X00105792Y00194494D01*
X00102745Y00196123D01*
X00099438Y00197126D01*
X00097270Y00197340D01*
D02*
G37*
G36*
X00211092Y00182230D02*
X00206270D01*
Y00177408D01*
X00207428Y00177638D01*
X00209487Y00179014D01*
X00210862Y00181072D01*
X00211092Y00182230D01*
D02*
G37*
G36*
X00173730D02*
X00168908D01*
X00169138Y00181072D01*
X00170513Y00179014D01*
X00172572Y00177638D01*
X00173730Y00177408D01*
Y00182230D01*
D02*
G37*
G36*
X00261870Y00180959D02*
Y00172270D01*
X00270559D01*
X00270382Y00173621D01*
X00269370Y00176063D01*
X00267761Y00178161D01*
X00265663Y00179770D01*
X00263221Y00180782D01*
X00261870Y00180959D01*
D02*
G37*
G36*
X00259330D02*
X00257979Y00180782D01*
X00255537Y00179770D01*
X00253439Y00178161D01*
X00251830Y00176063D01*
X00250818Y00173621D01*
X00250641Y00172270D01*
X00259330D01*
Y00180959D01*
D02*
G37*
G36*
X00235040Y00171170D02*
X00224770D01*
Y00163900D01*
X00235040D01*
Y00171170D01*
D02*
G37*
G36*
X00222230D02*
X00211960D01*
Y00163900D01*
X00222230D01*
Y00171170D01*
D02*
G37*
G36*
X00270559Y00169730D02*
X00261870D01*
Y00161041D01*
X00263221Y00161218D01*
X00265663Y00162230D01*
X00267761Y00163839D01*
X00269370Y00165937D01*
X00270382Y00168379D01*
X00270559Y00169730D01*
D02*
G37*
G36*
X00259330D02*
X00250641D01*
X00250818Y00168379D01*
X00251830Y00165937D01*
X00253439Y00163839D01*
X00255537Y00162230D01*
X00257979Y00161218D01*
X00259330Y00161041D01*
Y00169730D01*
D02*
G37*
G36*
X00194024Y00170154D02*
X00172976D01*
Y00155106D01*
X00194024D01*
Y00170154D01*
D02*
G37*
G36*
X00235040Y00161360D02*
X00224770D01*
Y00154090D01*
X00235040D01*
Y00161360D01*
D02*
G37*
G36*
X00222230D02*
X00211960D01*
Y00154090D01*
X00222230D01*
Y00161360D01*
D02*
G37*
G36*
X00164540Y00146880D02*
X00159270D01*
Y00141110D01*
X00164540D01*
Y00146880D01*
D02*
G37*
G36*
X00234024Y00146154D02*
X00212976D01*
Y00131106D01*
X00234024D01*
Y00146154D01*
D02*
G37*
G36*
X00105092Y00107730D02*
X00100270D01*
Y00102908D01*
X00101428Y00103138D01*
X00103486Y00104514D01*
X00104862Y00106572D01*
X00105092Y00107730D01*
D02*
G37*
G36*
X00100270Y00074092D02*
Y00069270D01*
X00105092D01*
X00104862Y00070428D01*
X00103486Y00072487D01*
X00101428Y00073862D01*
X00100270Y00074092D01*
D02*
G37*
G36*
X00379259Y00047630D02*
X00370570D01*
Y00038941D01*
X00371921Y00039118D01*
X00374363Y00040130D01*
X00376461Y00041739D01*
X00378070Y00043837D01*
X00379081Y00046279D01*
X00379259Y00047630D01*
D02*
G37*
G36*
X00368030D02*
X00359341D01*
X00359518Y00046279D01*
X00360530Y00043837D01*
X00362139Y00041739D01*
X00364237Y00040130D01*
X00366679Y00039118D01*
X00368030Y00038941D01*
Y00047630D01*
D02*
G37*
G36*
X00204950Y00029730D02*
X00202270D01*
Y00027705D01*
X00204950Y00029730D01*
D02*
G37*
%LPD*%
D10*
X00183000Y00115090D02*
D03*
Y00108590D02*
D03*
Y00102090D02*
D03*
Y00095590D02*
D03*
Y00089090D02*
D03*
Y00082590D02*
D03*
Y00076090D02*
D03*
Y00069590D02*
D03*
X00239000Y00115090D02*
D03*
Y00108590D02*
D03*
Y00102090D02*
D03*
Y00095590D02*
D03*
Y00089090D02*
D03*
Y00082590D02*
D03*
Y00076090D02*
D03*
Y00069590D02*
D03*
D11*
X00400000Y00159000D02*
D03*
Y00151000D02*
D03*
Y00143000D02*
D03*
Y00135000D02*
D03*
Y00127000D02*
D03*
Y00119000D02*
D03*
Y00111000D02*
D03*
Y00103000D02*
D03*
X00317000D02*
D03*
Y00111000D02*
D03*
Y00119000D02*
D03*
Y00127000D02*
D03*
Y00135000D02*
D03*
Y00143000D02*
D03*
Y00151000D02*
D03*
Y00159000D02*
D03*
D12*
X00386500Y00089500D02*
D03*
X00378500D02*
D03*
X00370500D02*
D03*
X00362500D02*
D03*
X00354500D02*
D03*
X00346500D02*
D03*
X00338500D02*
D03*
X00330500D02*
D03*
Y00172500D02*
D03*
X00338500D02*
D03*
X00346500D02*
D03*
X00354500D02*
D03*
X00362500D02*
D03*
X00370500D02*
D03*
X00378500D02*
D03*
X00386500D02*
D03*
D13*
X00223500Y00138630D02*
D03*
Y00162630D02*
D03*
X00183500Y00138630D02*
D03*
Y00162630D02*
D03*
D14*
X00116000Y00119340D02*
D03*
Y00105340D02*
D03*
X00201000Y00031000D02*
D03*
Y00045000D02*
D03*
X00143500Y00064340D02*
D03*
Y00050340D02*
D03*
Y00119340D02*
D03*
Y00105340D02*
D03*
X00181000Y00045000D02*
D03*
Y00031000D02*
D03*
X00163500Y00045000D02*
D03*
Y00031000D02*
D03*
D15*
X00290500Y00193500D02*
D03*
X00276500D02*
D03*
X00158000Y00139840D02*
D03*
X00144000D02*
D03*
X00115500Y00087340D02*
D03*
X00101500D02*
D03*
X00143000D02*
D03*
X00129000D02*
D03*
X00354000Y00071000D02*
D03*
X00368000D02*
D03*
X00245500Y00046000D02*
D03*
X00231500D02*
D03*
D16*
X00291000Y00121000D02*
D03*
X00276000D02*
D03*
X00276000Y00062340D02*
D03*
X00291000D02*
D03*
X00276000Y00076000D02*
D03*
X00291000D02*
D03*
X00276000Y00096000D02*
D03*
X00291000D02*
D03*
X00323500Y00191000D02*
D03*
X00308500D02*
D03*
D17*
X00291000Y00143500D02*
D03*
X00276000D02*
D03*
D18*
X00175750Y00053750D02*
X00192000D01*
X00200750Y00045000D01*
X00201000D01*
X00168580Y00060920D02*
X00175750Y00053750D01*
X00151500Y00119340D02*
X00154250Y00116590D01*
Y00101590D02*
Y00116590D01*
Y00101590D02*
X00160250Y00095590D01*
X00231500Y00034600D02*
X00242850Y00023250D01*
X00231500Y00034600D02*
Y00046000D01*
X00208750Y00023250D02*
X00242850D01*
X00201000Y00031000D02*
X00208750Y00023250D01*
X00181000Y00031000D02*
X00201000D01*
X00163500D02*
X00181000D01*
X00390500Y00143000D02*
X00400500D01*
X00376000Y00128500D02*
X00390500Y00143000D01*
X00291000Y00096000D02*
X00309500D01*
X00201000Y00045000D02*
X00210000D01*
X00386500Y00089000D02*
X00391000Y00084500D01*
Y00051000D02*
Y00084500D01*
X00290690Y00015690D02*
X00291000Y00016000D01*
Y00028500D01*
X00276000Y00043500D02*
X00291000Y00028500D01*
X00263500Y00043500D02*
X00276000D01*
X00251000Y00056000D02*
X00263500Y00043500D01*
X00221000Y00056000D02*
X00251000D01*
X00210000Y00045000D02*
X00221000Y00056000D01*
X00116000Y00119340D02*
X00143500D01*
X00386500Y00154000D02*
Y00173000D01*
X00366000Y00133500D02*
X00386500Y00154000D01*
X00414955Y00151000D02*
X00415477Y00150478D01*
X00400500Y00151000D02*
X00414955D01*
X00378500Y00163500D02*
Y00173000D01*
X00353500Y00138500D02*
X00378500Y00163500D01*
X00265999Y00116315D02*
Y00131000D01*
X00251774Y00102090D02*
X00265999Y00116315D01*
X00239500Y00102090D02*
X00251774D01*
X00266000Y00108500D02*
X00280999D01*
X00253090Y00095590D02*
X00266000Y00108500D01*
X00239500Y00095590D02*
X00253090D01*
X00256000Y00171000D02*
X00260600D01*
X00308500Y00178500D02*
Y00191000D01*
X00301000Y00171000D02*
X00308500Y00178500D01*
X00286000Y00171000D02*
X00301000D01*
X00276500Y00180500D02*
X00286000Y00171000D01*
X00276500Y00180500D02*
Y00193500D01*
X00316500Y00201500D02*
X00323500Y00194500D01*
X00298500Y00201500D02*
X00316500D01*
X00290500Y00193500D02*
X00298500Y00201500D01*
X00256000Y00148500D02*
X00261000Y00153500D01*
X00256000Y00113500D02*
Y00148500D01*
X00302750Y00159000D02*
X00316500D01*
X00297250Y00153500D02*
X00302750Y00159000D01*
X00261000Y00153500D02*
X00297250D01*
X00370500Y00173000D02*
Y00188000D01*
X00354500Y00173000D02*
Y00187500D01*
X00346500Y00173000D02*
Y00199500D01*
X00362500Y00173000D02*
Y00199500D01*
X00400500Y00135000D02*
X00414500D01*
X00420920Y00128580D01*
Y00066309D02*
Y00128580D01*
X00400500Y00159000D02*
X00418000D01*
X00426000Y00151000D01*
Y00064205D02*
Y00151000D01*
X00265999Y00143500D02*
X00266000Y00143500D01*
X00276000D01*
X00251090Y00108590D02*
X00256000Y00113500D01*
X00239500Y00108590D02*
X00251090D01*
X00291000Y00136000D02*
Y00143500D01*
X00286000Y00131000D02*
X00291000Y00136000D01*
X00278500Y00131000D02*
X00286000D01*
X00276000Y00128500D02*
X00278500Y00131000D01*
X00276000Y00121000D02*
Y00128500D01*
X00305000Y00135000D02*
X00316500D01*
X00291000Y00121000D02*
X00305000Y00135000D01*
X00368000Y00071000D02*
X00369300Y00069700D01*
X00362500Y00076500D02*
X00368000Y00071000D01*
X00362500Y00076500D02*
Y00089000D01*
X00369300Y00048900D02*
Y00069700D01*
X00354000Y00071000D02*
Y00088500D01*
X00330500Y00073000D02*
Y00088500D01*
X00303500D02*
X00330500D01*
X00291000Y00076000D02*
X00303500Y00088500D01*
X00309500Y00096000D02*
X00316500Y00103000D01*
X00296000Y00108500D02*
X00298500Y00111000D01*
X00316500D01*
X00303500Y00068500D02*
Y00071000D01*
X00297340Y00062340D02*
X00303500Y00068500D01*
X00291000Y00062340D02*
X00297340D01*
X00313500Y00063500D02*
X00321000D01*
X00303500Y00053500D02*
X00313500Y00063500D01*
X00303500Y00046000D02*
Y00053500D01*
X00378111Y00023500D02*
X00420920Y00066309D01*
X00369300Y00023500D02*
X00378111D01*
X00373985Y00012190D02*
X00426000Y00064205D01*
X00302310Y00012190D02*
X00373985D01*
X00298500Y00016000D02*
X00302310Y00012190D01*
X00298500Y00016000D02*
Y00033500D01*
X00281000Y00051000D02*
X00298500Y00033500D01*
X00266000Y00051000D02*
X00281000D01*
X00255920Y00061080D02*
X00266000Y00051000D01*
X00331400Y00036000D02*
X00343900Y00023500D01*
X00313500Y00036000D02*
X00331400D01*
X00303500Y00046000D02*
X00313500Y00036000D01*
X00321000Y00063500D02*
X00330500Y00073000D01*
X00318500Y00048900D02*
X00321400D01*
X00261400Y00083900D02*
X00262445D01*
X00260090Y00082590D02*
X00261400Y00083900D01*
X00239500Y00082590D02*
X00260090D01*
X00263500Y00096000D02*
X00276000D01*
X00256590Y00089090D02*
X00263500Y00096000D01*
X00239500Y00089090D02*
X00256590D01*
X00186000Y00061080D02*
X00255920D01*
X00182500Y00064580D02*
X00186000Y00061080D01*
X00182500Y00064580D02*
Y00069590D01*
X00168580Y00060920D02*
Y00074840D01*
X00143500Y00090340D02*
Y00105340D01*
Y00064340D02*
Y00086840D01*
Y00090340D02*
X00144750Y00089090D01*
X00115500Y00087340D02*
Y00104840D01*
X00143500Y00119340D02*
X00151500D01*
X00160250Y00095590D02*
X00182500D01*
X00143500Y00119340D02*
Y00139340D01*
X00181000Y00116590D02*
X00182500Y00115090D01*
X00169830Y00076090D02*
X00182500D01*
X00168580Y00074840D02*
X00169830Y00076090D01*
X00239500Y00069590D02*
X00256000D01*
X00291000Y00062340D02*
X00291000Y00062340D01*
X00239250Y00082340D02*
X00239500Y00082590D01*
Y00076090D02*
X00274750D01*
X00263250Y00062340D02*
X00276000D01*
X00256000Y00069590D02*
X00263250Y00062340D01*
D19*
X00323500Y00191250D02*
X00331500Y00199250D01*
X00385966D01*
X00431810Y00153407D01*
Y00061799D02*
Y00153407D01*
X00376391Y00006380D02*
X00431810Y00061799D01*
X00285620Y00006380D02*
X00376391D01*
X00268500Y00023500D02*
X00285620Y00006380D01*
X00254250Y00009250D02*
X00268500Y00023500D01*
X00245500Y00046000D02*
X00268000Y00023500D01*
X00161300Y00082550D02*
X00182500D01*
X00144420Y00050340D02*
X00158160D01*
X00154000Y00075250D02*
X00161300Y00082550D01*
X00154000Y00059920D02*
Y00075250D01*
X00144420Y00050340D02*
X00154000Y00059920D01*
X00143500Y00050340D02*
X00144420D01*
X00163500Y00045000D02*
X00181000D01*
X00158160Y00050340D02*
X00163500Y00045000D01*
X00163250Y00009250D02*
X00254250D01*
X00143500Y00029000D02*
X00163250Y00009250D01*
X00143500Y00029000D02*
Y00050340D01*
X00338500Y00066000D02*
Y00089000D01*
X00321400Y00048900D02*
X00338500Y00066000D01*
X00182500Y00102090D02*
X00197410D01*
X00021000Y00087340D02*
X00101500D01*
X00144750Y00089090D02*
X00182500D01*
X00115500Y00087340D02*
X00129000D01*
X00158000Y00122840D02*
Y00139840D01*
Y00122840D02*
X00161080Y00119760D01*
Y00104760D02*
Y00119760D01*
Y00104760D02*
X00163750Y00102090D01*
X00182500D01*
X00181000Y00116590D02*
Y00138500D01*
D20*
X00211000Y00092250D02*
D03*
D21*
X00369300Y00048900D02*
D03*
Y00023500D02*
D03*
X00343900Y00048900D02*
D03*
Y00023500D02*
D03*
X00318500Y00048900D02*
D03*
X00243100Y00023500D02*
D03*
X00260600Y00171000D02*
D03*
D22*
X00318500Y00023500D02*
D03*
X00268500D02*
D03*
X00286000Y00171000D02*
D03*
D23*
X00426000Y00023000D02*
D03*
Y00189000D02*
D03*
X00096000Y00179840D02*
D03*
Y00024840D02*
D03*
D24*
X00021000Y00087340D02*
D03*
D25*
X00099000Y00052000D02*
D03*
Y00068000D02*
D03*
Y00109000D02*
D03*
Y00125000D02*
D03*
Y00139000D02*
D03*
Y00153000D02*
D03*
X00205000Y00183500D02*
D03*
X00190000D02*
D03*
X00175000D02*
D03*
X00305000Y00096000D02*
D03*
X00391000Y00051000D02*
D03*
X00290690Y00015690D02*
D03*
X00366000Y00133500D02*
D03*
X00415477Y00150478D02*
D03*
X00353500Y00138500D02*
D03*
X00265999Y00131000D02*
D03*
X00376000Y00128500D02*
D03*
X00280999Y00108500D02*
D03*
X00370500Y00188000D02*
D03*
X00354500Y00187500D02*
D03*
X00265999Y00143500D02*
D03*
X00296000Y00108500D02*
D03*
X00303500Y00071000D02*
D03*
X00262445Y00083900D02*
D03*
X00218500Y00076000D02*
D03*
X00203500D02*
D03*
Y00093500D02*
D03*
X00218500D02*
D03*
Y00108500D02*
D03*
X00203500D02*
D03*
M02*
