G04 Layer_Color=65535*
%FSLAX43Y43*%
%MOMM*%
G71*
G01*
G75*
%ADD57C,0.100*%
%ADD58C,0.200*%
%ADD59C,0.250*%
%ADD60C,0.600*%
D57*
X72775Y21570D02*
G03*
X72775Y21570I-2500J0D01*
G01*
X67030Y22775D02*
G03*
X67030Y22775I-2500J0D01*
G01*
X95775Y5170D02*
G03*
X95775Y5170I-2500J0D01*
G01*
D58*
X89275Y2813D02*
G03*
X89032Y6319I-1075J1687D01*
G01*
X87368D02*
G03*
X87125Y2813I832J-1819D01*
G01*
X83435Y8230D02*
G03*
X82165Y8230I-635J0D01*
G01*
X66636Y35588D02*
G03*
X66749Y35590I113J-4499D01*
G01*
X49700Y21749D02*
G03*
X49700Y21749I-3150J0D01*
G01*
X49200Y36000D02*
G03*
X49200Y36000I-3150J0D01*
G01*
X72000Y13200D02*
G03*
X72000Y13200I-5000J0D01*
G01*
X75200Y48000D02*
G03*
X75200Y48000I-5000J0D01*
G01*
X69100Y7060D02*
X69500D01*
X69100Y6360D02*
X69500D01*
X95730Y19910D02*
X98270D01*
X95730D02*
Y30070D01*
X98270Y19910D02*
Y30070D01*
X95730D02*
X98270D01*
X71800Y35431D02*
Y35660D01*
Y40740D02*
Y40969D01*
X71038Y35660D02*
X71800D01*
X71038D02*
Y40740D01*
X72562D01*
Y35660D02*
Y40740D01*
X71800Y35660D02*
X72562D01*
X60350Y2850D02*
Y6000D01*
X47850Y2850D02*
Y6000D01*
X60350Y12200D02*
Y15350D01*
X47850Y12200D02*
Y15350D01*
Y2850D02*
X60350D01*
X47850Y15350D02*
X60350D01*
X21500Y21000D02*
Y24300D01*
X10900Y21000D02*
X21500D01*
X10900D02*
Y24300D01*
X3930Y9130D02*
Y14210D01*
Y9130D02*
X6470D01*
Y14210D01*
X3930D02*
X6470D01*
X40850Y40000D02*
Y50400D01*
X39300D02*
X40850D01*
X39300Y40000D02*
X40850D01*
X22100Y36000D02*
Y46000D01*
X18900Y36000D02*
Y46000D01*
Y36000D02*
X22100D01*
X18900Y46000D02*
X22100D01*
X5250Y22800D02*
Y23200D01*
X5950Y22800D02*
Y23200D01*
X31250Y20950D02*
Y23850D01*
X30950Y20950D02*
Y23850D01*
Y20950D02*
X31250D01*
X30950Y23850D02*
X31250D01*
X88315Y8230D02*
Y43790D01*
X77285D02*
X88315D01*
X77285Y8230D02*
Y43790D01*
Y8230D02*
X82165D01*
X83435D02*
X88315D01*
X50500Y26750D02*
X60900D01*
Y28300D01*
X50500Y26750D02*
Y28300D01*
X77350Y3000D02*
Y3400D01*
X78050Y3000D02*
Y3400D01*
X94050Y44100D02*
Y44500D01*
X93350Y44100D02*
Y44500D01*
X93650Y37580D02*
Y37980D01*
X94350Y37580D02*
Y37980D01*
X93650Y33300D02*
Y33700D01*
X94350Y33300D02*
Y33700D01*
X5200Y16350D02*
X5600D01*
X5200Y15650D02*
X5600D01*
X26300Y41650D02*
X26700D01*
X26300Y40950D02*
X26700D01*
X17275Y7250D02*
X19875D01*
X20325Y7700D01*
X19875Y11355D02*
X20325Y10900D01*
X9825Y11350D02*
X12525D01*
X9825Y7250D02*
X12525D01*
X9825D02*
Y11350D01*
X20325Y7700D02*
Y10900D01*
X17275Y11350D02*
X19875D01*
X51225Y20650D02*
X53825D01*
X50775Y20200D02*
X51225Y20650D01*
X50775Y17000D02*
X51225Y16545D01*
X58575Y16550D02*
X61275D01*
X58575Y20650D02*
X61275D01*
Y16550D02*
Y20650D01*
X50775Y17000D02*
Y20200D01*
X51225Y16550D02*
X53825D01*
X89650Y48100D02*
Y48500D01*
X88950Y48100D02*
Y48500D01*
X46850Y40425D02*
Y43025D01*
Y40425D02*
X47300Y39975D01*
X50500D02*
X50955Y40425D01*
X50950Y47775D02*
Y50475D01*
X46850Y47775D02*
Y50475D01*
X50950D01*
X47300Y39975D02*
X50500D01*
X50950Y40425D02*
Y43025D01*
X66343Y32826D02*
X67359D01*
X66851Y32318D02*
Y33334D01*
X95876Y7710D02*
Y17870D01*
X95139Y7710D02*
X95876D01*
X95139Y10684D02*
Y14947D01*
Y17870D02*
X96155D01*
X94885D02*
X95876D01*
X95139Y8627D02*
Y9333D01*
Y14947D02*
Y17870D01*
Y7710D02*
Y8627D01*
Y9333D02*
Y10684D01*
X65180Y2880D02*
Y5420D01*
X75340D01*
X65180Y2880D02*
X75340D01*
Y5420D01*
X61200Y51850D02*
X64350D01*
X61200Y39350D02*
X64350D01*
X51850Y51850D02*
X55000D01*
X51850Y39350D02*
X55000D01*
X64350D02*
Y51850D01*
X51850Y39350D02*
Y51850D01*
X95830Y41590D02*
X98370D01*
Y31430D02*
Y41590D01*
X95830Y31430D02*
Y41590D01*
Y31430D02*
X98370D01*
X33100Y13700D02*
Y14500D01*
X30700Y13700D02*
Y14500D01*
X71180Y26500D02*
Y26900D01*
X71880Y26500D02*
Y26900D01*
X28400Y32400D02*
Y34300D01*
X26100Y32400D02*
Y34300D01*
Y32400D02*
X28400D01*
X26500Y38500D02*
X28000D01*
X28400Y36300D02*
Y38000D01*
X26100D02*
X26500Y38500D01*
X28000D02*
X28400Y38000D01*
X26100Y36300D02*
Y38000D01*
X6950Y39100D02*
Y42900D01*
X10050Y39100D02*
Y42900D01*
X4530Y27618D02*
Y32698D01*
Y27618D02*
X7070D01*
Y32698D01*
X4530D02*
X7070D01*
X17600Y2800D02*
Y3600D01*
X20000Y2800D02*
Y3600D01*
X11030Y45330D02*
Y50410D01*
Y45330D02*
X13570D01*
Y50410D01*
X11030D02*
X13570D01*
X27350Y18375D02*
Y20975D01*
X26900Y21425D02*
X27350Y20975D01*
X23245D02*
X23700Y21425D01*
X23250Y10925D02*
Y13625D01*
X27350Y10925D02*
Y13625D01*
X23250Y10925D02*
X27350D01*
X23700Y21425D02*
X26900D01*
X23250Y18375D02*
Y20975D01*
X77410Y47050D02*
Y49590D01*
X87570D01*
X77410Y47050D02*
X87570D01*
Y49590D01*
X14700Y44525D02*
X15100D01*
X14700Y43825D02*
X15100D01*
X26450Y43800D02*
Y44200D01*
X27150Y43800D02*
Y44200D01*
X16550Y48850D02*
X16950D01*
X16550Y48150D02*
X16950D01*
X21850Y49850D02*
X22250D01*
X21850Y50550D02*
X22250D01*
X10850Y13800D02*
Y14200D01*
X11550Y13800D02*
Y14200D01*
X21800Y48850D02*
X22200D01*
X21800Y48150D02*
X22200D01*
X16550Y51550D02*
X16950D01*
X16550Y52250D02*
X16950D01*
X96600Y46000D02*
X97500D01*
Y45200D02*
Y46000D01*
X96600Y43000D02*
X97500D01*
Y43800D01*
X4100Y18800D02*
Y19700D01*
X4900D01*
X7100Y18800D02*
Y19700D01*
X6300D02*
X7100D01*
X92300Y49900D02*
X93200D01*
Y49100D02*
Y49900D01*
X92300Y46900D02*
X93200D01*
Y47700D01*
X34255Y10888D02*
X39335D01*
X34255Y7878D02*
Y9885D01*
X34230Y2532D02*
Y6875D01*
X35506Y2532D02*
X38059D01*
X39335D02*
Y10888D01*
X38059Y2532D02*
X39335D01*
X34230D02*
X35506D01*
X34255Y6875D02*
Y7878D01*
Y9885D02*
Y10888D01*
X26850Y24000D02*
Y27800D01*
X23750Y24000D02*
Y27800D01*
X34255Y28788D02*
X39335D01*
X34255Y25778D02*
Y27785D01*
X34230Y20432D02*
Y24775D01*
X35506Y20432D02*
X38059D01*
X39335D02*
Y28788D01*
X38059Y20432D02*
X39335D01*
X34230D02*
X35506D01*
X34255Y24775D02*
Y25778D01*
Y27785D02*
Y28788D01*
X30700Y10350D02*
X31100D01*
X30700Y9650D02*
X31100D01*
X23512Y2265D02*
Y7345D01*
X24515Y2265D02*
X26522D01*
X27525Y2240D02*
X31868D01*
Y3516D02*
Y6069D01*
X23512Y7345D02*
X31868D01*
Y6069D02*
Y7345D01*
Y2240D02*
Y3516D01*
X26522Y2265D02*
X27525D01*
X23512D02*
X24515D01*
X16550Y49850D02*
X16950D01*
X16550Y50550D02*
X16950D01*
X34255Y11412D02*
X39335D01*
Y12415D02*
Y14422D01*
X39360Y15425D02*
Y19768D01*
X35531D02*
X38084D01*
X34255Y11412D02*
Y19768D01*
X35531D01*
X38084D02*
X39360D01*
X39335Y14422D02*
Y15425D01*
Y11412D02*
Y12415D01*
X13000Y13900D02*
Y15100D01*
X44619Y22830D02*
X45635D01*
X45127Y22322D02*
Y23338D01*
X44461Y34578D02*
X45477D01*
X44969Y34070D02*
Y35086D01*
X65425Y11315D02*
Y12331D01*
X64917Y11823D02*
X65933D01*
X71267Y49377D02*
X72283D01*
X71775Y48869D02*
Y49885D01*
X67934Y24831D02*
Y25631D01*
X68334D01*
X68467Y25497D01*
Y25231D01*
X68334Y25098D01*
X67934D01*
X68201D02*
X68467Y24831D01*
X69267D02*
X68734D01*
X69267Y25364D01*
Y25497D01*
X69134Y25631D01*
X68867D01*
X68734Y25497D01*
X69933Y24831D02*
Y25631D01*
X69533Y25231D01*
X70067D01*
X64300Y6400D02*
Y7200D01*
X64700D01*
X64833Y7066D01*
Y6800D01*
X64700Y6667D01*
X64300D01*
X64567D02*
X64833Y6400D01*
X65633D02*
X65100D01*
X65633Y6933D01*
Y7066D01*
X65500Y7200D01*
X65233D01*
X65100Y7066D01*
X65899D02*
X66033Y7200D01*
X66299D01*
X66433Y7066D01*
Y6933D01*
X66299Y6800D01*
X66166D01*
X66299D01*
X66433Y6667D01*
Y6533D01*
X66299Y6400D01*
X66033D01*
X65899Y6533D01*
X67300Y31500D02*
X66500D01*
Y31100D01*
X66633Y30967D01*
X66767D01*
X66900Y31100D01*
Y31500D01*
Y31100D01*
X67033Y30967D01*
X67166D01*
X67300Y31100D01*
Y31500D01*
Y30700D02*
Y30167D01*
X67166D01*
X66633Y30700D01*
X66500D01*
Y30167D01*
Y29901D02*
Y29634D01*
Y29767D01*
X67300D01*
X67166Y29901D01*
X15683Y2366D02*
X15550Y2500D01*
X15283D01*
X15150Y2366D01*
Y1833D01*
X15283Y1700D01*
X15550D01*
X15683Y1833D01*
X15950Y1700D02*
X16216D01*
X16083D01*
Y2500D01*
X15950Y2366D01*
X47033Y32166D02*
X46900Y32300D01*
X46633D01*
X46500Y32166D01*
Y31633D01*
X46633Y31500D01*
X46900D01*
X47033Y31633D01*
X47833Y31500D02*
X47300D01*
X47833Y32033D01*
Y32166D01*
X47700Y32300D01*
X47433D01*
X47300Y32166D01*
X46383Y17666D02*
X46250Y17799D01*
X45983D01*
X45850Y17666D01*
Y17133D01*
X45983Y16999D01*
X46250D01*
X46383Y17133D01*
X46649Y17666D02*
X46783Y17799D01*
X47049D01*
X47183Y17666D01*
Y17533D01*
X47049Y17399D01*
X46916D01*
X47049D01*
X47183Y17266D01*
Y17133D01*
X47049Y16999D01*
X46783D01*
X46649Y17133D01*
X28833Y15966D02*
X28700Y16100D01*
X28433D01*
X28300Y15966D01*
Y15433D01*
X28433Y15300D01*
X28700D01*
X28833Y15433D01*
X29500Y15300D02*
Y16100D01*
X29100Y15700D01*
X29633D01*
X31833Y17366D02*
X31700Y17500D01*
X31433D01*
X31300Y17366D01*
Y16833D01*
X31433Y16700D01*
X31700D01*
X31833Y16833D01*
X32633Y17500D02*
X32100D01*
Y17100D01*
X32366Y17233D01*
X32500D01*
X32633Y17100D01*
Y16833D01*
X32500Y16700D01*
X32233D01*
X32100Y16833D01*
X14733Y12966D02*
X14600Y13100D01*
X14333D01*
X14200Y12966D01*
Y12433D01*
X14333Y12300D01*
X14600D01*
X14733Y12433D01*
X15533Y13100D02*
X15266Y12966D01*
X15000Y12700D01*
Y12433D01*
X15133Y12300D01*
X15400D01*
X15533Y12433D01*
Y12567D01*
X15400Y12700D01*
X15000D01*
X90733Y7766D02*
X90600Y7900D01*
X90333D01*
X90200Y7766D01*
Y7233D01*
X90333Y7100D01*
X90600D01*
X90733Y7233D01*
X91000Y7900D02*
X91533D01*
Y7766D01*
X91000Y7233D01*
Y7100D01*
X10166Y35967D02*
X10300Y36100D01*
Y36367D01*
X10166Y36500D01*
X9633D01*
X9500Y36367D01*
Y36100D01*
X9633Y35967D01*
X10166Y35700D02*
X10300Y35567D01*
Y35300D01*
X10166Y35167D01*
X10033D01*
X9900Y35300D01*
X9767Y35167D01*
X9633D01*
X9500Y35300D01*
Y35567D01*
X9633Y35700D01*
X9767D01*
X9900Y35567D01*
X10033Y35700D01*
X10166D01*
X9900Y35567D02*
Y35300D01*
X86033Y7666D02*
X85900Y7800D01*
X85633D01*
X85500Y7666D01*
Y7133D01*
X85633Y7000D01*
X85900D01*
X86033Y7133D01*
X86300D02*
X86433Y7000D01*
X86700D01*
X86833Y7133D01*
Y7666D01*
X86700Y7800D01*
X86433D01*
X86300Y7666D01*
Y7533D01*
X86433Y7400D01*
X86833D01*
X28333Y44216D02*
X28200Y44350D01*
X27933D01*
X27800Y44216D01*
Y43683D01*
X27933Y43550D01*
X28200D01*
X28333Y43683D01*
X28600Y43550D02*
X28866D01*
X28733D01*
Y44350D01*
X28600Y44216D01*
X29266D02*
X29399Y44350D01*
X29666D01*
X29799Y44216D01*
Y43683D01*
X29666Y43550D01*
X29399D01*
X29266Y43683D01*
Y44216D01*
X67933Y47666D02*
X67800Y47800D01*
X67533D01*
X67400Y47666D01*
Y47133D01*
X67533Y47000D01*
X67800D01*
X67933Y47133D01*
X68200Y47000D02*
X68466D01*
X68333D01*
Y47800D01*
X68200Y47666D01*
X68866Y47000D02*
X69133D01*
X68999D01*
Y47800D01*
X68866Y47666D01*
X45175Y53200D02*
Y52400D01*
X45575D01*
X45708Y52533D01*
Y53066D01*
X45575Y53200D01*
X45175D01*
X45975Y52400D02*
X46241D01*
X46108D01*
Y53200D01*
X45975Y53066D01*
X48600Y18500D02*
Y17700D01*
X49000D01*
X49133Y17833D01*
Y18366D01*
X49000Y18500D01*
X48600D01*
X49933Y17700D02*
X49400D01*
X49933Y18233D01*
Y18366D01*
X49800Y18500D01*
X49533D01*
X49400Y18366D01*
X23600Y15600D02*
X24400D01*
Y16000D01*
X24267Y16133D01*
X23734D01*
X23600Y16000D01*
Y15600D01*
X23734Y16400D02*
X23600Y16533D01*
Y16800D01*
X23734Y16933D01*
X23867D01*
X24000Y16800D01*
Y16666D01*
Y16800D01*
X24133Y16933D01*
X24267D01*
X24400Y16800D01*
Y16533D01*
X24267Y16400D01*
X14100Y8300D02*
Y7500D01*
X14500D01*
X14633Y7633D01*
Y8166D01*
X14500Y8300D01*
X14100D01*
X15300Y7500D02*
Y8300D01*
X14900Y7900D01*
X15433D01*
X26450Y35500D02*
Y34700D01*
X26850D01*
X26983Y34833D01*
Y35366D01*
X26850Y35500D01*
X26450D01*
X27783D02*
X27250D01*
Y35100D01*
X27516Y35233D01*
X27650D01*
X27783Y35100D01*
Y34833D01*
X27650Y34700D01*
X27383D01*
X27250Y34833D01*
X94883Y19200D02*
X94350D01*
Y18400D01*
X94883D01*
X94350Y18800D02*
X94617D01*
X95683Y19066D02*
X95550Y19200D01*
X95283D01*
X95150Y19066D01*
Y18933D01*
X95283Y18800D01*
X95550D01*
X95683Y18667D01*
Y18533D01*
X95550Y18400D01*
X95283D01*
X95150Y18533D01*
X95949Y18400D02*
Y19200D01*
X96349D01*
X96483Y19066D01*
Y18800D01*
X96349Y18667D01*
X95949D01*
X96749Y18400D02*
X97016D01*
X96883D01*
Y19200D01*
X96749Y19066D01*
X57700Y54100D02*
Y53300D01*
X58233D01*
X58500D02*
X58766D01*
X58633D01*
Y54100D01*
X58500Y53966D01*
X45100Y8450D02*
Y7650D01*
X45633D01*
X46433D02*
X45900D01*
X46433Y8183D01*
Y8316D01*
X46300Y8450D01*
X46033D01*
X45900Y8316D01*
X4629Y33502D02*
Y34302D01*
X5029D01*
X5163Y34168D01*
Y33902D01*
X5029Y33768D01*
X4629D01*
X5429Y33502D02*
X5696D01*
X5562D01*
Y34302D01*
X5429Y34168D01*
X11700Y51200D02*
Y52000D01*
X12100D01*
X12233Y51866D01*
Y51600D01*
X12100Y51467D01*
X11700D01*
X13033Y51200D02*
X12500D01*
X13033Y51733D01*
Y51866D01*
X12900Y52000D01*
X12633D01*
X12500Y51866D01*
X99300Y40800D02*
Y41600D01*
X99700D01*
X99833Y41466D01*
Y41200D01*
X99700Y41067D01*
X99300D01*
X100100Y41466D02*
X100233Y41600D01*
X100500D01*
X100633Y41466D01*
Y41333D01*
X100500Y41200D01*
X100366D01*
X100500D01*
X100633Y41067D01*
Y40933D01*
X100500Y40800D01*
X100233D01*
X100100Y40933D01*
X83660Y50420D02*
Y51220D01*
X84060D01*
X84193Y51086D01*
Y50820D01*
X84060Y50687D01*
X83660D01*
X84860Y50420D02*
Y51220D01*
X84460Y50820D01*
X84993D01*
X73570Y5950D02*
Y6750D01*
X73970D01*
X74103Y6616D01*
Y6350D01*
X73970Y6217D01*
X73570D01*
X74903Y6750D02*
X74370D01*
Y6350D01*
X74636Y6483D01*
X74770D01*
X74903Y6350D01*
Y6083D01*
X74770Y5950D01*
X74503D01*
X74370Y6083D01*
X99100Y29200D02*
Y30000D01*
X99500D01*
X99633Y29866D01*
Y29600D01*
X99500Y29467D01*
X99100D01*
X100433Y30000D02*
X100166Y29866D01*
X99900Y29600D01*
Y29333D01*
X100033Y29200D01*
X100300D01*
X100433Y29333D01*
Y29467D01*
X100300Y29600D01*
X99900D01*
X7100Y11600D02*
Y12400D01*
X7500D01*
X7633Y12266D01*
Y12000D01*
X7500Y11867D01*
X7100D01*
X7900Y12266D02*
X8033Y12400D01*
X8300D01*
X8433Y12266D01*
Y12133D01*
X8300Y12000D01*
X8433Y11867D01*
Y11733D01*
X8300Y11600D01*
X8033D01*
X7900Y11733D01*
Y11867D01*
X8033Y12000D01*
X7900Y12133D01*
Y12266D01*
X8033Y12000D02*
X8300D01*
X26633Y8033D02*
Y8566D01*
X26500Y8700D01*
X26233D01*
X26100Y8566D01*
Y8033D01*
X26233Y7900D01*
X26500D01*
X26367Y8167D02*
X26633Y7900D01*
X26500D02*
X26633Y8033D01*
X26900Y7900D02*
X27166D01*
X27033D01*
Y8700D01*
X26900Y8566D01*
X40933Y3133D02*
Y3666D01*
X40800Y3800D01*
X40533D01*
X40400Y3666D01*
Y3133D01*
X40533Y3000D01*
X40800D01*
X40667Y3267D02*
X40933Y3000D01*
X40800D02*
X40933Y3133D01*
X41733Y3000D02*
X41200D01*
X41733Y3533D01*
Y3666D01*
X41600Y3800D01*
X41333D01*
X41200Y3666D01*
X40433Y13033D02*
Y13566D01*
X40300Y13700D01*
X40033D01*
X39900Y13566D01*
Y13033D01*
X40033Y12900D01*
X40300D01*
X40167Y13167D02*
X40433Y12900D01*
X40300D02*
X40433Y13033D01*
X40700Y13566D02*
X40833Y13700D01*
X41100D01*
X41233Y13566D01*
Y13433D01*
X41100Y13300D01*
X40966D01*
X41100D01*
X41233Y13167D01*
Y13033D01*
X41100Y12900D01*
X40833D01*
X40700Y13033D01*
X36633Y29533D02*
Y30066D01*
X36500Y30200D01*
X36233D01*
X36100Y30066D01*
Y29533D01*
X36233Y29400D01*
X36500D01*
X36367Y29667D02*
X36633Y29400D01*
X36500D02*
X36633Y29533D01*
X37300Y29400D02*
Y30200D01*
X36900Y29800D01*
X37433D01*
X22633Y30633D02*
Y31166D01*
X22500Y31300D01*
X22233D01*
X22100Y31166D01*
Y30633D01*
X22233Y30500D01*
X22500D01*
X22367Y30767D02*
X22633Y30500D01*
X22500D02*
X22633Y30633D01*
X22900Y31166D02*
X23033Y31300D01*
X23300D01*
X23433Y31166D01*
Y31033D01*
X23300Y30900D01*
X23433Y30767D01*
Y30633D01*
X23300Y30500D01*
X23033D01*
X22900Y30633D01*
Y30767D01*
X23033Y30900D01*
X22900Y31033D01*
Y31166D01*
X23033Y30900D02*
X23300D01*
X32600Y10200D02*
Y11000D01*
X33000D01*
X33133Y10866D01*
Y10600D01*
X33000Y10467D01*
X32600D01*
X32867D02*
X33133Y10200D01*
X33400D02*
X33666D01*
X33533D01*
Y11000D01*
X33400Y10866D01*
X24600Y24500D02*
Y25300D01*
X25000D01*
X25133Y25166D01*
Y24900D01*
X25000Y24767D01*
X24600D01*
X24867D02*
X25133Y24500D01*
X25933D02*
X25400D01*
X25933Y25033D01*
Y25166D01*
X25800Y25300D01*
X25533D01*
X25400Y25166D01*
X18350Y49800D02*
Y50600D01*
X18750D01*
X18883Y50466D01*
Y50200D01*
X18750Y50067D01*
X18350D01*
X18617D02*
X18883Y49800D01*
X19150Y50466D02*
X19283Y50600D01*
X19550D01*
X19683Y50466D01*
Y50333D01*
X19550Y50200D01*
X19416D01*
X19550D01*
X19683Y50067D01*
Y49933D01*
X19550Y49800D01*
X19283D01*
X19150Y49933D01*
X18350Y51500D02*
Y52300D01*
X18750D01*
X18883Y52166D01*
Y51900D01*
X18750Y51767D01*
X18350D01*
X18617D02*
X18883Y51500D01*
X19550D02*
Y52300D01*
X19150Y51900D01*
X19683D01*
X21300Y46600D02*
Y47400D01*
X21700D01*
X21833Y47266D01*
Y47000D01*
X21700Y46867D01*
X21300D01*
X21567D02*
X21833Y46600D01*
X22633Y47400D02*
X22100D01*
Y47000D01*
X22366Y47133D01*
X22500D01*
X22633Y47000D01*
Y46733D01*
X22500Y46600D01*
X22233D01*
X22100Y46733D01*
X9400Y14600D02*
X10200D01*
Y14200D01*
X10066Y14067D01*
X9800D01*
X9667Y14200D01*
Y14600D01*
Y14333D02*
X9400Y14067D01*
X10200Y13267D02*
X10066Y13534D01*
X9800Y13800D01*
X9533D01*
X9400Y13667D01*
Y13400D01*
X9533Y13267D01*
X9667D01*
X9800Y13400D01*
Y13800D01*
X18450Y48100D02*
Y48900D01*
X18850D01*
X18983Y48766D01*
Y48500D01*
X18850Y48367D01*
X18450D01*
X18717D02*
X18983Y48100D01*
X19250Y48900D02*
X19783D01*
Y48766D01*
X19250Y48233D01*
Y48100D01*
X21200Y51300D02*
Y52100D01*
X21600D01*
X21733Y51966D01*
Y51700D01*
X21600Y51567D01*
X21200D01*
X21467D02*
X21733Y51300D01*
X22000Y51966D02*
X22133Y52100D01*
X22400D01*
X22533Y51966D01*
Y51833D01*
X22400Y51700D01*
X22533Y51567D01*
Y51433D01*
X22400Y51300D01*
X22133D01*
X22000Y51433D01*
Y51567D01*
X22133Y51700D01*
X22000Y51833D01*
Y51966D01*
X22133Y51700D02*
X22400D01*
X11500Y43700D02*
Y44500D01*
X11900D01*
X12033Y44366D01*
Y44100D01*
X11900Y43967D01*
X11500D01*
X11767D02*
X12033Y43700D01*
X12300Y43833D02*
X12433Y43700D01*
X12700D01*
X12833Y43833D01*
Y44366D01*
X12700Y44500D01*
X12433D01*
X12300Y44366D01*
Y44233D01*
X12433Y44100D01*
X12833D01*
X27800Y46300D02*
Y47100D01*
X28200D01*
X28333Y46966D01*
Y46700D01*
X28200Y46567D01*
X27800D01*
X28067D02*
X28333Y46300D01*
X28600D02*
X28866D01*
X28733D01*
Y47100D01*
X28600Y46966D01*
X29266D02*
X29399Y47100D01*
X29666D01*
X29799Y46966D01*
Y46433D01*
X29666Y46300D01*
X29399D01*
X29266Y46433D01*
Y46966D01*
X28300Y40900D02*
Y41700D01*
X28700D01*
X28833Y41566D01*
Y41300D01*
X28700Y41167D01*
X28300D01*
X28567D02*
X28833Y40900D01*
X29100D02*
X29366D01*
X29233D01*
Y41700D01*
X29100Y41566D01*
X29766Y40900D02*
X30033D01*
X29899D01*
Y41700D01*
X29766Y41566D01*
X60800Y25100D02*
Y25900D01*
X61200D01*
X61333Y25766D01*
Y25500D01*
X61200Y25367D01*
X60800D01*
X61067D02*
X61333Y25100D01*
X61600D02*
X61866D01*
X61733D01*
Y25900D01*
X61600Y25766D01*
X62799Y25100D02*
X62266D01*
X62799Y25633D01*
Y25766D01*
X62666Y25900D01*
X62399D01*
X62266Y25766D01*
X93000Y35300D02*
Y36100D01*
X93400D01*
X93533Y35966D01*
Y35700D01*
X93400Y35567D01*
X93000D01*
X93267D02*
X93533Y35300D01*
X93800D02*
X94066D01*
X93933D01*
Y36100D01*
X93800Y35966D01*
X94466D02*
X94599Y36100D01*
X94866D01*
X94999Y35966D01*
Y35833D01*
X94866Y35700D01*
X94733D01*
X94866D01*
X94999Y35567D01*
Y35433D01*
X94866Y35300D01*
X94599D01*
X94466Y35433D01*
X89200Y45600D02*
Y46400D01*
X89600D01*
X89733Y46266D01*
Y46000D01*
X89600Y45867D01*
X89200D01*
X89467D02*
X89733Y45600D01*
X90000D02*
X90266D01*
X90133D01*
Y46400D01*
X90000Y46266D01*
X91066Y45600D02*
Y46400D01*
X90666Y46000D01*
X91199D01*
X70300Y17800D02*
Y18600D01*
X70700D01*
X70833Y18466D01*
Y18200D01*
X70700Y18067D01*
X70300D01*
X70567D02*
X70833Y17800D01*
X71100D02*
X71366D01*
X71233D01*
Y18600D01*
X71100Y18466D01*
X72299Y18600D02*
X71766D01*
Y18200D01*
X72033Y18333D01*
X72166D01*
X72299Y18200D01*
Y17933D01*
X72166Y17800D01*
X71899D01*
X71766Y17933D01*
X2600Y40600D02*
Y41400D01*
X3000D01*
X3133Y41266D01*
Y41000D01*
X3000Y40867D01*
X2600D01*
X2867D02*
X3133Y40600D01*
X3400D02*
X3666D01*
X3533D01*
Y41400D01*
X3400Y41266D01*
X4599Y41400D02*
X4333Y41266D01*
X4066Y41000D01*
Y40733D01*
X4199Y40600D01*
X4466D01*
X4599Y40733D01*
Y40867D01*
X4466Y41000D01*
X4066D01*
X7300Y15500D02*
Y16300D01*
X7700D01*
X7833Y16166D01*
Y15900D01*
X7700Y15767D01*
X7300D01*
X7567D02*
X7833Y15500D01*
X8100D02*
X8366D01*
X8233D01*
Y16300D01*
X8100Y16166D01*
X8766Y16300D02*
X9299D01*
Y16166D01*
X8766Y15633D01*
Y15500D01*
X68300Y37440D02*
Y38240D01*
X68700D01*
X68833Y38106D01*
Y37840D01*
X68700Y37707D01*
X68300D01*
X68567D02*
X68833Y37440D01*
X69100D02*
X69366D01*
X69233D01*
Y38240D01*
X69100Y38106D01*
X69766D02*
X69899Y38240D01*
X70166D01*
X70299Y38106D01*
Y37973D01*
X70166Y37840D01*
X70299Y37707D01*
Y37573D01*
X70166Y37440D01*
X69899D01*
X69766Y37573D01*
Y37707D01*
X69899Y37840D01*
X69766Y37973D01*
Y38106D01*
X69899Y37840D02*
X70166D01*
X92700Y39700D02*
Y40500D01*
X93100D01*
X93233Y40366D01*
Y40100D01*
X93100Y39967D01*
X92700D01*
X92967D02*
X93233Y39700D01*
X93500D02*
X93766D01*
X93633D01*
Y40500D01*
X93500Y40366D01*
X94166Y39833D02*
X94299Y39700D01*
X94566D01*
X94699Y39833D01*
Y40366D01*
X94566Y40500D01*
X94299D01*
X94166Y40366D01*
Y40233D01*
X94299Y40100D01*
X94699D01*
X92500Y43400D02*
X91700D01*
Y43800D01*
X91834Y43933D01*
X92100D01*
X92233Y43800D01*
Y43400D01*
Y43667D02*
X92500Y43933D01*
Y44733D02*
Y44200D01*
X91967Y44733D01*
X91834D01*
X91700Y44600D01*
Y44333D01*
X91834Y44200D01*
Y44999D02*
X91700Y45133D01*
Y45399D01*
X91834Y45533D01*
X92367D01*
X92500Y45399D01*
Y45133D01*
X92367Y44999D01*
X91834D01*
X80000Y2200D02*
X79200D01*
Y2600D01*
X79334Y2733D01*
X79600D01*
X79733Y2600D01*
Y2200D01*
Y2467D02*
X80000Y2733D01*
Y3533D02*
Y3000D01*
X79467Y3533D01*
X79334D01*
X79200Y3400D01*
Y3133D01*
X79334Y3000D01*
X80000Y3799D02*
Y4066D01*
Y3933D01*
X79200D01*
X79334Y3799D01*
X2300Y22200D02*
Y23000D01*
X2700D01*
X2833Y22866D01*
Y22600D01*
X2700Y22467D01*
X2300D01*
X2567D02*
X2833Y22200D01*
X3633D02*
X3100D01*
X3633Y22733D01*
Y22866D01*
X3500Y23000D01*
X3233D01*
X3100Y22866D01*
X4433Y22200D02*
X3899D01*
X4433Y22733D01*
Y22866D01*
X4299Y23000D01*
X4033D01*
X3899Y22866D01*
X79800Y21600D02*
X80333D01*
X80067D01*
Y20800D01*
X81000D02*
X80733D01*
X80600Y20933D01*
Y21200D01*
X80733Y21333D01*
X81000D01*
X81133Y21200D01*
Y21067D01*
X80600D01*
X81799Y20800D02*
X81533D01*
X81399Y20933D01*
Y21200D01*
X81533Y21333D01*
X81799D01*
X81933Y21200D01*
Y21067D01*
X81399D01*
X82199Y20800D02*
Y21333D01*
X82599D01*
X82732Y21200D01*
Y20800D01*
X82999D02*
X83399D01*
X83532Y20933D01*
X83399Y21067D01*
X83132D01*
X82999Y21200D01*
X83132Y21333D01*
X83532D01*
X83799D02*
Y20933D01*
X83932Y20800D01*
X84332D01*
Y20667D01*
X84199Y20533D01*
X84065D01*
X84332Y20800D02*
Y21333D01*
X84598Y20800D02*
X84865D01*
X84732D01*
Y21600D01*
X84598Y21466D01*
X30800Y52200D02*
Y51533D01*
X30933Y51400D01*
X31200D01*
X31333Y51533D01*
Y52200D01*
X31600Y51400D02*
X31866D01*
X31733D01*
Y52200D01*
X31600Y52066D01*
X30400Y25500D02*
Y24833D01*
X30533Y24700D01*
X30800D01*
X30933Y24833D01*
Y25500D01*
X31733Y24700D02*
X31200D01*
X31733Y25233D01*
Y25366D01*
X31600Y25500D01*
X31333D01*
X31200Y25366D01*
X61700Y37200D02*
Y36533D01*
X61833Y36400D01*
X62100D01*
X62233Y36533D01*
Y37200D01*
X62500Y37066D02*
X62633Y37200D01*
X62900D01*
X63033Y37066D01*
Y36933D01*
X62900Y36800D01*
X62766D01*
X62900D01*
X63033Y36667D01*
Y36533D01*
X62900Y36400D01*
X62633D01*
X62500Y36533D01*
X20000Y44600D02*
Y43933D01*
X20133Y43800D01*
X20400D01*
X20533Y43933D01*
Y44600D01*
X21200Y43800D02*
Y44600D01*
X20800Y44200D01*
X21333D01*
X92333Y51133D02*
Y51666D01*
X92200Y51800D01*
X91933D01*
X91800Y51666D01*
Y51133D01*
X91933Y51000D01*
X92200D01*
X92067Y51267D02*
X92333Y51000D01*
X92200D02*
X92333Y51133D01*
X93133Y51800D02*
X92600D01*
Y51400D01*
X92866Y51533D01*
X93000D01*
X93133Y51400D01*
Y51133D01*
X93000Y51000D01*
X92733D01*
X92600Y51133D01*
X97333Y46733D02*
Y47266D01*
X97200Y47400D01*
X96933D01*
X96800Y47266D01*
Y46733D01*
X96933Y46600D01*
X97200D01*
X97067Y46867D02*
X97333Y46600D01*
X97200D02*
X97333Y46733D01*
X98133Y47400D02*
X97866Y47266D01*
X97600Y47000D01*
Y46733D01*
X97733Y46600D01*
X98000D01*
X98133Y46733D01*
Y46867D01*
X98000Y47000D01*
X97600D01*
X2433Y18933D02*
Y19466D01*
X2300Y19600D01*
X2033D01*
X1900Y19466D01*
Y18933D01*
X2033Y18800D01*
X2300D01*
X2167Y19067D02*
X2433Y18800D01*
X2300D02*
X2433Y18933D01*
X2700Y19600D02*
X3233D01*
Y19466D01*
X2700Y18933D01*
Y18800D01*
X62626Y19671D02*
X62493Y19805D01*
X62226D01*
X62093Y19671D01*
Y19138D01*
X62226Y19005D01*
X62493D01*
X62626Y19138D01*
X62893Y19005D02*
X63159D01*
X63026D01*
Y19805D01*
X62893Y19671D01*
X64092Y19005D02*
X63559D01*
X64092Y19538D01*
Y19671D01*
X63959Y19805D01*
X63692D01*
X63559Y19671D01*
X5500Y26700D02*
X6033D01*
X5767Y26966D02*
Y26433D01*
X2600Y29400D02*
X3400D01*
Y29800D01*
X3267Y29933D01*
X3133D01*
X3000Y29800D01*
Y29400D01*
Y29800D01*
X2867Y29933D01*
X2734D01*
X2600Y29800D01*
Y29400D01*
X3400Y30200D02*
X2867D01*
X2600Y30466D01*
X2867Y30733D01*
X3400D01*
X3000D01*
Y30200D01*
X2600Y30999D02*
Y31533D01*
Y31266D01*
X3400D01*
X3200Y8600D02*
X3733D01*
X3467Y8866D02*
Y8333D01*
X1967Y10000D02*
X2100Y10133D01*
Y10400D01*
X1967Y10533D01*
X1434D01*
X1300Y10400D01*
Y10133D01*
X1434Y10000D01*
X1567D01*
X1700Y10133D01*
Y10533D01*
X1300Y10800D02*
X1833D01*
X2100Y11066D01*
X1833Y11333D01*
X1300D01*
Y12399D02*
Y12666D01*
Y12533D01*
X2100D01*
Y12399D01*
Y12666D01*
Y13066D02*
X1300D01*
X2100Y13599D01*
X1300D01*
D59*
X12970Y18400D02*
G03*
X12970Y18400I-125J0D01*
G01*
X44325Y40725D02*
G03*
X44325Y40725I-125J0D01*
G01*
X23350Y35705D02*
G03*
X23350Y35705I-125J0D01*
G01*
X30025Y24175D02*
G03*
X30025Y24175I-125J0D01*
G01*
X51350Y23400D02*
G03*
X51350Y23400I-125J0D01*
G01*
X95775Y46300D02*
G03*
X95775Y46300I-125J0D01*
G01*
X3925Y17850D02*
G03*
X3925Y17850I-125J0D01*
G01*
X91475Y50200D02*
G03*
X91475Y50200I-125J0D01*
G01*
D60*
X21400Y37000D02*
G03*
X21400Y37000I-300J0D01*
G01*
X31900Y32850D02*
Y36349D01*
X34233Y32850D01*
Y36349D01*
X35399D02*
X36565D01*
X35982D01*
Y32850D01*
X35399D01*
X36565D01*
X38315D02*
Y36349D01*
X40064D01*
X40647Y35766D01*
Y34599D01*
X40064Y34016D01*
X38315D01*
X39481D02*
X40647Y32850D01*
M02*
