M48
;Layer_Color=9474304
;FILE_FORMAT=4:3
METRIC,LZ
;TYPE=PLATED
T1F00S00C0.600
T2F00S00C0.700
T3F00S00C0.711
T4F00S00C0.800
T5F00S00C0.850
T6F00S00C0.900
T7F00S00C3.500
%
T01
X009425Y000898
X009679
Y001152
Y001406
Y00166
X009425
Y001406
Y001152
X00904Y001204
Y001458
Y001712
Y001966
Y00222
Y002474
Y002728
Y002982
Y003236
Y00349
Y003744
Y003998
Y004252
X00752
Y003998
Y003744
Y00349
Y003236
Y002982
Y002728
Y002474
Y00222
Y001966
Y001712
Y001458
Y001204
Y00095
X00904
T02
X00933Y00039
Y00064
X0067Y00107
Y00157
X00703Y00203
Y00228
X00658
X00633
X00668Y00279
Y00344
X00702Y00455
X00478Y0036
X00443
X004655Y0023499
Y0019999
X00702Y00505
T03
X00405Y00068
X00793Y000555
X009565Y004715
X008176Y003754
X00405Y00158
X00326Y00187
X00299Y00193
X003Y00173
X00281Y00092
X00251Y00446
X00159Y00467
X0015065Y0040365
X0015Y00366
X001275Y00378
X00114Y00397
X000425Y003965
X00086Y00455
X0008654Y00475
X000385Y002595
X00086Y00495
X00764Y00534
X00957Y00499
T04
X00882Y0002
X00882Y0007
T05
X00718Y003439
Y004201
T06
X006645Y000415
X006899
X007153
X007407
X0097Y002118
Y002372
Y002626
Y00288
X00971Y00327
Y003524
Y003778
Y004032
X00123Y00466
X00058Y0031428
Y0028888
X00052Y001294
Y00104
X00123Y004914
X007868Y004832
X008122
X008376
X00863
T07
X000615Y00046
X00996Y00049
X0005Y00538
X01004Y00535
M30
