G04 Layer_Color=16711935*
%FSLAX43Y43*%
%MOMM*%
G71*
G01*
G75*
%ADD57C,0.100*%
D57*
X22100Y36900D02*
G03*
X22100Y36900I-500J0D01*
G01*
X68450Y6235D02*
Y7185D01*
X70150Y6235D02*
Y7185D01*
X68450D02*
X70150D01*
X68450Y6235D02*
X70150D01*
X47850Y2850D02*
X60350D01*
X47850Y15350D02*
X60350D01*
Y2850D02*
Y15350D01*
X47850Y2850D02*
Y15350D01*
X21500Y21000D02*
Y30600D01*
X10900Y21000D02*
Y30600D01*
X21500D01*
X10900Y21000D02*
X21500D01*
X31960Y50400D02*
X40850D01*
X31960Y40000D02*
X40850D01*
X31960D02*
Y50400D01*
X40850Y40000D02*
Y50400D01*
X22500Y36000D02*
Y46000D01*
X18500Y36000D02*
Y46000D01*
Y36000D02*
X22500D01*
X18500Y46000D02*
X22500D01*
X5125Y22150D02*
Y23850D01*
X6075Y22150D02*
Y23850D01*
X5125Y22150D02*
X6075D01*
X5125Y23850D02*
X6075D01*
X30225Y20950D02*
X31975D01*
X30225Y23850D02*
X31975D01*
Y20950D02*
Y23850D01*
X30225Y20950D02*
Y23850D01*
X60900Y26750D02*
Y35640D01*
X50500Y26750D02*
Y35640D01*
X60900D01*
X50500Y26750D02*
X60900D01*
X77225Y2350D02*
Y4050D01*
X78175Y2350D02*
Y4050D01*
X77225Y2350D02*
X78175D01*
X77225Y4050D02*
X78175D01*
X94175Y43450D02*
Y45150D01*
X93225Y43450D02*
Y45150D01*
X94175D01*
X93225Y43450D02*
X94175D01*
X93525Y36930D02*
Y38630D01*
X94475Y36930D02*
Y38630D01*
X93525Y36930D02*
X94475D01*
X93525Y38630D02*
X94475D01*
X93525Y32650D02*
Y34350D01*
X94475Y32650D02*
Y34350D01*
X93525Y32650D02*
X94475D01*
X93525Y34350D02*
X94475D01*
X4550Y16475D02*
X6250D01*
X4550Y15525D02*
X6250D01*
X4550D02*
Y16475D01*
X6250Y15525D02*
Y16475D01*
X25650Y41775D02*
X27350D01*
X25650Y40825D02*
X27350D01*
X25650D02*
Y41775D01*
X27350Y40825D02*
Y41775D01*
X89775Y47450D02*
Y49150D01*
X88825Y47450D02*
Y49150D01*
X89775D01*
X88825Y47450D02*
X89775D01*
X64350Y39350D02*
Y51850D01*
X51850Y39350D02*
Y51850D01*
X64350D01*
X51850Y39350D02*
X64350D01*
X28425Y12725D02*
Y14475D01*
X29375Y12725D02*
Y14475D01*
X28425Y12725D02*
X29375D01*
X28425Y14475D02*
X29375D01*
X30550Y15800D02*
X33250D01*
X30550Y12400D02*
X33250D01*
Y15800D01*
X30550Y12400D02*
Y15800D01*
X71055Y25850D02*
Y27550D01*
X72005Y25850D02*
Y27550D01*
X71055Y25850D02*
X72005D01*
X71055Y27550D02*
X72005D01*
X10600Y36450D02*
X11200D01*
X10600Y35350D02*
X11200D01*
Y36450D01*
X10600Y35350D02*
Y36450D01*
X6825Y37775D02*
Y44225D01*
X10175Y37775D02*
Y44225D01*
X6825Y37775D02*
X10175D01*
X6825Y44225D02*
X10175D01*
X17450Y1500D02*
X20150D01*
X17450Y4900D02*
X20150D01*
X17450Y1500D02*
Y4900D01*
X20150Y1500D02*
Y4900D01*
X26500Y47450D02*
X27100D01*
X26500Y46350D02*
X27100D01*
Y47450D01*
X26500Y46350D02*
Y47450D01*
X14050Y44650D02*
X15750D01*
X14050Y43700D02*
X15750D01*
X14050D02*
Y44650D01*
X15750Y43700D02*
Y44650D01*
X26325Y43150D02*
Y44850D01*
X27275Y43150D02*
Y44850D01*
X26325Y43150D02*
X27275D01*
X26325Y44850D02*
X27275D01*
X15900Y48975D02*
X17600D01*
X15900Y48025D02*
X17600D01*
X15900D02*
Y48975D01*
X17600Y48025D02*
Y48975D01*
X21200Y49725D02*
X22900D01*
X21200Y50675D02*
X22900D01*
Y49725D02*
Y50675D01*
X21200Y49725D02*
Y50675D01*
X10725Y13150D02*
Y14850D01*
X11675Y13150D02*
Y14850D01*
X10725Y13150D02*
X11675D01*
X10725Y14850D02*
X11675D01*
X21150Y48975D02*
X22850D01*
X21150Y48025D02*
X22850D01*
X21150D02*
Y48975D01*
X22850Y48025D02*
Y48975D01*
X15900Y51425D02*
X17600D01*
X15900Y52375D02*
X17600D01*
Y51425D02*
Y52375D01*
X15900Y51425D02*
Y52375D01*
X96100Y43000D02*
Y46000D01*
X97500Y43000D02*
Y46000D01*
X96100D02*
X97500D01*
X96100Y43000D02*
X97500D01*
X4100Y18300D02*
X7100D01*
X4100Y19700D02*
X7100D01*
X4100Y18300D02*
Y19700D01*
X7100Y18300D02*
Y19700D01*
X91800Y46900D02*
Y49900D01*
X93200Y46900D02*
Y49900D01*
X91800D02*
X93200D01*
X91800Y46900D02*
X93200D01*
X26975Y22675D02*
Y29125D01*
X23625Y22675D02*
Y29125D01*
X26975D01*
X23625Y22675D02*
X26975D01*
X30050Y10475D02*
X31750D01*
X30050Y9525D02*
X31750D01*
X30050D02*
Y10475D01*
X31750Y9525D02*
Y10475D01*
X15900Y49725D02*
X17600D01*
X15900Y50675D02*
X17600D01*
Y49725D02*
Y50675D01*
X15900Y49725D02*
Y50675D01*
X13450Y13675D02*
X16350D01*
X13450Y15325D02*
X16350D01*
Y13675D02*
Y15325D01*
X13450Y13675D02*
Y15325D01*
M02*
