G04 Layer_Physical_Order=1*
G04 Layer_Color=255*
%FSLAX43Y43*%
%MOMM*%
G71*
G01*
G75*
%ADD10R,0.700X0.900*%
%ADD11R,2.900X5.400*%
%ADD12R,4.500X1.500*%
%ADD13R,3.000X1.500*%
%ADD14R,1.500X3.000*%
%ADD15R,6.400X8.200*%
%ADD16R,1.050X4.100*%
%ADD17R,8.300X10.450*%
%ADD18R,3.200X1.050*%
%ADD19O,1.450X0.600*%
%ADD20R,0.900X0.700*%
%ADD21R,1.300X0.550*%
%ADD22R,10.450X8.300*%
%ADD23R,1.050X3.200*%
%ADD24R,2.400X3.300*%
%ADD25R,3.300X2.400*%
%ADD26R,5.400X2.900*%
%ADD27R,0.900X0.800*%
%ADD28R,2.600X1.100*%
%ADD29R,0.500X0.600*%
%ADD30R,1.500X1.500*%
%ADD31R,3.300X1.100*%
%ADD32R,1.050X0.600*%
%ADD33R,0.600X1.050*%
%ADD34R,0.610X1.020*%
%ADD35R,3.910X3.810*%
%ADD36R,1.020X0.610*%
%ADD37R,3.810X3.910*%
%ADD38R,4.400X1.500*%
%ADD39R,1.400X1.400*%
%ADD40C,0.500*%
%ADD41C,1.000*%
%ADD42C,2.000*%
%ADD43C,0.300*%
%ADD44C,1.500*%
%ADD45C,0.400*%
%ADD46C,1.200*%
%ADD47C,1.500*%
%ADD48C,1.400*%
%ADD49R,1.350X1.350*%
%ADD50C,1.350*%
%ADD51C,6.500*%
%ADD52O,2.500X1.200*%
%ADD53R,2.500X1.200*%
%ADD54R,1.200X1.200*%
%ADD55R,1.500X1.500*%
%ADD56C,1.270*%
G36*
X104667Y333D02*
X333D01*
Y57767D01*
X104667D01*
Y333D01*
D02*
G37*
%LPC*%
G36*
X75000Y55259D02*
X27300D01*
X27124Y55224D01*
X26976Y55124D01*
X22701Y50850D01*
X22250D01*
Y49550D01*
X22393D01*
Y49150D01*
X22200D01*
Y47850D01*
X23300D01*
Y49150D01*
X23107D01*
Y49550D01*
X23350D01*
Y50201D01*
X27490Y54341D01*
X74810D01*
X75580Y53571D01*
X75558Y53400D01*
X75586Y53182D01*
X75671Y52979D01*
X75804Y52804D01*
X75979Y52671D01*
X76182Y52586D01*
X76400Y52558D01*
X76618Y52586D01*
X76821Y52671D01*
X76996Y52804D01*
X77129Y52979D01*
X77214Y53182D01*
X77242Y53400D01*
X77214Y53618D01*
X77129Y53821D01*
X76996Y53996D01*
X76821Y54129D01*
X76618Y54214D01*
X76400Y54242D01*
X76229Y54220D01*
X75324Y55124D01*
X75176Y55224D01*
X75000Y55259D01*
D02*
G37*
G36*
X100400Y56961D02*
X99859Y56918D01*
X99331Y56791D01*
X98829Y56583D01*
X98366Y56300D01*
X97953Y55947D01*
X97600Y55534D01*
X97317Y55071D01*
X97109Y54569D01*
X96982Y54041D01*
X96939Y53500D01*
X96982Y52959D01*
X97109Y52431D01*
X97317Y51929D01*
X97576Y51505D01*
X97418Y51380D01*
X95099Y53699D01*
X94953Y53811D01*
X94783Y53882D01*
X94600Y53906D01*
X79900D01*
X79717Y53882D01*
X79547Y53811D01*
X79401Y53699D01*
X76908Y51206D01*
X71097D01*
X70971Y51371D01*
X70720Y51563D01*
X70428Y51684D01*
X70115Y51725D01*
X61000D01*
Y52200D01*
X55200D01*
Y51894D01*
X55115Y51810D01*
X54963Y51792D01*
X54810Y51775D01*
X54806Y51773D01*
X54801Y51773D01*
X54659Y51716D01*
X54516Y51660D01*
X54512Y51657D01*
X54508Y51656D01*
X54385Y51564D01*
X54262Y51473D01*
X52713Y49985D01*
X50750D01*
Y50275D01*
X47050D01*
Y47606D01*
X46195D01*
X46146Y47659D01*
X46054Y47821D01*
Y48473D01*
X44200D01*
Y48600D01*
X44073D01*
Y49379D01*
X42346D01*
Y49059D01*
X39154D01*
Y50679D01*
X34877D01*
Y45200D01*
Y39721D01*
X39154D01*
Y44741D01*
X42346D01*
Y44421D01*
X42390D01*
X42400Y44225D01*
X42400Y44221D01*
Y42775D01*
X46000D01*
Y42794D01*
X47050D01*
Y40525D01*
X50750D01*
Y40646D01*
X52201Y40680D01*
X53162Y39941D01*
X53206Y39915D01*
X53245Y39882D01*
X53342Y39836D01*
X53435Y39782D01*
X53485Y39769D01*
X53531Y39747D01*
X53637Y39728D01*
X53741Y39700D01*
X53792Y39700D01*
X53842Y39691D01*
X55200Y39626D01*
Y39000D01*
X61000D01*
Y42300D01*
X55200D01*
Y42194D01*
X55055Y42056D01*
X54337Y42091D01*
X53338Y42859D01*
X53256Y42907D01*
X53180Y42962D01*
X53120Y42985D01*
X53065Y43018D01*
X52973Y43042D01*
X52886Y43076D01*
X52822Y43083D01*
X52759Y43100D01*
X52665Y43100D01*
X52571Y43110D01*
X50893Y43070D01*
X50750Y43210D01*
Y43325D01*
X49473D01*
X49233Y43812D01*
X49220Y43831D01*
X49211Y43853D01*
X49169Y43908D01*
X49131Y43965D01*
X49113Y43981D01*
X49099Y43999D01*
X49044Y44041D01*
X48993Y44087D01*
X48972Y44097D01*
X48953Y44111D01*
X48889Y44138D01*
X48827Y44168D01*
X48804Y44173D01*
X48783Y44182D01*
X48714Y44191D01*
X48647Y44204D01*
X48623Y44203D01*
X48600Y44206D01*
X46500D01*
X46195D01*
X46146Y44259D01*
X46054Y44421D01*
Y45073D01*
X44200D01*
Y45327D01*
X46054D01*
Y45979D01*
X46146Y46141D01*
X46195Y46194D01*
X48000D01*
X48183Y46218D01*
X48353Y46289D01*
X48499Y46401D01*
X49574Y47475D01*
X50750D01*
Y47565D01*
X53200D01*
X53345Y47584D01*
X53490Y47600D01*
X53501Y47604D01*
X53513Y47606D01*
X53648Y47662D01*
X53784Y47715D01*
X53794Y47722D01*
X53805Y47727D01*
X53921Y47816D01*
X54038Y47902D01*
X55115Y48936D01*
X55200Y48900D01*
Y48900D01*
X61000D01*
Y49305D01*
X70115D01*
X70428Y49346D01*
X70624Y49427D01*
X72441Y47610D01*
Y45390D01*
X64276Y37224D01*
X64176Y37076D01*
X64141Y36900D01*
Y23346D01*
X63941Y23279D01*
X63871Y23371D01*
X63703Y23499D01*
X63509Y23579D01*
X63300Y23607D01*
X63091Y23579D01*
X62897Y23499D01*
X62729Y23371D01*
X62601Y23203D01*
X62521Y23009D01*
X62493Y22800D01*
X62521Y22591D01*
X62601Y22397D01*
X62729Y22229D01*
X62841Y22144D01*
Y19700D01*
X62876Y19524D01*
X62976Y19376D01*
X65176Y17176D01*
X65324Y17076D01*
X65500Y17041D01*
X67510D01*
X68741Y15810D01*
Y13190D01*
X67339Y11788D01*
X67263Y11819D01*
X66950Y11860D01*
X66637Y11819D01*
X66345Y11698D01*
X66094Y11506D01*
X64899Y10310D01*
X60700D01*
Y12000D01*
X60260D01*
Y12549D01*
X60531Y12819D01*
X60723Y13070D01*
X60844Y13362D01*
X60885Y13675D01*
Y16750D01*
X61075D01*
Y20450D01*
X58275D01*
X58206Y20621D01*
Y21394D01*
X58321Y21546D01*
X58406Y21546D01*
X58973D01*
Y23400D01*
X59100D01*
Y23527D01*
X59879D01*
Y25254D01*
X59559D01*
Y28446D01*
X61179D01*
Y32723D01*
X55700D01*
X50221D01*
Y28446D01*
X55241D01*
Y25254D01*
X54921D01*
Y25210D01*
X54725Y25200D01*
X54721Y25200D01*
X53275D01*
Y21600D01*
X53394D01*
Y20450D01*
X51325D01*
Y16750D01*
X51515D01*
Y14651D01*
X48863Y12000D01*
X47500D01*
Y6200D01*
X50800D01*
Y10513D01*
X53581Y13294D01*
X53773Y13545D01*
X53894Y13837D01*
X53935Y14150D01*
Y16750D01*
X54125D01*
Y19052D01*
X54599Y19526D01*
X54711Y19672D01*
X54782Y19842D01*
X54806Y20025D01*
Y21394D01*
X54921Y21546D01*
X55006Y21546D01*
X55573D01*
Y23400D01*
X55827D01*
Y21546D01*
X56479D01*
Y21546D01*
X56675Y21537D01*
X56786Y21457D01*
X56794Y21448D01*
Y19950D01*
X56818Y19767D01*
X56889Y19597D01*
X57001Y19451D01*
X58275Y18177D01*
Y16750D01*
X58465D01*
Y14176D01*
X58194Y13906D01*
X58002Y13655D01*
X57881Y13363D01*
X57840Y13050D01*
Y12000D01*
X57400D01*
Y6200D01*
X60700D01*
Y7890D01*
X65400D01*
X65713Y7931D01*
X66005Y8052D01*
X66256Y8244D01*
X67059Y9047D01*
X67244Y8971D01*
Y5922D01*
X66427Y5105D01*
X66202Y5076D01*
X65971Y4980D01*
X65772Y4828D01*
X65620Y4629D01*
X65524Y4398D01*
X65492Y4150D01*
X65524Y3902D01*
X65620Y3671D01*
X65764Y3484D01*
Y3130D01*
X65788Y2947D01*
X65859Y2777D01*
X65971Y2631D01*
X67101Y1501D01*
X67247Y1389D01*
X67417Y1318D01*
X67600Y1294D01*
X87325D01*
Y1125D01*
X89075D01*
Y1294D01*
X91400D01*
X91583Y1318D01*
X91753Y1389D01*
X91899Y1501D01*
X93526Y3128D01*
X93703Y3201D01*
X93871Y3329D01*
X93999Y3497D01*
X94079Y3691D01*
X94107Y3900D01*
X94089Y4040D01*
X95224Y5176D01*
X95324Y5324D01*
X95359Y5500D01*
Y6800D01*
X95324Y6976D01*
X95224Y7124D01*
X94709Y7640D01*
Y8324D01*
X94821Y8409D01*
X94949Y8577D01*
X95029Y8771D01*
X95057Y8980D01*
X95029Y9189D01*
X94949Y9383D01*
X94821Y9551D01*
X94653Y9679D01*
X94459Y9759D01*
X94250Y9787D01*
X94110Y9769D01*
X93259Y10620D01*
Y11388D01*
X93459Y11401D01*
X93471Y11311D01*
X93551Y11117D01*
X93679Y10949D01*
X93847Y10821D01*
X94041Y10741D01*
X94250Y10713D01*
X94459Y10741D01*
X94653Y10821D01*
X94821Y10949D01*
X94949Y11117D01*
X95029Y11311D01*
X95057Y11520D01*
X95029Y11729D01*
X94949Y11923D01*
X94821Y12091D01*
X94653Y12219D01*
X94459Y12299D01*
X94250Y12327D01*
X94041Y12299D01*
X93847Y12219D01*
X93679Y12091D01*
X93551Y11923D01*
X93471Y11729D01*
X93459Y11639D01*
X93259Y11652D01*
Y12420D01*
X94110Y13271D01*
X94250Y13253D01*
X94459Y13281D01*
X94653Y13361D01*
X94821Y13489D01*
X94949Y13657D01*
X95029Y13851D01*
X95057Y14060D01*
X95029Y14269D01*
X94949Y14463D01*
X94821Y14631D01*
X94653Y14759D01*
X94459Y14839D01*
X94250Y14867D01*
X94041Y14839D01*
X93847Y14759D01*
X93679Y14631D01*
X93551Y14463D01*
X93471Y14269D01*
X93443Y14060D01*
X93461Y13920D01*
X92576Y13034D01*
X92555Y13004D01*
X92476Y12924D01*
X92376Y12776D01*
X92341Y12600D01*
Y10430D01*
X92376Y10254D01*
X92476Y10106D01*
X93461Y9120D01*
X93443Y8980D01*
X93471Y8771D01*
X93551Y8577D01*
X93679Y8409D01*
X93791Y8324D01*
Y7450D01*
X93817Y7321D01*
X93709Y7206D01*
X93657Y7176D01*
X93523Y7232D01*
X93427Y7245D01*
Y6527D01*
X94145D01*
X94132Y6623D01*
X94123Y6646D01*
X94292Y6759D01*
X94441Y6610D01*
Y5690D01*
X93440Y4689D01*
X93300Y4707D01*
X93091Y4679D01*
X92897Y4599D01*
X92729Y4471D01*
X92601Y4303D01*
X92528Y4126D01*
X91108Y2706D01*
X89075D01*
Y2875D01*
X87325D01*
Y2706D01*
X78350D01*
Y3000D01*
X77050D01*
Y2706D01*
X67892D01*
X67176Y3422D01*
Y3536D01*
X67280Y3671D01*
X67376Y3902D01*
X67399Y4081D01*
X67941Y4622D01*
X68111Y4509D01*
X68064Y4398D01*
X68032Y4150D01*
X68064Y3902D01*
X68160Y3671D01*
X68312Y3472D01*
X68511Y3320D01*
X68742Y3224D01*
X68990Y3192D01*
X69238Y3224D01*
X69469Y3320D01*
X69668Y3472D01*
X69820Y3671D01*
X69916Y3902D01*
X69948Y4150D01*
X69916Y4398D01*
X69820Y4629D01*
X69668Y4828D01*
X69469Y4980D01*
X69238Y5076D01*
X69219Y5078D01*
X69166Y5114D01*
X68990Y5149D01*
X68814Y5114D01*
X68761Y5078D01*
X68742Y5076D01*
X68620Y5025D01*
X68494Y5189D01*
X68561Y5277D01*
X68632Y5447D01*
X68656Y5630D01*
Y6060D01*
X69100D01*
Y7360D01*
X68656D01*
Y9650D01*
X68632Y9833D01*
X68561Y10003D01*
X68449Y10149D01*
X68136Y10463D01*
X68160Y10650D01*
X68119Y10963D01*
X68029Y11180D01*
X69524Y12676D01*
X69624Y12824D01*
X69659Y13000D01*
Y16000D01*
X69624Y16176D01*
X69524Y16324D01*
X68024Y17824D01*
X67876Y17924D01*
X67700Y17959D01*
X65690D01*
X63759Y19890D01*
Y22144D01*
X63871Y22229D01*
X63941Y22321D01*
X64047Y22310D01*
X64149Y22263D01*
X64176Y22124D01*
X64276Y21976D01*
X71241Y15010D01*
Y10500D01*
X71276Y10324D01*
X71376Y10176D01*
X72376Y9176D01*
X72524Y9076D01*
X72700Y9041D01*
X73894D01*
X73979Y8929D01*
X74147Y8801D01*
X74341Y8721D01*
X74550Y8693D01*
X75850D01*
X76059Y8721D01*
X76253Y8801D01*
X76421Y8929D01*
X76549Y9097D01*
X76629Y9291D01*
X76657Y9500D01*
X76629Y9709D01*
X76549Y9903D01*
X76421Y10071D01*
X76253Y10199D01*
X76059Y10279D01*
X75850Y10307D01*
X74550D01*
X74341Y10279D01*
X74147Y10199D01*
X73979Y10071D01*
X73894Y9959D01*
X72890D01*
X72159Y10690D01*
Y15200D01*
X72124Y15376D01*
X72024Y15524D01*
X65751Y21798D01*
X65778Y21904D01*
X65834Y21998D01*
X66009Y22021D01*
X66203Y22101D01*
X66371Y22229D01*
X66499Y22397D01*
X66579Y22591D01*
X66607Y22800D01*
X66589Y22940D01*
X70640Y26991D01*
X70880D01*
Y26900D01*
X72180D01*
Y27446D01*
X72224Y27476D01*
X73524Y28776D01*
X73624Y28924D01*
X73659Y29100D01*
Y29326D01*
X73838Y29408D01*
X73859Y29407D01*
X73979Y29249D01*
X74147Y29121D01*
X74341Y29041D01*
X74550Y29013D01*
X75850D01*
X76059Y29041D01*
X76253Y29121D01*
X76421Y29249D01*
X76549Y29417D01*
X76629Y29611D01*
X76657Y29820D01*
X76629Y30029D01*
X76549Y30223D01*
X76421Y30391D01*
X76253Y30519D01*
X76059Y30599D01*
X75850Y30627D01*
X74550D01*
X74341Y30599D01*
X74147Y30519D01*
X73979Y30391D01*
X73859Y30233D01*
X73838Y30232D01*
X73659Y30314D01*
Y31866D01*
X73838Y31948D01*
X73859Y31947D01*
X73979Y31789D01*
X74147Y31661D01*
X74341Y31581D01*
X74550Y31553D01*
X75850D01*
X76059Y31581D01*
X76253Y31661D01*
X76421Y31789D01*
X76549Y31957D01*
X76629Y32151D01*
X76657Y32360D01*
X76629Y32569D01*
X76549Y32763D01*
X76421Y32931D01*
X76253Y33059D01*
X76059Y33139D01*
X75850Y33167D01*
X74550D01*
X74341Y33139D01*
X74147Y33059D01*
X73979Y32931D01*
X73859Y32773D01*
X73838Y32772D01*
X73659Y32854D01*
Y34010D01*
X73978Y34329D01*
X73979Y34329D01*
X74147Y34201D01*
X74341Y34121D01*
X74550Y34093D01*
X75850D01*
X76059Y34121D01*
X76253Y34201D01*
X76421Y34329D01*
X76549Y34497D01*
X76629Y34691D01*
X76657Y34900D01*
X76629Y35109D01*
X76549Y35303D01*
X76421Y35471D01*
X76253Y35599D01*
X76059Y35679D01*
X75850Y35707D01*
X74550D01*
X74341Y35679D01*
X74147Y35599D01*
X73979Y35471D01*
X73965Y35452D01*
X73824Y35424D01*
X73676Y35324D01*
X72890Y34539D01*
X72824Y34543D01*
X72681Y34593D01*
X72677Y34625D01*
X72586Y34844D01*
X72442Y35032D01*
X72254Y35176D01*
X72035Y35267D01*
X71800Y35298D01*
X71565Y35267D01*
X71346Y35176D01*
X71158Y35032D01*
X71018Y34849D01*
X67464D01*
X67371Y34971D01*
X67203Y35099D01*
X67009Y35179D01*
X66800Y35207D01*
X66591Y35179D01*
X66397Y35099D01*
X66229Y34971D01*
X66101Y34803D01*
X66021Y34609D01*
X65993Y34400D01*
X66021Y34191D01*
X66101Y33997D01*
X66229Y33829D01*
X66397Y33701D01*
X66591Y33621D01*
X66800Y33593D01*
X67009Y33621D01*
X67203Y33701D01*
X67371Y33829D01*
X67449Y33931D01*
X71018D01*
X71158Y33748D01*
X71346Y33604D01*
X71565Y33513D01*
X71800Y33482D01*
X72035Y33513D01*
X72254Y33604D01*
X72442Y33748D01*
X72541Y33878D01*
X72741Y33810D01*
Y29290D01*
X71576Y28124D01*
X71492Y28000D01*
X70880D01*
Y27909D01*
X70450D01*
X70274Y27874D01*
X70126Y27774D01*
X65940Y23589D01*
X65800Y23607D01*
X65591Y23579D01*
X65397Y23499D01*
X65259Y23393D01*
X65147Y23422D01*
X65059Y23477D01*
Y36710D01*
X70787Y42438D01*
X70956Y42324D01*
X70923Y42245D01*
X70892Y42010D01*
X70923Y41775D01*
X71014Y41556D01*
X71158Y41368D01*
X71341Y41228D01*
Y40750D01*
X71376Y40574D01*
X71476Y40426D01*
X72246Y39656D01*
X72394Y39556D01*
X72570Y39521D01*
X73894D01*
X73979Y39409D01*
X74147Y39281D01*
X74341Y39201D01*
X74550Y39173D01*
X75850D01*
X76059Y39201D01*
X76253Y39281D01*
X76421Y39409D01*
X76549Y39577D01*
X76629Y39771D01*
X76657Y39980D01*
X76629Y40189D01*
X76549Y40383D01*
X76421Y40551D01*
X76253Y40679D01*
X76059Y40759D01*
X75850Y40787D01*
X74550D01*
X74341Y40759D01*
X74147Y40679D01*
X73979Y40551D01*
X73894Y40439D01*
X72760D01*
X72259Y40940D01*
Y41228D01*
X72442Y41368D01*
X72586Y41556D01*
X72677Y41775D01*
X72708Y42010D01*
X72677Y42245D01*
X72586Y42464D01*
X72442Y42652D01*
X72254Y42796D01*
X72035Y42887D01*
X71800Y42918D01*
X71565Y42887D01*
X71486Y42854D01*
X71372Y43023D01*
X73224Y44876D01*
X73324Y45024D01*
X73359Y45200D01*
Y47800D01*
X73324Y47976D01*
X73224Y48124D01*
X71740Y49609D01*
X71816Y49794D01*
X76908D01*
X77873Y48829D01*
X77850Y48799D01*
X77754Y48568D01*
X77722Y48320D01*
X77754Y48072D01*
X77850Y47841D01*
X78002Y47642D01*
X78201Y47490D01*
X78432Y47394D01*
X78680Y47362D01*
X78928Y47394D01*
X79159Y47490D01*
X79358Y47642D01*
X79510Y47841D01*
X79606Y48072D01*
X79638Y48320D01*
X79606Y48568D01*
X79510Y48799D01*
X79386Y48960D01*
Y49020D01*
X79362Y49203D01*
X79291Y49373D01*
X79179Y49519D01*
X78198Y50500D01*
X80192Y52494D01*
X94308D01*
X95881Y50920D01*
X95788Y50731D01*
X95700Y50742D01*
X95529Y50720D01*
X95124Y51124D01*
X94976Y51224D01*
X94800Y51259D01*
X91900D01*
X91724Y51224D01*
X91576Y51124D01*
X91576Y51124D01*
X91056Y50604D01*
X90956Y50456D01*
X90921Y50280D01*
Y49850D01*
X90625D01*
Y49509D01*
X89950D01*
Y49600D01*
X88650D01*
Y48500D01*
X89950D01*
Y48591D01*
X91050D01*
X91226Y48626D01*
X91374Y48726D01*
X91499Y48850D01*
X92075D01*
Y49850D01*
X91839D01*
Y50090D01*
X92090Y50341D01*
X94610D01*
X94880Y50071D01*
X94858Y49900D01*
X94886Y49682D01*
X94971Y49479D01*
X95104Y49304D01*
X95279Y49171D01*
X95482Y49086D01*
X95700Y49058D01*
X95918Y49086D01*
X96121Y49171D01*
X96296Y49304D01*
X96429Y49479D01*
X96514Y49682D01*
X96542Y49900D01*
X96531Y49988D01*
X96720Y50081D01*
X100194Y46608D01*
Y46331D01*
X100114Y46281D01*
X99994Y46255D01*
X97524Y48724D01*
X97376Y48824D01*
X97200Y48859D01*
X94375D01*
Y48900D01*
X92925D01*
Y47900D01*
X94375D01*
Y47941D01*
X94981D01*
X95048Y47762D01*
X95051Y47741D01*
X94921Y47571D01*
X94836Y47368D01*
X94808Y47150D01*
X94836Y46932D01*
X94921Y46729D01*
X95054Y46554D01*
X95191Y46450D01*
Y45950D01*
X94925D01*
Y45509D01*
X94350D01*
Y45600D01*
X93050D01*
Y44500D01*
X94350D01*
Y44591D01*
X95250D01*
X95426Y44626D01*
X95574Y44726D01*
X95674Y44874D01*
X95689Y44950D01*
X96375D01*
Y45950D01*
X96109D01*
Y46450D01*
X96246Y46554D01*
X96379Y46729D01*
X96464Y46932D01*
X96492Y47150D01*
X96464Y47368D01*
X96379Y47571D01*
X96249Y47741D01*
X96252Y47762D01*
X96319Y47941D01*
X97010D01*
X99241Y45710D01*
Y44141D01*
X99041Y44058D01*
X98675Y44424D01*
Y45000D01*
X97225D01*
Y44000D01*
X97801D01*
X98341Y43460D01*
Y41090D01*
X98118Y40867D01*
X98089Y40857D01*
X97870Y40877D01*
X97778Y40998D01*
X97579Y41150D01*
X97348Y41246D01*
X97100Y41278D01*
X96852Y41246D01*
X96621Y41150D01*
X96422Y40998D01*
X96270Y40799D01*
X96262Y40779D01*
X95790D01*
X95614Y40744D01*
X95466Y40644D01*
X93901Y39080D01*
X93350D01*
Y37980D01*
X94650D01*
Y38531D01*
X95980Y39861D01*
X96262D01*
X96270Y39841D01*
X96422Y39642D01*
X96621Y39490D01*
X96852Y39394D01*
X97100Y39362D01*
X97348Y39394D01*
X97579Y39490D01*
X97778Y39642D01*
X97930Y39841D01*
X97938Y39861D01*
X98220D01*
X98396Y39896D01*
X98544Y39996D01*
X99041Y40492D01*
X99241Y40409D01*
Y39170D01*
X98310Y38239D01*
X97938D01*
X97930Y38259D01*
X97778Y38458D01*
X97579Y38610D01*
X97348Y38706D01*
X97100Y38738D01*
X96852Y38706D01*
X96621Y38610D01*
X96422Y38458D01*
X96270Y38259D01*
X96174Y38028D01*
X96142Y37780D01*
X96148Y37736D01*
X94865Y36454D01*
X94821Y36451D01*
X94650Y36599D01*
X94650Y36663D01*
Y37580D01*
X93350D01*
Y37029D01*
X92376Y36054D01*
X92276Y35906D01*
X92241Y35730D01*
Y33400D01*
X92276Y33224D01*
X92376Y33076D01*
X93076Y32376D01*
X93224Y32276D01*
X93350Y32251D01*
Y32200D01*
X94650D01*
Y32241D01*
X96150D01*
Y31750D01*
X98050D01*
Y31994D01*
X98608D01*
X99894Y30708D01*
Y23592D01*
X98188Y21886D01*
X97640D01*
X97479Y22010D01*
X97248Y22106D01*
X97000Y22138D01*
X96752Y22106D01*
X96521Y22010D01*
X96322Y21858D01*
X96170Y21659D01*
X96074Y21428D01*
X96042Y21180D01*
X96074Y20932D01*
X96170Y20701D01*
X96322Y20502D01*
X96521Y20350D01*
X96752Y20254D01*
X97000Y20222D01*
X97248Y20254D01*
X97479Y20350D01*
X97640Y20474D01*
X98480D01*
X98663Y20498D01*
X98833Y20569D01*
X98979Y20681D01*
X101099Y22801D01*
X101211Y22947D01*
X101282Y23117D01*
X101306Y23300D01*
Y31000D01*
X101282Y31183D01*
X101211Y31353D01*
X101099Y31499D01*
X100198Y32400D01*
X101399Y33601D01*
X101511Y33747D01*
X101582Y33917D01*
X101606Y34100D01*
Y46900D01*
X101582Y47083D01*
X101511Y47253D01*
X101399Y47399D01*
X98280Y50518D01*
X98405Y50676D01*
X98829Y50417D01*
X99331Y50209D01*
X99859Y50082D01*
X100400Y50039D01*
X100941Y50082D01*
X101469Y50209D01*
X101971Y50417D01*
X102434Y50700D01*
X102847Y51053D01*
X103200Y51466D01*
X103483Y51929D01*
X103691Y52431D01*
X103818Y52959D01*
X103861Y53500D01*
X103818Y54041D01*
X103691Y54569D01*
X103483Y55071D01*
X103200Y55534D01*
X102847Y55947D01*
X102434Y56300D01*
X101971Y56583D01*
X101469Y56791D01*
X100941Y56918D01*
X100400Y56961D01*
D02*
G37*
G36*
X5000Y57261D02*
X4459Y57218D01*
X3931Y57091D01*
X3429Y56883D01*
X2966Y56600D01*
X2553Y56247D01*
X2200Y55834D01*
X1917Y55371D01*
X1709Y54869D01*
X1582Y54341D01*
X1539Y53800D01*
X1582Y53259D01*
X1709Y52731D01*
X1917Y52229D01*
X2200Y51766D01*
X2553Y51353D01*
X2966Y51000D01*
X3429Y50717D01*
X3931Y50509D01*
X4459Y50382D01*
X5000Y50339D01*
X5541Y50382D01*
X6069Y50509D01*
X6571Y50717D01*
X6865Y50896D01*
X6989Y50738D01*
X5376Y49124D01*
X5276Y48976D01*
X5241Y48800D01*
Y39962D01*
X5041Y39922D01*
X4979Y40071D01*
X4846Y40246D01*
X4671Y40379D01*
X4468Y40464D01*
X4250Y40492D01*
X4032Y40464D01*
X3829Y40379D01*
X3654Y40246D01*
X3521Y40071D01*
X3436Y39868D01*
X3408Y39650D01*
X3436Y39432D01*
X3463Y39368D01*
X2048Y37952D01*
X1970Y37837D01*
X1943Y37700D01*
Y29100D01*
X1970Y28963D01*
X2048Y28848D01*
X2443Y28452D01*
Y24950D01*
X2470Y24813D01*
X2548Y24698D01*
X3748Y23498D01*
X3863Y23420D01*
X4000Y23393D01*
X4950D01*
Y23200D01*
X6250D01*
Y24300D01*
X4950D01*
Y24107D01*
X4148D01*
X3253Y25002D01*
X3267Y25093D01*
X3323Y25137D01*
X3485Y25197D01*
X3632Y25136D01*
X3850Y25108D01*
X4068Y25136D01*
X4271Y25221D01*
X4446Y25354D01*
X4579Y25529D01*
X4606Y25593D01*
X6252D01*
X7343Y24502D01*
Y18419D01*
X7250Y18345D01*
X7050Y18441D01*
Y18575D01*
X6050D01*
Y17255D01*
X5898Y17102D01*
X5820Y16987D01*
X5793Y16850D01*
Y16650D01*
X5600D01*
Y15350D01*
X6700D01*
Y16650D01*
X6700D01*
X6655Y16850D01*
X6802Y16998D01*
X6880Y17113D01*
X6882Y17125D01*
X7050D01*
Y17493D01*
X7350D01*
X7487Y17520D01*
X7602Y17598D01*
X7952Y17948D01*
X8030Y18063D01*
X8057Y18200D01*
Y24650D01*
X8030Y24787D01*
X7952Y24902D01*
X6652Y26202D01*
X6537Y26280D01*
X6400Y26307D01*
X4606D01*
X4579Y26371D01*
X4446Y26546D01*
X4271Y26679D01*
X4068Y26764D01*
X3850Y26792D01*
X3632Y26764D01*
X3429Y26679D01*
X3357Y26624D01*
X3157Y26723D01*
Y28600D01*
X3130Y28737D01*
X3052Y28852D01*
X2657Y29248D01*
Y37552D01*
X3968Y38863D01*
X4032Y38836D01*
X4250Y38808D01*
X4468Y38836D01*
X4671Y38921D01*
X4846Y39054D01*
X4979Y39229D01*
X5041Y39378D01*
X5241Y39338D01*
Y38690D01*
X3076Y36524D01*
X2976Y36376D01*
X2941Y36200D01*
Y29700D01*
X2976Y29524D01*
X3076Y29376D01*
X3887Y28564D01*
X4036Y28464D01*
X4212Y28429D01*
X4850D01*
Y27938D01*
X5738D01*
X5800Y27930D01*
X12800D01*
Y24500D01*
X19600D01*
Y27792D01*
X25300D01*
X25548Y27824D01*
X25779Y27920D01*
X25883Y28000D01*
X27150D01*
Y29500D01*
X25883D01*
X25779Y29580D01*
X25548Y29676D01*
X25300Y29708D01*
X19600D01*
Y33100D01*
X12800D01*
Y29846D01*
X5800D01*
X5738Y29838D01*
X4850D01*
Y29347D01*
X4402D01*
X3859Y29890D01*
Y36010D01*
X6024Y38176D01*
X6124Y38324D01*
X6159Y38500D01*
Y48610D01*
X7424Y49875D01*
X7614Y49782D01*
X7596Y49646D01*
Y44654D01*
X6596D01*
Y43977D01*
X10404D01*
Y44654D01*
X9512D01*
Y47249D01*
X9520Y47268D01*
X9534Y47373D01*
X8654D01*
Y47627D01*
X9534D01*
X9520Y47732D01*
X9512Y47751D01*
Y49646D01*
X9480Y49894D01*
X9384Y50125D01*
X9232Y50324D01*
X9033Y50476D01*
X8802Y50572D01*
X8554Y50604D01*
X8418Y50586D01*
X8325Y50776D01*
X11090Y53541D01*
X17735D01*
X18041Y53235D01*
Y52550D01*
X16950D01*
Y51250D01*
X17041D01*
Y50850D01*
X16950D01*
Y49550D01*
X18050D01*
Y49843D01*
X20750D01*
Y49550D01*
X21850D01*
Y50850D01*
X20750D01*
Y50557D01*
X18050D01*
Y50850D01*
X17959D01*
Y51250D01*
X18050D01*
Y51441D01*
X18500D01*
X18676Y51476D01*
X18824Y51576D01*
X18924Y51724D01*
X18959Y51900D01*
Y53425D01*
X18924Y53601D01*
X18824Y53749D01*
X18249Y54324D01*
X18101Y54424D01*
X17925Y54459D01*
X10900D01*
X10724Y54424D01*
X10576Y54324D01*
X8062Y51811D01*
X7904Y51935D01*
X8083Y52229D01*
X8291Y52731D01*
X8418Y53259D01*
X8461Y53800D01*
X8418Y54341D01*
X8291Y54869D01*
X8083Y55371D01*
X7800Y55834D01*
X7447Y56247D01*
X7034Y56600D01*
X6571Y56883D01*
X6069Y57091D01*
X5541Y57218D01*
X5000Y57261D01*
D02*
G37*
G36*
X46054Y49379D02*
X44327D01*
Y48727D01*
X46054D01*
Y49379D01*
D02*
G37*
G36*
X21854Y49204D02*
X21377D01*
Y48627D01*
X21854D01*
Y49204D01*
D02*
G37*
G36*
X17373Y49204D02*
X16896D01*
Y48627D01*
X17373D01*
Y49204D01*
D02*
G37*
G36*
X83887Y49316D02*
Y48447D01*
X84756D01*
X84738Y48582D01*
X84637Y48826D01*
X84476Y49036D01*
X84266Y49197D01*
X84022Y49298D01*
X83887Y49316D01*
D02*
G37*
G36*
X83633D02*
X83498Y49298D01*
X83254Y49197D01*
X83044Y49036D01*
X82883Y48826D01*
X82782Y48582D01*
X82764Y48447D01*
X83633D01*
Y49316D01*
D02*
G37*
G36*
X17373Y48373D02*
X16896D01*
Y47796D01*
X17373D01*
Y48373D01*
D02*
G37*
G36*
X21854D02*
X21377D01*
Y47796D01*
X21854D01*
Y48373D01*
D02*
G37*
G36*
X18104Y49204D02*
X17627D01*
Y48500D01*
Y47796D01*
X18104D01*
Y48143D01*
X20646D01*
Y47796D01*
X21123D01*
Y48500D01*
Y49204D01*
X20646D01*
Y48857D01*
X18104D01*
Y49204D01*
D02*
G37*
G36*
X27304Y47954D02*
X26927D01*
Y47527D01*
X27304D01*
Y47954D01*
D02*
G37*
G36*
X26673D02*
X26296D01*
Y47527D01*
X26673D01*
Y47954D01*
D02*
G37*
G36*
X87250Y49270D02*
X85350D01*
Y47370D01*
X87250D01*
Y49270D01*
D02*
G37*
G36*
X16550Y52550D02*
X15450D01*
Y51250D01*
X15643D01*
Y50850D01*
X15450D01*
Y49550D01*
X15643D01*
Y49150D01*
X15450D01*
Y47850D01*
X15543D01*
Y47456D01*
X15479Y47429D01*
X15357Y47336D01*
X15185Y47399D01*
X15157Y47424D01*
Y48180D01*
X15130Y48317D01*
X15052Y48432D01*
X14092Y49392D01*
X13977Y49470D01*
X13840Y49497D01*
X13180D01*
X13130Y49619D01*
X12978Y49818D01*
X12779Y49970D01*
X12548Y50066D01*
X12300Y50098D01*
X12052Y50066D01*
X11821Y49970D01*
X11622Y49818D01*
X11470Y49619D01*
X11374Y49388D01*
X11342Y49140D01*
X11374Y48892D01*
X11470Y48661D01*
X11622Y48462D01*
X11821Y48310D01*
X12052Y48214D01*
X12300Y48182D01*
X12548Y48214D01*
X12779Y48310D01*
X12978Y48462D01*
X13130Y48661D01*
X13180Y48783D01*
X13692D01*
X14443Y48032D01*
Y46300D01*
X14470Y46163D01*
X14548Y46048D01*
X15403Y45193D01*
X15518Y45115D01*
X15655Y45088D01*
X16987D01*
X16990Y45085D01*
X17155Y44974D01*
X17350Y44935D01*
X18200D01*
X18395Y44974D01*
X18560Y45085D01*
X18563Y45088D01*
X22437D01*
X22440Y45085D01*
X22605Y44974D01*
X22800Y44935D01*
X22868D01*
Y44685D01*
X22800D01*
X22605Y44646D01*
X22440Y44535D01*
X22329Y44370D01*
X22290Y44175D01*
X22329Y43980D01*
X22440Y43815D01*
X22605Y43704D01*
X22800Y43665D01*
X22868D01*
Y43415D01*
X22800D01*
X22605Y43376D01*
X22440Y43265D01*
X22437Y43262D01*
X20905D01*
X20768Y43235D01*
X20653Y43157D01*
X19487Y41992D01*
X18563D01*
X18560Y41995D01*
X18395Y42106D01*
X18200Y42145D01*
Y42340D01*
X18416Y42383D01*
X18599Y42506D01*
X18722Y42689D01*
X18740Y42778D01*
X17775D01*
Y43032D01*
X18740D01*
X18722Y43121D01*
X18599Y43304D01*
X18416Y43427D01*
X18200Y43470D01*
Y43665D01*
X18395Y43704D01*
X18560Y43815D01*
X18671Y43980D01*
X18710Y44175D01*
X18671Y44370D01*
X18560Y44535D01*
X18395Y44646D01*
X18200Y44685D01*
X17350D01*
X17155Y44646D01*
X16990Y44535D01*
X16987Y44532D01*
X16200D01*
Y44825D01*
X15100D01*
Y43525D01*
X16200D01*
Y43818D01*
X16987D01*
X16990Y43815D01*
X17155Y43704D01*
X17350Y43665D01*
Y43470D01*
X17134Y43427D01*
X16951Y43304D01*
X16922Y43262D01*
X13505D01*
X13369Y43235D01*
X13253Y43157D01*
X12252Y42157D01*
X9248D01*
X8857Y42548D01*
Y43046D01*
X10404D01*
Y43723D01*
X6596D01*
Y43046D01*
X8143D01*
Y42400D01*
X8170Y42263D01*
X8248Y42148D01*
X8848Y41548D01*
X8964Y41470D01*
X9100Y41443D01*
X12400D01*
X12469Y41457D01*
X12568Y41272D01*
X12412Y41117D01*
X9900D01*
X9872Y41111D01*
X9844Y41112D01*
X9805Y41098D01*
X9763Y41090D01*
X9740Y41074D01*
X9713Y41064D01*
X8313Y40204D01*
X8282Y40176D01*
X8248Y40152D01*
X8232Y40129D01*
X8211Y40109D01*
X8194Y40071D01*
X8170Y40037D01*
X8165Y40009D01*
X8153Y39983D01*
X8151Y39941D01*
X8143Y39900D01*
Y39030D01*
X8021Y38980D01*
X7917Y38900D01*
X6650D01*
Y37400D01*
X7542D01*
Y34525D01*
X5122Y32106D01*
X4970Y31907D01*
X4874Y31676D01*
X4842Y31428D01*
X4874Y31180D01*
X4970Y30949D01*
X5122Y30751D01*
X5321Y30598D01*
X5552Y30503D01*
X5800Y30470D01*
X6048Y30503D01*
X6279Y30598D01*
X6478Y30751D01*
X9178Y33451D01*
X9330Y33649D01*
X9426Y33880D01*
X9458Y34128D01*
Y37400D01*
X10157D01*
X10457Y37100D01*
X10450Y36900D01*
X10450D01*
Y36100D01*
X10450Y35900D01*
X10450Y35700D01*
Y34900D01*
X10543D01*
Y34700D01*
X10570Y34563D01*
X10648Y34448D01*
X10948Y34148D01*
X11063Y34070D01*
X11200Y34043D01*
X19800D01*
X19937Y34070D01*
X20052Y34148D01*
X22103Y36198D01*
X22437D01*
X22440Y36195D01*
X22605Y36084D01*
X22800Y36045D01*
X23650D01*
X23845Y36084D01*
X24010Y36195D01*
X24121Y36360D01*
X24160Y36555D01*
X24121Y36750D01*
X24010Y36915D01*
X23845Y37026D01*
X23650Y37065D01*
X22800D01*
X22605Y37026D01*
X22440Y36915D01*
X22437Y36912D01*
X21955D01*
X21818Y36885D01*
X21703Y36807D01*
X19686Y34791D01*
X19632Y34801D01*
X19597Y35010D01*
X19652Y35048D01*
X21152Y36548D01*
X21230Y36663D01*
X21257Y36800D01*
Y38252D01*
X21743Y38738D01*
X22437D01*
X22440Y38735D01*
X22605Y38624D01*
X22800Y38585D01*
X23650D01*
X23845Y38624D01*
X24010Y38735D01*
X24121Y38900D01*
X24160Y39095D01*
X24121Y39290D01*
X24010Y39455D01*
X23845Y39566D01*
X23650Y39605D01*
X22800D01*
X22605Y39566D01*
X22440Y39455D01*
X22437Y39452D01*
X21595D01*
X21458Y39425D01*
X21343Y39347D01*
X20648Y38652D01*
X20570Y38537D01*
X20543Y38400D01*
Y36948D01*
X19252Y35657D01*
X15428D01*
X15388Y35857D01*
X15421Y35871D01*
X15596Y36004D01*
X15729Y36179D01*
X15737Y36198D01*
X16987D01*
X16990Y36195D01*
X17155Y36084D01*
X17350Y36045D01*
X18200D01*
X18395Y36084D01*
X18560Y36195D01*
X18671Y36360D01*
X18710Y36555D01*
X18671Y36750D01*
X18560Y36915D01*
X18395Y37026D01*
X18200Y37065D01*
X17350D01*
X17155Y37026D01*
X16990Y36915D01*
X16987Y36912D01*
X15775D01*
X15729Y37021D01*
X15596Y37196D01*
X15533Y37243D01*
X15601Y37443D01*
X17022D01*
X17155Y37354D01*
X17350Y37315D01*
X18200D01*
X18395Y37354D01*
X18560Y37465D01*
X18671Y37630D01*
X18710Y37825D01*
X18671Y38020D01*
X18560Y38185D01*
X18395Y38296D01*
X18200Y38335D01*
X17350D01*
X17155Y38296D01*
X16990Y38185D01*
X16970Y38157D01*
X13506D01*
X13479Y38221D01*
X13346Y38396D01*
X13171Y38529D01*
X13150Y38538D01*
X13190Y38738D01*
X16987D01*
X16990Y38735D01*
X17155Y38624D01*
X17350Y38585D01*
X18200D01*
X18395Y38624D01*
X18560Y38735D01*
X18671Y38900D01*
X18710Y39095D01*
X18671Y39290D01*
X18560Y39455D01*
X18395Y39566D01*
X18200Y39605D01*
X17350D01*
X17155Y39566D01*
X16990Y39455D01*
X16987Y39452D01*
X15564D01*
X15510Y39580D01*
X15507Y39652D01*
X15661Y39769D01*
X15794Y39944D01*
X15821Y40008D01*
X16987D01*
X16990Y40005D01*
X17155Y39894D01*
X17350Y39855D01*
X18200D01*
X18395Y39894D01*
X18560Y40005D01*
X18671Y40170D01*
X18710Y40365D01*
X18671Y40560D01*
X18560Y40725D01*
X18395Y40836D01*
X18200Y40875D01*
X17350D01*
X17155Y40836D01*
X16990Y40725D01*
X16987Y40722D01*
X15821D01*
X15794Y40786D01*
X15661Y40961D01*
X15507Y41078D01*
X15510Y41150D01*
X15564Y41278D01*
X16987D01*
X16990Y41275D01*
X17155Y41164D01*
X17350Y41125D01*
X18200D01*
X18395Y41164D01*
X18560Y41275D01*
X18563Y41278D01*
X19635D01*
X19772Y41305D01*
X19887Y41383D01*
X21053Y42548D01*
X22437D01*
X22440Y42545D01*
X22605Y42434D01*
X22800Y42395D01*
X23650D01*
X23845Y42434D01*
X24010Y42545D01*
X24121Y42710D01*
X24160Y42905D01*
X24121Y43100D01*
X24010Y43265D01*
X23845Y43376D01*
X23650Y43415D01*
X23582D01*
Y43665D01*
X23650D01*
X23845Y43704D01*
X24010Y43815D01*
X24121Y43980D01*
X24160Y44175D01*
X24356Y44215D01*
X24371Y44179D01*
X24504Y44004D01*
X24679Y43871D01*
X24882Y43786D01*
X25100Y43758D01*
X25318Y43786D01*
X25521Y43871D01*
X25696Y44004D01*
X25829Y44179D01*
X25856Y44243D01*
X26150D01*
Y44200D01*
X27450D01*
Y44419D01*
X27480Y44463D01*
X27507Y44600D01*
X27480Y44737D01*
X27450Y44781D01*
Y45300D01*
X27157D01*
Y45900D01*
X27250D01*
Y46846D01*
X27304D01*
Y47273D01*
X26296D01*
Y46846D01*
X26350D01*
Y45900D01*
X26443D01*
Y45300D01*
X26150D01*
Y44957D01*
X25856D01*
X25829Y45021D01*
X25696Y45196D01*
X25521Y45329D01*
X25318Y45414D01*
X25100Y45442D01*
X24882Y45414D01*
X24679Y45329D01*
X24504Y45196D01*
X24371Y45021D01*
X24286Y44818D01*
X24258Y44600D01*
X24270Y44507D01*
X24078Y44435D01*
X24010Y44535D01*
X23845Y44646D01*
X23650Y44685D01*
X23582D01*
Y44935D01*
X23650D01*
X23845Y44974D01*
X24010Y45085D01*
X24121Y45250D01*
X24160Y45445D01*
X24121Y45640D01*
X24010Y45805D01*
X23845Y45916D01*
X23650Y45955D01*
X22800D01*
X22605Y45916D01*
X22440Y45805D01*
X22437Y45802D01*
X18563D01*
X18560Y45805D01*
X18395Y45916D01*
X18200Y45955D01*
X17350D01*
X17155Y45916D01*
X16990Y45805D01*
X16987Y45802D01*
X16414D01*
X16400Y45826D01*
X16362Y46002D01*
X16495Y46104D01*
X16629Y46279D01*
X16713Y46482D01*
X16742Y46700D01*
X16713Y46918D01*
X16629Y47121D01*
X16495Y47295D01*
X16321Y47429D01*
X16257Y47456D01*
Y47850D01*
X16550D01*
Y49150D01*
X16357D01*
Y49550D01*
X16550D01*
Y50850D01*
X16357D01*
Y51250D01*
X16550D01*
Y52550D01*
D02*
G37*
G36*
X84756Y48193D02*
X83887D01*
Y47324D01*
X84022Y47342D01*
X84266Y47443D01*
X84476Y47604D01*
X84637Y47814D01*
X84738Y48058D01*
X84756Y48193D01*
D02*
G37*
G36*
X83633D02*
X82764D01*
X82782Y48058D01*
X82883Y47814D01*
X83044Y47604D01*
X83254Y47443D01*
X83498Y47342D01*
X83633Y47324D01*
Y48193D01*
D02*
G37*
G36*
X89950Y48100D02*
X88650D01*
Y47000D01*
X88508Y46859D01*
X87450D01*
X87274Y46824D01*
X87126Y46724D01*
X85676Y45274D01*
X85576Y45126D01*
X85541Y44950D01*
Y36000D01*
X85576Y35824D01*
X85676Y35676D01*
X86776Y34576D01*
X86924Y34476D01*
X87100Y34441D01*
X89094D01*
X89179Y34329D01*
X89347Y34201D01*
X89541Y34121D01*
X89750Y34093D01*
X91050D01*
X91259Y34121D01*
X91453Y34201D01*
X91621Y34329D01*
X91749Y34497D01*
X91829Y34691D01*
X91857Y34900D01*
X91829Y35109D01*
X91749Y35303D01*
X91621Y35471D01*
X91453Y35599D01*
X91259Y35679D01*
X91050Y35707D01*
X89750D01*
X89541Y35679D01*
X89347Y35599D01*
X89179Y35471D01*
X89094Y35359D01*
X87290D01*
X86459Y36190D01*
Y37532D01*
X86659Y37551D01*
X86676Y37464D01*
X86776Y37316D01*
X86976Y37116D01*
X87124Y37016D01*
X87300Y36981D01*
X89094D01*
X89179Y36869D01*
X89347Y36741D01*
X89541Y36661D01*
X89750Y36633D01*
X91050D01*
X91259Y36661D01*
X91453Y36741D01*
X91621Y36869D01*
X91749Y37037D01*
X91829Y37231D01*
X91857Y37440D01*
X91829Y37649D01*
X91749Y37843D01*
X91621Y38011D01*
X91453Y38139D01*
X91259Y38219D01*
X91050Y38247D01*
X89750D01*
X89541Y38219D01*
X89347Y38139D01*
X89179Y38011D01*
X89094Y37899D01*
X87559D01*
Y43460D01*
X88440Y44341D01*
X91060D01*
X92176Y43226D01*
X92324Y43126D01*
X92500Y43091D01*
X93050D01*
Y43000D01*
X94350D01*
Y43091D01*
X94925D01*
Y43050D01*
X96375D01*
Y44050D01*
X94925D01*
Y44009D01*
X94350D01*
Y44100D01*
X93050D01*
Y44009D01*
X92690D01*
X91574Y45124D01*
X91426Y45224D01*
X91250Y45259D01*
X88250D01*
X88074Y45224D01*
X87926Y45124D01*
X86776Y43974D01*
X86676Y43826D01*
X86659Y43739D01*
X86459Y43758D01*
Y44760D01*
X87640Y45941D01*
X88900D01*
X89076Y45976D01*
X89224Y46076D01*
X89624Y46476D01*
X89724Y46624D01*
X89759Y46800D01*
Y47000D01*
X89950D01*
Y47091D01*
X90625D01*
Y46950D01*
X92075D01*
Y47950D01*
X91461D01*
X91426Y47974D01*
X91250Y48009D01*
X89950D01*
Y48100D01*
D02*
G37*
G36*
X70327Y46345D02*
Y45627D01*
X71045D01*
X71032Y45723D01*
X70946Y45931D01*
X70809Y46109D01*
X70631Y46246D01*
X70423Y46332D01*
X70327Y46345D01*
D02*
G37*
G36*
X70073Y46345D02*
X69977Y46332D01*
X69769Y46246D01*
X69591Y46109D01*
X69454Y45931D01*
X69368Y45723D01*
X69355Y45627D01*
X70073D01*
Y46345D01*
D02*
G37*
G36*
X34623Y50679D02*
X30346D01*
Y45327D01*
X34623D01*
Y50679D01*
D02*
G37*
G36*
X70073Y45373D02*
X69355D01*
X69368Y45277D01*
X69454Y45069D01*
X69591Y44891D01*
X69769Y44754D01*
X69977Y44668D01*
X70073Y44655D01*
Y45373D01*
D02*
G37*
G36*
X71045D02*
X70327D01*
Y44655D01*
X70423Y44668D01*
X70631Y44754D01*
X70809Y44891D01*
X70946Y45069D01*
X71032Y45277D01*
X71045Y45373D01*
D02*
G37*
G36*
X13250Y47550D02*
X11350D01*
Y45650D01*
X11943D01*
Y44730D01*
X11970Y44593D01*
X12048Y44478D01*
X12603Y43923D01*
X12718Y43845D01*
X12855Y43818D01*
X13600D01*
Y43525D01*
X14700D01*
Y44825D01*
X13600D01*
Y44532D01*
X13003D01*
X12657Y44878D01*
Y45650D01*
X13250D01*
Y47550D01*
D02*
G37*
G36*
X91050Y43327D02*
X89750D01*
X89541Y43299D01*
X89347Y43219D01*
X89179Y43091D01*
X89051Y42923D01*
X88971Y42729D01*
X88943Y42520D01*
X88971Y42311D01*
X89051Y42117D01*
X89179Y41949D01*
X89347Y41821D01*
X89541Y41741D01*
X89750Y41713D01*
X91050D01*
X91259Y41741D01*
X91453Y41821D01*
X91621Y41949D01*
X91749Y42117D01*
X91829Y42311D01*
X91857Y42520D01*
X91829Y42729D01*
X91749Y42923D01*
X91621Y43091D01*
X91453Y43219D01*
X91259Y43299D01*
X91050Y43327D01*
D02*
G37*
G36*
X75850D02*
X74550D01*
X74341Y43299D01*
X74147Y43219D01*
X73979Y43091D01*
X73851Y42923D01*
X73771Y42729D01*
X73743Y42520D01*
X73771Y42311D01*
X73851Y42117D01*
X73979Y41949D01*
X74147Y41821D01*
X74341Y41741D01*
X74550Y41713D01*
X75850D01*
X76059Y41741D01*
X76253Y41821D01*
X76421Y41949D01*
X76549Y42117D01*
X76629Y42311D01*
X76657Y42520D01*
X76629Y42729D01*
X76549Y42923D01*
X76421Y43091D01*
X76253Y43219D01*
X76059Y43299D01*
X75850Y43327D01*
D02*
G37*
G36*
X23650Y42145D02*
X22800D01*
X22605Y42106D01*
X22440Y41995D01*
X22329Y41830D01*
X22290Y41635D01*
X22329Y41440D01*
X22440Y41275D01*
X22605Y41164D01*
X22800Y41125D01*
X23650D01*
X23845Y41164D01*
X24010Y41275D01*
X24121Y41440D01*
X24160Y41635D01*
X24121Y41830D01*
X24010Y41995D01*
X23845Y42106D01*
X23650Y42145D01*
D02*
G37*
G36*
X26300Y41950D02*
X25200D01*
Y41255D01*
X24667Y40722D01*
X24013D01*
X24010Y40725D01*
X23845Y40836D01*
X23650Y40875D01*
X22800D01*
X22605Y40836D01*
X22440Y40725D01*
X22329Y40560D01*
X22290Y40365D01*
X22329Y40170D01*
X22440Y40005D01*
X22605Y39894D01*
X22800Y39855D01*
X23650D01*
X23845Y39894D01*
X24010Y40005D01*
X24013Y40008D01*
X24815D01*
X24952Y40035D01*
X25067Y40113D01*
X25605Y40650D01*
X26300D01*
Y41950D01*
D02*
G37*
G36*
X34623Y45073D02*
X30346D01*
Y39721D01*
X34623D01*
Y45073D01*
D02*
G37*
G36*
X91050Y40787D02*
X89750D01*
X89541Y40759D01*
X89347Y40679D01*
X89179Y40551D01*
X89051Y40383D01*
X88971Y40189D01*
X88943Y39980D01*
X88971Y39771D01*
X89051Y39577D01*
X89179Y39409D01*
X89347Y39281D01*
X89541Y39201D01*
X89750Y39173D01*
X91050D01*
X91259Y39201D01*
X91453Y39281D01*
X91621Y39409D01*
X91749Y39577D01*
X91829Y39771D01*
X91857Y39980D01*
X91829Y40189D01*
X91749Y40383D01*
X91621Y40551D01*
X91453Y40679D01*
X91259Y40759D01*
X91050Y40787D01*
D02*
G37*
G36*
X81760Y38382D02*
X81542Y38354D01*
X81339Y38269D01*
X81164Y38136D01*
X81060Y37999D01*
X76430D01*
X76421Y38011D01*
X76253Y38139D01*
X76059Y38219D01*
X75850Y38247D01*
X74550D01*
X74341Y38219D01*
X74147Y38139D01*
X73979Y38011D01*
X73851Y37843D01*
X73771Y37649D01*
X73743Y37440D01*
X73771Y37231D01*
X73851Y37037D01*
X73979Y36869D01*
X74147Y36741D01*
X74341Y36661D01*
X74550Y36633D01*
X75850D01*
X76059Y36661D01*
X76253Y36741D01*
X76421Y36869D01*
X76549Y37037D01*
X76567Y37081D01*
X81060D01*
X81164Y36944D01*
X81339Y36811D01*
X81542Y36726D01*
X81760Y36698D01*
X81978Y36726D01*
X82181Y36811D01*
X82356Y36944D01*
X82489Y37119D01*
X82574Y37322D01*
X82602Y37540D01*
X82574Y37758D01*
X82489Y37961D01*
X82356Y38136D01*
X82181Y38269D01*
X81978Y38354D01*
X81760Y38382D01*
D02*
G37*
G36*
X47927Y36845D02*
Y36127D01*
X48645D01*
X48632Y36223D01*
X48546Y36431D01*
X48409Y36609D01*
X48231Y36746D01*
X48023Y36832D01*
X47927Y36845D01*
D02*
G37*
G36*
X47673D02*
X47577Y36832D01*
X47369Y36746D01*
X47191Y36609D01*
X47054Y36431D01*
X46968Y36223D01*
X46955Y36127D01*
X47673D01*
Y36845D01*
D02*
G37*
G36*
X48645Y35873D02*
X47927D01*
Y35155D01*
X48023Y35168D01*
X48231Y35254D01*
X48409Y35391D01*
X48546Y35569D01*
X48632Y35777D01*
X48645Y35873D01*
D02*
G37*
G36*
X47673D02*
X46955D01*
X46968Y35777D01*
X47054Y35569D01*
X47191Y35391D01*
X47369Y35254D01*
X47577Y35168D01*
X47673Y35155D01*
Y35873D01*
D02*
G37*
G36*
X61179Y37254D02*
X55827D01*
Y32977D01*
X61179D01*
Y37254D01*
D02*
G37*
G36*
X55573D02*
X50221D01*
Y32977D01*
X55573D01*
Y37254D01*
D02*
G37*
G36*
X98004Y29804D02*
X97127D01*
Y28927D01*
X98004D01*
Y29804D01*
D02*
G37*
G36*
X96873D02*
X95996D01*
Y28927D01*
X96873D01*
Y29804D01*
D02*
G37*
G36*
X46000Y42525D02*
X42400D01*
Y41075D01*
X43342D01*
Y30097D01*
X41835Y28590D01*
X41748Y28626D01*
X41500Y28658D01*
X36800D01*
X36738Y28650D01*
X34400D01*
Y28310D01*
X34385D01*
Y27957D01*
X32700D01*
X32563Y27930D01*
X32448Y27852D01*
X32048Y27452D01*
X31970Y27337D01*
X31943Y27200D01*
Y23825D01*
X31450D01*
Y23075D01*
X31450Y22875D01*
X31450Y22675D01*
X31450Y21925D01*
X31450Y21725D01*
Y20975D01*
X31943D01*
Y20598D01*
X30948Y19602D01*
X30726Y19630D01*
X30677Y19748D01*
X30534Y19934D01*
X30348Y20077D01*
X30257Y20114D01*
Y20921D01*
X30804D01*
Y21323D01*
X29900D01*
X28996D01*
Y20921D01*
X29543D01*
Y20114D01*
X29452Y20077D01*
X29266Y19934D01*
X29123Y19748D01*
X29034Y19532D01*
X29020Y19427D01*
X29900D01*
Y19300D01*
X30027D01*
Y18420D01*
X30132Y18434D01*
X30348Y18523D01*
X30534Y18666D01*
X30535Y18667D01*
X30754Y18624D01*
X30767Y18572D01*
X30282Y18087D01*
X30218Y18114D01*
X30000Y18142D01*
X29782Y18114D01*
X29579Y18029D01*
X29404Y17896D01*
X29271Y17721D01*
X29186Y17518D01*
X29158Y17300D01*
X29186Y17082D01*
X29271Y16879D01*
X29404Y16704D01*
X29579Y16571D01*
X29782Y16486D01*
X30000Y16458D01*
X30218Y16486D01*
X30421Y16571D01*
X30596Y16704D01*
X30729Y16879D01*
X30814Y17082D01*
X30842Y17300D01*
X30814Y17518D01*
X30787Y17582D01*
X31452Y18248D01*
X31530Y18363D01*
X31557Y18500D01*
Y19202D01*
X32552Y20198D01*
X32630Y20313D01*
X32657Y20450D01*
Y20975D01*
X33143D01*
X33150Y20975D01*
X33343Y20958D01*
Y19948D01*
X32882Y19487D01*
X32818Y19514D01*
X32600Y19542D01*
X32382Y19514D01*
X32179Y19429D01*
X32004Y19296D01*
X31871Y19121D01*
X31786Y18918D01*
X31758Y18700D01*
X31786Y18482D01*
X31871Y18279D01*
X32004Y18104D01*
X32179Y17971D01*
X32382Y17886D01*
X32600Y17858D01*
X32818Y17886D01*
X33021Y17971D01*
X33196Y18104D01*
X33329Y18279D01*
X33356Y18343D01*
X34385D01*
Y17890D01*
X35395D01*
Y19310D01*
X34385D01*
Y19057D01*
X33723D01*
X33646Y19242D01*
X33952Y19548D01*
X34030Y19663D01*
X34057Y19800D01*
Y22200D01*
X34030Y22337D01*
X33952Y22452D01*
X33752Y22652D01*
X33637Y22730D01*
X33500Y22757D01*
X33301D01*
X33150Y22875D01*
X33150Y23075D01*
Y23825D01*
X32657D01*
Y27052D01*
X32848Y27243D01*
X34385D01*
Y26890D01*
X34400D01*
Y26750D01*
X34665D01*
Y23229D01*
X38975D01*
Y26742D01*
X40842D01*
Y20246D01*
X40642Y20163D01*
X39205Y21600D01*
Y22310D01*
X38195D01*
Y20890D01*
X38905D01*
X40143Y19652D01*
Y16556D01*
X40079Y16529D01*
X39904Y16396D01*
X39771Y16221D01*
X39686Y16018D01*
X39658Y15800D01*
X39686Y15582D01*
X39771Y15379D01*
X39904Y15204D01*
X40079Y15071D01*
X40282Y14986D01*
X40500Y14958D01*
X40718Y14986D01*
X40921Y15071D01*
X41096Y15204D01*
X41229Y15379D01*
X41314Y15582D01*
X41342Y15800D01*
X41314Y16018D01*
X41229Y16221D01*
X41096Y16396D01*
X40921Y16529D01*
X40857Y16556D01*
Y17790D01*
X41057Y17858D01*
X41122Y17772D01*
X42642Y16253D01*
Y12997D01*
X40403Y10758D01*
X36770D01*
X36707Y10750D01*
X34320D01*
Y8850D01*
X34665D01*
Y5329D01*
X38975D01*
Y8842D01*
X40800D01*
X41048Y8874D01*
X41279Y8970D01*
X41478Y9122D01*
X44278Y11922D01*
X44430Y12121D01*
X44526Y12352D01*
X44558Y12600D01*
Y16650D01*
X44526Y16898D01*
X44430Y17129D01*
X44278Y17328D01*
X42758Y18847D01*
Y22439D01*
X42900Y22580D01*
X51575Y22488D01*
Y21600D01*
X53025D01*
Y25200D01*
X51575D01*
Y24546D01*
X51433Y24406D01*
X42758Y24498D01*
Y26803D01*
X44978Y29022D01*
X45130Y29221D01*
X45226Y29452D01*
X45258Y29700D01*
Y41075D01*
X46000D01*
Y42525D01*
D02*
G37*
G36*
X66927Y28745D02*
Y28027D01*
X67645D01*
X67632Y28123D01*
X67546Y28331D01*
X67409Y28509D01*
X67231Y28646D01*
X67023Y28732D01*
X66927Y28745D01*
D02*
G37*
G36*
X66673Y28745D02*
X66577Y28732D01*
X66369Y28646D01*
X66191Y28509D01*
X66054Y28331D01*
X65968Y28123D01*
X65955Y28027D01*
X66673D01*
Y28745D01*
D02*
G37*
G36*
X98004Y28673D02*
X97127D01*
Y27796D01*
X98004D01*
Y28673D01*
D02*
G37*
G36*
X96873D02*
X95996D01*
Y27796D01*
X96873D01*
Y28673D01*
D02*
G37*
G36*
X67645Y27773D02*
X66927D01*
Y27055D01*
X67023Y27068D01*
X67231Y27154D01*
X67409Y27291D01*
X67546Y27469D01*
X67632Y27677D01*
X67645Y27773D01*
D02*
G37*
G36*
X66673D02*
X65955D01*
X65968Y27677D01*
X66054Y27469D01*
X66191Y27291D01*
X66369Y27154D01*
X66577Y27068D01*
X66673Y27055D01*
Y27773D01*
D02*
G37*
G36*
X91050Y28087D02*
X89750D01*
X89541Y28059D01*
X89347Y27979D01*
X89179Y27851D01*
X89051Y27683D01*
X88971Y27489D01*
X88943Y27280D01*
X88971Y27071D01*
X89051Y26877D01*
X89179Y26709D01*
X89347Y26581D01*
X89541Y26501D01*
X89750Y26473D01*
X91050D01*
X91259Y26501D01*
X91453Y26581D01*
X91621Y26709D01*
X91749Y26877D01*
X91829Y27071D01*
X91857Y27280D01*
X91829Y27489D01*
X91749Y27683D01*
X91621Y27851D01*
X91453Y27979D01*
X91259Y28059D01*
X91050Y28087D01*
D02*
G37*
G36*
X75850D02*
X74550D01*
X74341Y28059D01*
X74147Y27979D01*
X73979Y27851D01*
X73851Y27683D01*
X73771Y27489D01*
X73743Y27280D01*
X73771Y27071D01*
X73851Y26877D01*
X73979Y26709D01*
X74147Y26581D01*
X74341Y26501D01*
X74550Y26473D01*
X75850D01*
X76059Y26501D01*
X76253Y26581D01*
X76421Y26709D01*
X76549Y26877D01*
X76629Y27071D01*
X76657Y27280D01*
X76629Y27489D01*
X76549Y27683D01*
X76421Y27851D01*
X76253Y27979D01*
X76059Y28059D01*
X75850Y28087D01*
D02*
G37*
G36*
X72234Y26554D02*
X71657D01*
Y26077D01*
X72234D01*
Y26554D01*
D02*
G37*
G36*
X71403D02*
X70826D01*
Y26077D01*
X71403D01*
Y26554D01*
D02*
G37*
G36*
Y25823D02*
X70826D01*
Y25346D01*
X71403D01*
Y25823D01*
D02*
G37*
G36*
X91050Y33167D02*
X89750D01*
X89541Y33139D01*
X89347Y33059D01*
X89179Y32931D01*
X89051Y32763D01*
X88971Y32569D01*
X88943Y32360D01*
X88971Y32151D01*
X89051Y31957D01*
X89179Y31789D01*
X89347Y31661D01*
X89541Y31581D01*
X89750Y31553D01*
X91050D01*
X91259Y31581D01*
X91338Y31613D01*
X93741Y29210D01*
Y26900D01*
X93776Y26724D01*
X93876Y26576D01*
X94516Y25936D01*
X94664Y25836D01*
X94840Y25801D01*
X96162D01*
X96170Y25781D01*
X96322Y25582D01*
X96521Y25430D01*
X96752Y25334D01*
X97000Y25302D01*
X97248Y25334D01*
X97479Y25430D01*
X97678Y25582D01*
X97830Y25781D01*
X97926Y26012D01*
X97958Y26260D01*
X97926Y26508D01*
X97830Y26739D01*
X97678Y26938D01*
X97479Y27090D01*
X97248Y27186D01*
X97000Y27218D01*
X96752Y27186D01*
X96521Y27090D01*
X96322Y26938D01*
X96170Y26739D01*
X96162Y26719D01*
X95030D01*
X94659Y27090D01*
Y29400D01*
X94624Y29576D01*
X94524Y29724D01*
X91852Y32397D01*
X91829Y32569D01*
X91749Y32763D01*
X91621Y32931D01*
X91453Y33059D01*
X91259Y33139D01*
X91050Y33167D01*
D02*
G37*
G36*
Y25547D02*
X89750D01*
X89541Y25519D01*
X89347Y25439D01*
X89179Y25311D01*
X89051Y25143D01*
X88971Y24949D01*
X88943Y24740D01*
X88971Y24531D01*
X89051Y24337D01*
X89179Y24169D01*
X89347Y24041D01*
X89541Y23961D01*
X89750Y23933D01*
X91050D01*
X91259Y23961D01*
X91453Y24041D01*
X91621Y24169D01*
X91749Y24337D01*
X91829Y24531D01*
X91857Y24740D01*
X91829Y24949D01*
X91749Y25143D01*
X91621Y25311D01*
X91453Y25439D01*
X91259Y25519D01*
X91050Y25547D01*
D02*
G37*
G36*
Y30627D02*
X89750D01*
X89541Y30599D01*
X89347Y30519D01*
X89179Y30391D01*
X89051Y30223D01*
X88971Y30029D01*
X88943Y29820D01*
X88971Y29611D01*
X89051Y29417D01*
X89179Y29249D01*
X89347Y29121D01*
X89541Y29041D01*
X89750Y29013D01*
X91050D01*
X91259Y29041D01*
X91453Y29121D01*
X91481Y29142D01*
X92592Y28031D01*
Y24700D01*
X92592Y24700D01*
X92623Y24544D01*
X92712Y24412D01*
X93692Y23432D01*
X93692Y23432D01*
X93824Y23343D01*
X93980Y23312D01*
X93980Y23312D01*
X96141D01*
X96170Y23241D01*
X96322Y23042D01*
X96521Y22890D01*
X96752Y22794D01*
X97000Y22762D01*
X97248Y22794D01*
X97479Y22890D01*
X97678Y23042D01*
X97830Y23241D01*
X97926Y23472D01*
X97958Y23720D01*
X97926Y23968D01*
X97830Y24199D01*
X97678Y24398D01*
X97479Y24550D01*
X97248Y24646D01*
X97000Y24678D01*
X96752Y24646D01*
X96521Y24550D01*
X96322Y24398D01*
X96170Y24199D01*
X96141Y24128D01*
X94149D01*
X93408Y24869D01*
Y28200D01*
X93377Y28356D01*
X93288Y28488D01*
X93288Y28488D01*
X91842Y29935D01*
X91829Y30029D01*
X91749Y30223D01*
X91621Y30391D01*
X91453Y30519D01*
X91259Y30599D01*
X91050Y30627D01*
D02*
G37*
G36*
X30804Y22273D02*
X29900D01*
X28996D01*
Y21871D01*
Y21577D01*
X29900D01*
X30804D01*
Y21871D01*
Y22273D01*
D02*
G37*
G36*
X59879Y23273D02*
X59227D01*
Y21546D01*
X59879D01*
Y23273D01*
D02*
G37*
G36*
X81220Y49278D02*
X80972Y49246D01*
X80741Y49150D01*
X80542Y48998D01*
X80390Y48799D01*
X80294Y48568D01*
X80262Y48320D01*
X80294Y48072D01*
X80390Y47841D01*
X80541Y47644D01*
Y45800D01*
X80576Y45624D01*
X80676Y45476D01*
X83341Y42810D01*
Y26100D01*
X83376Y25924D01*
X83476Y25776D01*
X87276Y21976D01*
X87424Y21876D01*
X87600Y21841D01*
X89033D01*
X89051Y21797D01*
X89179Y21629D01*
X89347Y21501D01*
X89541Y21421D01*
X89750Y21393D01*
X91050D01*
X91259Y21421D01*
X91453Y21501D01*
X91621Y21629D01*
X91749Y21797D01*
X91829Y21991D01*
X91857Y22200D01*
X91829Y22409D01*
X91749Y22603D01*
X91621Y22771D01*
X91453Y22899D01*
X91259Y22979D01*
X91050Y23007D01*
X89750D01*
X89541Y22979D01*
X89347Y22899D01*
X89179Y22771D01*
X89170Y22759D01*
X87790D01*
X84259Y26290D01*
Y43000D01*
X84224Y43176D01*
X84124Y43324D01*
X81459Y45990D01*
Y47393D01*
X81468Y47394D01*
X81699Y47490D01*
X81898Y47642D01*
X82050Y47841D01*
X82146Y48072D01*
X82178Y48320D01*
X82146Y48568D01*
X82050Y48799D01*
X81898Y48998D01*
X81699Y49150D01*
X81468Y49246D01*
X81220Y49278D01*
D02*
G37*
G36*
X75850Y23007D02*
X74550D01*
X74341Y22979D01*
X74147Y22899D01*
X73979Y22771D01*
X73851Y22603D01*
X73771Y22409D01*
X73743Y22200D01*
X73771Y21991D01*
X73851Y21797D01*
X73979Y21629D01*
X74147Y21501D01*
X74341Y21421D01*
X74550Y21393D01*
X75850D01*
X76059Y21421D01*
X76253Y21501D01*
X76421Y21629D01*
X76549Y21797D01*
X76629Y21991D01*
X76657Y22200D01*
X76629Y22409D01*
X76549Y22603D01*
X76421Y22771D01*
X76253Y22899D01*
X76059Y22979D01*
X75850Y23007D01*
D02*
G37*
G36*
X70427Y21145D02*
Y20427D01*
X71145D01*
X71132Y20523D01*
X71046Y20731D01*
X70909Y20909D01*
X70731Y21046D01*
X70523Y21132D01*
X70427Y21145D01*
D02*
G37*
G36*
X70173D02*
X70077Y21132D01*
X69869Y21046D01*
X69691Y20909D01*
X69554Y20731D01*
X69468Y20523D01*
X69455Y20427D01*
X70173D01*
Y21145D01*
D02*
G37*
G36*
X46677Y20844D02*
Y20126D01*
X47394D01*
X47382Y20222D01*
X47296Y20430D01*
X47159Y20609D01*
X46980Y20745D01*
X46773Y20831D01*
X46677Y20844D01*
D02*
G37*
G36*
X46423Y20844D02*
X46327Y20831D01*
X46119Y20745D01*
X45941Y20609D01*
X45804Y20430D01*
X45718Y20222D01*
X45705Y20126D01*
X46423D01*
Y20844D01*
D02*
G37*
G36*
X71145Y20173D02*
X70427D01*
Y19455D01*
X70523Y19468D01*
X70731Y19554D01*
X70909Y19691D01*
X71046Y19869D01*
X71132Y20077D01*
X71145Y20173D01*
D02*
G37*
G36*
X70173D02*
X69455D01*
X69468Y20077D01*
X69554Y19869D01*
X69691Y19691D01*
X69869Y19554D01*
X70077Y19468D01*
X70173Y19455D01*
Y20173D01*
D02*
G37*
G36*
X6250Y22800D02*
X4950D01*
Y21700D01*
X5141D01*
Y20875D01*
X5100D01*
Y19425D01*
X6100D01*
Y20875D01*
X6059D01*
Y21700D01*
X6250D01*
Y22800D01*
D02*
G37*
G36*
X47394Y19872D02*
X46677D01*
Y19155D01*
X46773Y19167D01*
X46980Y19253D01*
X47159Y19390D01*
X47296Y19569D01*
X47382Y19777D01*
X47394Y19872D01*
D02*
G37*
G36*
X46423D02*
X45705D01*
X45718Y19777D01*
X45804Y19569D01*
X45941Y19390D01*
X46119Y19253D01*
X46327Y19167D01*
X46423Y19155D01*
Y19872D01*
D02*
G37*
G36*
X91050Y20467D02*
X89750D01*
X89541Y20439D01*
X89347Y20359D01*
X89216Y20259D01*
X87300D01*
X87124Y20224D01*
X86976Y20124D01*
X84076Y17224D01*
X83976Y17076D01*
X83941Y16900D01*
Y10490D01*
X79726Y6275D01*
X79721Y6279D01*
X79518Y6364D01*
X79300Y6392D01*
X79082Y6364D01*
X78879Y6279D01*
X78704Y6146D01*
X78571Y5971D01*
X78486Y5768D01*
X78458Y5550D01*
X78480Y5379D01*
X77601Y4500D01*
X77050D01*
Y3400D01*
X78350D01*
Y3951D01*
X79129Y4730D01*
X79300Y4708D01*
X79518Y4736D01*
X79721Y4821D01*
X79896Y4954D01*
X80029Y5129D01*
X80114Y5332D01*
X80118Y5370D01*
X84724Y9976D01*
X84824Y10124D01*
X84859Y10300D01*
Y16710D01*
X87490Y19341D01*
X89016D01*
X89051Y19257D01*
X89179Y19089D01*
X89347Y18961D01*
X89541Y18881D01*
X89750Y18853D01*
X91050D01*
X91259Y18881D01*
X91453Y18961D01*
X91621Y19089D01*
X91749Y19257D01*
X91829Y19451D01*
X91857Y19660D01*
X91829Y19869D01*
X91749Y20063D01*
X91621Y20231D01*
X91453Y20359D01*
X91259Y20439D01*
X91050Y20467D01*
D02*
G37*
G36*
X75850D02*
X74550D01*
X74341Y20439D01*
X74147Y20359D01*
X73979Y20231D01*
X73851Y20063D01*
X73771Y19869D01*
X73743Y19660D01*
X73771Y19451D01*
X73851Y19257D01*
X73979Y19089D01*
X74147Y18961D01*
X74341Y18881D01*
X74550Y18853D01*
X75850D01*
X76059Y18881D01*
X76253Y18961D01*
X76421Y19089D01*
X76549Y19257D01*
X76629Y19451D01*
X76657Y19660D01*
X76629Y19869D01*
X76549Y20063D01*
X76421Y20231D01*
X76253Y20359D01*
X76059Y20439D01*
X75850Y20467D01*
D02*
G37*
G36*
X29773Y19173D02*
X29020D01*
X29034Y19068D01*
X29123Y18852D01*
X29266Y18666D01*
X29452Y18523D01*
X29668Y18434D01*
X29773Y18420D01*
Y19173D01*
D02*
G37*
G36*
X25300Y24008D02*
X25052Y23976D01*
X24821Y23880D01*
X24717Y23800D01*
X23450D01*
Y22300D01*
X24342D01*
Y20875D01*
X23450D01*
Y18075D01*
X27150D01*
Y20875D01*
X26258D01*
Y22300D01*
X27150D01*
Y23800D01*
X25883D01*
X25779Y23880D01*
X25548Y23976D01*
X25300Y24008D01*
D02*
G37*
G36*
X37900Y22550D02*
X34500D01*
Y22310D01*
X34385D01*
Y20890D01*
X34500D01*
Y20650D01*
X35942D01*
Y19580D01*
X35770D01*
Y19310D01*
X35655D01*
Y17890D01*
X35770D01*
Y17680D01*
X37408D01*
X37470Y17672D01*
X37532Y17680D01*
X39170D01*
Y17890D01*
X39205D01*
Y19310D01*
X39170D01*
Y19580D01*
X37875D01*
X37858Y19597D01*
Y20650D01*
X37900D01*
Y20890D01*
X37935D01*
Y22310D01*
X37900D01*
Y22550D01*
D02*
G37*
G36*
X96917Y17445D02*
Y16727D01*
X97635D01*
X97622Y16823D01*
X97536Y17031D01*
X97399Y17209D01*
X97221Y17346D01*
X97013Y17432D01*
X96917Y17445D01*
D02*
G37*
G36*
X96663D02*
X96567Y17432D01*
X96359Y17346D01*
X96181Y17209D01*
X96044Y17031D01*
X95958Y16823D01*
X95945Y16727D01*
X96663D01*
Y17445D01*
D02*
G37*
G36*
X91050Y17927D02*
X89750D01*
X89541Y17899D01*
X89347Y17819D01*
X89179Y17691D01*
X89051Y17523D01*
X88971Y17329D01*
X88943Y17120D01*
X88971Y16911D01*
X89051Y16717D01*
X89179Y16549D01*
X89347Y16421D01*
X89541Y16341D01*
X89750Y16313D01*
X91050D01*
X91259Y16341D01*
X91453Y16421D01*
X91621Y16549D01*
X91749Y16717D01*
X91829Y16911D01*
X91857Y17120D01*
X91829Y17329D01*
X91749Y17523D01*
X91621Y17691D01*
X91453Y17819D01*
X91259Y17899D01*
X91050Y17927D01*
D02*
G37*
G36*
X75850D02*
X74550D01*
X74341Y17899D01*
X74147Y17819D01*
X73979Y17691D01*
X73851Y17523D01*
X73771Y17329D01*
X73743Y17120D01*
X73771Y16911D01*
X73851Y16717D01*
X73979Y16549D01*
X74147Y16421D01*
X74341Y16341D01*
X74550Y16313D01*
X75850D01*
X76059Y16341D01*
X76253Y16421D01*
X76421Y16549D01*
X76549Y16717D01*
X76629Y16911D01*
X76657Y17120D01*
X76629Y17329D01*
X76549Y17523D01*
X76421Y17691D01*
X76253Y17819D01*
X76059Y17899D01*
X75850Y17927D01*
D02*
G37*
G36*
X67127Y16545D02*
Y15827D01*
X67845D01*
X67832Y15923D01*
X67746Y16131D01*
X67609Y16309D01*
X67431Y16446D01*
X67223Y16532D01*
X67127Y16545D01*
D02*
G37*
G36*
X66873Y16545D02*
X66777Y16532D01*
X66569Y16446D01*
X66391Y16309D01*
X66254Y16131D01*
X66168Y15923D01*
X66155Y15827D01*
X66873D01*
Y16545D01*
D02*
G37*
G36*
X97635Y16473D02*
X96917D01*
Y15755D01*
X97013Y15768D01*
X97221Y15854D01*
X97399Y15991D01*
X97536Y16169D01*
X97622Y16377D01*
X97635Y16473D01*
D02*
G37*
G36*
X96663D02*
X95945D01*
X95958Y16377D01*
X96044Y16169D01*
X96181Y15991D01*
X96359Y15854D01*
X96567Y15768D01*
X96663Y15755D01*
Y16473D01*
D02*
G37*
G36*
X33454Y16254D02*
X32027D01*
Y15577D01*
X33454D01*
Y16254D01*
D02*
G37*
G36*
X31773D02*
X30346D01*
Y15577D01*
X31773D01*
Y16254D01*
D02*
G37*
G36*
X5150Y18575D02*
X4150D01*
Y18259D01*
X3300D01*
X3124Y18224D01*
X2976Y18124D01*
X2376Y17524D01*
X2276Y17376D01*
X2241Y17200D01*
Y12900D01*
X2276Y12724D01*
X2376Y12576D01*
X4250Y10701D01*
Y10462D01*
X4242Y10400D01*
X4250Y10338D01*
Y9450D01*
X4795D01*
X5722Y8522D01*
X5921Y8370D01*
X6152Y8274D01*
X6400Y8242D01*
X10025D01*
Y7450D01*
X10673D01*
X10695Y7396D01*
X10847Y7197D01*
X13922Y4122D01*
X14121Y3970D01*
X14352Y3874D01*
X14600Y3842D01*
X17300D01*
Y3800D01*
X20300D01*
Y3842D01*
X23990D01*
Y3665D01*
X24861D01*
Y3405D01*
X23990D01*
Y2395D01*
X25410D01*
Y2675D01*
X29071D01*
Y6985D01*
X25410D01*
Y7215D01*
X23990D01*
Y6205D01*
X24861D01*
Y5945D01*
X23990D01*
Y5758D01*
X14997D01*
X12825Y7930D01*
Y11150D01*
X10025D01*
Y10158D01*
X6797D01*
X6150Y10805D01*
Y11350D01*
X5262D01*
X5200Y11358D01*
X5138Y11350D01*
X4899D01*
X3159Y13090D01*
Y17010D01*
X3490Y17341D01*
X4150D01*
Y17125D01*
X4293D01*
Y16650D01*
X4100D01*
Y15350D01*
X5200D01*
Y16650D01*
X5007D01*
Y17125D01*
X5150D01*
Y18575D01*
D02*
G37*
G36*
X67845Y15573D02*
X67127D01*
Y14855D01*
X67223Y14868D01*
X67431Y14954D01*
X67609Y15091D01*
X67746Y15269D01*
X67832Y15477D01*
X67845Y15573D01*
D02*
G37*
G36*
X66873D02*
X66155D01*
X66168Y15477D01*
X66254Y15269D01*
X66391Y15091D01*
X66569Y14954D01*
X66777Y14868D01*
X66873Y14855D01*
Y15573D01*
D02*
G37*
G36*
X33454Y15323D02*
X32027D01*
Y14646D01*
X33454D01*
Y15323D01*
D02*
G37*
G36*
X31773D02*
X30346D01*
Y14646D01*
X31773D01*
Y15323D01*
D02*
G37*
G36*
X29604Y14954D02*
X29027D01*
Y14427D01*
X29604D01*
Y14954D01*
D02*
G37*
G36*
X28773D02*
X28196D01*
Y14427D01*
X28773D01*
Y14954D01*
D02*
G37*
G36*
X95050Y17400D02*
X93450D01*
Y16470D01*
X92343Y15363D01*
X92255Y15231D01*
X92224Y15075D01*
X92224Y15075D01*
Y14441D01*
X91969Y14186D01*
X91800Y14299D01*
X91829Y14371D01*
X91857Y14580D01*
X91829Y14789D01*
X91749Y14983D01*
X91621Y15151D01*
X91453Y15279D01*
X91259Y15359D01*
X91050Y15387D01*
X89750D01*
X89541Y15359D01*
X89347Y15279D01*
X89179Y15151D01*
X89051Y14983D01*
X88971Y14789D01*
X88943Y14580D01*
X88971Y14371D01*
X89051Y14177D01*
X89179Y14009D01*
X89347Y13881D01*
X89541Y13801D01*
X89750Y13773D01*
X91050D01*
X91259Y13801D01*
X91331Y13830D01*
X91444Y13661D01*
X90630Y12847D01*
X89750D01*
X89541Y12819D01*
X89347Y12739D01*
X89179Y12611D01*
X89051Y12443D01*
X88971Y12249D01*
X88943Y12040D01*
X88971Y11831D01*
X89051Y11637D01*
X89179Y11469D01*
X89347Y11341D01*
X89541Y11261D01*
X89750Y11233D01*
X91050D01*
X91259Y11261D01*
X91453Y11341D01*
X91621Y11469D01*
X91749Y11637D01*
X91829Y11831D01*
X91857Y12040D01*
X91829Y12249D01*
X91749Y12443D01*
X91621Y12611D01*
X91616Y12679D01*
X92920Y13983D01*
X92920Y13983D01*
X93009Y14116D01*
X93040Y14272D01*
Y14906D01*
X93933Y15800D01*
X95050D01*
Y17400D01*
D02*
G37*
G36*
X75850Y15387D02*
X74550D01*
X74341Y15359D01*
X74147Y15279D01*
X73979Y15151D01*
X73851Y14983D01*
X73771Y14789D01*
X73743Y14580D01*
X73771Y14371D01*
X73851Y14177D01*
X73979Y14009D01*
X74147Y13881D01*
X74341Y13801D01*
X74550Y13773D01*
X75850D01*
X76059Y13801D01*
X76253Y13881D01*
X76421Y14009D01*
X76549Y14177D01*
X76629Y14371D01*
X76657Y14580D01*
X76629Y14789D01*
X76549Y14983D01*
X76421Y15151D01*
X76253Y15279D01*
X76059Y15359D01*
X75850Y15387D01*
D02*
G37*
G36*
X96790Y14867D02*
X96581Y14839D01*
X96387Y14759D01*
X96219Y14631D01*
X96091Y14463D01*
X96011Y14269D01*
X95983Y14060D01*
X96011Y13851D01*
X96091Y13657D01*
X96219Y13489D01*
X96387Y13361D01*
X96581Y13281D01*
X96790Y13253D01*
X96999Y13281D01*
X97193Y13361D01*
X97361Y13489D01*
X97489Y13657D01*
X97569Y13851D01*
X97597Y14060D01*
X97569Y14269D01*
X97489Y14463D01*
X97361Y14631D01*
X97193Y14759D01*
X96999Y14839D01*
X96790Y14867D01*
D02*
G37*
G36*
X5327Y13936D02*
Y13067D01*
X6196D01*
X6178Y13202D01*
X6077Y13446D01*
X5916Y13656D01*
X5706Y13817D01*
X5462Y13918D01*
X5327Y13936D01*
D02*
G37*
G36*
X5073D02*
X4938Y13918D01*
X4694Y13817D01*
X4484Y13656D01*
X4323Y13446D01*
X4222Y13202D01*
X4204Y13067D01*
X5073D01*
Y13936D01*
D02*
G37*
G36*
X6196Y12813D02*
X5327D01*
Y11944D01*
X5462Y11962D01*
X5706Y12063D01*
X5916Y12224D01*
X6077Y12434D01*
X6178Y12678D01*
X6196Y12813D01*
D02*
G37*
G36*
X5073D02*
X4204D01*
X4222Y12678D01*
X4323Y12434D01*
X4484Y12224D01*
X4694Y12063D01*
X4938Y11962D01*
X5073Y11944D01*
Y12813D01*
D02*
G37*
G36*
X75850Y12847D02*
X74550D01*
X74341Y12819D01*
X74147Y12739D01*
X73979Y12611D01*
X73851Y12443D01*
X73771Y12249D01*
X73743Y12040D01*
X73771Y11831D01*
X73851Y11637D01*
X73979Y11469D01*
X74147Y11341D01*
X74341Y11261D01*
X74550Y11233D01*
X75850D01*
X76059Y11261D01*
X76253Y11341D01*
X76421Y11469D01*
X76549Y11637D01*
X76629Y11831D01*
X76657Y12040D01*
X76629Y12249D01*
X76549Y12443D01*
X76421Y12611D01*
X76253Y12739D01*
X76059Y12819D01*
X75850Y12847D01*
D02*
G37*
G36*
X96790Y12327D02*
X96581Y12299D01*
X96387Y12219D01*
X96219Y12091D01*
X96091Y11923D01*
X96011Y11729D01*
X95983Y11520D01*
X96011Y11311D01*
X96091Y11117D01*
X96219Y10949D01*
X96387Y10821D01*
X96581Y10741D01*
X96790Y10713D01*
X96999Y10741D01*
X97193Y10821D01*
X97361Y10949D01*
X97489Y11117D01*
X97569Y11311D01*
X97597Y11520D01*
X97569Y11729D01*
X97489Y11923D01*
X97361Y12091D01*
X97193Y12219D01*
X96999Y12299D01*
X96790Y12327D01*
D02*
G37*
G36*
X27450Y43800D02*
X26150D01*
Y42700D01*
X26995D01*
X27561Y42135D01*
X27484Y41950D01*
X26700D01*
Y40650D01*
X26893D01*
Y38000D01*
X26300D01*
Y36100D01*
X28200D01*
Y38000D01*
X27607D01*
Y40650D01*
X27800D01*
Y41634D01*
X27985Y41711D01*
X28743Y40952D01*
Y35548D01*
X27695Y34500D01*
X26300D01*
Y32600D01*
X27695D01*
X29043Y31252D01*
Y27148D01*
X27748Y25852D01*
X27670Y25737D01*
X27643Y25600D01*
Y23400D01*
Y17608D01*
X27422Y17387D01*
X26230D01*
X26093Y17360D01*
X25978Y17282D01*
X25048Y16352D01*
X24970Y16237D01*
X24943Y16100D01*
Y13925D01*
X23450D01*
Y11125D01*
X24342D01*
Y10397D01*
X24153Y10208D01*
X19775D01*
Y11150D01*
X19438D01*
Y18400D01*
X19406Y18648D01*
X19310Y18879D01*
X19205Y19016D01*
Y20650D01*
X17755D01*
Y19016D01*
X17650Y18879D01*
X17554Y18648D01*
X17522Y18400D01*
Y11150D01*
X16975D01*
Y8957D01*
X16448D01*
X16157Y9248D01*
Y13400D01*
Y13600D01*
X16700D01*
Y15400D01*
X15100D01*
X14900Y15400D01*
X14700Y15400D01*
X14379D01*
Y16150D01*
X14645D01*
Y20650D01*
X14379D01*
Y21530D01*
X15440Y22591D01*
X19850D01*
X20026Y22626D01*
X20174Y22726D01*
X23790Y26341D01*
X27100D01*
X27276Y26376D01*
X27424Y26476D01*
X28624Y27676D01*
X28724Y27824D01*
X28759Y28000D01*
Y29400D01*
X28724Y29576D01*
X28624Y29724D01*
X27824Y30524D01*
X27676Y30624D01*
X27500Y30659D01*
X26890D01*
X25459Y32090D01*
Y37540D01*
X25424Y37716D01*
X25324Y37864D01*
X25039Y38149D01*
X24891Y38249D01*
X24715Y38284D01*
X23863D01*
X23845Y38296D01*
X23650Y38335D01*
X22800D01*
X22605Y38296D01*
X22440Y38185D01*
X22329Y38020D01*
X22290Y37825D01*
X22329Y37630D01*
X22440Y37465D01*
X22605Y37354D01*
X22800Y37315D01*
X23650D01*
X23845Y37354D01*
X23863Y37366D01*
X24525D01*
X24541Y37350D01*
Y31900D01*
X24576Y31724D01*
X24676Y31576D01*
X26376Y29876D01*
X26524Y29776D01*
X26700Y29741D01*
X27310D01*
X27841Y29210D01*
Y28190D01*
X26910Y27259D01*
X23600D01*
X23424Y27224D01*
X23276Y27124D01*
X19660Y23509D01*
X15250D01*
X15074Y23474D01*
X14926Y23374D01*
X13596Y22044D01*
X13496Y21896D01*
X13461Y21720D01*
Y20650D01*
X13195D01*
Y16150D01*
X13461D01*
Y15400D01*
X13100D01*
Y15209D01*
X11850D01*
Y15300D01*
X10550D01*
Y14200D01*
X11850D01*
Y14291D01*
X13100D01*
Y13600D01*
X14700D01*
X14900Y13600D01*
X15212Y13600D01*
X15295Y13400D01*
X14552Y12657D01*
X12298D01*
X11850Y13105D01*
Y13800D01*
X10550D01*
Y12700D01*
X11245D01*
X11898Y12048D01*
X12013Y11970D01*
X12150Y11943D01*
X14700D01*
X14837Y11970D01*
X14952Y12048D01*
X15258Y12354D01*
X15443Y12277D01*
Y9100D01*
X15470Y8963D01*
X15548Y8848D01*
X16048Y8348D01*
X16163Y8270D01*
X16300Y8243D01*
X16975D01*
Y7450D01*
X19775D01*
Y8292D01*
X24550D01*
X24798Y8324D01*
X25029Y8420D01*
X25228Y8572D01*
X25978Y9322D01*
X26130Y9521D01*
X26226Y9752D01*
X26258Y10000D01*
Y11125D01*
X27150D01*
Y11567D01*
X36770D01*
X36832Y11575D01*
X39220D01*
Y13475D01*
X38925D01*
Y16971D01*
X34615D01*
Y13483D01*
X33400D01*
Y13500D01*
X30400D01*
Y13483D01*
X29694D01*
X29604Y13646D01*
X29604Y13678D01*
Y14173D01*
X28196D01*
Y13683D01*
X28196Y13646D01*
X28106Y13483D01*
X27150D01*
Y13925D01*
X25657D01*
Y15952D01*
X26378Y16673D01*
X27570D01*
X27707Y16700D01*
X27822Y16778D01*
X28252Y17208D01*
X28330Y17323D01*
X28357Y17460D01*
Y23043D01*
X28843D01*
X28996Y22929D01*
Y22527D01*
X29900D01*
X30804D01*
Y22929D01*
X30750D01*
Y23825D01*
X29050D01*
Y23757D01*
X28357D01*
Y25452D01*
X29652Y26748D01*
X29730Y26863D01*
X29757Y27000D01*
Y31400D01*
X29730Y31537D01*
X29652Y31652D01*
X28200Y33105D01*
Y33995D01*
X29352Y35148D01*
X29430Y35263D01*
X29457Y35400D01*
Y41100D01*
X29430Y41237D01*
X29352Y41352D01*
X27450Y43255D01*
Y43800D01*
D02*
G37*
G36*
X30700Y10650D02*
X29600D01*
Y10357D01*
X28900D01*
X28763Y10330D01*
X28648Y10252D01*
X28382Y9987D01*
X28318Y10014D01*
X28100Y10042D01*
X27882Y10014D01*
X27679Y9929D01*
X27504Y9796D01*
X27371Y9621D01*
X27286Y9418D01*
X27258Y9200D01*
X27286Y8982D01*
X27371Y8779D01*
X27504Y8604D01*
X27679Y8471D01*
X27882Y8386D01*
X28100Y8358D01*
X28318Y8386D01*
X28382Y8413D01*
X28848Y7948D01*
X28963Y7870D01*
X29100Y7843D01*
X30252D01*
X30343Y7752D01*
Y7215D01*
X29990D01*
Y6205D01*
X31410D01*
Y7215D01*
X31057D01*
Y7900D01*
X31030Y8037D01*
X30952Y8152D01*
X30652Y8452D01*
X30537Y8530D01*
X30400Y8557D01*
X29248D01*
X28887Y8918D01*
X28914Y8982D01*
X28942Y9200D01*
X28914Y9418D01*
X28887Y9482D01*
X29048Y9643D01*
X29600D01*
Y9350D01*
X30700D01*
Y10650D01*
D02*
G37*
G36*
X91904Y10354D02*
X90527D01*
Y9627D01*
X91904D01*
Y10354D01*
D02*
G37*
G36*
X90273D02*
X88896D01*
Y9627D01*
X90273D01*
Y10354D01*
D02*
G37*
G36*
X91904Y9373D02*
X90527D01*
Y8646D01*
X91904D01*
Y9373D01*
D02*
G37*
G36*
X90273D02*
X88896D01*
Y8646D01*
X90273D01*
Y9373D01*
D02*
G37*
G36*
X96790Y9787D02*
X96581Y9759D01*
X96387Y9679D01*
X96219Y9551D01*
X96091Y9383D01*
X96011Y9189D01*
X95983Y8980D01*
X96011Y8771D01*
X96091Y8577D01*
X96219Y8409D01*
X96387Y8281D01*
X96581Y8201D01*
X96790Y8173D01*
X96999Y8201D01*
X97193Y8281D01*
X97361Y8409D01*
X97489Y8577D01*
X97569Y8771D01*
X97597Y8980D01*
X97569Y9189D01*
X97489Y9383D01*
X97361Y9551D01*
X97193Y9679D01*
X96999Y9759D01*
X96790Y9787D01*
D02*
G37*
G36*
X72234Y25823D02*
X71657D01*
Y25346D01*
X72004D01*
X72035Y25253D01*
X72038Y25146D01*
X71916Y25064D01*
X70440Y23589D01*
X70300Y23607D01*
X70091Y23579D01*
X69897Y23499D01*
X69729Y23371D01*
X69601Y23203D01*
X69521Y23009D01*
X69493Y22800D01*
X69521Y22591D01*
X69601Y22397D01*
X69729Y22229D01*
X69897Y22101D01*
X70091Y22021D01*
X70300Y21993D01*
X70509Y22021D01*
X70703Y22101D01*
X70871Y22229D01*
X70999Y22397D01*
X71079Y22591D01*
X71107Y22800D01*
X71089Y22940D01*
X72430Y24281D01*
X73894D01*
X73979Y24169D01*
X74147Y24041D01*
X74341Y23961D01*
X74550Y23933D01*
X75850D01*
X76059Y23961D01*
X76253Y24041D01*
X76421Y24169D01*
X76506Y24281D01*
X78270D01*
X79741Y22810D01*
Y9090D01*
X77820Y7169D01*
X70600D01*
Y7360D01*
X69500D01*
Y6060D01*
X70600D01*
Y6251D01*
X78010D01*
X78186Y6286D01*
X78334Y6386D01*
X80524Y8576D01*
X80624Y8724D01*
X80659Y8900D01*
Y23000D01*
X80624Y23176D01*
X80524Y23324D01*
X78784Y25064D01*
X78636Y25164D01*
X78460Y25199D01*
X76506D01*
X76421Y25311D01*
X76253Y25439D01*
X76059Y25519D01*
X75850Y25547D01*
X74550D01*
X74341Y25519D01*
X74147Y25439D01*
X73979Y25311D01*
X73894Y25199D01*
X72362D01*
X72334Y25230D01*
X72234Y25388D01*
X72234Y25396D01*
X72234Y25596D01*
Y25823D01*
D02*
G37*
G36*
X88327Y7920D02*
Y7127D01*
X89120D01*
X89105Y7243D01*
X89011Y7469D01*
X88863Y7663D01*
X88669Y7811D01*
X88443Y7905D01*
X88327Y7920D01*
D02*
G37*
G36*
X88073Y7920D02*
X87957Y7905D01*
X87731Y7811D01*
X87537Y7663D01*
X87389Y7469D01*
X87295Y7243D01*
X87280Y7127D01*
X88073D01*
Y7920D01*
D02*
G37*
G36*
X93173Y7245D02*
X93077Y7232D01*
X92869Y7146D01*
X92691Y7009D01*
X92554Y6831D01*
X92468Y6623D01*
X92455Y6527D01*
X93173D01*
Y7245D01*
D02*
G37*
G36*
X89120Y6873D02*
X88327D01*
Y6080D01*
X88443Y6095D01*
X88669Y6189D01*
X88863Y6337D01*
X89011Y6531D01*
X89105Y6757D01*
X89120Y6873D01*
D02*
G37*
G36*
X88073D02*
X87280D01*
X87295Y6757D01*
X87389Y6531D01*
X87537Y6337D01*
X87731Y6189D01*
X87957Y6095D01*
X88073Y6080D01*
Y6873D01*
D02*
G37*
G36*
X32200Y10650D02*
X31100D01*
Y9350D01*
X31795D01*
X32243Y8902D01*
Y6548D01*
X31610Y5915D01*
X31410Y5945D01*
Y5945D01*
X29990D01*
Y5870D01*
X29750D01*
Y2470D01*
X29990D01*
Y2395D01*
X31410D01*
Y2470D01*
X31650D01*
Y2742D01*
X34890D01*
X34952Y2750D01*
X37860D01*
Y2990D01*
X37935D01*
Y4410D01*
X37860D01*
Y4650D01*
X34952D01*
X34890Y4658D01*
X31650D01*
Y5085D01*
X31777Y5110D01*
X31892Y5188D01*
X32852Y6148D01*
X32930Y6263D01*
X32957Y6400D01*
Y9050D01*
X32930Y9187D01*
X32852Y9302D01*
X32200Y9955D01*
Y10650D01*
D02*
G37*
G36*
X93173Y6273D02*
X92455D01*
X92468Y6177D01*
X92554Y5969D01*
X92691Y5791D01*
X92869Y5654D01*
X93077Y5568D01*
X93173Y5555D01*
Y6273D01*
D02*
G37*
G36*
X94145D02*
X93427D01*
Y5555D01*
X93523Y5568D01*
X93731Y5654D01*
X93909Y5791D01*
X94046Y5969D01*
X94132Y6177D01*
X94145Y6273D01*
D02*
G37*
G36*
X75074Y5154D02*
X74197D01*
Y4277D01*
X75074D01*
Y5154D01*
D02*
G37*
G36*
X73943D02*
X73066D01*
Y4277D01*
X73943D01*
Y5154D01*
D02*
G37*
G36*
X71530Y5108D02*
X71282Y5076D01*
X71051Y4980D01*
X70852Y4828D01*
X70700Y4629D01*
X70604Y4398D01*
X70572Y4150D01*
X70604Y3902D01*
X70700Y3671D01*
X70852Y3472D01*
X71051Y3320D01*
X71282Y3224D01*
X71530Y3192D01*
X71778Y3224D01*
X72009Y3320D01*
X72208Y3472D01*
X72360Y3671D01*
X72456Y3902D01*
X72488Y4150D01*
X72456Y4398D01*
X72360Y4629D01*
X72208Y4828D01*
X72009Y4980D01*
X71778Y5076D01*
X71530Y5108D01*
D02*
G37*
G36*
X75074Y4023D02*
X74197D01*
Y3146D01*
X75074D01*
Y4023D01*
D02*
G37*
G36*
X73943D02*
X73066D01*
Y3146D01*
X73943D01*
Y4023D01*
D02*
G37*
G36*
X40500Y7642D02*
X40282Y7614D01*
X40079Y7529D01*
X39904Y7396D01*
X39771Y7221D01*
X39686Y7018D01*
X39658Y6800D01*
X39686Y6582D01*
X39771Y6379D01*
X39904Y6204D01*
X40079Y6071D01*
X40143Y6044D01*
Y5648D01*
X38905Y4410D01*
X38195D01*
Y2990D01*
X39205D01*
Y3700D01*
X40752Y5248D01*
X40830Y5363D01*
X40857Y5500D01*
Y6044D01*
X40921Y6071D01*
X41096Y6204D01*
X41229Y6379D01*
X41314Y6582D01*
X41342Y6800D01*
X41314Y7018D01*
X41229Y7221D01*
X41096Y7396D01*
X40921Y7529D01*
X40718Y7614D01*
X40500Y7642D01*
D02*
G37*
G36*
X20354Y2654D02*
X18927D01*
Y1977D01*
X20354D01*
Y2654D01*
D02*
G37*
G36*
X18673D02*
X17246D01*
Y1977D01*
X18673D01*
Y2654D01*
D02*
G37*
G36*
X99600Y8361D02*
X99059Y8318D01*
X98531Y8191D01*
X98029Y7983D01*
X97566Y7700D01*
X97153Y7347D01*
X96800Y6934D01*
X96517Y6471D01*
X96309Y5969D01*
X96182Y5441D01*
X96139Y4900D01*
X96182Y4359D01*
X96309Y3831D01*
X96517Y3329D01*
X96800Y2866D01*
X97153Y2453D01*
X97566Y2100D01*
X98029Y1817D01*
X98531Y1609D01*
X99059Y1482D01*
X99600Y1439D01*
X100141Y1482D01*
X100669Y1609D01*
X101171Y1817D01*
X101634Y2100D01*
X102047Y2453D01*
X102400Y2866D01*
X102683Y3329D01*
X102891Y3831D01*
X103018Y4359D01*
X103061Y4900D01*
X103018Y5441D01*
X102891Y5969D01*
X102683Y6471D01*
X102400Y6934D01*
X102047Y7347D01*
X101634Y7700D01*
X101171Y7983D01*
X100669Y8191D01*
X100141Y8318D01*
X99600Y8361D01*
D02*
G37*
G36*
X6150Y8061D02*
X5609Y8018D01*
X5081Y7891D01*
X4579Y7683D01*
X4116Y7400D01*
X3703Y7047D01*
X3350Y6634D01*
X3067Y6171D01*
X2859Y5669D01*
X2732Y5141D01*
X2689Y4600D01*
X2732Y4059D01*
X2859Y3531D01*
X3067Y3029D01*
X3350Y2566D01*
X3703Y2153D01*
X4116Y1800D01*
X4579Y1517D01*
X5081Y1309D01*
X5609Y1182D01*
X6150Y1139D01*
X6691Y1182D01*
X7219Y1309D01*
X7721Y1517D01*
X8184Y1800D01*
X8597Y2153D01*
X8950Y2566D01*
X9233Y3029D01*
X9441Y3531D01*
X9568Y4059D01*
X9611Y4600D01*
X9568Y5141D01*
X9441Y5669D01*
X9233Y6171D01*
X8950Y6634D01*
X8597Y7047D01*
X8184Y7400D01*
X7721Y7683D01*
X7219Y7891D01*
X6691Y8018D01*
X6150Y8061D01*
D02*
G37*
G36*
X20354Y1723D02*
X18927D01*
Y1046D01*
X20354D01*
Y1723D01*
D02*
G37*
G36*
X18673D02*
X17246D01*
Y1046D01*
X18673D01*
Y1723D01*
D02*
G37*
%LPD*%
G36*
X42346Y47821D02*
X42390D01*
X42400Y47625D01*
X42400Y47621D01*
Y46179D01*
X42400Y46175D01*
X42390Y45979D01*
X42346D01*
Y45659D01*
X39154D01*
Y48141D01*
X42346D01*
Y47821D01*
D02*
G37*
G36*
X100114Y38599D02*
X100194Y38549D01*
Y34392D01*
X99208Y33406D01*
X98050D01*
Y33650D01*
X96150D01*
Y33159D01*
X94650D01*
Y33300D01*
X93449D01*
X93260Y33489D01*
X93334Y33698D01*
X93350Y33700D01*
X93359Y33700D01*
X94650D01*
Y34800D01*
X94650D01*
X94609Y34900D01*
X96648Y36939D01*
X96852Y36854D01*
X97100Y36822D01*
X97348Y36854D01*
X97579Y36950D01*
X97778Y37102D01*
X97930Y37301D01*
X97938Y37321D01*
X98500D01*
X98676Y37356D01*
X98824Y37456D01*
X99994Y38625D01*
X100114Y38599D01*
D02*
G37*
G36*
X58641Y25254D02*
X58321D01*
Y25210D01*
X58125Y25200D01*
X58121Y25200D01*
X56679D01*
X56675Y25200D01*
X56479Y25210D01*
Y25254D01*
X56159D01*
Y28446D01*
X58641D01*
Y25254D01*
D02*
G37*
%LPC*%
G36*
X97227Y36236D02*
Y35367D01*
X98096D01*
X98078Y35502D01*
X97977Y35746D01*
X97816Y35956D01*
X97606Y36117D01*
X97362Y36218D01*
X97227Y36236D01*
D02*
G37*
G36*
X96973D02*
X96838Y36218D01*
X96594Y36117D01*
X96384Y35956D01*
X96223Y35746D01*
X96122Y35502D01*
X96104Y35367D01*
X96973D01*
Y36236D01*
D02*
G37*
G36*
X98096Y35113D02*
X97227D01*
Y34244D01*
X97362Y34262D01*
X97606Y34363D01*
X97816Y34524D01*
X97977Y34734D01*
X98078Y34978D01*
X98096Y35113D01*
D02*
G37*
G36*
X96973D02*
X96104D01*
X96122Y34978D01*
X96223Y34734D01*
X96384Y34524D01*
X96594Y34363D01*
X96838Y34262D01*
X96973Y34244D01*
Y35113D01*
D02*
G37*
%LPD*%
G36*
X16951Y42506D02*
X17134Y42383D01*
X17350Y42340D01*
Y42145D01*
X17155Y42106D01*
X16990Y41995D01*
X16987Y41992D01*
X13435D01*
X13366Y41978D01*
X13267Y42162D01*
X13653Y42548D01*
X16922D01*
X16951Y42506D01*
D02*
G37*
G36*
X14620Y41150D02*
X14623Y41078D01*
X14469Y40961D01*
X14336Y40786D01*
X14251Y40583D01*
X14223Y40365D01*
X14251Y40147D01*
X14336Y39944D01*
X14469Y39769D01*
X14623Y39652D01*
X14620Y39580D01*
X14566Y39452D01*
X12743D01*
X12242Y39952D01*
X12183Y39992D01*
X12129Y40121D01*
X12066Y40203D01*
X12165Y40403D01*
X12560D01*
X12697Y40430D01*
X12812Y40508D01*
X13583Y41278D01*
X14566D01*
X14620Y41150D01*
D02*
G37*
G36*
X10734Y40203D02*
X10671Y40121D01*
X10586Y39918D01*
X10558Y39700D01*
X10586Y39482D01*
X10671Y39279D01*
X10804Y39104D01*
X10979Y38971D01*
X11182Y38886D01*
X11400Y38858D01*
X11618Y38886D01*
X11821Y38971D01*
X11996Y39104D01*
X12076Y39110D01*
X12343Y38843D01*
X12427Y38786D01*
X12440Y38662D01*
X12423Y38568D01*
X12329Y38529D01*
X12154Y38396D01*
X12021Y38221D01*
X11936Y38018D01*
X11908Y37800D01*
X11936Y37582D01*
X12021Y37379D01*
X12154Y37204D01*
X12329Y37071D01*
X12532Y36986D01*
X12750Y36958D01*
X12968Y36986D01*
X13171Y37071D01*
X13346Y37204D01*
X13479Y37379D01*
X13506Y37443D01*
X14399D01*
X14467Y37243D01*
X14404Y37196D01*
X14271Y37021D01*
X14186Y36818D01*
X14158Y36600D01*
X14186Y36382D01*
X14271Y36179D01*
X14404Y36004D01*
X14579Y35871D01*
X14612Y35857D01*
X14572Y35657D01*
X13148D01*
X12152Y36652D01*
X12037Y36730D01*
X11900Y36757D01*
X11350D01*
Y36900D01*
X11257D01*
Y37162D01*
X11230Y37299D01*
X11152Y37414D01*
X10350Y38217D01*
Y38900D01*
X9083D01*
X8979Y38980D01*
X8857Y39030D01*
Y39700D01*
X10001Y40403D01*
X10635D01*
X10734Y40203D01*
D02*
G37*
D10*
X68550Y6710D02*
D03*
X70050D02*
D03*
X4650Y16000D02*
D03*
X6150D02*
D03*
X25750Y41300D02*
D03*
X27250D02*
D03*
X14150Y44175D02*
D03*
X15650D02*
D03*
X16000Y48500D02*
D03*
X17500D02*
D03*
X22800Y50200D02*
D03*
X21300D02*
D03*
X21250Y48500D02*
D03*
X22750D02*
D03*
X17500Y51900D02*
D03*
X16000D02*
D03*
X30150Y10000D02*
D03*
X31650D02*
D03*
X17500Y50200D02*
D03*
X16000D02*
D03*
D11*
X59050Y9100D02*
D03*
X49150D02*
D03*
D12*
X36770Y9800D02*
D03*
Y12525D02*
D03*
D13*
X36160Y3700D02*
D03*
X37470Y18630D02*
D03*
X36200Y21600D02*
D03*
D14*
X30700Y4170D02*
D03*
D15*
X16200Y28800D02*
D03*
D16*
X18480Y18400D02*
D03*
X13920D02*
D03*
D17*
X34750Y45200D02*
D03*
D18*
X44200Y48600D02*
D03*
Y46900D02*
D03*
Y45200D02*
D03*
Y43500D02*
D03*
Y41800D02*
D03*
D19*
X23225Y36555D02*
D03*
Y37825D02*
D03*
Y39095D02*
D03*
Y40365D02*
D03*
Y41635D02*
D03*
Y42905D02*
D03*
Y44175D02*
D03*
Y45445D02*
D03*
X17775Y36555D02*
D03*
Y37825D02*
D03*
Y39095D02*
D03*
Y40365D02*
D03*
Y41635D02*
D03*
Y42905D02*
D03*
Y44175D02*
D03*
Y45445D02*
D03*
D20*
X5600Y22250D02*
D03*
Y23750D02*
D03*
X77700Y2450D02*
D03*
Y3950D02*
D03*
X93700Y45050D02*
D03*
Y43550D02*
D03*
X94000Y37030D02*
D03*
Y38530D02*
D03*
Y32750D02*
D03*
Y34250D02*
D03*
X89300Y49050D02*
D03*
Y47550D02*
D03*
X71530Y25950D02*
D03*
Y27450D02*
D03*
X26800Y43250D02*
D03*
Y44750D02*
D03*
X11200Y13250D02*
D03*
Y14750D02*
D03*
D21*
X32300Y23350D02*
D03*
Y22400D02*
D03*
Y21450D02*
D03*
X29900D02*
D03*
Y22400D02*
D03*
Y23350D02*
D03*
D22*
X55700Y32850D02*
D03*
D23*
X59100Y23400D02*
D03*
X57400D02*
D03*
X55700D02*
D03*
X54000D02*
D03*
X52300D02*
D03*
D24*
X18375Y9300D02*
D03*
X11425D02*
D03*
X52725Y18600D02*
D03*
X59675D02*
D03*
D25*
X48900Y41925D02*
D03*
Y48875D02*
D03*
X25300Y19475D02*
D03*
Y12525D02*
D03*
D26*
X58100Y50550D02*
D03*
Y40650D02*
D03*
D27*
X28900Y12900D02*
D03*
Y14300D02*
D03*
D28*
X31900Y15450D02*
D03*
Y12750D02*
D03*
X18800Y1850D02*
D03*
Y4550D02*
D03*
D29*
X10900Y36400D02*
D03*
Y35400D02*
D03*
X26800Y47400D02*
D03*
Y46400D02*
D03*
D30*
X27250Y37050D02*
D03*
Y33550D02*
D03*
X97000Y28800D02*
D03*
X5200Y10400D02*
D03*
X97100Y32700D02*
D03*
X5800Y28888D02*
D03*
X12300Y46600D02*
D03*
D31*
X8500Y38150D02*
D03*
Y43850D02*
D03*
X25300Y28750D02*
D03*
Y23050D02*
D03*
D32*
X95650Y45450D02*
D03*
Y43550D02*
D03*
X97950Y44500D02*
D03*
X91350Y49350D02*
D03*
Y47450D02*
D03*
X93650Y48400D02*
D03*
D33*
X4650Y17850D02*
D03*
X6550D02*
D03*
X5600Y20150D02*
D03*
D34*
X38700Y9700D02*
D03*
X37430D02*
D03*
X36160D02*
D03*
X34890D02*
D03*
X38700Y3700D02*
D03*
X37430D02*
D03*
X36160D02*
D03*
X34890D02*
D03*
X38700Y27600D02*
D03*
X37430D02*
D03*
X36160D02*
D03*
X34890D02*
D03*
X38700Y21600D02*
D03*
X37430D02*
D03*
X36160D02*
D03*
X34890D02*
D03*
Y12600D02*
D03*
X36160D02*
D03*
X37430D02*
D03*
X38700D02*
D03*
X34890Y18600D02*
D03*
X36160D02*
D03*
X37430D02*
D03*
X38700D02*
D03*
D35*
X36820Y7434D02*
D03*
Y25334D02*
D03*
X36770Y14866D02*
D03*
D36*
X24700Y6710D02*
D03*
Y5440D02*
D03*
Y4170D02*
D03*
Y2900D02*
D03*
X30700Y6710D02*
D03*
Y5440D02*
D03*
Y4170D02*
D03*
Y2900D02*
D03*
D37*
X26966Y4830D02*
D03*
D38*
X36800Y27700D02*
D03*
D39*
X15800Y14500D02*
D03*
X14000D02*
D03*
D40*
X84400Y10300D02*
Y16900D01*
X79650Y5550D02*
X84400Y10300D01*
X79300Y5550D02*
X79650D01*
X77700Y3950D02*
X79300Y5550D01*
X75200Y24740D02*
X78460D01*
X80200Y23000D01*
Y8900D02*
Y23000D01*
X78010Y6710D02*
X80200Y8900D01*
X70050Y6710D02*
X78010D01*
X69200Y13000D02*
Y16000D01*
X67450Y11250D02*
X69200Y13000D01*
X67450Y10250D02*
Y11250D01*
X70450Y27450D02*
X71530D01*
X65800Y22800D02*
X70450Y27450D01*
X72240Y24740D02*
X75200D01*
X70300Y22800D02*
X72240Y24740D01*
X64600Y36900D02*
X72900Y45200D01*
X64600Y22300D02*
Y36900D01*
Y22300D02*
X71700Y15200D01*
X71900Y27800D02*
X73200Y29100D01*
Y34200D01*
X89300Y49050D02*
X91050D01*
X75200Y37540D02*
X81760D01*
X93700Y43550D02*
X95650D01*
X91050Y49050D02*
X91350Y49350D01*
X93700Y45050D02*
X95250D01*
X89300Y47550D02*
X91250D01*
X87600Y22300D02*
X90400D01*
X59100Y23400D02*
Y29450D01*
X55700Y23400D02*
Y32850D01*
X38150Y48600D02*
X44200D01*
X34750Y45200D02*
X44200D01*
X28300Y28000D02*
Y29400D01*
X27500Y30200D02*
X28300Y29400D01*
X26700Y30200D02*
X27500D01*
X27100Y26800D02*
X28300Y28000D01*
X23600Y26800D02*
X27100D01*
X19850Y23050D02*
X23600Y26800D01*
X15250Y23050D02*
X19850D01*
X11200Y14750D02*
X13750D01*
X13920Y14580D01*
Y18400D01*
Y21720D01*
X15250Y23050D01*
X3400Y36200D02*
X5700Y38500D01*
X3400Y29700D02*
Y36200D01*
Y29700D02*
X4212Y28888D01*
X5800D01*
X5700Y38500D02*
Y48800D01*
X10900Y54000D01*
X17925D01*
X18500Y53425D01*
Y51900D02*
Y53425D01*
X17500Y50200D02*
X17500Y50200D01*
X17500Y50200D02*
Y51900D01*
X5600Y20150D02*
Y22250D01*
X2700Y17200D02*
X3300Y17800D01*
X4600D01*
X4650Y17850D01*
X25000Y31900D02*
X26700Y30200D01*
X23225Y37825D02*
X24715D01*
X25000Y37540D01*
Y31900D02*
Y37540D01*
X70200Y50500D02*
X72900Y47800D01*
X73200Y34200D02*
X74000Y35000D01*
X75600D01*
X68990Y4150D02*
X69000Y4140D01*
X84400Y16900D02*
X87300Y19800D01*
X90260D01*
X68990Y4150D02*
Y4690D01*
X90400Y14580D02*
X91120D01*
X71700Y10500D02*
X72700Y9500D01*
X75200D01*
X67700Y17500D02*
X69200Y16000D01*
X65500Y17500D02*
X67700D01*
X90400Y32360D02*
X91240D01*
X94200Y29400D01*
Y26900D02*
Y29400D01*
Y26900D02*
X94840Y26260D01*
X97000D01*
X72900Y45200D02*
Y47800D01*
X71700Y10500D02*
Y15200D01*
X63300Y19700D02*
X65500Y17500D01*
X63300Y19700D02*
Y22800D01*
X66800Y34390D02*
X71800D01*
X72570Y39980D02*
X75200D01*
X71800Y40750D02*
X72570Y39980D01*
X71800Y40750D02*
Y42010D01*
X87100Y34900D02*
X90400D01*
X86000Y36000D02*
X87100Y34900D01*
X86000Y36000D02*
Y44950D01*
X87450Y46400D01*
X88900D01*
X89300Y46800D01*
Y47550D01*
X87300Y37440D02*
X90400D01*
X87100Y37640D02*
X87300Y37440D01*
X87100Y37640D02*
Y43650D01*
X88250Y44800D01*
X91250D01*
X92500Y43550D01*
X93700D01*
X92700Y33400D02*
X93400Y32700D01*
X92700Y33400D02*
Y35730D01*
X94000Y37030D01*
Y34250D02*
Y34940D01*
X96840Y37780D01*
X94000Y38530D02*
X95790Y40320D01*
X97100D01*
X97950Y44500D02*
X98800Y43650D01*
Y40900D02*
Y43650D01*
X98220Y40320D02*
X98800Y40900D01*
X97100Y40320D02*
X98220D01*
X93650Y48400D02*
X97200D01*
X99700Y45900D01*
Y38980D02*
Y45900D01*
X98500Y37780D02*
X99700Y38980D01*
X96840Y37780D02*
X97100D01*
X98500D01*
X83800Y26100D02*
X87600Y22300D01*
X83800Y26100D02*
Y43000D01*
X81000Y45800D02*
X83800Y43000D01*
X81000Y45800D02*
Y48100D01*
X81220Y48320D01*
X95650Y45450D02*
Y47150D01*
X91380Y50280D02*
X91900Y50800D01*
X94800D01*
X95700Y49900D01*
X91380Y49600D02*
Y50280D01*
X93400Y32700D02*
X97100D01*
X2700Y12900D02*
Y17200D01*
Y12900D02*
X5000Y10600D01*
X22900Y50400D02*
X27300Y54800D01*
X75000D01*
X76400Y53400D01*
X17500Y51900D02*
X18500D01*
X94900Y5500D02*
Y6800D01*
X94250Y7450D02*
X94900Y6800D01*
X94250Y7450D02*
Y8980D01*
X92800Y10430D02*
X94250Y8980D01*
X93300Y3900D02*
X94900Y5500D01*
X92800Y10430D02*
Y12600D01*
X92900Y12700D01*
Y12710D01*
X94250Y14060D01*
D41*
X67950Y5630D02*
Y9650D01*
X66950Y10650D02*
X67950Y9650D01*
X52800Y18725D02*
X54100Y20025D01*
X52800Y17850D02*
Y18725D01*
X57500Y19950D02*
Y24350D01*
Y19950D02*
X58800Y18650D01*
X54100Y20025D02*
Y24350D01*
X44200Y43500D02*
X46500Y43500D01*
X48600D01*
X49425Y41825D01*
X44200Y46900D02*
X48000D01*
X49425Y48325D01*
X69000Y50700D02*
X69000D01*
X70200Y50500D02*
X77200D01*
X99500Y32700D02*
X100900Y34100D01*
X97100Y32700D02*
X98900D01*
X100600Y31000D01*
X98900Y32700D02*
X99500D01*
X100900Y34100D02*
Y46900D01*
X77200Y50500D02*
X79900Y53200D01*
X94600D01*
X100900Y46900D01*
X78680Y48320D02*
Y49020D01*
X77200Y50500D02*
X78680Y49020D01*
X66470Y4150D02*
X67950Y5630D01*
X66470Y3130D02*
X67600Y2000D01*
X88200D01*
X91400D01*
X66470Y3130D02*
Y4150D01*
X91400Y2000D02*
X93300Y3900D01*
X97000Y21180D02*
X98480D01*
X100600Y23300D01*
Y31000D01*
D42*
X65400Y9100D02*
X66950Y10650D01*
X59050Y9100D02*
X65400D01*
X52725Y17775D02*
X52800Y17850D01*
X52725Y14150D02*
Y17775D01*
X49088Y10512D02*
X52725Y14150D01*
X49425Y41825D02*
X52600Y41900D01*
X53900Y40900D01*
X59100Y40650D01*
X55100Y50600D02*
X59100Y50550D01*
X53200Y48775D02*
X55100Y50600D01*
X49425Y48775D02*
X53200D01*
X59050Y9100D02*
Y13050D01*
X59675Y13675D01*
Y18600D01*
X58299Y50515D02*
X70115D01*
D43*
X32600Y18700D02*
X34790D01*
X30700Y5440D02*
X31640D01*
X32600Y6400D01*
Y9050D01*
X31650Y10000D02*
X32600Y9050D01*
X28900Y10000D02*
X30150D01*
X28100Y9200D02*
X28900Y10000D01*
X27250Y33550D02*
X29100Y35400D01*
X40500Y5500D02*
Y6800D01*
X38700Y3700D02*
X40500Y5500D01*
X30700Y6710D02*
Y7900D01*
X30400Y8200D02*
X30700Y7900D01*
X29100Y8200D02*
X30400D01*
X28100Y9200D02*
X29100Y8200D01*
X32600Y18700D02*
X33700Y19800D01*
Y22200D01*
X33500Y22400D02*
X33700Y22200D01*
X32300Y22400D02*
X33500D01*
X34890Y27600D02*
X36160D01*
X32700D02*
X34890D01*
X32300Y27200D02*
X32700Y27600D01*
X32300Y23350D02*
Y27200D01*
X29900Y21450D02*
Y22400D01*
X28000Y23400D02*
Y25600D01*
Y23400D02*
X29850D01*
X29400Y27000D02*
Y31400D01*
X28000Y25600D02*
X29400Y27000D01*
X25300Y16100D02*
X26230Y17030D01*
X25300Y12525D02*
Y16100D01*
X26800Y44750D02*
Y46400D01*
X26650Y44600D02*
X26800Y44750D01*
X25100Y44600D02*
X27150D01*
X15065Y40365D02*
X17775D01*
X12750Y37800D02*
X17750D01*
X17775Y37825D01*
X11400Y39700D02*
X11990D01*
X12595Y39095D01*
X17775D01*
X10900Y36400D02*
Y37162D01*
X27250Y37050D02*
Y41300D01*
X15800Y13400D02*
Y14500D01*
Y9100D02*
Y13400D01*
X16300Y8600D02*
X18375D01*
X15800Y9100D02*
X16300Y8600D01*
X14700Y12300D02*
X15800Y13400D01*
X12150Y12300D02*
X14700D01*
X11200Y13250D02*
X12150Y12300D01*
X21595Y39095D02*
X23225D01*
X20900Y38400D02*
X21595Y39095D01*
X20900Y36800D02*
Y38400D01*
X19400Y35300D02*
X20900Y36800D01*
X13000Y35300D02*
X19400D01*
X11900Y36400D02*
X13000Y35300D01*
X10900Y36400D02*
X11900D01*
X10900Y34700D02*
Y35400D01*
Y34700D02*
X11200Y34400D01*
X21955Y36555D02*
X23225D01*
X19800Y34400D02*
X21955Y36555D01*
X11200Y34400D02*
X19800D01*
X2800Y24950D02*
Y28600D01*
X2300Y29100D02*
X2800Y28600D01*
X2300Y29100D02*
Y37700D01*
X4250Y39650D01*
X3850Y25950D02*
X6400D01*
X7700Y24650D01*
Y18200D02*
Y24650D01*
X7350Y17850D02*
X7700Y18200D01*
X6550Y17850D02*
X7350D01*
X6150Y16850D02*
X6550Y17250D01*
X6150Y16000D02*
Y16850D01*
X4650Y16000D02*
Y17850D01*
X22750Y48500D02*
Y49950D01*
X17500Y48500D02*
X21250D01*
X17500Y50200D02*
X21300D01*
X4000Y23750D02*
X5600D01*
X2800Y24950D02*
X4000Y23750D01*
X16000Y48500D02*
Y50200D01*
Y51900D01*
X15900Y48400D02*
X16000Y48500D01*
X15900Y46700D02*
Y48400D01*
X15245Y36555D02*
X17775D01*
X15655Y45445D02*
X17775D01*
X14800Y46300D02*
X15655Y45445D01*
X14800Y46300D02*
Y48180D01*
X13840Y49140D02*
X14800Y48180D01*
X12300Y49140D02*
X13840D01*
X12300Y44730D02*
Y46600D01*
Y44730D02*
X12855Y44175D01*
X14150D01*
X15650Y44175D02*
X17775D01*
Y45445D02*
X23225D01*
Y44175D02*
Y45445D01*
Y42905D02*
Y44175D01*
X20905Y42905D02*
X23225D01*
X19635Y41635D02*
X20905Y42905D01*
X17775Y41635D02*
X19635D01*
X13435D02*
X17775D01*
X12560Y40760D02*
X13435Y41635D01*
X9900Y40760D02*
X12560D01*
X13505Y42905D02*
X17775D01*
X12400Y41800D02*
X13505Y42905D01*
X9100Y41800D02*
X12400D01*
X8500Y38150D02*
Y39900D01*
X16000Y48300D02*
X16000Y48300D01*
X8500Y42400D02*
Y43850D01*
Y39900D02*
X9900Y40760D01*
X8500Y42400D02*
X9100Y41800D01*
X8500Y38150D02*
X9912D01*
X10900Y37162D01*
X24815Y40365D02*
X25750Y41300D01*
X23500Y40365D02*
X24815D01*
X27250Y33550D02*
X29400Y31400D01*
X40500Y15800D02*
Y19800D01*
X38700Y21600D02*
X40500Y19800D01*
X26230Y17030D02*
X27570D01*
X28000Y17460D01*
Y23400D01*
X29900Y19300D02*
Y21450D01*
X32300Y20450D02*
Y21450D01*
X31200Y19350D02*
X32300Y20450D01*
X30000Y17300D02*
X31200Y18500D01*
Y19350D01*
X27125Y43075D02*
X29100Y41100D01*
Y35400D02*
Y41100D01*
D44*
X41800Y23550D02*
X51999Y23441D01*
X40800Y9800D02*
X43600Y12600D01*
X36800Y27700D02*
X41500D01*
X36770Y9800D02*
X40800D01*
X36900Y19200D02*
X37470Y18630D01*
X36900Y19200D02*
Y21000D01*
X31170Y3700D02*
X34890D01*
X14600Y4800D02*
X26936D01*
X36770Y12525D02*
Y14166D01*
X25300Y12525D02*
X36770D01*
X18480Y9250D02*
Y18400D01*
X25300Y19475D02*
Y23050D01*
Y10000D02*
Y12525D01*
X24550Y9250D02*
X25300Y10000D01*
X18480Y9250D02*
X24550D01*
X11525Y7875D02*
Y9200D01*
X5800Y28888D02*
X16200D01*
X16250Y28750D02*
X25300D01*
X8554Y44204D02*
Y49646D01*
X5800Y31428D02*
X8500Y34128D01*
X16200Y28800D02*
Y28888D01*
X8500Y34128D02*
Y38150D01*
X11525Y7875D02*
X14600Y4800D01*
X43600Y12600D02*
Y16650D01*
X41800Y18450D02*
X43600Y16650D01*
X41800Y18450D02*
Y27319D01*
X41500Y27700D02*
X41900Y27300D01*
X44300Y29700D01*
Y41300D01*
X6400Y9200D02*
X11525D01*
X5200Y10400D02*
X6400Y9200D01*
D45*
X90400Y29820D02*
X91380D01*
X93000Y28200D01*
Y24700D02*
Y28200D01*
Y24700D02*
X93980Y23720D01*
X97000D01*
X90400Y12040D02*
X92632Y14272D01*
Y15075D01*
X94157Y16600D01*
D46*
X70300Y20300D02*
D03*
Y22800D02*
D03*
X63300D02*
D03*
X65800D02*
D03*
X93300Y3900D02*
D03*
Y6400D02*
D03*
X66800Y27900D02*
D03*
Y34400D02*
D03*
X96790Y8980D02*
D03*
Y11520D02*
D03*
Y14060D02*
D03*
Y16600D02*
D03*
X94250Y8980D02*
D03*
Y11520D02*
D03*
Y14060D02*
D03*
X46550Y23499D02*
D03*
Y19999D02*
D03*
X47800Y36000D02*
D03*
X44300D02*
D03*
X67000Y10700D02*
D03*
Y15700D02*
D03*
X70200Y45500D02*
D03*
Y50500D02*
D03*
D47*
X97000Y26260D02*
D03*
Y23720D02*
D03*
Y21180D02*
D03*
X5200Y12940D02*
D03*
X71530Y4150D02*
D03*
X68990D02*
D03*
X66450D02*
D03*
X97100Y35240D02*
D03*
Y37780D02*
D03*
Y40320D02*
D03*
X5800Y31428D02*
D03*
X12300Y49140D02*
D03*
X83760Y48320D02*
D03*
X81220D02*
D03*
X78680D02*
D03*
D48*
X71800Y42010D02*
D03*
Y34390D02*
D03*
D49*
X88200Y2000D02*
D03*
D50*
X88200Y7000D02*
D03*
D51*
X99600Y4900D02*
D03*
X100400Y53500D02*
D03*
X5000Y53800D02*
D03*
X6150Y4600D02*
D03*
D52*
X75200Y42520D02*
D03*
Y39980D02*
D03*
Y37440D02*
D03*
Y34900D02*
D03*
Y32360D02*
D03*
Y29820D02*
D03*
Y27280D02*
D03*
Y24740D02*
D03*
Y22200D02*
D03*
Y19660D02*
D03*
Y17120D02*
D03*
Y14580D02*
D03*
Y12040D02*
D03*
Y9500D02*
D03*
X90400Y42520D02*
D03*
Y39980D02*
D03*
Y37440D02*
D03*
Y34900D02*
D03*
Y32360D02*
D03*
Y29820D02*
D03*
Y27280D02*
D03*
Y24740D02*
D03*
Y22200D02*
D03*
Y19660D02*
D03*
Y17120D02*
D03*
Y14580D02*
D03*
Y12040D02*
D03*
D53*
Y9500D02*
D03*
D54*
X94250Y16600D02*
D03*
D55*
X74070Y4150D02*
D03*
X86300Y48320D02*
D03*
D56*
X79300Y5550D02*
D03*
X81760Y37540D02*
D03*
X40500Y15800D02*
D03*
Y6800D02*
D03*
X28100Y9200D02*
D03*
X32600Y18700D02*
D03*
X25100Y44600D02*
D03*
X15065Y40365D02*
D03*
X12750Y37800D02*
D03*
X11400Y39700D02*
D03*
X3850Y25950D02*
D03*
X4250Y39650D02*
D03*
X15000Y36600D02*
D03*
X15900Y46700D02*
D03*
X8654Y47500D02*
D03*
X8600Y49500D02*
D03*
Y45500D02*
D03*
X95650Y47150D02*
D03*
X95700Y49900D02*
D03*
X76400Y53400D02*
D03*
X29900Y19300D02*
D03*
X30000Y17300D02*
D03*
M02*
