G04 Layer_Physical_Order=2*
G04 Layer_Color=16711680*
%FSLAX43Y43*%
%MOMM*%
G71*
G01*
G75*
%ADD30R,1.500X1.500*%
%ADD40C,0.500*%
%ADD43C,0.300*%
%ADD46C,1.200*%
%ADD47C,1.500*%
%ADD48C,1.400*%
%ADD49R,1.350X1.350*%
%ADD50C,1.350*%
%ADD51C,6.500*%
%ADD52O,2.500X1.200*%
%ADD53R,2.500X1.200*%
%ADD54R,1.200X1.200*%
%ADD55R,1.500X1.500*%
%ADD56C,1.270*%
G36*
X104667Y333D02*
X333D01*
Y57767D01*
X104667D01*
Y333D01*
D02*
G37*
%LPC*%
G36*
X5000Y57261D02*
X4459Y57218D01*
X3931Y57091D01*
X3429Y56883D01*
X2966Y56600D01*
X2553Y56247D01*
X2200Y55834D01*
X1917Y55371D01*
X1709Y54869D01*
X1582Y54341D01*
X1539Y53800D01*
X1582Y53259D01*
X1709Y52731D01*
X1917Y52229D01*
X2200Y51766D01*
X2553Y51353D01*
X2966Y51000D01*
X3429Y50717D01*
X3931Y50509D01*
X4459Y50382D01*
X5000Y50339D01*
X5541Y50382D01*
X6069Y50509D01*
X6571Y50717D01*
X7034Y51000D01*
X7447Y51353D01*
X7800Y51766D01*
X8083Y52229D01*
X8291Y52731D01*
X8418Y53259D01*
X8461Y53800D01*
X8418Y54341D01*
X8291Y54869D01*
X8083Y55371D01*
X7800Y55834D01*
X7447Y56247D01*
X7034Y56600D01*
X6571Y56883D01*
X6069Y57091D01*
X5541Y57218D01*
X5000Y57261D01*
D02*
G37*
G36*
X100400Y56961D02*
X99859Y56918D01*
X99331Y56791D01*
X98829Y56583D01*
X98366Y56300D01*
X97953Y55947D01*
X97600Y55534D01*
X97317Y55071D01*
X97109Y54569D01*
X96982Y54041D01*
X96939Y53500D01*
X96982Y52959D01*
X97109Y52431D01*
X97317Y51929D01*
X97600Y51466D01*
X97953Y51053D01*
X98366Y50700D01*
X98829Y50417D01*
X99331Y50209D01*
X99859Y50082D01*
X100400Y50039D01*
X100941Y50082D01*
X101469Y50209D01*
X101971Y50417D01*
X102434Y50700D01*
X102847Y51053D01*
X103200Y51466D01*
X103483Y51929D01*
X103691Y52431D01*
X103818Y52959D01*
X103861Y53500D01*
X103818Y54041D01*
X103691Y54569D01*
X103483Y55071D01*
X103200Y55534D01*
X102847Y55947D01*
X102434Y56300D01*
X101971Y56583D01*
X101469Y56791D01*
X100941Y56918D01*
X100400Y56961D01*
D02*
G37*
G36*
X70200Y51307D02*
X69991Y51279D01*
X69797Y51199D01*
X69629Y51071D01*
X69501Y50903D01*
X69421Y50709D01*
X69393Y50500D01*
X69421Y50291D01*
X69501Y50097D01*
X69629Y49929D01*
X69797Y49801D01*
X69991Y49721D01*
X70200Y49693D01*
X70409Y49721D01*
X70603Y49801D01*
X70771Y49929D01*
X70899Y50097D01*
X70979Y50291D01*
X71007Y50500D01*
X70979Y50709D01*
X70899Y50903D01*
X70771Y51071D01*
X70603Y51199D01*
X70409Y51279D01*
X70200Y51307D01*
D02*
G37*
G36*
X8727Y50380D02*
Y49627D01*
X9480D01*
X9466Y49732D01*
X9377Y49948D01*
X9234Y50134D01*
X9048Y50277D01*
X8832Y50366D01*
X8727Y50380D01*
D02*
G37*
G36*
X8473D02*
X8368Y50366D01*
X8152Y50277D01*
X7966Y50134D01*
X7823Y49948D01*
X7734Y49732D01*
X7720Y49627D01*
X8473D01*
Y50380D01*
D02*
G37*
G36*
X9480Y49373D02*
X8727D01*
Y48620D01*
X8832Y48634D01*
X9048Y48723D01*
X9234Y48866D01*
X9377Y49052D01*
X9466Y49268D01*
X9480Y49373D01*
D02*
G37*
G36*
X8473D02*
X7720D01*
X7734Y49268D01*
X7823Y49052D01*
X7966Y48866D01*
X8152Y48723D01*
X8368Y48634D01*
X8473Y48620D01*
Y49373D01*
D02*
G37*
G36*
X83887Y49316D02*
Y48447D01*
X84756D01*
X84738Y48582D01*
X84637Y48826D01*
X84476Y49036D01*
X84266Y49197D01*
X84022Y49298D01*
X83887Y49316D01*
D02*
G37*
G36*
X83633D02*
X83498Y49298D01*
X83254Y49197D01*
X83044Y49036D01*
X82883Y48826D01*
X82782Y48582D01*
X82764Y48447D01*
X83633D01*
Y49316D01*
D02*
G37*
G36*
X12300Y50098D02*
X12052Y50066D01*
X11821Y49970D01*
X11622Y49818D01*
X11470Y49619D01*
X11374Y49388D01*
X11342Y49140D01*
X11374Y48892D01*
X11470Y48661D01*
X11622Y48462D01*
X11821Y48310D01*
X12052Y48214D01*
X12300Y48182D01*
X12548Y48214D01*
X12779Y48310D01*
X12978Y48462D01*
X13130Y48661D01*
X13226Y48892D01*
X13258Y49140D01*
X13226Y49388D01*
X13130Y49619D01*
X12978Y49818D01*
X12779Y49970D01*
X12548Y50066D01*
X12300Y50098D01*
D02*
G37*
G36*
X8781Y48380D02*
Y47627D01*
X9534D01*
X9520Y47732D01*
X9431Y47948D01*
X9288Y48134D01*
X9102Y48277D01*
X8886Y48366D01*
X8781Y48380D01*
D02*
G37*
G36*
X8527D02*
X8422Y48366D01*
X8206Y48277D01*
X8020Y48134D01*
X7877Y47948D01*
X7788Y47732D01*
X7774Y47627D01*
X8527D01*
Y48380D01*
D02*
G37*
G36*
X87250Y49270D02*
X85350D01*
Y47370D01*
X87250D01*
Y49270D01*
D02*
G37*
G36*
X81220Y49278D02*
X80972Y49246D01*
X80741Y49150D01*
X80542Y48998D01*
X80390Y48799D01*
X80294Y48568D01*
X80262Y48320D01*
X80294Y48072D01*
X80390Y47841D01*
X80542Y47642D01*
X80741Y47490D01*
X80972Y47394D01*
X81220Y47362D01*
X81468Y47394D01*
X81699Y47490D01*
X81898Y47642D01*
X82050Y47841D01*
X82146Y48072D01*
X82178Y48320D01*
X82146Y48568D01*
X82050Y48799D01*
X81898Y48998D01*
X81699Y49150D01*
X81468Y49246D01*
X81220Y49278D01*
D02*
G37*
G36*
X78680D02*
X78432Y49246D01*
X78201Y49150D01*
X78002Y48998D01*
X77850Y48799D01*
X77754Y48568D01*
X77722Y48320D01*
X77754Y48072D01*
X77850Y47841D01*
X78002Y47642D01*
X78201Y47490D01*
X78432Y47394D01*
X78680Y47362D01*
X78928Y47394D01*
X79159Y47490D01*
X79358Y47642D01*
X79510Y47841D01*
X79606Y48072D01*
X79638Y48320D01*
X79606Y48568D01*
X79510Y48799D01*
X79358Y48998D01*
X79159Y49150D01*
X78928Y49246D01*
X78680Y49278D01*
D02*
G37*
G36*
X84756Y48193D02*
X83887D01*
Y47324D01*
X84022Y47342D01*
X84266Y47443D01*
X84476Y47604D01*
X84637Y47814D01*
X84738Y48058D01*
X84756Y48193D01*
D02*
G37*
G36*
X83633D02*
X82764D01*
X82782Y48058D01*
X82883Y47814D01*
X83044Y47604D01*
X83254Y47443D01*
X83498Y47342D01*
X83633Y47324D01*
Y48193D01*
D02*
G37*
G36*
X9534Y47373D02*
X8781D01*
Y46620D01*
X8886Y46634D01*
X9102Y46723D01*
X9288Y46866D01*
X9431Y47052D01*
X9520Y47268D01*
X9534Y47373D01*
D02*
G37*
G36*
X8527D02*
X7774D01*
X7788Y47268D01*
X7877Y47052D01*
X8020Y46866D01*
X8206Y46723D01*
X8422Y46634D01*
X8527Y46620D01*
Y47373D01*
D02*
G37*
G36*
X70327Y46345D02*
Y45627D01*
X71045D01*
X71032Y45723D01*
X70946Y45931D01*
X70809Y46109D01*
X70631Y46246D01*
X70423Y46332D01*
X70327Y46345D01*
D02*
G37*
G36*
X8727Y46380D02*
Y45627D01*
X9480D01*
X9466Y45732D01*
X9377Y45948D01*
X9234Y46134D01*
X9048Y46277D01*
X8832Y46366D01*
X8727Y46380D01*
D02*
G37*
G36*
X8473D02*
X8368Y46366D01*
X8152Y46277D01*
X7966Y46134D01*
X7823Y45948D01*
X7734Y45732D01*
X7720Y45627D01*
X8473D01*
Y46380D01*
D02*
G37*
G36*
X70073Y46345D02*
X69977Y46332D01*
X69769Y46246D01*
X69591Y46109D01*
X69454Y45931D01*
X69368Y45723D01*
X69355Y45627D01*
X70073D01*
Y46345D01*
D02*
G37*
G36*
Y45373D02*
X69355D01*
X69368Y45277D01*
X69454Y45069D01*
X69591Y44891D01*
X69769Y44754D01*
X69977Y44668D01*
X70073Y44655D01*
Y45373D01*
D02*
G37*
G36*
X71045D02*
X70327D01*
Y44655D01*
X70423Y44668D01*
X70631Y44754D01*
X70809Y44891D01*
X70946Y45069D01*
X71032Y45277D01*
X71045Y45373D01*
D02*
G37*
G36*
X9480D02*
X8727D01*
Y44620D01*
X8832Y44634D01*
X9048Y44723D01*
X9234Y44866D01*
X9377Y45052D01*
X9466Y45268D01*
X9480Y45373D01*
D02*
G37*
G36*
X8473D02*
X7720D01*
X7734Y45268D01*
X7823Y45052D01*
X7966Y44866D01*
X8152Y44723D01*
X8368Y44634D01*
X8473Y44620D01*
Y45373D01*
D02*
G37*
G36*
X91050Y43327D02*
X89750D01*
X89541Y43299D01*
X89347Y43219D01*
X89179Y43091D01*
X89051Y42923D01*
X88971Y42729D01*
X88943Y42520D01*
X88971Y42311D01*
X89051Y42117D01*
X89179Y41949D01*
X89347Y41821D01*
X89541Y41741D01*
X89750Y41713D01*
X91050D01*
X91259Y41741D01*
X91453Y41821D01*
X91621Y41949D01*
X91749Y42117D01*
X91829Y42311D01*
X91857Y42520D01*
X91829Y42729D01*
X91749Y42923D01*
X91621Y43091D01*
X91453Y43219D01*
X91259Y43299D01*
X91050Y43327D01*
D02*
G37*
G36*
X75850D02*
X74550D01*
X74341Y43299D01*
X74147Y43219D01*
X73979Y43091D01*
X73851Y42923D01*
X73771Y42729D01*
X73743Y42520D01*
X73771Y42311D01*
X73851Y42117D01*
X73979Y41949D01*
X74147Y41821D01*
X74341Y41741D01*
X74550Y41713D01*
X75850D01*
X76059Y41741D01*
X76253Y41821D01*
X76421Y41949D01*
X76549Y42117D01*
X76629Y42311D01*
X76657Y42520D01*
X76629Y42729D01*
X76549Y42923D01*
X76421Y43091D01*
X76253Y43219D01*
X76059Y43299D01*
X75850Y43327D01*
D02*
G37*
G36*
X71800Y42918D02*
X71565Y42887D01*
X71346Y42796D01*
X71158Y42652D01*
X71014Y42464D01*
X70923Y42245D01*
X70892Y42010D01*
X70923Y41775D01*
X71014Y41556D01*
X71158Y41368D01*
X71346Y41224D01*
X71565Y41133D01*
X71800Y41102D01*
X72035Y41133D01*
X72254Y41224D01*
X72442Y41368D01*
X72586Y41556D01*
X72677Y41775D01*
X72708Y42010D01*
X72677Y42245D01*
X72586Y42464D01*
X72442Y42652D01*
X72254Y42796D01*
X72035Y42887D01*
X71800Y42918D01*
D02*
G37*
G36*
X13250Y47550D02*
X11350D01*
Y45650D01*
X11843D01*
Y42200D01*
X11870Y42063D01*
X11948Y41948D01*
X12393Y41502D01*
Y40007D01*
X12193Y39967D01*
X12129Y40121D01*
X11996Y40296D01*
X11821Y40429D01*
X11618Y40514D01*
X11400Y40542D01*
X11182Y40514D01*
X10979Y40429D01*
X10804Y40296D01*
X10671Y40121D01*
X10623Y40007D01*
X5006D01*
X4979Y40071D01*
X4846Y40246D01*
X4671Y40379D01*
X4468Y40464D01*
X4250Y40492D01*
X4032Y40464D01*
X3829Y40379D01*
X3654Y40246D01*
X3521Y40071D01*
X3436Y39868D01*
X3408Y39650D01*
X3436Y39432D01*
X3521Y39229D01*
X3654Y39054D01*
X3829Y38921D01*
X4032Y38836D01*
X4250Y38808D01*
X4468Y38836D01*
X4671Y38921D01*
X4846Y39054D01*
X4979Y39229D01*
X5006Y39293D01*
X10665D01*
X10671Y39279D01*
X10804Y39104D01*
X10979Y38971D01*
X11182Y38886D01*
X11400Y38858D01*
X11618Y38886D01*
X11821Y38971D01*
X11996Y39104D01*
X12129Y39279D01*
X12193Y39433D01*
X12393Y39393D01*
Y38556D01*
X12329Y38529D01*
X12154Y38396D01*
X12021Y38221D01*
X11936Y38018D01*
X11908Y37800D01*
X11936Y37582D01*
X12021Y37379D01*
X12154Y37204D01*
X12329Y37071D01*
X12532Y36986D01*
X12750Y36958D01*
X12968Y36986D01*
X13171Y37071D01*
X13346Y37204D01*
X13465Y37361D01*
X13508Y37381D01*
X13702Y37393D01*
X14213Y36882D01*
X14186Y36818D01*
X14158Y36600D01*
X14186Y36382D01*
X14271Y36179D01*
X14404Y36004D01*
X14579Y35871D01*
X14782Y35786D01*
X15000Y35758D01*
X15218Y35786D01*
X15421Y35871D01*
X15596Y36004D01*
X15729Y36179D01*
X15814Y36382D01*
X15842Y36600D01*
X15814Y36818D01*
X15729Y37021D01*
X15596Y37196D01*
X15421Y37329D01*
X15218Y37414D01*
X15000Y37442D01*
X14782Y37414D01*
X14718Y37387D01*
X14257Y37848D01*
Y39718D01*
X14457Y39786D01*
X14469Y39769D01*
X14644Y39636D01*
X14847Y39551D01*
X15065Y39523D01*
X15283Y39551D01*
X15486Y39636D01*
X15661Y39769D01*
X15794Y39944D01*
X15821Y40008D01*
X22565D01*
X22702Y40035D01*
X22817Y40113D01*
X25310Y42605D01*
X25387Y42721D01*
X25414Y42857D01*
Y43826D01*
X25521Y43871D01*
X25696Y44004D01*
X25829Y44179D01*
X25914Y44382D01*
X25942Y44600D01*
X25914Y44818D01*
X25829Y45021D01*
X25696Y45196D01*
X25521Y45329D01*
X25318Y45414D01*
X25100Y45442D01*
X24882Y45414D01*
X24679Y45329D01*
X24504Y45196D01*
X24371Y45021D01*
X24286Y44818D01*
X24258Y44600D01*
X24286Y44382D01*
X24371Y44179D01*
X24504Y44004D01*
X24679Y43871D01*
X24701Y43862D01*
Y43005D01*
X22417Y40722D01*
X15821D01*
X15794Y40786D01*
X15661Y40961D01*
X15486Y41094D01*
X15283Y41179D01*
X15065Y41207D01*
X14847Y41179D01*
X14644Y41094D01*
X14469Y40961D01*
X14457Y40944D01*
X14257Y41012D01*
Y42252D01*
X16152Y44147D01*
X16230Y44263D01*
X16257Y44400D01*
Y45944D01*
X16321Y45970D01*
X16495Y46104D01*
X16629Y46279D01*
X16713Y46482D01*
X16742Y46700D01*
X16713Y46918D01*
X16629Y47121D01*
X16495Y47295D01*
X16321Y47429D01*
X16118Y47513D01*
X15900Y47542D01*
X15682Y47513D01*
X15479Y47429D01*
X15304Y47295D01*
X15171Y47121D01*
X15086Y46918D01*
X15058Y46700D01*
X15086Y46482D01*
X15171Y46279D01*
X15304Y46104D01*
X15479Y45970D01*
X15543Y45944D01*
Y44548D01*
X13648Y42652D01*
X13570Y42537D01*
X13543Y42400D01*
Y38467D01*
X13355Y38399D01*
X13343Y38397D01*
X13171Y38529D01*
X13107Y38556D01*
Y41650D01*
X13080Y41787D01*
X13002Y41902D01*
X12557Y42348D01*
Y45650D01*
X13250D01*
Y47550D01*
D02*
G37*
G36*
X97100Y41278D02*
X96852Y41246D01*
X96621Y41150D01*
X96422Y40998D01*
X96270Y40799D01*
X96174Y40568D01*
X96142Y40320D01*
X96174Y40072D01*
X96270Y39841D01*
X96422Y39642D01*
X96621Y39490D01*
X96852Y39394D01*
X97100Y39362D01*
X97348Y39394D01*
X97579Y39490D01*
X97778Y39642D01*
X97930Y39841D01*
X98026Y40072D01*
X98058Y40320D01*
X98026Y40568D01*
X97930Y40799D01*
X97778Y40998D01*
X97579Y41150D01*
X97348Y41246D01*
X97100Y41278D01*
D02*
G37*
G36*
X91050Y40787D02*
X89750D01*
X89541Y40759D01*
X89347Y40679D01*
X89179Y40551D01*
X89051Y40383D01*
X88971Y40189D01*
X88943Y39980D01*
X88971Y39771D01*
X89051Y39577D01*
X89179Y39409D01*
X89347Y39281D01*
X89541Y39201D01*
X89750Y39173D01*
X91050D01*
X91259Y39201D01*
X91453Y39281D01*
X91621Y39409D01*
X91749Y39577D01*
X91829Y39771D01*
X91857Y39980D01*
X91829Y40189D01*
X91749Y40383D01*
X91621Y40551D01*
X91453Y40679D01*
X91259Y40759D01*
X91050Y40787D01*
D02*
G37*
G36*
X75850D02*
X74550D01*
X74341Y40759D01*
X74147Y40679D01*
X73979Y40551D01*
X73851Y40383D01*
X73771Y40189D01*
X73743Y39980D01*
X73771Y39771D01*
X73851Y39577D01*
X73979Y39409D01*
X74147Y39281D01*
X74341Y39201D01*
X74550Y39173D01*
X75850D01*
X76059Y39201D01*
X76253Y39281D01*
X76421Y39409D01*
X76549Y39577D01*
X76629Y39771D01*
X76657Y39980D01*
X76629Y40189D01*
X76549Y40383D01*
X76421Y40551D01*
X76253Y40679D01*
X76059Y40759D01*
X75850Y40787D01*
D02*
G37*
G36*
X97100Y38738D02*
X96852Y38706D01*
X96621Y38610D01*
X96422Y38458D01*
X96270Y38259D01*
X96174Y38028D01*
X96142Y37780D01*
X96174Y37532D01*
X96270Y37301D01*
X96422Y37102D01*
X96621Y36950D01*
X96852Y36854D01*
X97100Y36822D01*
X97348Y36854D01*
X97579Y36950D01*
X97778Y37102D01*
X97930Y37301D01*
X98026Y37532D01*
X98058Y37780D01*
X98026Y38028D01*
X97930Y38259D01*
X97778Y38458D01*
X97579Y38610D01*
X97348Y38706D01*
X97100Y38738D01*
D02*
G37*
G36*
X76400Y54242D02*
X76182Y54214D01*
X75979Y54129D01*
X75804Y53996D01*
X75671Y53821D01*
X75586Y53618D01*
X75558Y53400D01*
X75586Y53182D01*
X75671Y52979D01*
X75804Y52804D01*
X75941Y52700D01*
Y46500D01*
X75976Y46324D01*
X76076Y46176D01*
X79641Y42610D01*
Y39200D01*
X79676Y39024D01*
X79776Y38876D01*
X80940Y37711D01*
X80918Y37540D01*
X80946Y37322D01*
X81031Y37119D01*
X81164Y36944D01*
X81339Y36811D01*
X81542Y36726D01*
X81760Y36698D01*
X81978Y36726D01*
X82181Y36811D01*
X82356Y36944D01*
X82489Y37119D01*
X82574Y37322D01*
X82602Y37540D01*
X82574Y37758D01*
X82489Y37961D01*
X82356Y38136D01*
X82181Y38269D01*
X81978Y38354D01*
X81760Y38382D01*
X81589Y38360D01*
X80559Y39390D01*
Y42800D01*
X80524Y42976D01*
X80424Y43124D01*
X76859Y46690D01*
Y52700D01*
X76996Y52804D01*
X77129Y52979D01*
X77214Y53182D01*
X77242Y53400D01*
X77214Y53618D01*
X77129Y53821D01*
X76996Y53996D01*
X76821Y54129D01*
X76618Y54214D01*
X76400Y54242D01*
D02*
G37*
G36*
X91050Y38247D02*
X89750D01*
X89541Y38219D01*
X89347Y38139D01*
X89179Y38011D01*
X89051Y37843D01*
X88971Y37649D01*
X88943Y37440D01*
X88971Y37231D01*
X89051Y37037D01*
X89179Y36869D01*
X89347Y36741D01*
X89541Y36661D01*
X89750Y36633D01*
X91050D01*
X91259Y36661D01*
X91453Y36741D01*
X91621Y36869D01*
X91749Y37037D01*
X91829Y37231D01*
X91857Y37440D01*
X91829Y37649D01*
X91749Y37843D01*
X91621Y38011D01*
X91453Y38139D01*
X91259Y38219D01*
X91050Y38247D01*
D02*
G37*
G36*
X75850D02*
X74550D01*
X74341Y38219D01*
X74147Y38139D01*
X73979Y38011D01*
X73851Y37843D01*
X73771Y37649D01*
X73743Y37440D01*
X73771Y37231D01*
X73851Y37037D01*
X73979Y36869D01*
X74147Y36741D01*
X74341Y36661D01*
X74550Y36633D01*
X75850D01*
X76059Y36661D01*
X76253Y36741D01*
X76421Y36869D01*
X76549Y37037D01*
X76629Y37231D01*
X76657Y37440D01*
X76629Y37649D01*
X76549Y37843D01*
X76421Y38011D01*
X76253Y38139D01*
X76059Y38219D01*
X75850Y38247D01*
D02*
G37*
G36*
X47927Y36845D02*
Y36127D01*
X48645D01*
X48632Y36223D01*
X48546Y36431D01*
X48409Y36609D01*
X48231Y36746D01*
X48023Y36832D01*
X47927Y36845D01*
D02*
G37*
G36*
X47673D02*
X47577Y36832D01*
X47369Y36746D01*
X47191Y36609D01*
X47054Y36431D01*
X46968Y36223D01*
X46955Y36127D01*
X47673D01*
Y36845D01*
D02*
G37*
G36*
X97227Y36236D02*
Y35367D01*
X98096D01*
X98078Y35502D01*
X97977Y35746D01*
X97816Y35956D01*
X97606Y36117D01*
X97362Y36218D01*
X97227Y36236D01*
D02*
G37*
G36*
X96973D02*
X96838Y36218D01*
X96594Y36117D01*
X96384Y35956D01*
X96223Y35746D01*
X96122Y35502D01*
X96104Y35367D01*
X96973D01*
Y36236D01*
D02*
G37*
G36*
X44300Y36807D02*
X44091Y36779D01*
X43897Y36699D01*
X43729Y36571D01*
X43601Y36403D01*
X43521Y36209D01*
X43493Y36000D01*
X43521Y35791D01*
X43601Y35597D01*
X43729Y35429D01*
X43897Y35301D01*
X44091Y35221D01*
X44300Y35193D01*
X44509Y35221D01*
X44703Y35301D01*
X44871Y35429D01*
X44999Y35597D01*
X45079Y35791D01*
X45107Y36000D01*
X45079Y36209D01*
X44999Y36403D01*
X44871Y36571D01*
X44703Y36699D01*
X44509Y36779D01*
X44300Y36807D01*
D02*
G37*
G36*
X48645Y35873D02*
X47927D01*
Y35155D01*
X48023Y35168D01*
X48231Y35254D01*
X48409Y35391D01*
X48546Y35569D01*
X48632Y35777D01*
X48645Y35873D01*
D02*
G37*
G36*
X47673D02*
X46955D01*
X46968Y35777D01*
X47054Y35569D01*
X47191Y35391D01*
X47369Y35254D01*
X47577Y35168D01*
X47673Y35155D01*
Y35873D01*
D02*
G37*
G36*
X98096Y35113D02*
X97227D01*
Y34244D01*
X97362Y34262D01*
X97606Y34363D01*
X97816Y34524D01*
X97977Y34734D01*
X98078Y34978D01*
X98096Y35113D01*
D02*
G37*
G36*
X96973D02*
X96104D01*
X96122Y34978D01*
X96223Y34734D01*
X96384Y34524D01*
X96594Y34363D01*
X96838Y34262D01*
X96973Y34244D01*
Y35113D01*
D02*
G37*
G36*
X91050Y35707D02*
X89750D01*
X89541Y35679D01*
X89347Y35599D01*
X89179Y35471D01*
X89051Y35303D01*
X88971Y35109D01*
X88943Y34900D01*
X88971Y34691D01*
X89051Y34497D01*
X89179Y34329D01*
X89347Y34201D01*
X89541Y34121D01*
X89750Y34093D01*
X91050D01*
X91259Y34121D01*
X91453Y34201D01*
X91621Y34329D01*
X91749Y34497D01*
X91829Y34691D01*
X91857Y34900D01*
X91829Y35109D01*
X91749Y35303D01*
X91621Y35471D01*
X91453Y35599D01*
X91259Y35679D01*
X91050Y35707D01*
D02*
G37*
G36*
X75850D02*
X74550D01*
X74341Y35679D01*
X74147Y35599D01*
X73979Y35471D01*
X73851Y35303D01*
X73771Y35109D01*
X73743Y34900D01*
X73771Y34691D01*
X73851Y34497D01*
X73979Y34329D01*
X74147Y34201D01*
X74341Y34121D01*
X74550Y34093D01*
X75850D01*
X76059Y34121D01*
X76253Y34201D01*
X76421Y34329D01*
X76549Y34497D01*
X76629Y34691D01*
X76657Y34900D01*
X76629Y35109D01*
X76549Y35303D01*
X76421Y35471D01*
X76253Y35599D01*
X76059Y35679D01*
X75850Y35707D01*
D02*
G37*
G36*
X66800Y35207D02*
X66591Y35179D01*
X66397Y35099D01*
X66229Y34971D01*
X66101Y34803D01*
X66021Y34609D01*
X65993Y34400D01*
X66021Y34191D01*
X66101Y33997D01*
X66229Y33829D01*
X66397Y33701D01*
X66591Y33621D01*
X66800Y33593D01*
X67009Y33621D01*
X67203Y33701D01*
X67371Y33829D01*
X67499Y33997D01*
X67579Y34191D01*
X67607Y34400D01*
X67579Y34609D01*
X67499Y34803D01*
X67371Y34971D01*
X67203Y35099D01*
X67009Y35179D01*
X66800Y35207D01*
D02*
G37*
G36*
X71800Y35298D02*
X71565Y35267D01*
X71346Y35176D01*
X71158Y35032D01*
X71014Y34844D01*
X70923Y34625D01*
X70892Y34390D01*
X70923Y34155D01*
X71014Y33936D01*
X71158Y33748D01*
X71346Y33604D01*
X71565Y33513D01*
X71800Y33482D01*
X72035Y33513D01*
X72254Y33604D01*
X72442Y33748D01*
X72586Y33936D01*
X72677Y34155D01*
X72708Y34390D01*
X72677Y34625D01*
X72586Y34844D01*
X72442Y35032D01*
X72254Y35176D01*
X72035Y35267D01*
X71800Y35298D01*
D02*
G37*
G36*
X98050Y33650D02*
X96150D01*
Y31750D01*
X98050D01*
Y33650D01*
D02*
G37*
G36*
X91050Y33167D02*
X89750D01*
X89541Y33139D01*
X89347Y33059D01*
X89179Y32931D01*
X89051Y32763D01*
X88971Y32569D01*
X88943Y32360D01*
X88971Y32151D01*
X89051Y31957D01*
X89179Y31789D01*
X89347Y31661D01*
X89541Y31581D01*
X89750Y31553D01*
X91050D01*
X91259Y31581D01*
X91453Y31661D01*
X91621Y31789D01*
X91749Y31957D01*
X91829Y32151D01*
X91857Y32360D01*
X91829Y32569D01*
X91749Y32763D01*
X91621Y32931D01*
X91453Y33059D01*
X91259Y33139D01*
X91050Y33167D01*
D02*
G37*
G36*
X75850D02*
X74550D01*
X74341Y33139D01*
X74147Y33059D01*
X73979Y32931D01*
X73851Y32763D01*
X73771Y32569D01*
X73743Y32360D01*
X73771Y32151D01*
X73851Y31957D01*
X73979Y31789D01*
X74147Y31661D01*
X74341Y31581D01*
X74550Y31553D01*
X75850D01*
X76059Y31581D01*
X76253Y31661D01*
X76421Y31789D01*
X76549Y31957D01*
X76629Y32151D01*
X76657Y32360D01*
X76629Y32569D01*
X76549Y32763D01*
X76421Y32931D01*
X76253Y33059D01*
X76059Y33139D01*
X75850Y33167D01*
D02*
G37*
G36*
X5800Y32386D02*
X5552Y32354D01*
X5321Y32258D01*
X5122Y32106D01*
X4970Y31907D01*
X4876Y31681D01*
X4876Y31681D01*
X3598Y30402D01*
X3520Y30287D01*
X3493Y30150D01*
Y26706D01*
X3429Y26679D01*
X3254Y26546D01*
X3121Y26371D01*
X3036Y26168D01*
X3008Y25950D01*
X3036Y25732D01*
X3121Y25529D01*
X3254Y25354D01*
X3429Y25221D01*
X3632Y25136D01*
X3850Y25108D01*
X4068Y25136D01*
X4271Y25221D01*
X4446Y25354D01*
X4579Y25529D01*
X4664Y25732D01*
X4692Y25950D01*
X4664Y26168D01*
X4579Y26371D01*
X4446Y26546D01*
X4271Y26679D01*
X4207Y26706D01*
Y30002D01*
X4966Y30761D01*
X5122Y30751D01*
X5321Y30598D01*
X5552Y30503D01*
X5800Y30470D01*
X6048Y30503D01*
X6279Y30598D01*
X6478Y30751D01*
X6630Y30949D01*
X6726Y31180D01*
X6758Y31428D01*
X6726Y31676D01*
X6630Y31907D01*
X6478Y32106D01*
X6279Y32258D01*
X6048Y32354D01*
X5800Y32386D01*
D02*
G37*
G36*
X91050Y30627D02*
X89750D01*
X89541Y30599D01*
X89347Y30519D01*
X89179Y30391D01*
X89051Y30223D01*
X88971Y30029D01*
X88943Y29820D01*
X88971Y29611D01*
X89051Y29417D01*
X89179Y29249D01*
X89347Y29121D01*
X89541Y29041D01*
X89750Y29013D01*
X91050D01*
X91259Y29041D01*
X91453Y29121D01*
X91621Y29249D01*
X91749Y29417D01*
X91829Y29611D01*
X91857Y29820D01*
X91829Y30029D01*
X91749Y30223D01*
X91621Y30391D01*
X91453Y30519D01*
X91259Y30599D01*
X91050Y30627D01*
D02*
G37*
G36*
X75850D02*
X74550D01*
X74341Y30599D01*
X74147Y30519D01*
X73979Y30391D01*
X73851Y30223D01*
X73771Y30029D01*
X73743Y29820D01*
X73771Y29611D01*
X73851Y29417D01*
X73979Y29249D01*
X74147Y29121D01*
X74341Y29041D01*
X74550Y29013D01*
X75850D01*
X76059Y29041D01*
X76253Y29121D01*
X76421Y29249D01*
X76549Y29417D01*
X76629Y29611D01*
X76657Y29820D01*
X76629Y30029D01*
X76549Y30223D01*
X76421Y30391D01*
X76253Y30519D01*
X76059Y30599D01*
X75850Y30627D01*
D02*
G37*
G36*
X98004Y29804D02*
X97127D01*
Y28927D01*
X98004D01*
Y29804D01*
D02*
G37*
G36*
X96873D02*
X95996D01*
Y28927D01*
X96873D01*
Y29804D01*
D02*
G37*
G36*
X66927Y28745D02*
Y28027D01*
X67645D01*
X67632Y28123D01*
X67546Y28331D01*
X67409Y28509D01*
X67231Y28646D01*
X67023Y28732D01*
X66927Y28745D01*
D02*
G37*
G36*
X66673Y28745D02*
X66577Y28732D01*
X66369Y28646D01*
X66191Y28509D01*
X66054Y28331D01*
X65968Y28123D01*
X65955Y28027D01*
X66673D01*
Y28745D01*
D02*
G37*
G36*
X6750Y29838D02*
X4850D01*
Y27938D01*
X6750D01*
Y29838D01*
D02*
G37*
G36*
X98004Y28673D02*
X97127D01*
Y27796D01*
X98004D01*
Y28673D01*
D02*
G37*
G36*
X96873D02*
X95996D01*
Y27796D01*
X96873D01*
Y28673D01*
D02*
G37*
G36*
X67645Y27773D02*
X66927D01*
Y27055D01*
X67023Y27068D01*
X67231Y27154D01*
X67409Y27291D01*
X67546Y27469D01*
X67632Y27677D01*
X67645Y27773D01*
D02*
G37*
G36*
X66673D02*
X65955D01*
X65968Y27677D01*
X66054Y27469D01*
X66191Y27291D01*
X66369Y27154D01*
X66577Y27068D01*
X66673Y27055D01*
Y27773D01*
D02*
G37*
G36*
X91050Y28087D02*
X89750D01*
X89541Y28059D01*
X89347Y27979D01*
X89179Y27851D01*
X89051Y27683D01*
X88971Y27489D01*
X88943Y27280D01*
X88971Y27071D01*
X89051Y26877D01*
X89179Y26709D01*
X89347Y26581D01*
X89541Y26501D01*
X89750Y26473D01*
X91050D01*
X91259Y26501D01*
X91453Y26581D01*
X91621Y26709D01*
X91749Y26877D01*
X91829Y27071D01*
X91857Y27280D01*
X91829Y27489D01*
X91749Y27683D01*
X91621Y27851D01*
X91453Y27979D01*
X91259Y28059D01*
X91050Y28087D01*
D02*
G37*
G36*
X75850D02*
X74550D01*
X74341Y28059D01*
X74147Y27979D01*
X73979Y27851D01*
X73851Y27683D01*
X73771Y27489D01*
X73743Y27280D01*
X73771Y27071D01*
X73851Y26877D01*
X73979Y26709D01*
X74147Y26581D01*
X74341Y26501D01*
X74550Y26473D01*
X75850D01*
X76059Y26501D01*
X76253Y26581D01*
X76421Y26709D01*
X76549Y26877D01*
X76629Y27071D01*
X76657Y27280D01*
X76629Y27489D01*
X76549Y27683D01*
X76421Y27851D01*
X76253Y27979D01*
X76059Y28059D01*
X75850Y28087D01*
D02*
G37*
G36*
X97000Y27218D02*
X96752Y27186D01*
X96521Y27090D01*
X96322Y26938D01*
X96170Y26739D01*
X96074Y26508D01*
X96042Y26260D01*
X96074Y26012D01*
X96170Y25781D01*
X96322Y25582D01*
X96521Y25430D01*
X96752Y25334D01*
X97000Y25302D01*
X97248Y25334D01*
X97479Y25430D01*
X97678Y25582D01*
X97830Y25781D01*
X97926Y26012D01*
X97958Y26260D01*
X97926Y26508D01*
X97830Y26739D01*
X97678Y26938D01*
X97479Y27090D01*
X97248Y27186D01*
X97000Y27218D01*
D02*
G37*
G36*
X91050Y25547D02*
X89750D01*
X89541Y25519D01*
X89347Y25439D01*
X89179Y25311D01*
X89051Y25143D01*
X88971Y24949D01*
X88943Y24740D01*
X88971Y24531D01*
X89051Y24337D01*
X89179Y24169D01*
X89347Y24041D01*
X89541Y23961D01*
X89750Y23933D01*
X91050D01*
X91259Y23961D01*
X91453Y24041D01*
X91621Y24169D01*
X91749Y24337D01*
X91829Y24531D01*
X91857Y24740D01*
X91829Y24949D01*
X91749Y25143D01*
X91621Y25311D01*
X91453Y25439D01*
X91259Y25519D01*
X91050Y25547D01*
D02*
G37*
G36*
X75850D02*
X74550D01*
X74341Y25519D01*
X74147Y25439D01*
X73979Y25311D01*
X73851Y25143D01*
X73771Y24949D01*
X73743Y24740D01*
X73771Y24531D01*
X73851Y24337D01*
X73979Y24169D01*
X74147Y24041D01*
X74341Y23961D01*
X74550Y23933D01*
X75850D01*
X76059Y23961D01*
X76253Y24041D01*
X76421Y24169D01*
X76549Y24337D01*
X76629Y24531D01*
X76657Y24740D01*
X76629Y24949D01*
X76549Y25143D01*
X76421Y25311D01*
X76253Y25439D01*
X76059Y25519D01*
X75850Y25547D01*
D02*
G37*
G36*
X97000Y24678D02*
X96752Y24646D01*
X96521Y24550D01*
X96322Y24398D01*
X96170Y24199D01*
X96074Y23968D01*
X96042Y23720D01*
X96074Y23472D01*
X96170Y23241D01*
X96322Y23042D01*
X96521Y22890D01*
X96752Y22794D01*
X97000Y22762D01*
X97248Y22794D01*
X97479Y22890D01*
X97678Y23042D01*
X97830Y23241D01*
X97926Y23472D01*
X97958Y23720D01*
X97926Y23968D01*
X97830Y24199D01*
X97678Y24398D01*
X97479Y24550D01*
X97248Y24646D01*
X97000Y24678D01*
D02*
G37*
G36*
X46550Y24306D02*
X46341Y24279D01*
X46146Y24198D01*
X45979Y24070D01*
X45851Y23903D01*
X45770Y23708D01*
X45743Y23499D01*
X45770Y23291D01*
X45851Y23096D01*
X45979Y22929D01*
X46146Y22801D01*
X46341Y22720D01*
X46550Y22693D01*
X46759Y22720D01*
X46953Y22801D01*
X47120Y22929D01*
X47249Y23096D01*
X47329Y23291D01*
X47357Y23499D01*
X47329Y23708D01*
X47249Y23903D01*
X47120Y24070D01*
X46953Y24198D01*
X46759Y24279D01*
X46550Y24306D01*
D02*
G37*
G36*
X70300Y23607D02*
X70091Y23579D01*
X69897Y23499D01*
X69729Y23371D01*
X69601Y23203D01*
X69521Y23009D01*
X69493Y22800D01*
X69521Y22591D01*
X69601Y22397D01*
X69729Y22229D01*
X69897Y22101D01*
X70091Y22021D01*
X70300Y21993D01*
X70509Y22021D01*
X70703Y22101D01*
X70871Y22229D01*
X70999Y22397D01*
X71079Y22591D01*
X71107Y22800D01*
X71079Y23009D01*
X70999Y23203D01*
X70871Y23371D01*
X70703Y23499D01*
X70509Y23579D01*
X70300Y23607D01*
D02*
G37*
G36*
X65800D02*
X65591Y23579D01*
X65397Y23499D01*
X65229Y23371D01*
X65101Y23203D01*
X65021Y23009D01*
X64993Y22800D01*
X65021Y22591D01*
X65101Y22397D01*
X65229Y22229D01*
X65397Y22101D01*
X65591Y22021D01*
X65800Y21993D01*
X66009Y22021D01*
X66203Y22101D01*
X66371Y22229D01*
X66499Y22397D01*
X66579Y22591D01*
X66607Y22800D01*
X66579Y23009D01*
X66499Y23203D01*
X66371Y23371D01*
X66203Y23499D01*
X66009Y23579D01*
X65800Y23607D01*
D02*
G37*
G36*
X63300D02*
X63091Y23579D01*
X62897Y23499D01*
X62729Y23371D01*
X62601Y23203D01*
X62521Y23009D01*
X62493Y22800D01*
X62521Y22591D01*
X62601Y22397D01*
X62729Y22229D01*
X62897Y22101D01*
X63091Y22021D01*
X63300Y21993D01*
X63509Y22021D01*
X63703Y22101D01*
X63871Y22229D01*
X63999Y22397D01*
X64079Y22591D01*
X64107Y22800D01*
X64079Y23009D01*
X63999Y23203D01*
X63871Y23371D01*
X63703Y23499D01*
X63509Y23579D01*
X63300Y23607D01*
D02*
G37*
G36*
X91050Y23007D02*
X89750D01*
X89541Y22979D01*
X89347Y22899D01*
X89179Y22771D01*
X89051Y22603D01*
X88971Y22409D01*
X88943Y22200D01*
X88971Y21991D01*
X89051Y21797D01*
X89179Y21629D01*
X89347Y21501D01*
X89541Y21421D01*
X89750Y21393D01*
X91050D01*
X91259Y21421D01*
X91453Y21501D01*
X91621Y21629D01*
X91749Y21797D01*
X91829Y21991D01*
X91857Y22200D01*
X91829Y22409D01*
X91749Y22603D01*
X91621Y22771D01*
X91453Y22899D01*
X91259Y22979D01*
X91050Y23007D01*
D02*
G37*
G36*
X75850D02*
X74550D01*
X74341Y22979D01*
X74147Y22899D01*
X73979Y22771D01*
X73851Y22603D01*
X73771Y22409D01*
X73743Y22200D01*
X73771Y21991D01*
X73851Y21797D01*
X73979Y21629D01*
X74147Y21501D01*
X74341Y21421D01*
X74550Y21393D01*
X75850D01*
X76059Y21421D01*
X76253Y21501D01*
X76421Y21629D01*
X76549Y21797D01*
X76629Y21991D01*
X76657Y22200D01*
X76629Y22409D01*
X76549Y22603D01*
X76421Y22771D01*
X76253Y22899D01*
X76059Y22979D01*
X75850Y23007D01*
D02*
G37*
G36*
X70427Y21145D02*
Y20427D01*
X71145D01*
X71132Y20523D01*
X71046Y20731D01*
X70909Y20909D01*
X70731Y21046D01*
X70523Y21132D01*
X70427Y21145D01*
D02*
G37*
G36*
X70173D02*
X70077Y21132D01*
X69869Y21046D01*
X69691Y20909D01*
X69554Y20731D01*
X69468Y20523D01*
X69455Y20427D01*
X70173D01*
Y21145D01*
D02*
G37*
G36*
X97000Y22138D02*
X96752Y22106D01*
X96521Y22010D01*
X96322Y21858D01*
X96170Y21659D01*
X96074Y21428D01*
X96042Y21180D01*
X96074Y20932D01*
X96170Y20701D01*
X96322Y20502D01*
X96521Y20350D01*
X96752Y20254D01*
X97000Y20222D01*
X97248Y20254D01*
X97479Y20350D01*
X97678Y20502D01*
X97830Y20701D01*
X97926Y20932D01*
X97958Y21180D01*
X97926Y21428D01*
X97830Y21659D01*
X97678Y21858D01*
X97479Y22010D01*
X97248Y22106D01*
X97000Y22138D01*
D02*
G37*
G36*
X46677Y20844D02*
Y20126D01*
X47394D01*
X47382Y20222D01*
X47296Y20430D01*
X47159Y20609D01*
X46980Y20745D01*
X46773Y20831D01*
X46677Y20844D01*
D02*
G37*
G36*
X46423Y20844D02*
X46327Y20831D01*
X46119Y20745D01*
X45941Y20609D01*
X45804Y20430D01*
X45718Y20222D01*
X45705Y20126D01*
X46423D01*
Y20844D01*
D02*
G37*
G36*
X71145Y20173D02*
X70427D01*
Y19455D01*
X70523Y19468D01*
X70731Y19554D01*
X70909Y19691D01*
X71046Y19869D01*
X71132Y20077D01*
X71145Y20173D01*
D02*
G37*
G36*
X70173D02*
X69455D01*
X69468Y20077D01*
X69554Y19869D01*
X69691Y19691D01*
X69869Y19554D01*
X70077Y19468D01*
X70173Y19455D01*
Y20173D01*
D02*
G37*
G36*
X30027Y20180D02*
Y19427D01*
X30780D01*
X30766Y19532D01*
X30677Y19748D01*
X30534Y19934D01*
X30348Y20077D01*
X30132Y20166D01*
X30027Y20180D01*
D02*
G37*
G36*
X29773D02*
X29668Y20166D01*
X29452Y20077D01*
X29266Y19934D01*
X29123Y19748D01*
X29034Y19532D01*
X29020Y19427D01*
X29773D01*
Y20180D01*
D02*
G37*
G36*
X47394Y19872D02*
X46677D01*
Y19155D01*
X46773Y19167D01*
X46980Y19253D01*
X47159Y19390D01*
X47296Y19569D01*
X47382Y19777D01*
X47394Y19872D01*
D02*
G37*
G36*
X46423D02*
X45705D01*
X45718Y19777D01*
X45804Y19569D01*
X45941Y19390D01*
X46119Y19253D01*
X46327Y19167D01*
X46423Y19155D01*
Y19872D01*
D02*
G37*
G36*
X91050Y20467D02*
X89750D01*
X89541Y20439D01*
X89347Y20359D01*
X89179Y20231D01*
X89051Y20063D01*
X88971Y19869D01*
X88943Y19660D01*
X88971Y19451D01*
X89051Y19257D01*
X89179Y19089D01*
X89347Y18961D01*
X89541Y18881D01*
X89750Y18853D01*
X91050D01*
X91259Y18881D01*
X91453Y18961D01*
X91621Y19089D01*
X91749Y19257D01*
X91829Y19451D01*
X91857Y19660D01*
X91829Y19869D01*
X91749Y20063D01*
X91621Y20231D01*
X91453Y20359D01*
X91259Y20439D01*
X91050Y20467D01*
D02*
G37*
G36*
X75850D02*
X74550D01*
X74341Y20439D01*
X74147Y20359D01*
X73979Y20231D01*
X73851Y20063D01*
X73771Y19869D01*
X73743Y19660D01*
X73771Y19451D01*
X73851Y19257D01*
X73979Y19089D01*
X74147Y18961D01*
X74341Y18881D01*
X74550Y18853D01*
X75850D01*
X76059Y18881D01*
X76253Y18961D01*
X76421Y19089D01*
X76549Y19257D01*
X76629Y19451D01*
X76657Y19660D01*
X76629Y19869D01*
X76549Y20063D01*
X76421Y20231D01*
X76253Y20359D01*
X76059Y20439D01*
X75850Y20467D01*
D02*
G37*
G36*
X30780Y19173D02*
X30027D01*
Y18420D01*
X30132Y18434D01*
X30348Y18523D01*
X30534Y18666D01*
X30677Y18852D01*
X30766Y19068D01*
X30780Y19173D01*
D02*
G37*
G36*
X29773D02*
X29020D01*
X29034Y19068D01*
X29123Y18852D01*
X29266Y18666D01*
X29452Y18523D01*
X29668Y18434D01*
X29773Y18420D01*
Y19173D01*
D02*
G37*
G36*
X96663Y17445D02*
X96567Y17432D01*
X96359Y17346D01*
X96181Y17209D01*
X96044Y17031D01*
X95958Y16823D01*
X95945Y16727D01*
X96663D01*
Y17445D01*
D02*
G37*
G36*
X75850Y17927D02*
X74550D01*
X74341Y17899D01*
X74147Y17819D01*
X73979Y17691D01*
X73851Y17523D01*
X73771Y17329D01*
X73743Y17120D01*
X73771Y16911D01*
X73851Y16717D01*
X73979Y16549D01*
X74147Y16421D01*
X74341Y16341D01*
X74550Y16313D01*
X75850D01*
X76059Y16341D01*
X76253Y16421D01*
X76421Y16549D01*
X76549Y16717D01*
X76629Y16911D01*
X76657Y17120D01*
X76629Y17329D01*
X76549Y17523D01*
X76421Y17691D01*
X76253Y17819D01*
X76059Y17899D01*
X75850Y17927D01*
D02*
G37*
G36*
X67127Y16545D02*
Y15827D01*
X67845D01*
X67832Y15923D01*
X67746Y16131D01*
X67609Y16309D01*
X67431Y16446D01*
X67223Y16532D01*
X67127Y16545D01*
D02*
G37*
G36*
X66873Y16545D02*
X66777Y16532D01*
X66569Y16446D01*
X66391Y16309D01*
X66254Y16131D01*
X66168Y15923D01*
X66155Y15827D01*
X66873D01*
Y16545D01*
D02*
G37*
G36*
X95050Y17400D02*
X93450D01*
Y15800D01*
X95050D01*
Y17400D01*
D02*
G37*
G36*
X96663Y16473D02*
X95945D01*
X95958Y16377D01*
X96044Y16169D01*
X96181Y15991D01*
X96359Y15854D01*
X96567Y15768D01*
X96663Y15755D01*
Y16473D01*
D02*
G37*
G36*
X32600Y19542D02*
X32382Y19514D01*
X32179Y19429D01*
X32004Y19296D01*
X31871Y19121D01*
X31786Y18918D01*
X31758Y18700D01*
X31786Y18482D01*
X31871Y18279D01*
X32004Y18104D01*
X32179Y17971D01*
X32382Y17886D01*
X32600Y17858D01*
X32818Y17886D01*
X33021Y17971D01*
X33196Y18104D01*
X33329Y18279D01*
X33356Y18343D01*
X37452D01*
X39713Y16082D01*
X39686Y16018D01*
X39658Y15800D01*
X39686Y15582D01*
X39771Y15379D01*
X39904Y15204D01*
X40079Y15071D01*
X40282Y14986D01*
X40500Y14958D01*
X40718Y14986D01*
X40921Y15071D01*
X41096Y15204D01*
X41229Y15379D01*
X41314Y15582D01*
X41342Y15800D01*
X41314Y16018D01*
X41229Y16221D01*
X41096Y16396D01*
X40921Y16529D01*
X40718Y16614D01*
X40500Y16642D01*
X40282Y16614D01*
X40218Y16587D01*
X37852Y18952D01*
X37737Y19030D01*
X37600Y19057D01*
X33356D01*
X33329Y19121D01*
X33196Y19296D01*
X33021Y19429D01*
X32818Y19514D01*
X32600Y19542D01*
D02*
G37*
G36*
X67845Y15573D02*
X67127D01*
Y14855D01*
X67223Y14868D01*
X67431Y14954D01*
X67609Y15091D01*
X67746Y15269D01*
X67832Y15477D01*
X67845Y15573D01*
D02*
G37*
G36*
X66873D02*
X66155D01*
X66168Y15477D01*
X66254Y15269D01*
X66391Y15091D01*
X66569Y14954D01*
X66777Y14868D01*
X66873Y14855D01*
Y15573D01*
D02*
G37*
G36*
X75850Y15387D02*
X74550D01*
X74341Y15359D01*
X74147Y15279D01*
X73979Y15151D01*
X73851Y14983D01*
X73771Y14789D01*
X73743Y14580D01*
X73771Y14371D01*
X73851Y14177D01*
X73979Y14009D01*
X74147Y13881D01*
X74341Y13801D01*
X74550Y13773D01*
X75850D01*
X76059Y13801D01*
X76253Y13881D01*
X76421Y14009D01*
X76549Y14177D01*
X76629Y14371D01*
X76657Y14580D01*
X76629Y14789D01*
X76549Y14983D01*
X76421Y15151D01*
X76253Y15279D01*
X76059Y15359D01*
X75850Y15387D01*
D02*
G37*
G36*
X94250Y14867D02*
X94041Y14839D01*
X93847Y14759D01*
X93679Y14631D01*
X93551Y14463D01*
X93471Y14269D01*
X93443Y14060D01*
X93471Y13851D01*
X93551Y13657D01*
X93679Y13489D01*
X93847Y13361D01*
X94041Y13281D01*
X94250Y13253D01*
X94459Y13281D01*
X94653Y13361D01*
X94821Y13489D01*
X94949Y13657D01*
X95029Y13851D01*
X95057Y14060D01*
X95029Y14269D01*
X94949Y14463D01*
X94821Y14631D01*
X94653Y14759D01*
X94459Y14839D01*
X94250Y14867D01*
D02*
G37*
G36*
X5327Y13936D02*
Y13067D01*
X6196D01*
X6178Y13202D01*
X6077Y13446D01*
X5916Y13656D01*
X5706Y13817D01*
X5462Y13918D01*
X5327Y13936D01*
D02*
G37*
G36*
X5073D02*
X4938Y13918D01*
X4694Y13817D01*
X4484Y13656D01*
X4323Y13446D01*
X4222Y13202D01*
X4204Y13067D01*
X5073D01*
Y13936D01*
D02*
G37*
G36*
X6196Y12813D02*
X5327D01*
Y11944D01*
X5462Y11962D01*
X5706Y12063D01*
X5916Y12224D01*
X6077Y12434D01*
X6178Y12678D01*
X6196Y12813D01*
D02*
G37*
G36*
X5073D02*
X4204D01*
X4222Y12678D01*
X4323Y12434D01*
X4484Y12224D01*
X4694Y12063D01*
X4938Y11962D01*
X5073Y11944D01*
Y12813D01*
D02*
G37*
G36*
X91050Y12847D02*
X89750D01*
X89541Y12819D01*
X89347Y12739D01*
X89179Y12611D01*
X89051Y12443D01*
X88971Y12249D01*
X88943Y12040D01*
X88971Y11831D01*
X89051Y11637D01*
X89179Y11469D01*
X89347Y11341D01*
X89541Y11261D01*
X89750Y11233D01*
X91050D01*
X91259Y11261D01*
X91453Y11341D01*
X91621Y11469D01*
X91749Y11637D01*
X91829Y11831D01*
X91857Y12040D01*
X91829Y12249D01*
X91749Y12443D01*
X91621Y12611D01*
X91453Y12739D01*
X91259Y12819D01*
X91050Y12847D01*
D02*
G37*
G36*
X75850D02*
X74550D01*
X74341Y12819D01*
X74147Y12739D01*
X73979Y12611D01*
X73851Y12443D01*
X73771Y12249D01*
X73743Y12040D01*
X73771Y11831D01*
X73851Y11637D01*
X73979Y11469D01*
X74147Y11341D01*
X74341Y11261D01*
X74550Y11233D01*
X75850D01*
X76059Y11261D01*
X76253Y11341D01*
X76421Y11469D01*
X76549Y11637D01*
X76629Y11831D01*
X76657Y12040D01*
X76629Y12249D01*
X76549Y12443D01*
X76421Y12611D01*
X76253Y12739D01*
X76059Y12819D01*
X75850Y12847D01*
D02*
G37*
G36*
X94250Y12327D02*
X94041Y12299D01*
X93847Y12219D01*
X93679Y12091D01*
X93551Y11923D01*
X93471Y11729D01*
X93443Y11520D01*
X93471Y11311D01*
X93551Y11117D01*
X93679Y10949D01*
X93847Y10821D01*
X94041Y10741D01*
X94250Y10713D01*
X94459Y10741D01*
X94653Y10821D01*
X94821Y10949D01*
X94949Y11117D01*
X95029Y11311D01*
X95057Y11520D01*
X95029Y11729D01*
X94949Y11923D01*
X94821Y12091D01*
X94653Y12219D01*
X94459Y12299D01*
X94250Y12327D01*
D02*
G37*
G36*
X30000Y18142D02*
X29782Y18114D01*
X29579Y18029D01*
X29404Y17896D01*
X29271Y17721D01*
X29186Y17518D01*
X29158Y17300D01*
X29186Y17082D01*
X29271Y16879D01*
X29404Y16704D01*
X29579Y16571D01*
X29643Y16544D01*
Y11148D01*
X28453Y9958D01*
X28318Y10014D01*
X28100Y10042D01*
X27882Y10014D01*
X27679Y9929D01*
X27504Y9796D01*
X27371Y9621D01*
X27286Y9418D01*
X27258Y9200D01*
X27286Y8982D01*
X27371Y8779D01*
X27504Y8604D01*
X27679Y8471D01*
X27882Y8386D01*
X28100Y8358D01*
X28318Y8386D01*
X28453Y8442D01*
X29348Y7548D01*
X29463Y7470D01*
X29600Y7443D01*
X32252D01*
X33148Y6548D01*
X33263Y6470D01*
X33400Y6443D01*
X39744D01*
X39771Y6379D01*
X39904Y6204D01*
X40079Y6071D01*
X40282Y5986D01*
X40500Y5958D01*
X40718Y5986D01*
X40921Y6071D01*
X41096Y6204D01*
X41229Y6379D01*
X41314Y6582D01*
X41342Y6800D01*
X41314Y7018D01*
X41229Y7221D01*
X41096Y7396D01*
X40921Y7529D01*
X40718Y7614D01*
X40500Y7642D01*
X40282Y7614D01*
X40079Y7529D01*
X39904Y7396D01*
X39771Y7221D01*
X39744Y7157D01*
X33548D01*
X32652Y8052D01*
X32537Y8130D01*
X32400Y8157D01*
X29748D01*
X28915Y8990D01*
X28942Y9200D01*
X28915Y9410D01*
X30252Y10748D01*
X30330Y10863D01*
X30357Y11000D01*
Y16544D01*
X30421Y16571D01*
X30596Y16704D01*
X30729Y16879D01*
X30814Y17082D01*
X30842Y17300D01*
X30814Y17518D01*
X30729Y17721D01*
X30596Y17896D01*
X30421Y18029D01*
X30218Y18114D01*
X30000Y18142D01*
D02*
G37*
G36*
X67000Y11507D02*
X66791Y11479D01*
X66597Y11399D01*
X66429Y11271D01*
X66301Y11103D01*
X66221Y10909D01*
X66193Y10700D01*
X66221Y10491D01*
X66301Y10297D01*
X66429Y10129D01*
X66597Y10001D01*
X66791Y9921D01*
X67000Y9893D01*
X67209Y9921D01*
X67403Y10001D01*
X67571Y10129D01*
X67699Y10297D01*
X67779Y10491D01*
X67807Y10700D01*
X67779Y10909D01*
X67699Y11103D01*
X67571Y11271D01*
X67403Y11399D01*
X67209Y11479D01*
X67000Y11507D01*
D02*
G37*
G36*
X91904Y10354D02*
X90527D01*
Y9627D01*
X91904D01*
Y10354D01*
D02*
G37*
G36*
X90273D02*
X88896D01*
Y9627D01*
X90273D01*
Y10354D01*
D02*
G37*
G36*
X6150Y11350D02*
X4250D01*
Y9450D01*
X6150D01*
Y11350D01*
D02*
G37*
G36*
X95700Y50742D02*
X95482Y50714D01*
X95279Y50629D01*
X95104Y50496D01*
X94971Y50321D01*
X94886Y50118D01*
X94858Y49900D01*
X94886Y49682D01*
X94971Y49479D01*
X95104Y49304D01*
X95191Y49238D01*
Y47850D01*
X95054Y47746D01*
X94921Y47571D01*
X94836Y47368D01*
X94808Y47150D01*
X94836Y46932D01*
X94921Y46729D01*
X95054Y46554D01*
X95229Y46421D01*
X95432Y46336D01*
X95650Y46308D01*
X95868Y46336D01*
X96071Y46421D01*
X96246Y46554D01*
X96350Y46691D01*
X98560D01*
X99241Y46010D01*
Y10490D01*
X97952Y9201D01*
X97732Y9264D01*
X97730Y9271D01*
X98424Y9966D01*
X98524Y10114D01*
X98559Y10290D01*
Y18300D01*
X98524Y18476D01*
X98424Y18624D01*
X97924Y19124D01*
X97776Y19224D01*
X97600Y19259D01*
X93700D01*
X93524Y19224D01*
X93376Y19124D01*
X92366Y18115D01*
X92267Y17966D01*
X92232Y17791D01*
Y17061D01*
X92014Y16843D01*
X91913Y16880D01*
X91834Y16946D01*
X91857Y17120D01*
X91829Y17329D01*
X91749Y17523D01*
X91621Y17691D01*
X91453Y17819D01*
X91259Y17899D01*
X91050Y17927D01*
X89750D01*
X89541Y17899D01*
X89347Y17819D01*
X89179Y17691D01*
X89051Y17523D01*
X88971Y17329D01*
X88943Y17120D01*
X88971Y16911D01*
X89051Y16717D01*
X89179Y16549D01*
X89347Y16421D01*
X89541Y16341D01*
X89750Y16313D01*
X91050D01*
X91224Y16336D01*
X91290Y16257D01*
X91327Y16156D01*
X90558Y15387D01*
X89750D01*
X89541Y15359D01*
X89347Y15279D01*
X89179Y15151D01*
X89051Y14983D01*
X88971Y14789D01*
X88943Y14580D01*
X88971Y14371D01*
X89051Y14177D01*
X89179Y14009D01*
X89347Y13881D01*
X89541Y13801D01*
X89750Y13773D01*
X91050D01*
X91259Y13801D01*
X91453Y13881D01*
X91621Y14009D01*
X91749Y14177D01*
X91829Y14371D01*
X91857Y14580D01*
X91829Y14789D01*
X91749Y14983D01*
X91621Y15151D01*
X91620Y15152D01*
X93015Y16546D01*
X93115Y16695D01*
X93150Y16871D01*
Y17601D01*
X93890Y18341D01*
X97410D01*
X97641Y18110D01*
Y17222D01*
X97441Y17154D01*
X97399Y17209D01*
X97221Y17346D01*
X97013Y17432D01*
X96917Y17445D01*
Y16600D01*
Y15755D01*
X97013Y15768D01*
X97221Y15854D01*
X97399Y15991D01*
X97441Y16046D01*
X97641Y15978D01*
Y14593D01*
X97441Y14526D01*
X97361Y14631D01*
X97193Y14759D01*
X96999Y14839D01*
X96790Y14867D01*
X96581Y14839D01*
X96387Y14759D01*
X96219Y14631D01*
X96091Y14463D01*
X96011Y14269D01*
X95983Y14060D01*
X96011Y13851D01*
X96091Y13657D01*
X96219Y13489D01*
X96387Y13361D01*
X96581Y13281D01*
X96790Y13253D01*
X96999Y13281D01*
X97193Y13361D01*
X97361Y13489D01*
X97441Y13594D01*
X97641Y13527D01*
Y12053D01*
X97441Y11986D01*
X97361Y12091D01*
X97193Y12219D01*
X96999Y12299D01*
X96790Y12327D01*
X96581Y12299D01*
X96387Y12219D01*
X96219Y12091D01*
X96091Y11923D01*
X96011Y11729D01*
X95983Y11520D01*
X96011Y11311D01*
X96091Y11117D01*
X96219Y10949D01*
X96387Y10821D01*
X96581Y10741D01*
X96790Y10713D01*
X96999Y10741D01*
X97193Y10821D01*
X97361Y10949D01*
X97441Y11054D01*
X97641Y10987D01*
Y10480D01*
X96930Y9769D01*
X96790Y9787D01*
X96581Y9759D01*
X96387Y9679D01*
X96219Y9551D01*
X96091Y9383D01*
X96011Y9189D01*
X95983Y8980D01*
X96011Y8771D01*
X96091Y8577D01*
X96219Y8409D01*
X96387Y8281D01*
X96581Y8201D01*
X96659Y8190D01*
X96730Y7979D01*
X93440Y4689D01*
X93300Y4707D01*
X93091Y4679D01*
X92897Y4599D01*
X92729Y4471D01*
X92601Y4303D01*
X92521Y4109D01*
X92493Y3900D01*
X92521Y3691D01*
X92601Y3497D01*
X92729Y3329D01*
X92897Y3201D01*
X93091Y3121D01*
X93300Y3093D01*
X93509Y3121D01*
X93703Y3201D01*
X93871Y3329D01*
X93999Y3497D01*
X94079Y3691D01*
X94107Y3900D01*
X94089Y4040D01*
X96152Y6103D01*
X96318Y5992D01*
X96309Y5969D01*
X96182Y5441D01*
X96139Y4900D01*
X96182Y4359D01*
X96309Y3831D01*
X96517Y3329D01*
X96800Y2866D01*
X97153Y2453D01*
X97566Y2100D01*
X98029Y1817D01*
X98531Y1609D01*
X99059Y1482D01*
X99600Y1439D01*
X100141Y1482D01*
X100669Y1609D01*
X101171Y1817D01*
X101634Y2100D01*
X102047Y2453D01*
X102400Y2866D01*
X102683Y3329D01*
X102891Y3831D01*
X103018Y4359D01*
X103061Y4900D01*
X103018Y5441D01*
X102891Y5969D01*
X102683Y6471D01*
X102400Y6934D01*
X102047Y7347D01*
X101634Y7700D01*
X101171Y7983D01*
X100669Y8191D01*
X100141Y8318D01*
X99600Y8361D01*
X99059Y8318D01*
X98531Y8191D01*
X98508Y8182D01*
X98397Y8348D01*
X100024Y9976D01*
X100124Y10124D01*
X100159Y10300D01*
Y46200D01*
X100124Y46376D01*
X100024Y46524D01*
X99224Y47325D01*
X99224Y47326D01*
X99124Y47474D01*
X98976Y47574D01*
X98800Y47609D01*
X96350D01*
X96246Y47746D01*
X96109Y47850D01*
Y49166D01*
X96121Y49171D01*
X96296Y49304D01*
X96429Y49479D01*
X96514Y49682D01*
X96542Y49900D01*
X96514Y50118D01*
X96429Y50321D01*
X96296Y50496D01*
X96121Y50629D01*
X95918Y50714D01*
X95700Y50742D01*
D02*
G37*
G36*
X75850Y10307D02*
X74550D01*
X74341Y10279D01*
X74147Y10199D01*
X73979Y10071D01*
X73851Y9903D01*
X73771Y9709D01*
X73743Y9500D01*
X73771Y9291D01*
X73851Y9097D01*
X73979Y8929D01*
X74147Y8801D01*
X74341Y8721D01*
X74550Y8693D01*
X75850D01*
X76059Y8721D01*
X76253Y8801D01*
X76421Y8929D01*
X76549Y9097D01*
X76629Y9291D01*
X76657Y9500D01*
X76629Y9709D01*
X76549Y9903D01*
X76421Y10071D01*
X76253Y10199D01*
X76059Y10279D01*
X75850Y10307D01*
D02*
G37*
G36*
X91904Y9373D02*
X90527D01*
Y8646D01*
X91904D01*
Y9373D01*
D02*
G37*
G36*
X90273D02*
X88896D01*
Y8646D01*
X90273D01*
Y9373D01*
D02*
G37*
G36*
X94250Y9787D02*
X94041Y9759D01*
X93847Y9679D01*
X93679Y9551D01*
X93551Y9383D01*
X93471Y9189D01*
X93443Y8980D01*
X93471Y8771D01*
X93551Y8577D01*
X93679Y8409D01*
X93847Y8281D01*
X94041Y8201D01*
X94250Y8173D01*
X94459Y8201D01*
X94653Y8281D01*
X94821Y8409D01*
X94949Y8577D01*
X95029Y8771D01*
X95057Y8980D01*
X95029Y9189D01*
X94949Y9383D01*
X94821Y9551D01*
X94653Y9679D01*
X94459Y9759D01*
X94250Y9787D01*
D02*
G37*
G36*
X88327Y7920D02*
Y7127D01*
X89120D01*
X89105Y7243D01*
X89011Y7469D01*
X88863Y7663D01*
X88669Y7811D01*
X88443Y7905D01*
X88327Y7920D01*
D02*
G37*
G36*
X88073Y7920D02*
X87957Y7905D01*
X87731Y7811D01*
X87537Y7663D01*
X87389Y7469D01*
X87295Y7243D01*
X87280Y7127D01*
X88073D01*
Y7920D01*
D02*
G37*
G36*
X93427Y7245D02*
Y6527D01*
X94145D01*
X94132Y6623D01*
X94046Y6831D01*
X93909Y7009D01*
X93731Y7146D01*
X93523Y7232D01*
X93427Y7245D01*
D02*
G37*
G36*
X93173Y7245D02*
X93077Y7232D01*
X92869Y7146D01*
X92691Y7009D01*
X92554Y6831D01*
X92468Y6623D01*
X92455Y6527D01*
X93173D01*
Y7245D01*
D02*
G37*
G36*
X89120Y6873D02*
X88327D01*
Y6080D01*
X88443Y6095D01*
X88669Y6189D01*
X88863Y6337D01*
X89011Y6531D01*
X89105Y6757D01*
X89120Y6873D01*
D02*
G37*
G36*
X88073D02*
X87280D01*
X87295Y6757D01*
X87389Y6531D01*
X87537Y6337D01*
X87731Y6189D01*
X87957Y6095D01*
X88073Y6080D01*
Y6873D01*
D02*
G37*
G36*
X93173Y6273D02*
X92455D01*
X92468Y6177D01*
X92554Y5969D01*
X92691Y5791D01*
X92869Y5654D01*
X93077Y5568D01*
X93173Y5555D01*
Y6273D01*
D02*
G37*
G36*
X94145D02*
X93427D01*
Y5555D01*
X93523Y5568D01*
X93731Y5654D01*
X93909Y5791D01*
X94046Y5969D01*
X94132Y6177D01*
X94145Y6273D01*
D02*
G37*
G36*
X78250Y7059D02*
X70100D01*
X69924Y7024D01*
X69776Y6924D01*
X68666Y5814D01*
X68566Y5666D01*
X68531Y5490D01*
Y4988D01*
X68511Y4980D01*
X68312Y4828D01*
X68160Y4629D01*
X68064Y4398D01*
X68032Y4150D01*
X68064Y3902D01*
X68160Y3671D01*
X68312Y3472D01*
X68511Y3320D01*
X68742Y3224D01*
X68990Y3192D01*
X69238Y3224D01*
X69469Y3320D01*
X69668Y3472D01*
X69820Y3671D01*
X69916Y3902D01*
X69948Y4150D01*
X69916Y4398D01*
X69820Y4629D01*
X69668Y4828D01*
X69469Y4980D01*
X69449Y4988D01*
Y5300D01*
X70290Y6141D01*
X78060D01*
X78480Y5721D01*
X78458Y5550D01*
X78486Y5332D01*
X78571Y5129D01*
X78704Y4954D01*
X78879Y4821D01*
X79082Y4736D01*
X79300Y4708D01*
X79518Y4736D01*
X79721Y4821D01*
X79896Y4954D01*
X80029Y5129D01*
X80114Y5332D01*
X80142Y5550D01*
X80114Y5768D01*
X80029Y5971D01*
X79896Y6146D01*
X79721Y6279D01*
X79518Y6364D01*
X79300Y6392D01*
X79129Y6370D01*
X78574Y6924D01*
X78426Y7024D01*
X78250Y7059D01*
D02*
G37*
G36*
X75074Y5154D02*
X74197D01*
Y4277D01*
X75074D01*
Y5154D01*
D02*
G37*
G36*
X73943D02*
X73066D01*
Y4277D01*
X73943D01*
Y5154D01*
D02*
G37*
G36*
X71530Y5108D02*
X71282Y5076D01*
X71051Y4980D01*
X70852Y4828D01*
X70700Y4629D01*
X70604Y4398D01*
X70572Y4150D01*
X70604Y3902D01*
X70700Y3671D01*
X70852Y3472D01*
X71051Y3320D01*
X71282Y3224D01*
X71530Y3192D01*
X71778Y3224D01*
X72009Y3320D01*
X72208Y3472D01*
X72360Y3671D01*
X72456Y3902D01*
X72488Y4150D01*
X72456Y4398D01*
X72360Y4629D01*
X72208Y4828D01*
X72009Y4980D01*
X71778Y5076D01*
X71530Y5108D01*
D02*
G37*
G36*
X66450D02*
X66202Y5076D01*
X65971Y4980D01*
X65772Y4828D01*
X65620Y4629D01*
X65524Y4398D01*
X65492Y4150D01*
X65524Y3902D01*
X65620Y3671D01*
X65772Y3472D01*
X65971Y3320D01*
X66202Y3224D01*
X66450Y3192D01*
X66698Y3224D01*
X66929Y3320D01*
X67128Y3472D01*
X67280Y3671D01*
X67376Y3902D01*
X67408Y4150D01*
X67376Y4398D01*
X67280Y4629D01*
X67128Y4828D01*
X66929Y4980D01*
X66698Y5076D01*
X66450Y5108D01*
D02*
G37*
G36*
X75074Y4023D02*
X74197D01*
Y3146D01*
X75074D01*
Y4023D01*
D02*
G37*
G36*
X73943D02*
X73066D01*
Y3146D01*
X73943D01*
Y4023D01*
D02*
G37*
G36*
X6150Y8061D02*
X5609Y8018D01*
X5081Y7891D01*
X4579Y7683D01*
X4116Y7400D01*
X3703Y7047D01*
X3350Y6634D01*
X3067Y6171D01*
X2859Y5669D01*
X2732Y5141D01*
X2689Y4600D01*
X2732Y4059D01*
X2859Y3531D01*
X3067Y3029D01*
X3350Y2566D01*
X3703Y2153D01*
X4116Y1800D01*
X4579Y1517D01*
X5081Y1309D01*
X5609Y1182D01*
X6150Y1139D01*
X6691Y1182D01*
X7219Y1309D01*
X7721Y1517D01*
X8184Y1800D01*
X8597Y2153D01*
X8950Y2566D01*
X9233Y3029D01*
X9441Y3531D01*
X9568Y4059D01*
X9611Y4600D01*
X9568Y5141D01*
X9441Y5669D01*
X9233Y6171D01*
X8950Y6634D01*
X8597Y7047D01*
X8184Y7400D01*
X7721Y7683D01*
X7219Y7891D01*
X6691Y8018D01*
X6150Y8061D01*
D02*
G37*
G36*
X89075Y2875D02*
X87325D01*
Y1125D01*
X89075D01*
Y2875D01*
D02*
G37*
%LPD*%
D30*
X97000Y28800D02*
D03*
X5200Y10400D02*
D03*
X97100Y32700D02*
D03*
X5800Y28888D02*
D03*
X12300Y46600D02*
D03*
D40*
X68990Y4150D02*
Y5490D01*
X70100Y6600D01*
X78250D01*
X79300Y5550D01*
X80100Y39200D02*
Y42800D01*
Y39200D02*
X81760Y37540D01*
X95650Y47150D02*
Y49850D01*
X95700Y49900D01*
X76400Y46500D02*
X80100Y42800D01*
X76400Y46500D02*
Y53400D01*
X93700Y18800D02*
X97600D01*
X98100Y18300D01*
Y10290D02*
Y18300D01*
X96790Y8980D02*
X98100Y10290D01*
X93300Y3900D02*
X99700Y10300D01*
Y46200D01*
X95650Y47150D02*
X98800D01*
Y47100D02*
Y47150D01*
Y47100D02*
X99700Y46200D01*
X92691Y16871D02*
Y17791D01*
X93700Y18800D01*
X90400Y14580D02*
X92691Y16871D01*
D43*
X37600Y18700D02*
X40500Y15800D01*
X32600Y18700D02*
X37600D01*
X32400Y7800D02*
X33400Y6800D01*
X29600Y7800D02*
X32400D01*
X28200Y9200D02*
X29600Y7800D01*
X28100Y9200D02*
X28200D01*
X33400Y6800D02*
X40500D01*
X13900Y42400D02*
X15900Y44400D01*
X13900Y37700D02*
Y42400D01*
Y37700D02*
X15000Y36600D01*
X12750Y37800D02*
Y41650D01*
X12200Y42200D02*
X12750Y41650D01*
X4250Y39650D02*
X11400D01*
X11350D02*
X11400Y39700D01*
X5128Y31428D02*
X5800D01*
X3850Y30150D02*
X5128Y31428D01*
X3850Y25950D02*
Y30150D01*
X15900Y44400D02*
Y46700D01*
X15900Y46700D01*
X12200Y46500D02*
X12300Y46600D01*
X12200Y42200D02*
Y46500D01*
X15065Y40365D02*
X22565D01*
X25058Y42857D01*
Y44557D01*
X25000Y44700D02*
X25100Y44600D01*
X28200Y9200D02*
X30000Y11000D01*
Y17300D01*
D46*
X70300Y20300D02*
D03*
Y22800D02*
D03*
X63300D02*
D03*
X65800D02*
D03*
X93300Y3900D02*
D03*
Y6400D02*
D03*
X66800Y27900D02*
D03*
Y34400D02*
D03*
X96790Y8980D02*
D03*
Y11520D02*
D03*
Y14060D02*
D03*
Y16600D02*
D03*
X94250Y8980D02*
D03*
Y11520D02*
D03*
Y14060D02*
D03*
X46550Y23499D02*
D03*
Y19999D02*
D03*
X47800Y36000D02*
D03*
X44300D02*
D03*
X67000Y10700D02*
D03*
Y15700D02*
D03*
X70200Y45500D02*
D03*
Y50500D02*
D03*
D47*
X97000Y26260D02*
D03*
Y23720D02*
D03*
Y21180D02*
D03*
X5200Y12940D02*
D03*
X71530Y4150D02*
D03*
X68990D02*
D03*
X66450D02*
D03*
X97100Y35240D02*
D03*
Y37780D02*
D03*
Y40320D02*
D03*
X5800Y31428D02*
D03*
X12300Y49140D02*
D03*
X83760Y48320D02*
D03*
X81220D02*
D03*
X78680D02*
D03*
D48*
X71800Y42010D02*
D03*
Y34390D02*
D03*
D49*
X88200Y2000D02*
D03*
D50*
X88200Y7000D02*
D03*
D51*
X99600Y4900D02*
D03*
X100400Y53500D02*
D03*
X5000Y53800D02*
D03*
X6150Y4600D02*
D03*
D52*
X75200Y42520D02*
D03*
Y39980D02*
D03*
Y37440D02*
D03*
Y34900D02*
D03*
Y32360D02*
D03*
Y29820D02*
D03*
Y27280D02*
D03*
Y24740D02*
D03*
Y22200D02*
D03*
Y19660D02*
D03*
Y17120D02*
D03*
Y14580D02*
D03*
Y12040D02*
D03*
Y9500D02*
D03*
X90400Y42520D02*
D03*
Y39980D02*
D03*
Y37440D02*
D03*
Y34900D02*
D03*
Y32360D02*
D03*
Y29820D02*
D03*
Y27280D02*
D03*
Y24740D02*
D03*
Y22200D02*
D03*
Y19660D02*
D03*
Y17120D02*
D03*
Y14580D02*
D03*
Y12040D02*
D03*
D53*
Y9500D02*
D03*
D54*
X94250Y16600D02*
D03*
D55*
X74070Y4150D02*
D03*
X86300Y48320D02*
D03*
D56*
X79300Y5550D02*
D03*
X81760Y37540D02*
D03*
X40500Y15800D02*
D03*
Y6800D02*
D03*
X28100Y9200D02*
D03*
X32600Y18700D02*
D03*
X25100Y44600D02*
D03*
X15065Y40365D02*
D03*
X12750Y37800D02*
D03*
X11400Y39700D02*
D03*
X3850Y25950D02*
D03*
X4250Y39650D02*
D03*
X15000Y36600D02*
D03*
X15900Y46700D02*
D03*
X8654Y47500D02*
D03*
X8600Y49500D02*
D03*
Y45500D02*
D03*
X95650Y47150D02*
D03*
X95700Y49900D02*
D03*
X76400Y53400D02*
D03*
X29900Y19300D02*
D03*
X30000Y17300D02*
D03*
M02*
