G04 Layer_Color=32768*
%FSLAX43Y43*%
%MOMM*%
G71*
G01*
G75*
%ADD57C,0.100*%
%ADD102C,0.050*%
D57*
X68100Y6160D02*
Y7260D01*
X70500Y6160D02*
Y7260D01*
X68100D02*
X70500D01*
X68100Y6160D02*
X70500D01*
X68825Y6710D02*
X69775D01*
X69300Y6235D02*
Y7185D01*
X54100Y8600D02*
Y9600D01*
X53600Y9100D02*
X54600D01*
X47100Y2600D02*
X61100D01*
X47100Y15600D02*
X61100D01*
Y2600D02*
Y15600D01*
X47100Y2600D02*
Y15600D01*
X15700Y24600D02*
X16700D01*
X16200Y24100D02*
Y25100D01*
X38200Y44700D02*
Y45700D01*
X37700Y45200D02*
X38700D01*
X20000Y41000D02*
X21000D01*
X20500Y40500D02*
Y41500D01*
X5125Y23000D02*
X6075D01*
X5600Y22525D02*
Y23475D01*
X5050Y21800D02*
Y24200D01*
X6150Y21800D02*
Y24200D01*
X5050Y21800D02*
X6150D01*
X5050Y24200D02*
X6150D01*
X31100Y21900D02*
Y22900D01*
X30600Y22400D02*
X31600D01*
X55200Y29400D02*
X56200D01*
X55700Y28900D02*
Y29900D01*
X77225Y3200D02*
X78175D01*
X77700Y2725D02*
Y3675D01*
X77150Y2000D02*
Y4400D01*
X78250Y2000D02*
Y4400D01*
X77150Y2000D02*
X78250D01*
X77150Y4400D02*
X78250D01*
X93225Y44300D02*
X94175D01*
X93700Y43825D02*
Y44775D01*
X94250Y43100D02*
Y45500D01*
X93150Y43100D02*
Y45500D01*
X94250D01*
X93150Y43100D02*
X94250D01*
X93525Y37780D02*
X94475D01*
X94000Y37305D02*
Y38255D01*
X93450Y36580D02*
Y38980D01*
X94550Y36580D02*
Y38980D01*
X93450Y36580D02*
X94550D01*
X93450Y38980D02*
X94550D01*
X93525Y33500D02*
X94475D01*
X94000Y33025D02*
Y33975D01*
X93450Y32300D02*
Y34700D01*
X94550Y32300D02*
Y34700D01*
X93450Y32300D02*
X94550D01*
X93450Y34700D02*
X94550D01*
X5400Y15525D02*
Y16475D01*
X4925Y16000D02*
X5875D01*
X4200Y16550D02*
X6600D01*
X4200Y15450D02*
X6600D01*
X4200D02*
Y16550D01*
X6600Y15450D02*
Y16550D01*
X26500Y40825D02*
Y41775D01*
X26025Y41300D02*
X26975D01*
X25300Y41850D02*
X27700D01*
X25300Y40750D02*
X27700D01*
X25300D02*
Y41850D01*
X27700Y40750D02*
Y41850D01*
X88825Y48300D02*
X89775D01*
X89300Y47825D02*
Y48775D01*
X89850Y47100D02*
Y49500D01*
X88750Y47100D02*
Y49500D01*
X89850D01*
X88750Y47100D02*
X89850D01*
X57600Y45600D02*
X58600D01*
X58100Y45100D02*
Y46100D01*
X64600Y38600D02*
Y52600D01*
X51600Y38600D02*
Y52600D01*
X64600D01*
X51600Y38600D02*
X64600D01*
X28425Y13600D02*
X29375D01*
X28900Y13125D02*
Y14075D01*
X28350Y12400D02*
Y14800D01*
X29450Y12400D02*
Y14800D01*
X28350Y12400D02*
X29450D01*
X28350Y14800D02*
X29450D01*
X30500Y16100D02*
X33300D01*
X30500Y12100D02*
X33300D01*
Y16100D01*
X30500Y12100D02*
Y16100D01*
X31900Y13600D02*
Y14600D01*
X31400Y14100D02*
X32400D01*
X71055Y26700D02*
X72005D01*
X71530Y26225D02*
Y27175D01*
X70980Y25500D02*
Y27900D01*
X72080Y25500D02*
Y27900D01*
X70980Y25500D02*
X72080D01*
X70980Y27900D02*
X72080D01*
X10550Y36800D02*
X11250D01*
X10550Y35000D02*
X11250D01*
Y36800D01*
X10550Y35000D02*
Y36800D01*
X10900Y35600D02*
Y36200D01*
X10600Y35900D02*
X11200D01*
X8000Y41000D02*
X9000D01*
X8500Y40500D02*
Y41500D01*
X6750Y37500D02*
Y44500D01*
X10250Y37500D02*
Y44500D01*
X6750Y37500D02*
X10250D01*
X6750Y44500D02*
X10250D01*
X17400Y1200D02*
X20200D01*
X17400Y5200D02*
X20200D01*
X17400Y1200D02*
Y5200D01*
X20200Y1200D02*
Y5200D01*
X18800Y2700D02*
Y3700D01*
X18300Y3200D02*
X19300D01*
X26450Y47800D02*
X27150D01*
X26450Y46000D02*
X27150D01*
Y47800D01*
X26450Y46000D02*
Y47800D01*
X26800Y46600D02*
Y47200D01*
X26500Y46900D02*
X27100D01*
X14900Y43700D02*
Y44650D01*
X14425Y44175D02*
X15375D01*
X13700Y44725D02*
X16100D01*
X13700Y43625D02*
X16100D01*
X13700D02*
Y44725D01*
X16100Y43625D02*
Y44725D01*
X26325Y44000D02*
X27275D01*
X26800Y43525D02*
Y44475D01*
X26250Y42800D02*
Y45200D01*
X27350Y42800D02*
Y45200D01*
X26250Y42800D02*
X27350D01*
X26250Y45200D02*
X27350D01*
X16750Y48025D02*
Y48975D01*
X16275Y48500D02*
X17225D01*
X15550Y49050D02*
X17950D01*
X15550Y47950D02*
X17950D01*
X15550D02*
Y49050D01*
X17950Y47950D02*
Y49050D01*
X22050Y49725D02*
Y50675D01*
X21575Y50200D02*
X22525D01*
X20850Y49650D02*
X23250D01*
X20850Y50750D02*
X23250D01*
Y49650D02*
Y50750D01*
X20850Y49650D02*
Y50750D01*
X10725Y14000D02*
X11675D01*
X11200Y13525D02*
Y14475D01*
X10650Y12800D02*
Y15200D01*
X11750Y12800D02*
Y15200D01*
X10650Y12800D02*
X11750D01*
X10650Y15200D02*
X11750D01*
X22000Y48025D02*
Y48975D01*
X21525Y48500D02*
X22475D01*
X20800Y49050D02*
X23200D01*
X20800Y47950D02*
X23200D01*
X20800D02*
Y49050D01*
X23200Y47950D02*
Y49050D01*
X16750Y51425D02*
Y52375D01*
X16275Y51900D02*
X17225D01*
X15550Y51350D02*
X17950D01*
X15550Y52450D02*
X17950D01*
Y51350D02*
Y52450D01*
X15550Y51350D02*
Y52450D01*
X96300Y44500D02*
X97300D01*
X96800Y44000D02*
Y45000D01*
X5600Y18500D02*
Y19500D01*
X5100Y19000D02*
X6100D01*
X92000Y48400D02*
X93000D01*
X92500Y47900D02*
Y48900D01*
X24800Y25900D02*
X25800D01*
X25300Y25400D02*
Y26400D01*
X27050Y22400D02*
Y29400D01*
X23550Y22400D02*
Y29400D01*
X27050D01*
X23550Y22400D02*
X27050D01*
X30900Y9525D02*
Y10475D01*
X30425Y10000D02*
X31375D01*
X29700Y10550D02*
X32100D01*
X29700Y9450D02*
X32100D01*
X29700D02*
Y10550D01*
X32100Y9450D02*
Y10550D01*
X16750Y49725D02*
Y50675D01*
X16275Y50200D02*
X17225D01*
X15550Y49650D02*
X17950D01*
X15550Y50750D02*
X17950D01*
Y49650D02*
Y50750D01*
X15550Y49650D02*
Y50750D01*
X14900Y14000D02*
Y15000D01*
X14400Y14500D02*
X15400D01*
X13200Y13700D02*
X16600D01*
X13200Y15300D02*
X16600D01*
Y13700D02*
Y15300D01*
X13200Y13700D02*
Y15300D01*
D102*
X21750Y16100D02*
Y33100D01*
X10650Y16100D02*
Y33100D01*
X21750D01*
X10650Y16100D02*
X21750D01*
X30350Y50675D02*
X46050D01*
X30350Y39725D02*
X46050D01*
X30350D02*
Y50675D01*
X46050Y39725D02*
Y50675D01*
X24200Y35750D02*
Y46250D01*
X16800Y35750D02*
Y46250D01*
Y35750D02*
X24200D01*
X16800Y46250D02*
X24200D01*
X29000Y20700D02*
X33200D01*
X29000Y24100D02*
X33200D01*
Y20700D02*
Y24100D01*
X29000Y20700D02*
Y24100D01*
X61175Y21550D02*
Y37250D01*
X50225Y21550D02*
Y37250D01*
X61175D01*
X50225Y21550D02*
X61175D01*
X94875Y42750D02*
Y46250D01*
X98725Y42750D02*
Y46250D01*
X94875D02*
X98725D01*
X94875Y42750D02*
X98725D01*
X3850Y17075D02*
X7350D01*
X3850Y20925D02*
X7350D01*
X3850Y17075D02*
Y20925D01*
X7350Y17075D02*
Y20925D01*
X90575Y46650D02*
Y50150D01*
X94425Y46650D02*
Y50150D01*
X90575D02*
X94425D01*
X90575Y46650D02*
X94425D01*
M02*
